<?xml version="1.0" encoding="UTF-8" standalone="no"?>
<!DOCTYPE svg PUBLIC "-//W3C//DTD SVG 1.1//EN"
 "http://www.w3.org/Graphics/SVG/1.1/DTD/svg11.dtd">
<!-- Generated by graphviz version 2.38.0 (20140413.2041)
 -->
<!-- Title: G Pages: 1 -->
<svg width="624pt" height="2946pt"
 viewBox="54.00 54.00 570.00 2892.00" xmlns="http://www.w3.org/2000/svg" xmlns:xlink="http://www.w3.org/1999/xlink">
<g id="graph0" class="graph" transform="scale(1 1) rotate(0) translate(58 2888)">
<title>G</title>
<polygon fill="white" stroke="none" points="-4,4 -4,-2834 512,-2834 512,4 -4,4"/>
<!-- n1 -->
<g id="node1" class="node"><title>n1</title>
<path fill="#b3e2cd" stroke="#b3e2cd" d="M420.833,-841C420.833,-841 375.167,-841 375.167,-841 369.833,-841 364.5,-835.667 364.5,-830.333 364.5,-830.333 364.5,-819.667 364.5,-819.667 364.5,-814.333 369.833,-809 375.167,-809 375.167,-809 420.833,-809 420.833,-809 426.167,-809 431.5,-814.333 431.5,-819.667 431.5,-819.667 431.5,-830.333 431.5,-830.333 431.5,-835.667 426.167,-841 420.833,-841"/>
<text text-anchor="middle" x="398" y="-828.2" font-family="Helvetica,sans-Serif" font-size="11.00">api</text>
<text text-anchor="middle" x="398" y="-816.2" font-family="Helvetica,sans-Serif" font-size="11.00">parse::text</text>
</g>
<!-- n2 -->
<g id="node2" class="node"><title>n2</title>
<path fill="#b3e2cd" stroke="#b3e2cd" d="M409.333,-168C409.333,-168 386.667,-168 386.667,-168 381.333,-168 376,-162.667 376,-157.333 376,-157.333 376,-146.667 376,-146.667 376,-141.333 381.333,-136 386.667,-136 386.667,-136 409.333,-136 409.333,-136 414.667,-136 420,-141.333 420,-146.667 420,-146.667 420,-157.333 420,-157.333 420,-162.667 414.667,-168 409.333,-168"/>
<text text-anchor="middle" x="398" y="-155.2" font-family="Helvetica,sans-Serif" font-size="11.00">api</text>
<text text-anchor="middle" x="398" y="-143.2" font-family="Helvetica,sans-Serif" font-size="11.00">query</text>
</g>
<!-- n3 -->
<g id="node3" class="node"><title>n3</title>
<path fill="#b3e2cd" stroke="#b3e2cd" d="M431.833,-100C431.833,-100 364.167,-100 364.167,-100 358.833,-100 353.5,-94.6667 353.5,-89.3333 353.5,-89.3333 353.5,-78.6667 353.5,-78.6667 353.5,-73.3333 358.833,-68 364.167,-68 364.167,-68 431.833,-68 431.833,-68 437.167,-68 442.5,-73.3333 442.5,-78.6667 442.5,-78.6667 442.5,-89.3333 442.5,-89.3333 442.5,-94.6667 437.167,-100 431.833,-100"/>
<text text-anchor="middle" x="398" y="-87.2" font-family="Helvetica,sans-Serif" font-size="11.00">api</text>
<text text-anchor="middle" x="398" y="-75.2" font-family="Helvetica,sans-Serif" font-size="11.00">query::allpages</text>
</g>
<!-- n4 -->
<g id="node4" class="node"><title>n4</title>
<path fill="#b3e2cd" stroke="#b3e2cd" d="M436.833,-909C436.833,-909 359.167,-909 359.167,-909 353.833,-909 348.5,-903.667 348.5,-898.333 348.5,-898.333 348.5,-887.667 348.5,-887.667 348.5,-882.333 353.833,-877 359.167,-877 359.167,-877 436.833,-877 436.833,-877 442.167,-877 447.5,-882.333 447.5,-887.667 447.5,-887.667 447.5,-898.333 447.5,-898.333 447.5,-903.667 442.167,-909 436.833,-909"/>
<text text-anchor="middle" x="398" y="-896.2" font-family="Helvetica,sans-Serif" font-size="11.00">api</text>
<text text-anchor="middle" x="398" y="-884.2" font-family="Helvetica,sans-Serif" font-size="11.00">query::categories</text>
</g>
<!-- n5 -->
<g id="node5" class="node"><title>n5</title>
<path fill="#b3e2cd" stroke="#b3e2cd" d="M435.333,-773C435.333,-773 360.667,-773 360.667,-773 355.333,-773 350,-767.667 350,-762.333 350,-762.333 350,-751.667 350,-751.667 350,-746.333 355.333,-741 360.667,-741 360.667,-741 435.333,-741 435.333,-741 440.667,-741 446,-746.333 446,-751.667 446,-751.667 446,-762.333 446,-762.333 446,-767.667 440.667,-773 435.333,-773"/>
<text text-anchor="middle" x="398" y="-760.2" font-family="Helvetica,sans-Serif" font-size="11.00">api</text>
<text text-anchor="middle" x="398" y="-748.2" font-family="Helvetica,sans-Serif" font-size="11.00">query::imageinfo</text>
</g>
<!-- n6 -->
<g id="node6" class="node"><title>n6</title>
<path fill="#b3e2cd" stroke="#b3e2cd" d="M428.833,-286C428.833,-286 367.167,-286 367.167,-286 361.833,-286 356.5,-280.667 356.5,-275.333 356.5,-275.333 356.5,-264.667 356.5,-264.667 356.5,-259.333 361.833,-254 367.167,-254 367.167,-254 428.833,-254 428.833,-254 434.167,-254 439.5,-259.333 439.5,-264.667 439.5,-264.667 439.5,-275.333 439.5,-275.333 439.5,-280.667 434.167,-286 428.833,-286"/>
<text text-anchor="middle" x="398" y="-273.2" font-family="Helvetica,sans-Serif" font-size="11.00">api</text>
<text text-anchor="middle" x="398" y="-261.2" font-family="Helvetica,sans-Serif" font-size="11.00">query::siteinfo</text>
</g>
<!-- n7 -->
<g id="node7" class="node"><title>n7</title>
<path fill="#b3e2cd" stroke="#b3e2cd" d="M425.333,-32C425.333,-32 370.667,-32 370.667,-32 365.333,-32 360,-26.6667 360,-21.3333 360,-21.3333 360,-10.6667 360,-10.6667 360,-5.33333 365.333,-0 370.667,-0 370.667,-0 425.333,-0 425.333,-0 430.667,-0 436,-5.33333 436,-10.6667 436,-10.6667 436,-21.3333 436,-21.3333 436,-26.6667 430.667,-32 425.333,-32"/>
<text text-anchor="middle" x="398" y="-19.2" font-family="Helvetica,sans-Serif" font-size="11.00">api</text>
<text text-anchor="middle" x="398" y="-7.2" font-family="Helvetica,sans-Serif" font-size="11.00">query::users</text>
</g>
<!-- n8 -->
<g id="node8" class="node"><title>n8</title>
<path fill="#b3e2cd" stroke="#b3e2cd" d="M439.333,-516C439.333,-516 356.667,-516 356.667,-516 351.333,-516 346,-510.667 346,-505.333 346,-505.333 346,-494.667 346,-494.667 346,-489.333 351.333,-484 356.667,-484 356.667,-484 439.333,-484 439.333,-484 444.667,-484 450,-489.333 450,-494.667 450,-494.667 450,-505.333 450,-505.333 450,-510.667 444.667,-516 439.333,-516"/>
<text text-anchor="middle" x="398" y="-503.2" font-family="Helvetica,sans-Serif" font-size="11.00">api</text>
<text text-anchor="middle" x="398" y="-491.2" font-family="Helvetica,sans-Serif" font-size="11.00">query::wkdomains</text>
</g>
<!-- n9 -->
<g id="node9" class="node"><title>n9</title>
<path fill="lightgrey" stroke="black" d="M102.333,-452C102.333,-452 49.6667,-452 49.6667,-452 46.3333,-452 43,-448.667 43,-445.333 43,-445.333 43,-438.667 43,-438.667 43,-435.333 46.3333,-432 49.6667,-432 49.6667,-432 102.333,-432 102.333,-432 105.667,-432 109,-435.333 109,-438.667 109,-438.667 109,-445.333 109,-445.333 109,-448.667 105.667,-452 102.333,-452"/>
<text text-anchor="middle" x="76" y="-439.2" font-family="Helvetica,sans-Serif" font-size="11.00">discussion</text>
</g>
<!-- n9&#45;&gt;n8 -->
<g id="edge16" class="edge"><title>n9&#45;&gt;n8</title>
<path fill="none" stroke="black" d="M109.148,-447.827C161.987,-457.404 268.06,-476.63 335.638,-488.878"/>
<polygon fill="black" stroke="black" points="335.265,-492.367 345.729,-490.707 336.514,-485.48 335.265,-492.367"/>
<text text-anchor="middle" x="220" y="-477.8" font-family="Helvetica,sans-Serif" font-size="9.00">0.022 reqs per sec</text>
</g>
<!-- n10 -->
<g id="node10" class="node"><title>n10</title>
<path fill="lightgrey" stroke="black" d="M125.833,-620C125.833,-620 26.1667,-620 26.1667,-620 22.8333,-620 19.5,-616.667 19.5,-613.333 19.5,-613.333 19.5,-606.667 19.5,-606.667 19.5,-603.333 22.8333,-600 26.1667,-600 26.1667,-600 125.833,-600 125.833,-600 129.167,-600 132.5,-603.333 132.5,-606.667 132.5,-606.667 132.5,-613.333 132.5,-613.333 132.5,-616.667 129.167,-620 125.833,-620"/>
<text text-anchor="middle" x="76" y="-607.2" font-family="Helvetica,sans-Serif" font-size="11.00">discussions&#45;sitemap</text>
</g>
<!-- n10&#45;&gt;n8 -->
<g id="edge7" class="edge"><title>n10&#45;&gt;n8</title>
<path fill="none" stroke="black" d="M115.432,-599.988C152.917,-589.925 211.376,-573.444 261,-556 291.68,-545.215 325.494,-531.301 351.73,-520.04"/>
<polygon fill="black" stroke="black" points="353.241,-523.201 361.034,-516.023 350.466,-516.774 353.241,-523.201"/>
<text text-anchor="middle" x="220" y="-584.8" font-family="Helvetica,sans-Serif" font-size="9.00">0.684 reqs per sec</text>
</g>
<!-- n11 -->
<g id="node11" class="node"><title>n11</title>
<path fill="lightgrey" stroke="black" d="M109.833,-722C109.833,-722 42.1667,-722 42.1667,-722 38.8333,-722 35.5,-718.667 35.5,-715.333 35.5,-715.333 35.5,-708.667 35.5,-708.667 35.5,-705.333 38.8333,-702 42.1667,-702 42.1667,-702 109.833,-702 109.833,-702 113.167,-702 116.5,-705.333 116.5,-708.667 116.5,-708.667 116.5,-715.333 116.5,-715.333 116.5,-718.667 113.167,-722 109.833,-722"/>
<text text-anchor="middle" x="76" y="-709.2" font-family="Helvetica,sans-Serif" font-size="11.00">image&#45;review</text>
</g>
<!-- n11&#45;&gt;n5 -->
<g id="edge9" class="edge"><title>n11&#45;&gt;n5</title>
<path fill="none" stroke="black" d="M116.559,-717.563C172.59,-725.442 275.394,-739.899 339.753,-748.95"/>
<polygon fill="black" stroke="black" points="339.349,-752.427 349.739,-750.354 340.324,-745.495 339.349,-752.427"/>
<text text-anchor="middle" x="220" y="-740.8" font-family="Helvetica,sans-Serif" font-size="9.00">0.123 reqs per sec</text>
</g>
<!-- n11&#45;&gt;n8 -->
<g id="edge11" class="edge"><title>n11&#45;&gt;n8</title>
<path fill="none" stroke="black" d="M94.8559,-701.99C128.14,-683.166 201.667,-640.795 261,-601 299.294,-575.316 341.692,-543.209 368.805,-522.18"/>
<polygon fill="black" stroke="black" points="370.966,-524.933 376.707,-516.029 366.666,-519.41 370.966,-524.933"/>
<text text-anchor="middle" x="220" y="-654.8" font-family="Helvetica,sans-Serif" font-size="9.00">0.057 reqs per sec</text>
</g>
<!-- n12 -->
<g id="node12" class="node"><title>n12</title>
<path fill="lightgrey" stroke="black" d="M95.3333,-1005C95.3333,-1005 56.6667,-1005 56.6667,-1005 53.3333,-1005 50,-1001.67 50,-998.333 50,-998.333 50,-991.667 50,-991.667 50,-988.333 53.3333,-985 56.6667,-985 56.6667,-985 95.3333,-985 95.3333,-985 98.6667,-985 102,-988.333 102,-991.667 102,-991.667 102,-998.333 102,-998.333 102,-1001.67 98.6667,-1005 95.3333,-1005"/>
<text text-anchor="middle" x="76" y="-992.2" font-family="Helvetica,sans-Serif" font-size="11.00">internal</text>
</g>
<!-- n21 -->
<g id="node21" class="node"><title>n21</title>
<path fill="#cbd5e8" stroke="#cbd5e8" d="M491.833,-1045C491.833,-1045 304.167,-1045 304.167,-1045 298.833,-1045 293.5,-1039.67 293.5,-1034.33 293.5,-1034.33 293.5,-1023.67 293.5,-1023.67 293.5,-1018.33 298.833,-1013 304.167,-1013 304.167,-1013 491.833,-1013 491.833,-1013 497.167,-1013 502.5,-1018.33 502.5,-1023.67 502.5,-1023.67 502.5,-1034.33 502.5,-1034.33 502.5,-1039.67 497.167,-1045 491.833,-1045"/>
<text text-anchor="middle" x="398" y="-1032.2" font-family="Helvetica,sans-Serif" font-size="11.00">nirvana</text>
<text text-anchor="middle" x="398" y="-1020.2" font-family="Helvetica,sans-Serif" font-size="11.00">EmailControllerDiscussionReply::handle</text>
</g>
<!-- n12&#45;&gt;n21 -->
<g id="edge6" class="edge"><title>n12&#45;&gt;n21</title>
<path fill="none" stroke="black" d="M102.11,-997.668C140.93,-1001.79 217.887,-1009.97 283.45,-1016.94"/>
<polygon fill="black" stroke="black" points="283.137,-1020.42 293.45,-1018 283.876,-1013.46 283.137,-1020.42"/>
<text text-anchor="middle" x="220" y="-1017.8" font-family="Helvetica,sans-Serif" font-size="9.00">0.301 reqs per sec</text>
</g>
<!-- n22 -->
<g id="node22" class="node"><title>n22</title>
<path fill="#cbd5e8" stroke="#cbd5e8" d="M494.833,-977C494.833,-977 301.167,-977 301.167,-977 295.833,-977 290.5,-971.667 290.5,-966.333 290.5,-966.333 290.5,-955.667 290.5,-955.667 290.5,-950.333 295.833,-945 301.167,-945 301.167,-945 494.833,-945 494.833,-945 500.167,-945 505.5,-950.333 505.5,-955.667 505.5,-955.667 505.5,-966.333 505.5,-966.333 505.5,-971.667 500.167,-977 494.833,-977"/>
<text text-anchor="middle" x="398" y="-964.2" font-family="Helvetica,sans-Serif" font-size="11.00">nirvana</text>
<text text-anchor="middle" x="398" y="-952.2" font-family="Helvetica,sans-Serif" font-size="11.00">EmailControllerDiscussionUpvote::handle</text>
</g>
<!-- n12&#45;&gt;n22 -->
<g id="edge19" class="edge"><title>n12&#45;&gt;n22</title>
<path fill="none" stroke="black" d="M102.11,-992.332C140.221,-988.283 215.088,-980.328 279.846,-973.448"/>
<polygon fill="black" stroke="black" points="280.572,-976.89 290.146,-972.353 279.832,-969.929 280.572,-976.89"/>
<text text-anchor="middle" x="220" y="-987.8" font-family="Helvetica,sans-Serif" font-size="9.00">0.004 reqs per sec</text>
</g>
<!-- n13 -->
<g id="node13" class="node"><title>n13</title>
<path fill="lightgrey" stroke="black" d="M101.333,-1864C101.333,-1864 50.6667,-1864 50.6667,-1864 47.3333,-1864 44,-1860.67 44,-1857.33 44,-1857.33 44,-1850.67 44,-1850.67 44,-1847.33 47.3333,-1844 50.6667,-1844 50.6667,-1844 101.333,-1844 101.333,-1844 104.667,-1844 108,-1847.33 108,-1850.67 108,-1850.67 108,-1857.33 108,-1857.33 108,-1860.67 104.667,-1864 101.333,-1864"/>
<text text-anchor="middle" x="76" y="-1851.2" font-family="Helvetica,sans-Serif" font-size="11.00">mediawiki</text>
</g>
<!-- n27 -->
<g id="node27" class="node"><title>n27</title>
<path fill="#f4cae4" stroke="#f4cae4" d="M445.333,-2099C445.333,-2099 350.667,-2099 350.667,-2099 345.333,-2099 340,-2093.67 340,-2088.33 340,-2088.33 340,-2077.67 340,-2077.67 340,-2072.33 345.333,-2067 350.667,-2067 350.667,-2067 445.333,-2067 445.333,-2067 450.667,-2067 456,-2072.33 456,-2077.67 456,-2077.67 456,-2088.33 456,-2088.33 456,-2093.67 450.667,-2099 445.333,-2099"/>
<text text-anchor="middle" x="398" y="-2086.2" font-family="Helvetica,sans-Serif" font-size="11.00">pandora</text>
<text text-anchor="middle" x="398" y="-2074.2" font-family="Helvetica,sans-Serif" font-size="11.00">article&#45;video::internal</text>
</g>
<!-- n13&#45;&gt;n27 -->
<g id="edge29" class="edge"><title>n13&#45;&gt;n27</title>
<path fill="none" stroke="black" d="M82.749,-1864.2C96.6825,-1888.23 134.413,-1949.27 179,-1988 222.648,-2025.91 283.777,-2050.77 330.201,-2065.52"/>
<polygon fill="black" stroke="black" points="329.284,-2068.9 339.872,-2068.51 331.354,-2062.21 329.284,-2068.9"/>
<text text-anchor="middle" x="220" y="-2038.8" font-family="Helvetica,sans-Serif" font-size="9.00">1.323 reqs per sec</text>
</g>
<!-- n28 -->
<g id="node28" class="node"><title>n28</title>
<path fill="#f4cae4" stroke="#f4cae4" d="M439.833,-1442C439.833,-1442 356.167,-1442 356.167,-1442 350.833,-1442 345.5,-1436.67 345.5,-1431.33 345.5,-1431.33 345.5,-1420.67 345.5,-1420.67 345.5,-1415.33 350.833,-1410 356.167,-1410 356.167,-1410 439.833,-1410 439.833,-1410 445.167,-1410 450.5,-1415.33 450.5,-1420.67 450.5,-1420.67 450.5,-1431.33 450.5,-1431.33 450.5,-1436.67 445.167,-1442 439.833,-1442"/>
<text text-anchor="middle" x="398" y="-1429.2" font-family="Helvetica,sans-Serif" font-size="11.00">pandora</text>
<text text-anchor="middle" x="398" y="-1417.2" font-family="Helvetica,sans-Serif" font-size="11.00">discussion::forums</text>
</g>
<!-- n13&#45;&gt;n28 -->
<g id="edge42" class="edge"><title>n13&#45;&gt;n28</title>
<path fill="none" stroke="black" d="M77.9538,-1843.93C82.1939,-1804.4 102.639,-1657.89 179,-1573 206.119,-1542.85 233.282,-1562.6 261,-1533 282.664,-1509.87 265.272,-1489.09 288,-1467 301.029,-1454.34 318.342,-1445.51 335.326,-1439.39"/>
<polygon fill="black" stroke="black" points="336.868,-1442.57 345.253,-1436.09 334.66,-1435.92 336.868,-1442.57"/>
<text text-anchor="middle" x="220" y="-1575.8" font-family="Helvetica,sans-Serif" font-size="9.00">0.004 reqs per sec</text>
</g>
<!-- n30 -->
<g id="node30" class="node"><title>n30</title>
<path fill="#f4cae4" stroke="#f4cae4" d="M441.333,-2031C441.333,-2031 354.667,-2031 354.667,-2031 349.333,-2031 344,-2025.67 344,-2020.33 344,-2020.33 344,-2009.67 344,-2009.67 344,-2004.33 349.333,-1999 354.667,-1999 354.667,-1999 441.333,-1999 441.333,-1999 446.667,-1999 452,-2004.33 452,-2009.67 452,-2009.67 452,-2020.33 452,-2020.33 452,-2025.67 446.667,-2031 441.333,-2031"/>
<text text-anchor="middle" x="398" y="-2018.2" font-family="Helvetica,sans-Serif" font-size="11.00">pandora</text>
<text text-anchor="middle" x="398" y="-2006.2" font-family="Helvetica,sans-Serif" font-size="11.00">discussion::redirect</text>
</g>
<!-- n13&#45;&gt;n30 -->
<g id="edge41" class="edge"><title>n13&#45;&gt;n30</title>
<path fill="none" stroke="black" d="M89.0381,-1864.03C107.604,-1879.21 144.68,-1908.45 179,-1929 225.049,-1956.58 238.031,-1961.4 288,-1981 302.684,-1986.76 318.771,-1992.22 333.969,-1997.02"/>
<polygon fill="black" stroke="black" points="333.216,-2000.45 343.804,-2000.07 335.29,-1993.76 333.216,-2000.45"/>
<text text-anchor="middle" x="220" y="-1971.8" font-family="Helvetica,sans-Serif" font-size="9.00">0.004 reqs per sec</text>
</g>
<!-- n31 -->
<g id="node31" class="node"><title>n31</title>
<path fill="#f4cae4" stroke="#f4cae4" d="M434.333,-1963C434.333,-1963 361.667,-1963 361.667,-1963 356.333,-1963 351,-1957.67 351,-1952.33 351,-1952.33 351,-1941.67 351,-1941.67 351,-1936.33 356.333,-1931 361.667,-1931 361.667,-1931 434.333,-1931 434.333,-1931 439.667,-1931 445,-1936.33 445,-1941.67 445,-1941.67 445,-1952.33 445,-1952.33 445,-1957.67 439.667,-1963 434.333,-1963"/>
<text text-anchor="middle" x="398" y="-1950.2" font-family="Helvetica,sans-Serif" font-size="11.00">pandora</text>
<text text-anchor="middle" x="398" y="-1938.2" font-family="Helvetica,sans-Serif" font-size="11.00">discussion::sites</text>
</g>
<!-- n13&#45;&gt;n31 -->
<g id="edge28" class="edge"><title>n13&#45;&gt;n31</title>
<path fill="none" stroke="black" d="M106.795,-1864.02C127.077,-1870.75 154.572,-1879.69 179,-1887 233.892,-1903.42 297.057,-1920.62 341.217,-1932.38"/>
<polygon fill="black" stroke="black" points="340.336,-1935.76 350.899,-1934.95 342.132,-1929 340.336,-1935.76"/>
<text text-anchor="middle" x="220" y="-1912.8" font-family="Helvetica,sans-Serif" font-size="9.00">0.009 reqs per sec</text>
</g>
<!-- n32 -->
<g id="node32" class="node"><title>n32</title>
<path fill="#f4cae4" stroke="#f4cae4" d="M441.333,-1366C441.333,-1366 354.667,-1366 354.667,-1366 349.333,-1366 344,-1360.67 344,-1355.33 344,-1355.33 344,-1344.67 344,-1344.67 344,-1339.33 349.333,-1334 354.667,-1334 354.667,-1334 441.333,-1334 441.333,-1334 446.667,-1334 452,-1339.33 452,-1344.67 452,-1344.67 452,-1355.33 452,-1355.33 452,-1360.67 446.667,-1366 441.333,-1366"/>
<text text-anchor="middle" x="398" y="-1353.2" font-family="Helvetica,sans-Serif" font-size="11.00">pandora</text>
<text text-anchor="middle" x="398" y="-1341.2" font-family="Helvetica,sans-Serif" font-size="11.00">discussion::threads</text>
</g>
<!-- n13&#45;&gt;n32 -->
<g id="edge32" class="edge"><title>n13&#45;&gt;n32</title>
<path fill="none" stroke="black" d="M77.5519,-1843.76C81.2235,-1779.74 104.307,-1435.2 179,-1369 220.539,-1332.18 285.673,-1331.2 333.938,-1337.14"/>
<polygon fill="black" stroke="black" points="333.587,-1340.63 343.967,-1338.51 334.529,-1333.69 333.587,-1340.63"/>
<text text-anchor="middle" x="220" y="-1371.8" font-family="Helvetica,sans-Serif" font-size="9.00">0.173 reqs per sec</text>
</g>
<!-- n33 -->
<g id="node33" class="node"><title>n33</title>
<path fill="#f4cae4" stroke="#f4cae4" d="M436.333,-1895C436.333,-1895 359.667,-1895 359.667,-1895 354.333,-1895 349,-1889.67 349,-1884.33 349,-1884.33 349,-1873.67 349,-1873.67 349,-1868.33 354.333,-1863 359.667,-1863 359.667,-1863 436.333,-1863 436.333,-1863 441.667,-1863 447,-1868.33 447,-1873.67 447,-1873.67 447,-1884.33 447,-1884.33 447,-1889.67 441.667,-1895 436.333,-1895"/>
<text text-anchor="middle" x="398" y="-1882.2" font-family="Helvetica,sans-Serif" font-size="11.00">pandora</text>
<text text-anchor="middle" x="398" y="-1870.2" font-family="Helvetica,sans-Serif" font-size="11.00">discussion::users</text>
</g>
<!-- n13&#45;&gt;n33 -->
<g id="edge33" class="edge"><title>n13&#45;&gt;n33</title>
<path fill="none" stroke="black" d="M108.266,-1856.44C161.593,-1860.61 270.931,-1869.15 338.698,-1874.45"/>
<polygon fill="black" stroke="black" points="338.551,-1877.94 348.793,-1875.23 339.096,-1870.97 338.551,-1877.94"/>
<text text-anchor="middle" x="220" y="-1870.8" font-family="Helvetica,sans-Serif" font-size="9.00">0.129 reqs per sec</text>
</g>
<!-- n34 -->
<g id="node34" class="node"><title>n34</title>
<path fill="#f4cae4" stroke="#f4cae4" d="M471.333,-1827C471.333,-1827 324.667,-1827 324.667,-1827 319.333,-1827 314,-1821.67 314,-1816.33 314,-1816.33 314,-1805.67 314,-1805.67 314,-1800.33 319.333,-1795 324.667,-1795 324.667,-1795 471.333,-1795 471.333,-1795 476.667,-1795 482,-1800.33 482,-1805.67 482,-1805.67 482,-1816.33 482,-1816.33 482,-1821.67 476.667,-1827 471.333,-1827"/>
<text text-anchor="middle" x="398" y="-1814.2" font-family="Helvetica,sans-Serif" font-size="11.00">pandora</text>
<text text-anchor="middle" x="398" y="-1802.2" font-family="Helvetica,sans-Serif" font-size="11.00">fandom&#45;search&#45;service::fandom</text>
</g>
<!-- n13&#45;&gt;n34 -->
<g id="edge38" class="edge"><title>n13&#45;&gt;n34</title>
<path fill="none" stroke="black" d="M108.266,-1849.8C153.142,-1843.77 237.681,-1832.41 303.734,-1823.53"/>
<polygon fill="black" stroke="black" points="304.308,-1826.99 313.753,-1822.19 303.376,-1820.05 304.308,-1826.99"/>
<text text-anchor="middle" x="220" y="-1843.8" font-family="Helvetica,sans-Serif" font-size="9.00">0.119 reqs per sec</text>
</g>
<!-- n35 -->
<g id="node35" class="node"><title>n35</title>
<path fill="#f4cae4" stroke="#f4cae4" d="M421.333,-1266C421.333,-1266 374.667,-1266 374.667,-1266 369.333,-1266 364,-1260.67 364,-1255.33 364,-1255.33 364,-1244.67 364,-1244.67 364,-1239.33 369.333,-1234 374.667,-1234 374.667,-1234 421.333,-1234 421.333,-1234 426.667,-1234 432,-1239.33 432,-1244.67 432,-1244.67 432,-1255.33 432,-1255.33 432,-1260.67 426.667,-1266 421.333,-1266"/>
<text text-anchor="middle" x="398" y="-1253.2" font-family="Helvetica,sans-Serif" font-size="11.00">pandora</text>
<text text-anchor="middle" x="398" y="-1241.2" font-family="Helvetica,sans-Serif" font-size="11.00">helios::info</text>
</g>
<!-- n13&#45;&gt;n35 -->
<g id="edge26" class="edge"><title>n13&#45;&gt;n35</title>
<path fill="none" stroke="black" d="M78.1822,-1843.71C86.624,-1771 138.58,-1336.36 179,-1295 224.388,-1248.55 304.125,-1243.69 353.557,-1245.84"/>
<polygon fill="black" stroke="black" points="353.446,-1249.34 363.622,-1246.39 353.829,-1242.35 353.446,-1249.34"/>
<text text-anchor="middle" x="220" y="-1297.8" font-family="Helvetica,sans-Serif" font-size="9.00">11.325 reqs per sec</text>
</g>
<!-- n36 -->
<g id="node36" class="node"><title>n36</title>
<path fill="#f4cae4" stroke="#f4cae4" d="M435.833,-1759C435.833,-1759 360.167,-1759 360.167,-1759 354.833,-1759 349.5,-1753.67 349.5,-1748.33 349.5,-1748.33 349.5,-1737.67 349.5,-1737.67 349.5,-1732.33 354.833,-1727 360.167,-1727 360.167,-1727 435.833,-1727 435.833,-1727 441.167,-1727 446.5,-1732.33 446.5,-1737.67 446.5,-1737.67 446.5,-1748.33 446.5,-1748.33 446.5,-1753.67 441.167,-1759 435.833,-1759"/>
<text text-anchor="middle" x="398" y="-1746.2" font-family="Helvetica,sans-Serif" font-size="11.00">pandora</text>
<text text-anchor="middle" x="398" y="-1734.2" font-family="Helvetica,sans-Serif" font-size="11.00">helios::password</text>
</g>
<!-- n13&#45;&gt;n36 -->
<g id="edge43" class="edge"><title>n13&#45;&gt;n36</title>
<path fill="none" stroke="black" d="M99.0395,-1843.98C119.534,-1834.84 151.025,-1821.23 179,-1811 232.827,-1791.31 295.38,-1772.17 339.639,-1759.24"/>
<polygon fill="black" stroke="black" points="340.73,-1762.57 349.356,-1756.42 338.776,-1755.85 340.73,-1762.57"/>
<text text-anchor="middle" x="220" y="-1813.8" font-family="Helvetica,sans-Serif" font-size="9.00">0.001 reqs per sec</text>
</g>
<!-- n37 -->
<g id="node37" class="node"><title>n37</title>
<path fill="#f4cae4" stroke="#f4cae4" d="M425.833,-1691C425.833,-1691 370.167,-1691 370.167,-1691 364.833,-1691 359.5,-1685.67 359.5,-1680.33 359.5,-1680.33 359.5,-1669.67 359.5,-1669.67 359.5,-1664.33 364.833,-1659 370.167,-1659 370.167,-1659 425.833,-1659 425.833,-1659 431.167,-1659 436.5,-1664.33 436.5,-1669.67 436.5,-1669.67 436.5,-1680.33 436.5,-1680.33 436.5,-1685.67 431.167,-1691 425.833,-1691"/>
<text text-anchor="middle" x="398" y="-1678.2" font-family="Helvetica,sans-Serif" font-size="11.00">pandora</text>
<text text-anchor="middle" x="398" y="-1666.2" font-family="Helvetica,sans-Serif" font-size="11.00">helios::token</text>
</g>
<!-- n13&#45;&gt;n37 -->
<g id="edge48" class="edge"><title>n13&#45;&gt;n37</title>
<path fill="none" stroke="black" d="M87.0691,-1843.9C104.67,-1826.59 142.632,-1790.71 179,-1766 224.217,-1735.27 237.48,-1729.89 288,-1709 307.733,-1700.84 330.159,-1693.53 349.518,-1687.79"/>
<polygon fill="black" stroke="black" points="350.705,-1691.09 359.331,-1684.94 348.752,-1684.37 350.705,-1691.09"/>
<text text-anchor="middle" x="220" y="-1768.8" font-family="Helvetica,sans-Serif" font-size="9.00">0.000 reqs per sec</text>
</g>
<!-- n38 -->
<g id="node38" class="node"><title>n38</title>
<path fill="#f4cae4" stroke="#f4cae4" d="M431.833,-2303C431.833,-2303 364.167,-2303 364.167,-2303 358.833,-2303 353.5,-2297.67 353.5,-2292.33 353.5,-2292.33 353.5,-2281.67 353.5,-2281.67 353.5,-2276.33 358.833,-2271 364.167,-2271 364.167,-2271 431.833,-2271 431.833,-2271 437.167,-2271 442.5,-2276.33 442.5,-2281.67 442.5,-2281.67 442.5,-2292.33 442.5,-2292.33 442.5,-2297.67 437.167,-2303 431.833,-2303"/>
<text text-anchor="middle" x="398" y="-2290.2" font-family="Helvetica,sans-Serif" font-size="11.00">pandora</text>
<text text-anchor="middle" x="398" y="-2278.2" font-family="Helvetica,sans-Serif" font-size="11.00">phalanx::match</text>
</g>
<!-- n13&#45;&gt;n38 -->
<g id="edge24" class="edge"><title>n13&#45;&gt;n38</title>
<path fill="none" stroke="black" d="M77.1131,-1864.19C78.1419,-1909.39 87.9718,-2094.19 179,-2201 220.478,-2249.67 293.197,-2270.99 343.162,-2280.21"/>
<polygon fill="black" stroke="black" points="342.695,-2283.68 353.147,-2281.94 343.894,-2276.78 342.695,-2283.68"/>
<text text-anchor="middle" x="220" y="-2256.8" font-family="Helvetica,sans-Serif" font-size="9.00">14.458 reqs per sec</text>
</g>
<!-- n39 -->
<g id="node39" class="node"><title>n39</title>
<path fill="#f4cae4" stroke="#f4cae4" d="M436.333,-1517C436.333,-1517 359.667,-1517 359.667,-1517 354.333,-1517 349,-1511.67 349,-1506.33 349,-1506.33 349,-1495.67 349,-1495.67 349,-1490.33 354.333,-1485 359.667,-1485 359.667,-1485 436.333,-1485 436.333,-1485 441.667,-1485 447,-1490.33 447,-1495.67 447,-1495.67 447,-1506.33 447,-1506.33 447,-1511.67 441.667,-1517 436.333,-1517"/>
<text text-anchor="middle" x="398" y="-1504.2" font-family="Helvetica,sans-Serif" font-size="11.00">pandora</text>
<text text-anchor="middle" x="398" y="-1492.2" font-family="Helvetica,sans-Serif" font-size="11.00">site&#45;attribute::site</text>
</g>
<!-- n13&#45;&gt;n39 -->
<g id="edge45" class="edge"><title>n13&#45;&gt;n39</title>
<path fill="none" stroke="black" d="M79.2634,-1843.88C87.2935,-1809.95 117.304,-1698.61 179,-1631 207.314,-1599.97 226.899,-1608.53 261,-1584 274.034,-1574.62 274.853,-1569.22 288,-1560 308.475,-1545.65 332.821,-1532.17 353.304,-1521.73"/>
<polygon fill="black" stroke="black" points="355.051,-1524.77 362.416,-1517.15 351.909,-1518.51 355.051,-1524.77"/>
<text text-anchor="middle" x="220" y="-1633.8" font-family="Helvetica,sans-Serif" font-size="9.00">0.001 reqs per sec</text>
</g>
<!-- n41 -->
<g id="node41" class="node"><title>n41</title>
<path fill="#f4cae4" stroke="#f4cae4" d="M467.833,-2385C467.833,-2385 328.167,-2385 328.167,-2385 322.833,-2385 317.5,-2379.67 317.5,-2374.33 317.5,-2374.33 317.5,-2363.67 317.5,-2363.67 317.5,-2358.33 322.833,-2353 328.167,-2353 328.167,-2353 467.833,-2353 467.833,-2353 473.167,-2353 478.5,-2358.33 478.5,-2363.67 478.5,-2363.67 478.5,-2374.33 478.5,-2374.33 478.5,-2379.67 473.167,-2385 467.833,-2385"/>
<text text-anchor="middle" x="398" y="-2372.2" font-family="Helvetica,sans-Serif" font-size="11.00">pandora</text>
<text text-anchor="middle" x="398" y="-2360.2" font-family="Helvetica,sans-Serif" font-size="11.00">template&#45;classification&#45;storage</text>
</g>
<!-- n13&#45;&gt;n41 -->
<g id="edge30" class="edge"><title>n13&#45;&gt;n41</title>
<path fill="none" stroke="black" d="M78.2316,-1864.05C85.4352,-1921.38 123.707,-2207 179,-2273 211.846,-2312.2 263.836,-2335.93 308.805,-2349.99"/>
<polygon fill="black" stroke="black" points="307.996,-2353.4 318.581,-2352.93 310.013,-2346.7 307.996,-2353.4"/>
<text text-anchor="middle" x="220" y="-2331.8" font-family="Helvetica,sans-Serif" font-size="9.00">4.691 reqs per sec</text>
</g>
<!-- n42 -->
<g id="node42" class="node"><title>n42</title>
<path fill="#f4cae4" stroke="#f4cae4" d="M440.833,-1610C440.833,-1610 355.167,-1610 355.167,-1610 349.833,-1610 344.5,-1604.67 344.5,-1599.33 344.5,-1599.33 344.5,-1588.67 344.5,-1588.67 344.5,-1583.33 349.833,-1578 355.167,-1578 355.167,-1578 440.833,-1578 440.833,-1578 446.167,-1578 451.5,-1583.33 451.5,-1588.67 451.5,-1588.67 451.5,-1599.33 451.5,-1599.33 451.5,-1604.67 446.167,-1610 440.833,-1610"/>
<text text-anchor="middle" x="398" y="-1597.2" font-family="Helvetica,sans-Serif" font-size="11.00">pandora</text>
<text text-anchor="middle" x="398" y="-1585.2" font-family="Helvetica,sans-Serif" font-size="11.00">user&#45;attribute::user</text>
</g>
<!-- n13&#45;&gt;n42 -->
<g id="edge27" class="edge"><title>n13&#45;&gt;n42</title>
<path fill="none" stroke="black" d="M81.6457,-1843.95C94.1542,-1817.76 130.876,-1746.38 179,-1702 224.314,-1660.21 288.814,-1630.97 335.896,-1613.55"/>
<polygon fill="black" stroke="black" points="337.158,-1616.81 345.367,-1610.12 334.773,-1610.23 337.158,-1616.81"/>
<text text-anchor="middle" x="220" y="-1704.8" font-family="Helvetica,sans-Serif" font-size="9.00">23.447 reqs per sec</text>
</g>
<!-- n43 -->
<g id="node43" class="node"><title>n43</title>
<path fill="#f4cae4" stroke="#f4cae4" d="M436.333,-2235C436.333,-2235 359.667,-2235 359.667,-2235 354.333,-2235 349,-2229.67 349,-2224.33 349,-2224.33 349,-2213.67 349,-2213.67 349,-2208.33 354.333,-2203 359.667,-2203 359.667,-2203 436.333,-2203 436.333,-2203 441.667,-2203 447,-2208.33 447,-2213.67 447,-2213.67 447,-2224.33 447,-2224.33 447,-2229.67 441.667,-2235 436.333,-2235"/>
<text text-anchor="middle" x="398" y="-2222.2" font-family="Helvetica,sans-Serif" font-size="11.00">pandora</text>
<text text-anchor="middle" x="398" y="-2210.2" font-family="Helvetica,sans-Serif" font-size="11.00">user&#45;avatar::user</text>
</g>
<!-- n13&#45;&gt;n43 -->
<g id="edge50" class="edge"><title>n13&#45;&gt;n43</title>
<path fill="none" stroke="black" d="M78.1353,-1864.03C82.9996,-1902.73 105.311,-2044.43 179,-2128 220.237,-2174.76 289.377,-2198.08 338.736,-2209.3"/>
<polygon fill="black" stroke="black" points="338.126,-2212.75 348.641,-2211.45 339.612,-2205.91 338.126,-2212.75"/>
<text text-anchor="middle" x="220" y="-2184.8" font-family="Helvetica,sans-Serif" font-size="9.00">0.001 reqs per sec</text>
</g>
<!-- n45 -->
<g id="node45" class="node"><title>n45</title>
<path fill="#f4cae4" stroke="#f4cae4" d="M433.833,-2167C433.833,-2167 362.167,-2167 362.167,-2167 356.833,-2167 351.5,-2161.67 351.5,-2156.33 351.5,-2156.33 351.5,-2145.67 351.5,-2145.67 351.5,-2140.33 356.833,-2135 362.167,-2135 362.167,-2135 433.833,-2135 433.833,-2135 439.167,-2135 444.5,-2140.33 444.5,-2145.67 444.5,-2145.67 444.5,-2156.33 444.5,-2156.33 444.5,-2161.67 439.167,-2167 433.833,-2167"/>
<text text-anchor="middle" x="398" y="-2154.2" font-family="Helvetica,sans-Serif" font-size="11.00">pandora</text>
<text text-anchor="middle" x="398" y="-2142.2" font-family="Helvetica,sans-Serif" font-size="11.00">user&#45;preference</text>
</g>
<!-- n13&#45;&gt;n45 -->
<g id="edge25" class="edge"><title>n13&#45;&gt;n45</title>
<path fill="none" stroke="black" d="M79.7981,-1864C89.0648,-1895.59 121.48,-1994.68 179,-2055 222.92,-2101.06 292.818,-2126.44 341.588,-2139.35"/>
<polygon fill="black" stroke="black" points="340.796,-2142.76 351.351,-2141.84 342.529,-2135.98 340.796,-2142.76"/>
<text text-anchor="middle" x="220" y="-2111.8" font-family="Helvetica,sans-Serif" font-size="9.00">11.238 reqs per sec</text>
</g>
<!-- n14 -->
<g id="node14" class="node"><title>n14</title>
<path fill="#fdcdac" stroke="#fdcdac" d="M422.833,-2525C422.833,-2525 373.167,-2525 373.167,-2525 367.833,-2525 362.5,-2519.67 362.5,-2514.33 362.5,-2514.33 362.5,-2503.67 362.5,-2503.67 362.5,-2498.33 367.833,-2493 373.167,-2493 373.167,-2493 422.833,-2493 422.833,-2493 428.167,-2493 433.5,-2498.33 433.5,-2503.67 433.5,-2503.67 433.5,-2514.33 433.5,-2514.33 433.5,-2519.67 428.167,-2525 422.833,-2525"/>
<text text-anchor="middle" x="398" y="-2512.2" font-family="Helvetica,sans-Serif" font-size="11.00">mediawiki</text>
<text text-anchor="middle" x="398" y="-2500.2" font-family="Helvetica,sans-Serif" font-size="11.00">Main_Page</text>
</g>
<!-- n15 -->
<g id="node15" class="node"><title>n15</title>
<path fill="#fdcdac" stroke="#fdcdac" d="M445.833,-2457C445.833,-2457 350.167,-2457 350.167,-2457 344.833,-2457 339.5,-2451.67 339.5,-2446.33 339.5,-2446.33 339.5,-2435.67 339.5,-2435.67 339.5,-2430.33 344.833,-2425 350.167,-2425 350.167,-2425 445.833,-2425 445.833,-2425 451.167,-2425 456.5,-2430.33 456.5,-2435.67 456.5,-2435.67 456.5,-2446.33 456.5,-2446.33 456.5,-2451.67 451.167,-2457 445.833,-2457"/>
<text text-anchor="middle" x="398" y="-2444.2" font-family="Helvetica,sans-Serif" font-size="11.00">mediawiki</text>
<text text-anchor="middle" x="398" y="-2432.2" font-family="Helvetica,sans-Serif" font-size="11.00">Special:HealthCheck</text>
</g>
<!-- n16 -->
<g id="node16" class="node"><title>n16</title>
<path fill="lightgrey" stroke="black" d="M97.3333,-2655C97.3333,-2655 54.6667,-2655 54.6667,-2655 51.3333,-2655 48,-2651.67 48,-2648.33 48,-2648.33 48,-2641.67 48,-2641.67 48,-2638.33 51.3333,-2635 54.6667,-2635 54.6667,-2635 97.3333,-2635 97.3333,-2635 100.667,-2635 104,-2638.33 104,-2641.67 104,-2641.67 104,-2648.33 104,-2648.33 104,-2651.67 100.667,-2655 97.3333,-2655"/>
<text text-anchor="middle" x="76" y="-2642.2" font-family="Helvetica,sans-Serif" font-size="11.00">mercury</text>
</g>
<!-- n20 -->
<g id="node20" class="node"><title>n20</title>
<path fill="#cbd5e8" stroke="#cbd5e8" d="M497.333,-2729C497.333,-2729 298.667,-2729 298.667,-2729 293.333,-2729 288,-2723.67 288,-2718.33 288,-2718.33 288,-2707.67 288,-2707.67 288,-2702.33 293.333,-2697 298.667,-2697 298.667,-2697 497.333,-2697 497.333,-2697 502.667,-2697 508,-2702.33 508,-2707.67 508,-2707.67 508,-2718.33 508,-2718.33 508,-2723.67 502.667,-2729 497.333,-2729"/>
<text text-anchor="middle" x="398" y="-2716.2" font-family="Helvetica,sans-Serif" font-size="11.00">nirvana</text>
<text text-anchor="middle" x="398" y="-2704.2" font-family="Helvetica,sans-Serif" font-size="11.00">EmailConfirmation::postEmailConfirmation</text>
</g>
<!-- n16&#45;&gt;n20 -->
<g id="edge22" class="edge"><title>n16&#45;&gt;n20</title>
<path fill="none" stroke="black" d="M104.007,-2650.74C149.318,-2660.37 242.473,-2680.16 311.642,-2694.86"/>
<polygon fill="black" stroke="black" points="311.155,-2698.34 321.664,-2696.99 312.61,-2691.49 311.155,-2698.34"/>
<text text-anchor="middle" x="220" y="-2685.8" font-family="Helvetica,sans-Serif" font-size="9.00">0.009 reqs per sec</text>
</g>
<!-- n23 -->
<g id="node23" class="node"><title>n23</title>
<path fill="#cbd5e8" stroke="#cbd5e8" d="M466.333,-2661C466.333,-2661 329.667,-2661 329.667,-2661 324.333,-2661 319,-2655.67 319,-2650.33 319,-2650.33 319,-2639.67 319,-2639.67 319,-2634.33 324.333,-2629 329.667,-2629 329.667,-2629 466.333,-2629 466.333,-2629 471.667,-2629 477,-2634.33 477,-2639.67 477,-2639.67 477,-2650.33 477,-2650.33 477,-2655.67 471.667,-2661 466.333,-2661"/>
<text text-anchor="middle" x="398" y="-2648.2" font-family="Helvetica,sans-Serif" font-size="11.00">nirvana</text>
<text text-anchor="middle" x="398" y="-2636.2" font-family="Helvetica,sans-Serif" font-size="11.00">MercuryApi::getWikiVariables</text>
</g>
<!-- n16&#45;&gt;n23 -->
<g id="edge8" class="edge"><title>n16&#45;&gt;n23</title>
<path fill="none" stroke="black" d="M104.007,-2645C148.652,-2645 239.744,-2645 308.576,-2645"/>
<polygon fill="black" stroke="black" points="308.991,-2648.5 318.991,-2645 308.991,-2641.5 308.991,-2648.5"/>
<text text-anchor="middle" x="220" y="-2647.8" font-family="Helvetica,sans-Serif" font-size="9.00">0.146 reqs per sec</text>
</g>
<!-- n46 -->
<g id="node46" class="node"><title>n46</title>
<path fill="#f4cae4" stroke="#f4cae4" d="M450.833,-2593C450.833,-2593 345.167,-2593 345.167,-2593 339.833,-2593 334.5,-2587.67 334.5,-2582.33 334.5,-2582.33 334.5,-2571.67 334.5,-2571.67 334.5,-2566.33 339.833,-2561 345.167,-2561 345.167,-2561 450.833,-2561 450.833,-2561 456.167,-2561 461.5,-2566.33 461.5,-2571.67 461.5,-2571.67 461.5,-2582.33 461.5,-2582.33 461.5,-2587.67 456.167,-2593 450.833,-2593"/>
<text text-anchor="middle" x="398" y="-2580.2" font-family="Helvetica,sans-Serif" font-size="11.00">pandora</text>
<text text-anchor="middle" x="398" y="-2568.2" font-family="Helvetica,sans-Serif" font-size="11.00">user&#45;registration::users</text>
</g>
<!-- n16&#45;&gt;n46 -->
<g id="edge47" class="edge"><title>n16&#45;&gt;n46</title>
<path fill="none" stroke="black" d="M104.007,-2639.26C152.119,-2629.04 254.171,-2607.35 324.175,-2592.48"/>
<polygon fill="black" stroke="black" points="325.207,-2595.83 334.261,-2590.33 323.752,-2588.99 325.207,-2595.83"/>
<text text-anchor="middle" x="220" y="-2625.8" font-family="Helvetica,sans-Serif" font-size="9.00">0.000 reqs per sec</text>
</g>
<!-- n17 -->
<g id="node17" class="node"><title>n17</title>
<path fill="lightgrey" stroke="black" d="M127.833,-2390C127.833,-2390 24.1667,-2390 24.1667,-2390 20.8333,-2390 17.5,-2386.67 17.5,-2383.33 17.5,-2383.33 17.5,-2376.67 17.5,-2376.67 17.5,-2373.33 20.8333,-2370 24.1667,-2370 24.1667,-2370 127.833,-2370 127.833,-2370 131.167,-2370 134.5,-2373.33 134.5,-2376.67 134.5,-2376.67 134.5,-2383.33 134.5,-2383.33 134.5,-2386.67 131.167,-2390 127.833,-2390"/>
<text text-anchor="middle" x="76" y="-2377.2" font-family="Helvetica,sans-Serif" font-size="11.00">metric&#45;feeder&#45;worker</text>
</g>
<!-- n17&#45;&gt;n41 -->
<g id="edge31" class="edge"><title>n17&#45;&gt;n41</title>
<path fill="none" stroke="black" d="M134.579,-2378.02C182.603,-2376.37 251.866,-2373.99 307.175,-2372.09"/>
<polygon fill="black" stroke="black" points="307.458,-2375.58 317.332,-2371.74 307.218,-2368.58 307.458,-2375.58"/>
<text text-anchor="middle" x="220" y="-2378.8" font-family="Helvetica,sans-Serif" font-size="9.00">1.727 reqs per sec</text>
</g>
<!-- n18 -->
<g id="node18" class="node"><title>n18</title>
<path fill="lightgrey" stroke="black" d="M104.333,-1328C104.333,-1328 47.6667,-1328 47.6667,-1328 44.3333,-1328 41,-1324.67 41,-1321.33 41,-1321.33 41,-1314.67 41,-1314.67 41,-1311.33 44.3333,-1308 47.6667,-1308 47.6667,-1308 104.333,-1308 104.333,-1308 107.667,-1308 111,-1311.33 111,-1314.67 111,-1314.67 111,-1321.33 111,-1321.33 111,-1324.67 107.667,-1328 104.333,-1328"/>
<text text-anchor="middle" x="76" y="-1315.2" font-family="Helvetica,sans-Serif" font-size="11.00">mobile&#45;wiki</text>
</g>
<!-- n18&#45;&gt;n28 -->
<g id="edge36" class="edge"><title>n18&#45;&gt;n28</title>
<path fill="none" stroke="black" d="M90.4025,-1328.21C109.192,-1342.03 144.897,-1366.49 179,-1380 229.714,-1400.08 290.704,-1412 335.262,-1418.65"/>
<polygon fill="black" stroke="black" points="334.964,-1422.14 345.362,-1420.11 335.966,-1415.22 334.964,-1422.14"/>
<text text-anchor="middle" x="220" y="-1407.8" font-family="Helvetica,sans-Serif" font-size="9.00">0.196 reqs per sec</text>
</g>
<!-- n29 -->
<g id="node29" class="node"><title>n29</title>
<path fill="#f4cae4" stroke="#f4cae4" d="M449.333,-1181C449.333,-1181 346.667,-1181 346.667,-1181 341.333,-1181 336,-1175.67 336,-1170.33 336,-1170.33 336,-1159.67 336,-1159.67 336,-1154.33 341.333,-1149 346.667,-1149 346.667,-1149 449.333,-1149 449.333,-1149 454.667,-1149 460,-1154.33 460,-1159.67 460,-1159.67 460,-1170.33 460,-1170.33 460,-1175.67 454.667,-1181 449.333,-1181"/>
<text text-anchor="middle" x="398" y="-1168.2" font-family="Helvetica,sans-Serif" font-size="11.00">pandora</text>
<text text-anchor="middle" x="398" y="-1156.2" font-family="Helvetica,sans-Serif" font-size="11.00">discussion::permalinks</text>
</g>
<!-- n18&#45;&gt;n29 -->
<g id="edge44" class="edge"><title>n18&#45;&gt;n29</title>
<path fill="none" stroke="black" d="M81.374,-1307.88C92.9867,-1282.39 127.284,-1215.58 179,-1187 223.477,-1162.42 280.901,-1157.5 325.647,-1158.42"/>
<polygon fill="black" stroke="black" points="325.757,-1161.92 335.86,-1158.73 325.973,-1154.93 325.757,-1161.92"/>
<text text-anchor="middle" x="220" y="-1189.8" font-family="Helvetica,sans-Serif" font-size="9.00">0.002 reqs per sec</text>
</g>
<!-- n18&#45;&gt;n32 -->
<g id="edge34" class="edge"><title>n18&#45;&gt;n32</title>
<path fill="none" stroke="black" d="M111.048,-1315.66C148.083,-1313.66 208.96,-1311.96 261,-1318 285.137,-1320.8 311.208,-1326.31 334.005,-1331.98"/>
<polygon fill="black" stroke="black" points="333.338,-1335.42 343.893,-1334.5 335.066,-1328.64 333.338,-1335.42"/>
<text text-anchor="middle" x="220" y="-1320.8" font-family="Helvetica,sans-Serif" font-size="9.00">0.399 reqs per sec</text>
</g>
<!-- n18&#45;&gt;n35 -->
<g id="edge40" class="edge"><title>n18&#45;&gt;n35</title>
<path fill="none" stroke="black" d="M83.0706,-1307.92C96.8617,-1286.13 132.957,-1235.07 179,-1216 236.697,-1192.1 309.324,-1212.43 354.462,-1230.35"/>
<polygon fill="black" stroke="black" points="353.357,-1233.68 363.937,-1234.24 356.014,-1227.2 353.357,-1233.68"/>
<text text-anchor="middle" x="220" y="-1218.8" font-family="Helvetica,sans-Serif" font-size="9.00">0.057 reqs per sec</text>
</g>
<!-- n18&#45;&gt;n39 -->
<g id="edge49" class="edge"><title>n18&#45;&gt;n39</title>
<path fill="none" stroke="black" d="M84.247,-1328.27C99.4814,-1349.16 136.913,-1396.9 179,-1424 228.519,-1455.89 292.892,-1476.52 338.822,-1488.32"/>
<polygon fill="black" stroke="black" points="338.07,-1491.74 348.621,-1490.77 339.772,-1484.95 338.07,-1491.74"/>
<text text-anchor="middle" x="220" y="-1465.8" font-family="Helvetica,sans-Serif" font-size="9.00">0.001 reqs per sec</text>
</g>
<!-- n18&#45;&gt;n42 -->
<g id="edge35" class="edge"><title>n18&#45;&gt;n42</title>
<path fill="none" stroke="black" d="M80.9521,-1328.21C92.2473,-1356.21 127.222,-1435.28 179,-1482 209.105,-1509.17 224.854,-1503.62 261,-1522 294.019,-1538.79 331.166,-1558.51 358.283,-1573.07"/>
<polygon fill="black" stroke="black" points="356.968,-1576.33 367.433,-1577.99 360.283,-1570.17 356.968,-1576.33"/>
<text text-anchor="middle" x="220" y="-1524.8" font-family="Helvetica,sans-Serif" font-size="9.00">0.019 reqs per sec</text>
</g>
<!-- n44 -->
<g id="node44" class="node"><title>n44</title>
<path fill="#f4cae4" stroke="#f4cae4" d="M467.833,-1113C467.833,-1113 328.167,-1113 328.167,-1113 322.833,-1113 317.5,-1107.67 317.5,-1102.33 317.5,-1102.33 317.5,-1091.67 317.5,-1091.67 317.5,-1086.33 322.833,-1081 328.167,-1081 328.167,-1081 467.833,-1081 467.833,-1081 473.167,-1081 478.5,-1086.33 478.5,-1091.67 478.5,-1091.67 478.5,-1102.33 478.5,-1102.33 478.5,-1107.67 473.167,-1113 467.833,-1113"/>
<text text-anchor="middle" x="398" y="-1100.2" font-family="Helvetica,sans-Serif" font-size="11.00">pandora</text>
<text text-anchor="middle" x="398" y="-1088.2" font-family="Helvetica,sans-Serif" font-size="11.00">user&#45;permissions::permissions</text>
</g>
<!-- n18&#45;&gt;n44 -->
<g id="edge39" class="edge"><title>n18&#45;&gt;n44</title>
<path fill="none" stroke="black" d="M79.7988,-1307.78C88.6653,-1277.43 119.146,-1187.32 179,-1144 215.949,-1117.26 265.057,-1105.18 307.308,-1099.92"/>
<polygon fill="black" stroke="black" points="307.785,-1103.39 317.328,-1098.79 306.997,-1096.44 307.785,-1103.39"/>
<text text-anchor="middle" x="220" y="-1146.8" font-family="Helvetica,sans-Serif" font-size="9.00">0.017 reqs per sec</text>
</g>
<!-- n19 -->
<g id="node19" class="node"><title>n19</title>
<path fill="lightgrey" stroke="black" d="M93.3333,-2477C93.3333,-2477 58.6667,-2477 58.6667,-2477 55.3333,-2477 52,-2473.67 52,-2470.33 52,-2470.33 52,-2463.67 52,-2463.67 52,-2460.33 55.3333,-2457 58.6667,-2457 58.6667,-2457 93.3333,-2457 93.3333,-2457 96.6667,-2457 100,-2460.33 100,-2463.67 100,-2463.67 100,-2470.33 100,-2470.33 100,-2473.67 96.6667,-2477 93.3333,-2477"/>
<text text-anchor="middle" x="76" y="-2464.2" font-family="Helvetica,sans-Serif" font-size="11.00">nagios</text>
</g>
<!-- n19&#45;&gt;n14 -->
<g id="edge3" class="edge"><title>n19&#45;&gt;n14</title>
<path fill="none" stroke="black" d="M100.014,-2470.02C152.765,-2476.94 283.175,-2494.06 352.311,-2503.13"/>
<polygon fill="black" stroke="black" points="352.085,-2506.63 362.455,-2504.47 352.996,-2499.69 352.085,-2506.63"/>
<text text-anchor="middle" x="220" y="-2492.8" font-family="Helvetica,sans-Serif" font-size="9.00">1.184 reqs per sec</text>
</g>
<!-- n19&#45;&gt;n15 -->
<g id="edge5" class="edge"><title>n19&#45;&gt;n15</title>
<path fill="none" stroke="black" d="M100.042,-2463.61C120.683,-2460.69 151.806,-2456.54 179,-2454 229.151,-2449.31 285.959,-2445.99 329.009,-2443.88"/>
<polygon fill="black" stroke="black" points="329.266,-2447.37 339.087,-2443.39 328.93,-2440.38 329.266,-2447.37"/>
<text text-anchor="middle" x="220" y="-2456.8" font-family="Helvetica,sans-Serif" font-size="9.00">1.195 reqs per sec</text>
</g>
<!-- n24 -->
<g id="node24" class="node"><title>n24</title>
<path fill="lightgrey" stroke="black" d="M123.833,-350C123.833,-350 28.1667,-350 28.1667,-350 24.8333,-350 21.5,-346.667 21.5,-343.333 21.5,-343.333 21.5,-336.667 21.5,-336.667 21.5,-333.333 24.8333,-330 28.1667,-330 28.1667,-330 123.833,-330 123.833,-330 127.167,-330 130.5,-333.333 130.5,-336.667 130.5,-336.667 130.5,-343.333 130.5,-343.333 130.5,-346.667 127.167,-350 123.833,-350"/>
<text text-anchor="middle" x="76" y="-337.2" font-family="Helvetica,sans-Serif" font-size="11.00">on&#45;site&#45;notifications</text>
</g>
<!-- n24&#45;&gt;n6 -->
<g id="edge17" class="edge"><title>n24&#45;&gt;n6</title>
<path fill="none" stroke="black" d="M95.955,-329.845C115.999,-319.584 148.831,-304.122 179,-296 234.998,-280.924 301.437,-274.585 346.127,-271.922"/>
<polygon fill="black" stroke="black" points="346.368,-275.414 356.159,-271.364 345.98,-268.425 346.368,-275.414"/>
<text text-anchor="middle" x="220" y="-298.8" font-family="Helvetica,sans-Serif" font-size="9.00">0.007 reqs per sec</text>
</g>
<!-- n24&#45;&gt;n8 -->
<g id="edge12" class="edge"><title>n24&#45;&gt;n8</title>
<path fill="none" stroke="black" d="M97.0174,-350.009C148.44,-375.72 286.002,-444.501 355.539,-479.269"/>
<polygon fill="black" stroke="black" points="354.374,-482.6 364.883,-483.942 357.504,-476.339 354.374,-482.6"/>
<text text-anchor="middle" x="220" y="-432.8" font-family="Helvetica,sans-Serif" font-size="9.00">0.006 reqs per sec</text>
</g>
<!-- n25 -->
<g id="node25" class="node"><title>n25</title>
<path fill="lightgrey" stroke="black" d="M109.333,-508C109.333,-508 42.6667,-508 42.6667,-508 39.3333,-508 36,-504.667 36,-501.333 36,-501.333 36,-494.667 36,-494.667 36,-491.333 39.3333,-488 42.6667,-488 42.6667,-488 109.333,-488 109.333,-488 112.667,-488 116,-491.333 116,-494.667 116,-494.667 116,-501.333 116,-501.333 116,-504.667 112.667,-508 109.333,-508"/>
<text text-anchor="middle" x="76" y="-495.2" font-family="Helvetica,sans-Serif" font-size="11.00">page&#45;indexer</text>
</g>
<!-- n25&#45;&gt;n8 -->
<g id="edge10" class="edge"><title>n25&#45;&gt;n8</title>
<path fill="none" stroke="black" d="M116.238,-498.245C171.051,-498.588 271.07,-499.213 335.744,-499.617"/>
<polygon fill="black" stroke="black" points="335.787,-503.117 345.808,-499.68 335.83,-496.118 335.787,-503.117"/>
<text text-anchor="middle" x="220" y="-502.8" font-family="Helvetica,sans-Serif" font-size="9.00">0.073 reqs per sec</text>
</g>
<!-- n26 -->
<g id="node26" class="node"><title>n26</title>
<path fill="lightgrey" stroke="black" d="M97.3333,-2830C97.3333,-2830 54.6667,-2830 54.6667,-2830 51.3333,-2830 48,-2826.67 48,-2823.33 48,-2823.33 48,-2816.67 48,-2816.67 48,-2813.33 51.3333,-2810 54.6667,-2810 54.6667,-2810 97.3333,-2810 97.3333,-2810 100.667,-2810 104,-2813.33 104,-2816.67 104,-2816.67 104,-2823.33 104,-2823.33 104,-2826.67 100.667,-2830 97.3333,-2830"/>
<text text-anchor="middle" x="76" y="-2817.2" font-family="Helvetica,sans-Serif" font-size="11.00">pandora</text>
</g>
<!-- n40 -->
<g id="node40" class="node"><title>n40</title>
<path fill="#f4cae4" stroke="#f4cae4" d="M442.833,-2817C442.833,-2817 353.167,-2817 353.167,-2817 347.833,-2817 342.5,-2811.67 342.5,-2806.33 342.5,-2806.33 342.5,-2795.67 342.5,-2795.67 342.5,-2790.33 347.833,-2785 353.167,-2785 353.167,-2785 442.833,-2785 442.833,-2785 448.167,-2785 453.5,-2790.33 453.5,-2795.67 453.5,-2795.67 453.5,-2806.33 453.5,-2806.33 453.5,-2811.67 448.167,-2817 442.833,-2817"/>
<text text-anchor="middle" x="398" y="-2804.2" font-family="Helvetica,sans-Serif" font-size="11.00">pandora</text>
<text text-anchor="middle" x="398" y="-2792.2" font-family="Helvetica,sans-Serif" font-size="11.00">static&#45;assets::image</text>
</g>
<!-- n26&#45;&gt;n40 -->
<g id="edge46" class="edge"><title>n26&#45;&gt;n40</title>
<path fill="none" stroke="black" d="M104.007,-2818.4C153.986,-2815.43 262.173,-2809.01 332.175,-2804.85"/>
<polygon fill="black" stroke="black" points="332.44,-2808.34 342.215,-2804.25 332.025,-2801.35 332.44,-2808.34"/>
<text text-anchor="middle" x="220" y="-2815.8" font-family="Helvetica,sans-Serif" font-size="9.00">0.000 reqs per sec</text>
</g>
<!-- n47 -->
<g id="node47" class="node"><title>n47</title>
<path fill="lightgrey" stroke="black" d="M130.833,-835C130.833,-835 21.1667,-835 21.1667,-835 17.8333,-835 14.5,-831.667 14.5,-828.333 14.5,-828.333 14.5,-821.667 14.5,-821.667 14.5,-818.333 17.8333,-815 21.1667,-815 21.1667,-815 130.833,-815 130.833,-815 134.167,-815 137.5,-818.333 137.5,-821.667 137.5,-821.667 137.5,-828.333 137.5,-828.333 137.5,-831.667 134.167,-835 130.833,-835"/>
<text text-anchor="middle" x="76" y="-822.2" font-family="Helvetica,sans-Serif" font-size="11.00">parsoid&#45;feeder&#45;worker</text>
</g>
<!-- n47&#45;&gt;n1 -->
<g id="edge2" class="edge"><title>n47&#45;&gt;n1</title>
<path fill="none" stroke="black" d="M137.566,-825C200.719,-825 298.113,-825 353.865,-825"/>
<polygon fill="black" stroke="black" points="354.105,-828.5 364.105,-825 354.105,-821.5 354.105,-828.5"/>
<text text-anchor="middle" x="220" y="-827.8" font-family="Helvetica,sans-Serif" font-size="9.00">0.049 reqs per sec</text>
</g>
<!-- n47&#45;&gt;n4 -->
<g id="edge14" class="edge"><title>n47&#45;&gt;n4</title>
<path fill="none" stroke="black" d="M124.217,-835.034C181.116,-847.125 276.733,-867.443 338.32,-880.53"/>
<polygon fill="black" stroke="black" points="337.767,-883.991 348.277,-882.646 339.222,-877.144 337.767,-883.991"/>
<text text-anchor="middle" x="220" y="-866.8" font-family="Helvetica,sans-Serif" font-size="9.00">0.041 reqs per sec</text>
</g>
<!-- n47&#45;&gt;n8 -->
<g id="edge15" class="edge"><title>n47&#45;&gt;n8</title>
<path fill="none" stroke="black" d="M86.0781,-814.858C100.257,-798.986 128.472,-767.267 152,-740 164.157,-725.911 164.433,-719.58 179,-708 211.053,-682.52 229.132,-691.712 261,-666 312.904,-624.123 358.716,-559.648 381.578,-524.652"/>
<polygon fill="black" stroke="black" points="384.67,-526.315 387.145,-516.013 378.786,-522.523 384.67,-526.315"/>
<text text-anchor="middle" x="220" y="-710.8" font-family="Helvetica,sans-Serif" font-size="9.00">0.006 reqs per sec</text>
</g>
<!-- n48 -->
<g id="node48" class="node"><title>n48</title>
<path fill="lightgrey" stroke="black" d="M145.333,-201C145.333,-201 6.66667,-201 6.66667,-201 3.33333,-201 0,-197.667 0,-194.333 0,-194.333 0,-187.667 0,-187.667 0,-184.333 3.33333,-181 6.66667,-181 6.66667,-181 145.333,-181 145.333,-181 148.667,-181 152,-184.333 152,-187.667 152,-187.667 152,-194.333 152,-194.333 152,-197.667 148.667,-201 145.333,-201"/>
<text text-anchor="middle" x="76" y="-188.2" font-family="Helvetica,sans-Serif" font-size="11.00">template&#45;type&#45;copier&#45;worker</text>
</g>
<!-- n48&#45;&gt;n2 -->
<g id="edge18" class="edge"><title>n48&#45;&gt;n2</title>
<path fill="none" stroke="black" d="M92.8063,-180.846C112.205,-169.044 146.53,-150.258 179,-143 244.261,-128.412 323.185,-138.224 365.892,-145.72"/>
<polygon fill="black" stroke="black" points="365.472,-149.202 375.939,-147.56 366.733,-142.316 365.472,-149.202"/>
<text text-anchor="middle" x="220" y="-145.8" font-family="Helvetica,sans-Serif" font-size="9.00">0.001 reqs per sec</text>
</g>
<!-- n48&#45;&gt;n3 -->
<g id="edge23" class="edge"><title>n48&#45;&gt;n3</title>
<path fill="none" stroke="black" d="M87.2625,-180.888C104.563,-164.503 141.347,-132.431 179,-117 232.069,-95.252 297.692,-87.6571 342.997,-85.098"/>
<polygon fill="black" stroke="black" points="343.386,-88.583 353.198,-84.5874 343.036,-81.5918 343.386,-88.583"/>
<text text-anchor="middle" x="220" y="-119.8" font-family="Helvetica,sans-Serif" font-size="9.00">0.002 reqs per sec</text>
</g>
<!-- n48&#45;&gt;n6 -->
<g id="edge20" class="edge"><title>n48&#45;&gt;n6</title>
<path fill="none" stroke="black" d="M117.528,-201.005C175.796,-215.39 283.178,-241.9 346.523,-257.538"/>
<polygon fill="black" stroke="black" points="345.749,-260.952 356.297,-259.951 347.427,-254.157 345.749,-260.952"/>
<text text-anchor="middle" x="220" y="-238.8" font-family="Helvetica,sans-Serif" font-size="9.00">0.005 reqs per sec</text>
</g>
<!-- n48&#45;&gt;n8 -->
<g id="edge21" class="edge"><title>n48&#45;&gt;n8</title>
<path fill="none" stroke="black" d="M84.9259,-201.139C101.412,-221.965 141.033,-270.652 179,-307 212.793,-339.352 225.658,-342.348 261,-373 301.427,-408.062 346.478,-450.923 373.243,-476.81"/>
<polygon fill="black" stroke="black" points="370.997,-479.507 380.613,-483.956 375.87,-474.482 370.997,-479.507"/>
<text text-anchor="middle" x="220" y="-375.8" font-family="Helvetica,sans-Serif" font-size="9.00">0.001 reqs per sec</text>
</g>
<!-- n49 -->
<g id="node49" class="node"><title>n49</title>
<path fill="lightgrey" stroke="black" d="M118.333,-57C118.333,-57 33.6667,-57 33.6667,-57 30.3333,-57 27,-53.6667 27,-50.3333 27,-50.3333 27,-43.6667 27,-43.6667 27,-40.3333 30.3333,-37 33.6667,-37 33.6667,-37 118.333,-37 118.333,-37 121.667,-37 125,-40.3333 125,-43.6667 125,-43.6667 125,-50.3333 125,-50.3333 125,-53.6667 121.667,-57 118.333,-57"/>
<text text-anchor="middle" x="76" y="-44.2" font-family="Helvetica,sans-Serif" font-size="11.00">user&#45;permissions</text>
</g>
<!-- n49&#45;&gt;n7 -->
<g id="edge1" class="edge"><title>n49&#45;&gt;n7</title>
<path fill="none" stroke="black" d="M125.086,-37.3409C142.06,-34.2434 161.32,-31.0802 179,-29 237.565,-22.1095 305.434,-18.7931 349.685,-17.2514"/>
<polygon fill="black" stroke="black" points="349.977,-20.7437 359.856,-16.9139 349.745,-13.7476 349.977,-20.7437"/>
<text text-anchor="middle" x="220" y="-31.8" font-family="Helvetica,sans-Serif" font-size="9.00">9.223 reqs per sec</text>
</g>
<!-- n49&#45;&gt;n8 -->
<g id="edge4" class="edge"><title>n49&#45;&gt;n8</title>
<path fill="none" stroke="black" d="M84.8326,-57.1655C100.844,-77.4662 139.187,-123.677 179,-154 211.903,-179.06 235.516,-165.424 261,-198 290.955,-236.29 270.037,-258.825 288,-304 313.863,-369.04 357.151,-439.384 380.639,-475.512"/>
<polygon fill="black" stroke="black" points="377.752,-477.491 386.162,-483.935 383.606,-473.653 377.752,-477.491"/>
<text text-anchor="middle" x="220" y="-200.8" font-family="Helvetica,sans-Serif" font-size="9.00">0.717 reqs per sec</text>
</g>
<!-- n50 -->
<g id="node50" class="node"><title>n50</title>
<path fill="lightgrey" stroke="black" d="M116.833,-564C116.833,-564 35.1667,-564 35.1667,-564 31.8333,-564 28.5,-560.667 28.5,-557.333 28.5,-557.333 28.5,-550.667 28.5,-550.667 28.5,-547.333 31.8333,-544 35.1667,-544 35.1667,-544 116.833,-544 116.833,-544 120.167,-544 123.5,-547.333 123.5,-550.667 123.5,-550.667 123.5,-557.333 123.5,-557.333 123.5,-560.667 120.167,-564 116.833,-564"/>
<text text-anchor="middle" x="76" y="-551.2" font-family="Helvetica,sans-Serif" font-size="11.00">user&#45;registration</text>
</g>
<!-- n50&#45;&gt;n8 -->
<g id="edge13" class="edge"><title>n50&#45;&gt;n8</title>
<path fill="none" stroke="black" d="M123.531,-546.148C179.605,-536.685 273.99,-520.758 335.889,-510.312"/>
<polygon fill="black" stroke="black" points="336.635,-513.736 345.913,-508.621 335.47,-506.834 336.635,-513.736"/>
<text text-anchor="middle" x="220" y="-539.8" font-family="Helvetica,sans-Serif" font-size="9.00">0.033 reqs per sec</text>
</g>
<!-- n51 -->
<g id="node51" class="node"><title>n51</title>
<path fill="lightgrey" stroke="black" d="M96.3333,-2774C96.3333,-2774 55.6667,-2774 55.6667,-2774 52.3333,-2774 49,-2770.67 49,-2767.33 49,-2767.33 49,-2760.67 49,-2760.67 49,-2757.33 52.3333,-2754 55.6667,-2754 55.6667,-2754 96.3333,-2754 96.3333,-2754 99.6667,-2754 103,-2757.33 103,-2760.67 103,-2760.67 103,-2767.33 103,-2767.33 103,-2770.67 99.6667,-2774 96.3333,-2774"/>
<text text-anchor="middle" x="76" y="-2761.2" font-family="Helvetica,sans-Serif" font-size="11.00">vignette</text>
</g>
<!-- n51&#45;&gt;n40 -->
<g id="edge37" class="edge"><title>n51&#45;&gt;n40</title>
<path fill="none" stroke="black" d="M103.187,-2767.03C152.84,-2772.77 261.992,-2785.39 332.373,-2793.53"/>
<polygon fill="black" stroke="black" points="332.128,-2797.02 342.464,-2794.69 332.932,-2790.07 332.128,-2797.02"/>
<text text-anchor="middle" x="220" y="-2786.8" font-family="Helvetica,sans-Serif" font-size="9.00">0.103 reqs per sec</text>
</g>
</g>
</svg>
