<?xml version="1.0" encoding="UTF-8" standalone="no"?>
<!DOCTYPE svg PUBLIC "-//W3C//DTD SVG 1.1//EN"
 "http://www.w3.org/Graphics/SVG/1.1/DTD/svg11.dtd">
<!-- Generated by graphviz version 2.38.0 (20140413.2041)
 -->
<!-- Title: G Pages: 1 -->
<svg width="678pt" height="3026pt"
 viewBox="54.00 54.00 624.00 2972.00" xmlns="http://www.w3.org/2000/svg" xmlns:xlink="http://www.w3.org/1999/xlink">
<g id="graph0" class="graph" transform="scale(1 1) rotate(0) translate(58 2968)">
<title>G</title>
<polygon fill="white" stroke="none" points="-4,4 -4,-2914 566,-2914 566,4 -4,4"/>
<!-- n1 -->
<g id="node1" class="node"><title>n1</title>
<path fill="lightgrey" stroke="black" d="M118.333,-1343C118.333,-1343 33.6667,-1343 33.6667,-1343 30.3333,-1343 27,-1339.67 27,-1336.33 27,-1336.33 27,-1329.67 27,-1329.67 27,-1326.33 30.3333,-1323 33.6667,-1323 33.6667,-1323 118.333,-1323 118.333,-1323 121.667,-1323 125,-1326.33 125,-1329.67 125,-1329.67 125,-1336.33 125,-1336.33 125,-1339.67 121.667,-1343 118.333,-1343"/>
<text text-anchor="middle" x="76" y="-1330.2" font-family="Helvetica,sans-Serif" font-size="11.00">apache&#45;httpclient</text>
</g>
<!-- n38 -->
<g id="node38" class="node"><title>n38</title>
<path fill="#f4cae4" stroke="#f4cae4" d="M448.333,-1315C448.333,-1315 401.667,-1315 401.667,-1315 396.333,-1315 391,-1309.67 391,-1304.33 391,-1304.33 391,-1293.67 391,-1293.67 391,-1288.33 396.333,-1283 401.667,-1283 401.667,-1283 448.333,-1283 448.333,-1283 453.667,-1283 459,-1288.33 459,-1293.67 459,-1293.67 459,-1304.33 459,-1304.33 459,-1309.67 453.667,-1315 448.333,-1315"/>
<text text-anchor="middle" x="425" y="-1302.2" font-family="Helvetica,sans-Serif" font-size="11.00">pandora</text>
<text text-anchor="middle" x="425" y="-1290.2" font-family="Helvetica,sans-Serif" font-size="11.00">helios::info</text>
</g>
<!-- n1&#45;&gt;n38 -->
<g id="edge48" class="edge"><title>n1&#45;&gt;n38</title>
<path fill="none" stroke="black" d="M125.249,-1328.27C192.987,-1321.64 315.267,-1309.65 380.401,-1303.27"/>
<polygon fill="black" stroke="black" points="381.117,-1306.72 390.728,-1302.26 380.435,-1299.75 381.117,-1306.72"/>
<text text-anchor="middle" x="220" y="-1325.8" font-family="Helvetica,sans-Serif" font-size="9.00">0.001 reqs per sec</text>
</g>
<!-- n2 -->
<g id="node2" class="node"><title>n2</title>
<path fill="#b3e2cd" stroke="#b3e2cd" d="M447.833,-2328C447.833,-2328 402.167,-2328 402.167,-2328 396.833,-2328 391.5,-2322.67 391.5,-2317.33 391.5,-2317.33 391.5,-2306.67 391.5,-2306.67 391.5,-2301.33 396.833,-2296 402.167,-2296 402.167,-2296 447.833,-2296 447.833,-2296 453.167,-2296 458.5,-2301.33 458.5,-2306.67 458.5,-2306.67 458.5,-2317.33 458.5,-2317.33 458.5,-2322.67 453.167,-2328 447.833,-2328"/>
<text text-anchor="middle" x="425" y="-2315.2" font-family="Helvetica,sans-Serif" font-size="11.00">api</text>
<text text-anchor="middle" x="425" y="-2303.2" font-family="Helvetica,sans-Serif" font-size="11.00">parse::text</text>
</g>
<!-- n3 -->
<g id="node3" class="node"><title>n3</title>
<path fill="#b3e2cd" stroke="#b3e2cd" d="M436.333,-1536C436.333,-1536 413.667,-1536 413.667,-1536 408.333,-1536 403,-1530.67 403,-1525.33 403,-1525.33 403,-1514.67 403,-1514.67 403,-1509.33 408.333,-1504 413.667,-1504 413.667,-1504 436.333,-1504 436.333,-1504 441.667,-1504 447,-1509.33 447,-1514.67 447,-1514.67 447,-1525.33 447,-1525.33 447,-1530.67 441.667,-1536 436.333,-1536"/>
<text text-anchor="middle" x="425" y="-1523.2" font-family="Helvetica,sans-Serif" font-size="11.00">api</text>
<text text-anchor="middle" x="425" y="-1511.2" font-family="Helvetica,sans-Serif" font-size="11.00">query</text>
</g>
<!-- n4 -->
<g id="node4" class="node"><title>n4</title>
<path fill="#b3e2cd" stroke="#b3e2cd" d="M458.833,-1604C458.833,-1604 391.167,-1604 391.167,-1604 385.833,-1604 380.5,-1598.67 380.5,-1593.33 380.5,-1593.33 380.5,-1582.67 380.5,-1582.67 380.5,-1577.33 385.833,-1572 391.167,-1572 391.167,-1572 458.833,-1572 458.833,-1572 464.167,-1572 469.5,-1577.33 469.5,-1582.67 469.5,-1582.67 469.5,-1593.33 469.5,-1593.33 469.5,-1598.67 464.167,-1604 458.833,-1604"/>
<text text-anchor="middle" x="425" y="-1591.2" font-family="Helvetica,sans-Serif" font-size="11.00">api</text>
<text text-anchor="middle" x="425" y="-1579.2" font-family="Helvetica,sans-Serif" font-size="11.00">query::allpages</text>
</g>
<!-- n5 -->
<g id="node5" class="node"><title>n5</title>
<path fill="#b3e2cd" stroke="#b3e2cd" d="M463.833,-2260C463.833,-2260 386.167,-2260 386.167,-2260 380.833,-2260 375.5,-2254.67 375.5,-2249.33 375.5,-2249.33 375.5,-2238.67 375.5,-2238.67 375.5,-2233.33 380.833,-2228 386.167,-2228 386.167,-2228 463.833,-2228 463.833,-2228 469.167,-2228 474.5,-2233.33 474.5,-2238.67 474.5,-2238.67 474.5,-2249.33 474.5,-2249.33 474.5,-2254.67 469.167,-2260 463.833,-2260"/>
<text text-anchor="middle" x="425" y="-2247.2" font-family="Helvetica,sans-Serif" font-size="11.00">api</text>
<text text-anchor="middle" x="425" y="-2235.2" font-family="Helvetica,sans-Serif" font-size="11.00">query::categories</text>
</g>
<!-- n6 -->
<g id="node6" class="node"><title>n6</title>
<path fill="#b3e2cd" stroke="#b3e2cd" d="M462.333,-2158C462.333,-2158 387.667,-2158 387.667,-2158 382.333,-2158 377,-2152.67 377,-2147.33 377,-2147.33 377,-2136.67 377,-2136.67 377,-2131.33 382.333,-2126 387.667,-2126 387.667,-2126 462.333,-2126 462.333,-2126 467.667,-2126 473,-2131.33 473,-2136.67 473,-2136.67 473,-2147.33 473,-2147.33 473,-2152.67 467.667,-2158 462.333,-2158"/>
<text text-anchor="middle" x="425" y="-2145.2" font-family="Helvetica,sans-Serif" font-size="11.00">api</text>
<text text-anchor="middle" x="425" y="-2133.2" font-family="Helvetica,sans-Serif" font-size="11.00">query::imageinfo</text>
</g>
<!-- n7 -->
<g id="node7" class="node"><title>n7</title>
<path fill="#b3e2cd" stroke="#b3e2cd" d="M455.833,-1735C455.833,-1735 394.167,-1735 394.167,-1735 388.833,-1735 383.5,-1729.67 383.5,-1724.33 383.5,-1724.33 383.5,-1713.67 383.5,-1713.67 383.5,-1708.33 388.833,-1703 394.167,-1703 394.167,-1703 455.833,-1703 455.833,-1703 461.167,-1703 466.5,-1708.33 466.5,-1713.67 466.5,-1713.67 466.5,-1724.33 466.5,-1724.33 466.5,-1729.67 461.167,-1735 455.833,-1735"/>
<text text-anchor="middle" x="425" y="-1722.2" font-family="Helvetica,sans-Serif" font-size="11.00">api</text>
<text text-anchor="middle" x="425" y="-1710.2" font-family="Helvetica,sans-Serif" font-size="11.00">query::siteinfo</text>
</g>
<!-- n8 -->
<g id="node8" class="node"><title>n8</title>
<path fill="#b3e2cd" stroke="#b3e2cd" d="M452.333,-1468C452.333,-1468 397.667,-1468 397.667,-1468 392.333,-1468 387,-1462.67 387,-1457.33 387,-1457.33 387,-1446.67 387,-1446.67 387,-1441.33 392.333,-1436 397.667,-1436 397.667,-1436 452.333,-1436 452.333,-1436 457.667,-1436 463,-1441.33 463,-1446.67 463,-1446.67 463,-1457.33 463,-1457.33 463,-1462.67 457.667,-1468 452.333,-1468"/>
<text text-anchor="middle" x="425" y="-1455.2" font-family="Helvetica,sans-Serif" font-size="11.00">api</text>
<text text-anchor="middle" x="425" y="-1443.2" font-family="Helvetica,sans-Serif" font-size="11.00">query::users</text>
</g>
<!-- n9 -->
<g id="node9" class="node"><title>n9</title>
<path fill="#b3e2cd" stroke="#b3e2cd" d="M466.333,-1952C466.333,-1952 383.667,-1952 383.667,-1952 378.333,-1952 373,-1946.67 373,-1941.33 373,-1941.33 373,-1930.67 373,-1930.67 373,-1925.33 378.333,-1920 383.667,-1920 383.667,-1920 466.333,-1920 466.333,-1920 471.667,-1920 477,-1925.33 477,-1930.67 477,-1930.67 477,-1941.33 477,-1941.33 477,-1946.67 471.667,-1952 466.333,-1952"/>
<text text-anchor="middle" x="425" y="-1939.2" font-family="Helvetica,sans-Serif" font-size="11.00">api</text>
<text text-anchor="middle" x="425" y="-1927.2" font-family="Helvetica,sans-Serif" font-size="11.00">query::wkdomains</text>
</g>
<!-- n10 -->
<g id="node10" class="node"><title>n10</title>
<path fill="lightgrey" stroke="black" d="M102.333,-2113C102.333,-2113 49.6667,-2113 49.6667,-2113 46.3333,-2113 43,-2109.67 43,-2106.33 43,-2106.33 43,-2099.67 43,-2099.67 43,-2096.33 46.3333,-2093 49.6667,-2093 49.6667,-2093 102.333,-2093 102.333,-2093 105.667,-2093 109,-2096.33 109,-2099.67 109,-2099.67 109,-2106.33 109,-2106.33 109,-2109.67 105.667,-2113 102.333,-2113"/>
<text text-anchor="middle" x="76" y="-2100.2" font-family="Helvetica,sans-Serif" font-size="11.00">discussion</text>
</g>
<!-- n10&#45;&gt;n9 -->
<g id="edge16" class="edge"><title>n10&#45;&gt;n9</title>
<path fill="none" stroke="black" d="M109.046,-2093.49C146.397,-2081.92 209.566,-2060.83 261,-2036 308.825,-2012.91 360.525,-1979.63 392.584,-1957.91"/>
<polygon fill="black" stroke="black" points="394.798,-1960.64 401.086,-1952.11 390.853,-1954.86 394.798,-1960.64"/>
<text text-anchor="middle" x="220" y="-2070.8" font-family="Helvetica,sans-Serif" font-size="9.00">0.016 reqs per sec</text>
</g>
<!-- n11 -->
<g id="node11" class="node"><title>n11</title>
<path fill="lightgrey" stroke="black" d="M125.833,-2001C125.833,-2001 26.1667,-2001 26.1667,-2001 22.8333,-2001 19.5,-1997.67 19.5,-1994.33 19.5,-1994.33 19.5,-1987.67 19.5,-1987.67 19.5,-1984.33 22.8333,-1981 26.1667,-1981 26.1667,-1981 125.833,-1981 125.833,-1981 129.167,-1981 132.5,-1984.33 132.5,-1987.67 132.5,-1987.67 132.5,-1994.33 132.5,-1994.33 132.5,-1997.67 129.167,-2001 125.833,-2001"/>
<text text-anchor="middle" x="76" y="-1988.2" font-family="Helvetica,sans-Serif" font-size="11.00">discussions&#45;sitemap</text>
</g>
<!-- n11&#45;&gt;n9 -->
<g id="edge2" class="edge"><title>n11&#45;&gt;n9</title>
<path fill="none" stroke="black" d="M132.752,-1982.16C195.672,-1972.19 297.712,-1956.02 362.793,-1945.7"/>
<polygon fill="black" stroke="black" points="363.581,-1949.12 372.91,-1944.1 362.485,-1942.21 363.581,-1949.12"/>
<text text-anchor="middle" x="220" y="-1976.8" font-family="Helvetica,sans-Serif" font-size="9.00">0.394 reqs per sec</text>
</g>
<!-- n12 -->
<g id="node12" class="node"><title>n12</title>
<path fill="lightgrey" stroke="black" d="M109.833,-2057C109.833,-2057 42.1667,-2057 42.1667,-2057 38.8333,-2057 35.5,-2053.67 35.5,-2050.33 35.5,-2050.33 35.5,-2043.67 35.5,-2043.67 35.5,-2040.33 38.8333,-2037 42.1667,-2037 42.1667,-2037 109.833,-2037 109.833,-2037 113.167,-2037 116.5,-2040.33 116.5,-2043.67 116.5,-2043.67 116.5,-2050.33 116.5,-2050.33 116.5,-2053.67 113.167,-2057 109.833,-2057"/>
<text text-anchor="middle" x="76" y="-2044.2" font-family="Helvetica,sans-Serif" font-size="11.00">image&#45;review</text>
</g>
<!-- n12&#45;&gt;n6 -->
<g id="edge12" class="edge"><title>n12&#45;&gt;n6</title>
<path fill="none" stroke="black" d="M113.203,-2057.02C126.027,-2061.45 140.192,-2067.41 152,-2075 166.275,-2084.18 163.897,-2094.26 179,-2102 238.149,-2132.32 314.945,-2140.62 366.661,-2142.44"/>
<polygon fill="black" stroke="black" points="366.563,-2145.93 376.657,-2142.72 366.76,-2138.94 366.563,-2145.93"/>
<text text-anchor="middle" x="220" y="-2130.8" font-family="Helvetica,sans-Serif" font-size="9.00">0.059 reqs per sec</text>
</g>
<!-- n12&#45;&gt;n9 -->
<g id="edge20" class="edge"><title>n12&#45;&gt;n9</title>
<path fill="none" stroke="black" d="M113.128,-2036.98C150.35,-2026.53 209.971,-2009.4 261,-1993 297.729,-1981.2 338.721,-1966.86 370.408,-1955.51"/>
<polygon fill="black" stroke="black" points="371.7,-1958.77 379.929,-1952.09 369.334,-1952.18 371.7,-1958.77"/>
<text text-anchor="middle" x="220" y="-2019.8" font-family="Helvetica,sans-Serif" font-size="9.00">0.021 reqs per sec</text>
</g>
<!-- n13 -->
<g id="node13" class="node"><title>n13</title>
<path fill="lightgrey" stroke="black" d="M95.3333,-2424C95.3333,-2424 56.6667,-2424 56.6667,-2424 53.3333,-2424 50,-2420.67 50,-2417.33 50,-2417.33 50,-2410.67 50,-2410.67 50,-2407.33 53.3333,-2404 56.6667,-2404 56.6667,-2404 95.3333,-2404 95.3333,-2404 98.6667,-2404 102,-2407.33 102,-2410.67 102,-2410.67 102,-2417.33 102,-2417.33 102,-2420.67 98.6667,-2424 95.3333,-2424"/>
<text text-anchor="middle" x="76" y="-2411.2" font-family="Helvetica,sans-Serif" font-size="11.00">internal</text>
</g>
<!-- n23 -->
<g id="node23" class="node"><title>n23</title>
<path fill="#cbd5e8" stroke="#cbd5e8" d="M518.833,-2464C518.833,-2464 331.167,-2464 331.167,-2464 325.833,-2464 320.5,-2458.67 320.5,-2453.33 320.5,-2453.33 320.5,-2442.67 320.5,-2442.67 320.5,-2437.33 325.833,-2432 331.167,-2432 331.167,-2432 518.833,-2432 518.833,-2432 524.167,-2432 529.5,-2437.33 529.5,-2442.67 529.5,-2442.67 529.5,-2453.33 529.5,-2453.33 529.5,-2458.67 524.167,-2464 518.833,-2464"/>
<text text-anchor="middle" x="425" y="-2451.2" font-family="Helvetica,sans-Serif" font-size="11.00">nirvana</text>
<text text-anchor="middle" x="425" y="-2439.2" font-family="Helvetica,sans-Serif" font-size="11.00">EmailControllerDiscussionReply::handle</text>
</g>
<!-- n13&#45;&gt;n23 -->
<g id="edge7" class="edge"><title>n13&#45;&gt;n23</title>
<path fill="none" stroke="black" d="M102.235,-2416.47C145.431,-2420.71 236.054,-2429.58 310.15,-2436.84"/>
<polygon fill="black" stroke="black" points="310.195,-2440.37 320.489,-2437.86 310.878,-2433.4 310.195,-2440.37"/>
<text text-anchor="middle" x="220" y="-2434.8" font-family="Helvetica,sans-Serif" font-size="9.00">0.130 reqs per sec</text>
</g>
<!-- n24 -->
<g id="node24" class="node"><title>n24</title>
<path fill="#cbd5e8" stroke="#cbd5e8" d="M521.833,-2396C521.833,-2396 328.167,-2396 328.167,-2396 322.833,-2396 317.5,-2390.67 317.5,-2385.33 317.5,-2385.33 317.5,-2374.67 317.5,-2374.67 317.5,-2369.33 322.833,-2364 328.167,-2364 328.167,-2364 521.833,-2364 521.833,-2364 527.167,-2364 532.5,-2369.33 532.5,-2374.67 532.5,-2374.67 532.5,-2385.33 532.5,-2385.33 532.5,-2390.67 527.167,-2396 521.833,-2396"/>
<text text-anchor="middle" x="425" y="-2383.2" font-family="Helvetica,sans-Serif" font-size="11.00">nirvana</text>
<text text-anchor="middle" x="425" y="-2371.2" font-family="Helvetica,sans-Serif" font-size="11.00">EmailControllerDiscussionUpvote::handle</text>
</g>
<!-- n13&#45;&gt;n24 -->
<g id="edge23" class="edge"><title>n13&#45;&gt;n24</title>
<path fill="none" stroke="black" d="M102.235,-2411.53C144.835,-2407.35 233.563,-2398.66 307.075,-2391.46"/>
<polygon fill="black" stroke="black" points="307.729,-2394.91 317.34,-2390.45 307.046,-2387.94 307.729,-2394.91"/>
<text text-anchor="middle" x="220" y="-2405.8" font-family="Helvetica,sans-Serif" font-size="9.00">0.003 reqs per sec</text>
</g>
<!-- n14 -->
<g id="node14" class="node"><title>n14</title>
<path fill="lightgrey" stroke="black" d="M101.333,-570C101.333,-570 50.6667,-570 50.6667,-570 47.3333,-570 44,-566.667 44,-563.333 44,-563.333 44,-556.667 44,-556.667 44,-553.333 47.3333,-550 50.6667,-550 50.6667,-550 101.333,-550 101.333,-550 104.667,-550 108,-553.333 108,-556.667 108,-556.667 108,-563.333 108,-563.333 108,-566.667 104.667,-570 101.333,-570"/>
<text text-anchor="middle" x="76" y="-557.2" font-family="Helvetica,sans-Serif" font-size="11.00">mediawiki</text>
</g>
<!-- n29 -->
<g id="node29" class="node"><title>n29</title>
<path fill="#f4cae4" stroke="#f4cae4" d="M472.333,-644C472.333,-644 377.667,-644 377.667,-644 372.333,-644 367,-638.667 367,-633.333 367,-633.333 367,-622.667 367,-622.667 367,-617.333 372.333,-612 377.667,-612 377.667,-612 472.333,-612 472.333,-612 477.667,-612 483,-617.333 483,-622.667 483,-622.667 483,-633.333 483,-633.333 483,-638.667 477.667,-644 472.333,-644"/>
<text text-anchor="middle" x="425" y="-631.2" font-family="Helvetica,sans-Serif" font-size="11.00">pandora</text>
<text text-anchor="middle" x="425" y="-619.2" font-family="Helvetica,sans-Serif" font-size="11.00">article&#45;video::internal</text>
</g>
<!-- n14&#45;&gt;n29 -->
<g id="edge31" class="edge"><title>n14&#45;&gt;n29</title>
<path fill="none" stroke="black" d="M108.099,-566.094C163.9,-577.029 282.178,-600.208 357.117,-614.893"/>
<polygon fill="black" stroke="black" points="356.453,-618.33 366.94,-616.818 357.799,-611.46 356.453,-618.33"/>
<text text-anchor="middle" x="220" y="-599.8" font-family="Helvetica,sans-Serif" font-size="9.00">1.289 reqs per sec</text>
</g>
<!-- n30 -->
<g id="node30" class="node"><title>n30</title>
<path fill="#f4cae4" stroke="#f4cae4" d="M466.833,-1073C466.833,-1073 383.167,-1073 383.167,-1073 377.833,-1073 372.5,-1067.67 372.5,-1062.33 372.5,-1062.33 372.5,-1051.67 372.5,-1051.67 372.5,-1046.33 377.833,-1041 383.167,-1041 383.167,-1041 466.833,-1041 466.833,-1041 472.167,-1041 477.5,-1046.33 477.5,-1051.67 477.5,-1051.67 477.5,-1062.33 477.5,-1062.33 477.5,-1067.67 472.167,-1073 466.833,-1073"/>
<text text-anchor="middle" x="425" y="-1060.2" font-family="Helvetica,sans-Serif" font-size="11.00">pandora</text>
<text text-anchor="middle" x="425" y="-1048.2" font-family="Helvetica,sans-Serif" font-size="11.00">discussion::forums</text>
</g>
<!-- n14&#45;&gt;n30 -->
<g id="edge40" class="edge"><title>n14&#45;&gt;n30</title>
<path fill="none" stroke="black" d="M77.2651,-570.05C78.9513,-616.35 91.2044,-812.109 179,-936 222.212,-996.978 305.023,-1028.73 362.331,-1044.13"/>
<polygon fill="black" stroke="black" points="361.805,-1047.61 372.363,-1046.73 363.561,-1040.84 361.805,-1047.61"/>
<text text-anchor="middle" x="220" y="-1005.8" font-family="Helvetica,sans-Serif" font-size="9.00">0.007 reqs per sec</text>
</g>
<!-- n32 -->
<g id="node32" class="node"><title>n32</title>
<path fill="#f4cae4" stroke="#f4cae4" d="M468.333,-236C468.333,-236 381.667,-236 381.667,-236 376.333,-236 371,-230.667 371,-225.333 371,-225.333 371,-214.667 371,-214.667 371,-209.333 376.333,-204 381.667,-204 381.667,-204 468.333,-204 468.333,-204 473.667,-204 479,-209.333 479,-214.667 479,-214.667 479,-225.333 479,-225.333 479,-230.667 473.667,-236 468.333,-236"/>
<text text-anchor="middle" x="425" y="-223.2" font-family="Helvetica,sans-Serif" font-size="11.00">pandora</text>
<text text-anchor="middle" x="425" y="-211.2" font-family="Helvetica,sans-Serif" font-size="11.00">discussion::redirect</text>
</g>
<!-- n14&#45;&gt;n32 -->
<g id="edge43" class="edge"><title>n14&#45;&gt;n32</title>
<path fill="none" stroke="black" d="M78.7205,-549.815C85.318,-513.528 112.07,-388.74 179,-314 225.851,-261.682 305.117,-238.287 360.77,-227.954"/>
<polygon fill="black" stroke="black" points="361.634,-231.355 370.874,-226.172 360.418,-224.462 361.634,-231.355"/>
<text text-anchor="middle" x="220" y="-316.8" font-family="Helvetica,sans-Serif" font-size="9.00">0.005 reqs per sec</text>
</g>
<!-- n33 -->
<g id="node33" class="node"><title>n33</title>
<path fill="#f4cae4" stroke="#f4cae4" d="M468.333,-993C468.333,-993 381.667,-993 381.667,-993 376.333,-993 371,-987.667 371,-982.333 371,-982.333 371,-971.667 371,-971.667 371,-966.333 376.333,-961 381.667,-961 381.667,-961 468.333,-961 468.333,-961 473.667,-961 479,-966.333 479,-971.667 479,-971.667 479,-982.333 479,-982.333 479,-987.667 473.667,-993 468.333,-993"/>
<text text-anchor="middle" x="425" y="-980.2" font-family="Helvetica,sans-Serif" font-size="11.00">pandora</text>
<text text-anchor="middle" x="425" y="-968.2" font-family="Helvetica,sans-Serif" font-size="11.00">discussion::threads</text>
</g>
<!-- n14&#45;&gt;n33 -->
<g id="edge36" class="edge"><title>n14&#45;&gt;n33</title>
<path fill="none" stroke="black" d="M78.1625,-570.002C83.1269,-608.622 105.758,-750.042 179,-834 206.189,-865.167 232.695,-847.843 261,-878 280.736,-899.026 266.203,-918.119 288,-937 308.282,-954.568 335.956,-964.428 361.047,-969.958"/>
<polygon fill="black" stroke="black" points="360.385,-973.395 370.879,-971.939 361.767,-966.533 360.385,-973.395"/>
<text text-anchor="middle" x="220" y="-880.8" font-family="Helvetica,sans-Serif" font-size="9.00">0.154 reqs per sec</text>
</g>
<!-- n34 -->
<g id="node34" class="node"><title>n34</title>
<path fill="#f4cae4" stroke="#f4cae4" d="M463.333,-168C463.333,-168 386.667,-168 386.667,-168 381.333,-168 376,-162.667 376,-157.333 376,-157.333 376,-146.667 376,-146.667 376,-141.333 381.333,-136 386.667,-136 386.667,-136 463.333,-136 463.333,-136 468.667,-136 474,-141.333 474,-146.667 474,-146.667 474,-157.333 474,-157.333 474,-162.667 468.667,-168 463.333,-168"/>
<text text-anchor="middle" x="425" y="-155.2" font-family="Helvetica,sans-Serif" font-size="11.00">pandora</text>
<text text-anchor="middle" x="425" y="-143.2" font-family="Helvetica,sans-Serif" font-size="11.00">discussion::users</text>
</g>
<!-- n14&#45;&gt;n34 -->
<g id="edge37" class="edge"><title>n14&#45;&gt;n34</title>
<path fill="none" stroke="black" d="M77.4562,-549.762C79.8895,-506.727 94.6517,-338.193 179,-240 225.853,-185.456 309.097,-164.719 365.403,-156.835"/>
<polygon fill="black" stroke="black" points="366.125,-160.271 375.589,-155.508 365.22,-153.33 366.125,-160.271"/>
<text text-anchor="middle" x="220" y="-242.8" font-family="Helvetica,sans-Serif" font-size="9.00">0.167 reqs per sec</text>
</g>
<!-- n35 -->
<g id="node35" class="node"><title>n35</title>
<path fill="#f4cae4" stroke="#f4cae4" d="M478.833,-100C478.833,-100 371.167,-100 371.167,-100 365.833,-100 360.5,-94.6667 360.5,-89.3333 360.5,-89.3333 360.5,-78.6667 360.5,-78.6667 360.5,-73.3333 365.833,-68 371.167,-68 371.167,-68 478.833,-68 478.833,-68 484.167,-68 489.5,-73.3333 489.5,-78.6667 489.5,-78.6667 489.5,-89.3333 489.5,-89.3333 489.5,-94.6667 484.167,-100 478.833,-100"/>
<text text-anchor="middle" x="425" y="-87.2" font-family="Helvetica,sans-Serif" font-size="11.00">pandora</text>
<text text-anchor="middle" x="425" y="-75.2" font-family="Helvetica,sans-Serif" font-size="11.00">external&#45;auth::facebook</text>
</g>
<!-- n14&#45;&gt;n35 -->
<g id="edge42" class="edge"><title>n14&#45;&gt;n35</title>
<path fill="none" stroke="black" d="M76.6034,-549.724C75.2636,-500.634 75.7889,-287.386 179,-166 221.328,-116.218 294.822,-96.5402 350.303,-88.825"/>
<polygon fill="black" stroke="black" points="350.971,-92.268 360.442,-87.519 350.077,-85.3254 350.971,-92.268"/>
<text text-anchor="middle" x="220" y="-168.8" font-family="Helvetica,sans-Serif" font-size="9.00">0.001 reqs per sec</text>
</g>
<!-- n36 -->
<g id="node36" class="node"><title>n36</title>
<path fill="#f4cae4" stroke="#f4cae4" d="M498.333,-32C498.333,-32 351.667,-32 351.667,-32 346.333,-32 341,-26.6667 341,-21.3333 341,-21.3333 341,-10.6667 341,-10.6667 341,-5.33333 346.333,-0 351.667,-0 351.667,-0 498.333,-0 498.333,-0 503.667,-0 509,-5.33333 509,-10.6667 509,-10.6667 509,-21.3333 509,-21.3333 509,-26.6667 503.667,-32 498.333,-32"/>
<text text-anchor="middle" x="425" y="-19.2" font-family="Helvetica,sans-Serif" font-size="11.00">pandora</text>
<text text-anchor="middle" x="425" y="-7.2" font-family="Helvetica,sans-Serif" font-size="11.00">fandom&#45;search&#45;service::fandom</text>
</g>
<!-- n14&#45;&gt;n36 -->
<g id="edge32" class="edge"><title>n14&#45;&gt;n36</title>
<path fill="none" stroke="black" d="M77.9625,-549.626C83.8948,-487.702 117.282,-167.08 179,-94 216.272,-49.8666 278.468,-30.4208 330.865,-21.9808"/>
<polygon fill="black" stroke="black" points="331.494,-25.4258 340.865,-20.4824 330.456,-18.503 331.494,-25.4258"/>
<text text-anchor="middle" x="220" y="-96.8" font-family="Helvetica,sans-Serif" font-size="9.00">0.112 reqs per sec</text>
</g>
<!-- n14&#45;&gt;n38 -->
<g id="edge28" class="edge"><title>n14&#45;&gt;n38</title>
<path fill="none" stroke="black" d="M78.24,-570.017C87.3065,-642.696 144.004,-1087.68 179,-1136 203.259,-1169.5 234.579,-1148.18 261,-1180 286.321,-1210.5 259.109,-1237.86 288,-1265 312.834,-1288.33 351.178,-1296.31 380.828,-1298.75"/>
<polygon fill="black" stroke="black" points="380.713,-1302.25 390.917,-1299.4 381.163,-1295.27 380.713,-1302.25"/>
<text text-anchor="middle" x="220" y="-1182.8" font-family="Helvetica,sans-Serif" font-size="9.00">9.871 reqs per sec</text>
</g>
<!-- n39 -->
<g id="node39" class="node"><title>n39</title>
<path fill="#f4cae4" stroke="#f4cae4" d="M462.833,-848C462.833,-848 387.167,-848 387.167,-848 381.833,-848 376.5,-842.667 376.5,-837.333 376.5,-837.333 376.5,-826.667 376.5,-826.667 376.5,-821.333 381.833,-816 387.167,-816 387.167,-816 462.833,-816 462.833,-816 468.167,-816 473.5,-821.333 473.5,-826.667 473.5,-826.667 473.5,-837.333 473.5,-837.333 473.5,-842.667 468.167,-848 462.833,-848"/>
<text text-anchor="middle" x="425" y="-835.2" font-family="Helvetica,sans-Serif" font-size="11.00">pandora</text>
<text text-anchor="middle" x="425" y="-823.2" font-family="Helvetica,sans-Serif" font-size="11.00">helios::password</text>
</g>
<!-- n14&#45;&gt;n39 -->
<g id="edge44" class="edge"><title>n14&#45;&gt;n39</title>
<path fill="none" stroke="black" d="M80.6568,-570.291C91.4247,-599.302 125.648,-682.824 179,-732 208.816,-759.482 227.768,-748.764 261,-772 274.653,-781.546 273.426,-789.929 288,-798 311.952,-811.265 341.117,-819.437 366.287,-824.431"/>
<polygon fill="black" stroke="black" points="365.968,-827.932 376.439,-826.319 367.248,-821.05 365.968,-827.932"/>
<text text-anchor="middle" x="220" y="-774.8" font-family="Helvetica,sans-Serif" font-size="9.00">0.003 reqs per sec</text>
</g>
<!-- n40 -->
<g id="node40" class="node"><title>n40</title>
<path fill="#f4cae4" stroke="#f4cae4" d="M452.833,-780C452.833,-780 397.167,-780 397.167,-780 391.833,-780 386.5,-774.667 386.5,-769.333 386.5,-769.333 386.5,-758.667 386.5,-758.667 386.5,-753.333 391.833,-748 397.167,-748 397.167,-748 452.833,-748 452.833,-748 458.167,-748 463.5,-753.333 463.5,-758.667 463.5,-758.667 463.5,-769.333 463.5,-769.333 463.5,-774.667 458.167,-780 452.833,-780"/>
<text text-anchor="middle" x="425" y="-767.2" font-family="Helvetica,sans-Serif" font-size="11.00">pandora</text>
<text text-anchor="middle" x="425" y="-755.2" font-family="Helvetica,sans-Serif" font-size="11.00">helios::token</text>
</g>
<!-- n14&#45;&gt;n40 -->
<g id="edge45" class="edge"><title>n14&#45;&gt;n40</title>
<path fill="none" stroke="black" d="M84.2369,-570.039C99.7398,-591.024 138.088,-640.212 179,-672 222.333,-705.669 236.778,-710.31 288,-730 316.604,-740.996 349.971,-749.4 376.496,-755.102"/>
<polygon fill="black" stroke="black" points="375.798,-758.532 386.303,-757.155 377.232,-751.68 375.798,-758.532"/>
<text text-anchor="middle" x="220" y="-721.8" font-family="Helvetica,sans-Serif" font-size="9.00">0.003 reqs per sec</text>
</g>
<!-- n41 -->
<g id="node41" class="node"><title>n41</title>
<path fill="#f4cae4" stroke="#f4cae4" d="M452.833,-712C452.833,-712 397.167,-712 397.167,-712 391.833,-712 386.5,-706.667 386.5,-701.333 386.5,-701.333 386.5,-690.667 386.5,-690.667 386.5,-685.333 391.833,-680 397.167,-680 397.167,-680 452.833,-680 452.833,-680 458.167,-680 463.5,-685.333 463.5,-690.667 463.5,-690.667 463.5,-701.333 463.5,-701.333 463.5,-706.667 458.167,-712 452.833,-712"/>
<text text-anchor="middle" x="425" y="-699.2" font-family="Helvetica,sans-Serif" font-size="11.00">pandora</text>
<text text-anchor="middle" x="425" y="-687.2" font-family="Helvetica,sans-Serif" font-size="11.00">helios::users</text>
</g>
<!-- n14&#45;&gt;n41 -->
<g id="edge49" class="edge"><title>n14&#45;&gt;n41</title>
<path fill="none" stroke="black" d="M94.0424,-570.061C114.069,-581.719 148.451,-601.216 179,-616 226.331,-638.905 238.123,-645.352 288,-662 316.838,-671.626 349.915,-679.953 376.227,-685.957"/>
<polygon fill="black" stroke="black" points="375.798,-689.448 386.322,-688.223 377.332,-682.618 375.798,-689.448"/>
<text text-anchor="middle" x="220" y="-655.8" font-family="Helvetica,sans-Serif" font-size="9.00">0.000 reqs per sec</text>
</g>
<!-- n42 -->
<g id="node42" class="node"><title>n42</title>
<path fill="#f4cae4" stroke="#f4cae4" d="M458.833,-576C458.833,-576 391.167,-576 391.167,-576 385.833,-576 380.5,-570.667 380.5,-565.333 380.5,-565.333 380.5,-554.667 380.5,-554.667 380.5,-549.333 385.833,-544 391.167,-544 391.167,-544 458.833,-544 458.833,-544 464.167,-544 469.5,-549.333 469.5,-554.667 469.5,-554.667 469.5,-565.333 469.5,-565.333 469.5,-570.667 464.167,-576 458.833,-576"/>
<text text-anchor="middle" x="425" y="-563.2" font-family="Helvetica,sans-Serif" font-size="11.00">pandora</text>
<text text-anchor="middle" x="425" y="-551.2" font-family="Helvetica,sans-Serif" font-size="11.00">phalanx::match</text>
</g>
<!-- n14&#45;&gt;n42 -->
<g id="edge27" class="edge"><title>n14&#45;&gt;n42</title>
<path fill="none" stroke="black" d="M108.099,-560C167.16,-560 296.213,-560 369.788,-560"/>
<polygon fill="black" stroke="black" points="370.226,-563.5 380.226,-560 370.226,-556.5 370.226,-563.5"/>
<text text-anchor="middle" x="220" y="-562.8" font-family="Helvetica,sans-Serif" font-size="9.00">13.749 reqs per sec</text>
</g>
<!-- n43 -->
<g id="node43" class="node"><title>n43</title>
<path fill="#f4cae4" stroke="#f4cae4" d="M463.333,-508C463.333,-508 386.667,-508 386.667,-508 381.333,-508 376,-502.667 376,-497.333 376,-497.333 376,-486.667 376,-486.667 376,-481.333 381.333,-476 386.667,-476 386.667,-476 463.333,-476 463.333,-476 468.667,-476 474,-481.333 474,-486.667 474,-486.667 474,-497.333 474,-497.333 474,-502.667 468.667,-508 463.333,-508"/>
<text text-anchor="middle" x="425" y="-495.2" font-family="Helvetica,sans-Serif" font-size="11.00">pandora</text>
<text text-anchor="middle" x="425" y="-483.2" font-family="Helvetica,sans-Serif" font-size="11.00">site&#45;attribute::site</text>
</g>
<!-- n14&#45;&gt;n43 -->
<g id="edge47" class="edge"><title>n14&#45;&gt;n43</title>
<path fill="none" stroke="black" d="M108.099,-553.906C166.09,-542.541 291.558,-517.954 365.734,-503.418"/>
<polygon fill="black" stroke="black" points="366.707,-506.794 375.847,-501.436 365.361,-499.925 366.707,-506.794"/>
<text text-anchor="middle" x="220" y="-542.8" font-family="Helvetica,sans-Serif" font-size="9.00">0.001 reqs per sec</text>
</g>
<!-- n45 -->
<g id="node45" class="node"><title>n45</title>
<path fill="#f4cae4" stroke="#f4cae4" d="M494.833,-440C494.833,-440 355.167,-440 355.167,-440 349.833,-440 344.5,-434.667 344.5,-429.333 344.5,-429.333 344.5,-418.667 344.5,-418.667 344.5,-413.333 349.833,-408 355.167,-408 355.167,-408 494.833,-408 494.833,-408 500.167,-408 505.5,-413.333 505.5,-418.667 505.5,-418.667 505.5,-429.333 505.5,-429.333 505.5,-434.667 500.167,-440 494.833,-440"/>
<text text-anchor="middle" x="425" y="-427.2" font-family="Helvetica,sans-Serif" font-size="11.00">pandora</text>
<text text-anchor="middle" x="425" y="-415.2" font-family="Helvetica,sans-Serif" font-size="11.00">template&#45;classification&#45;storage</text>
</g>
<!-- n14&#45;&gt;n45 -->
<g id="edge25" class="edge"><title>n14&#45;&gt;n45</title>
<path fill="none" stroke="black" d="M94.4473,-549.987C114.566,-538.584 148.759,-519.639 179,-505 226.485,-482.014 238.023,-474.898 288,-458 304.924,-452.278 323.325,-447.042 340.964,-442.483"/>
<polygon fill="black" stroke="black" points="341.837,-445.873 350.67,-440.022 340.117,-439.087 341.837,-445.873"/>
<text text-anchor="middle" x="220" y="-507.8" font-family="Helvetica,sans-Serif" font-size="9.00">8.036 reqs per sec</text>
</g>
<!-- n46 -->
<g id="node46" class="node"><title>n46</title>
<path fill="#f4cae4" stroke="#f4cae4" d="M467.833,-919C467.833,-919 382.167,-919 382.167,-919 376.833,-919 371.5,-913.667 371.5,-908.333 371.5,-908.333 371.5,-897.667 371.5,-897.667 371.5,-892.333 376.833,-887 382.167,-887 382.167,-887 467.833,-887 467.833,-887 473.167,-887 478.5,-892.333 478.5,-897.667 478.5,-897.667 478.5,-908.333 478.5,-908.333 478.5,-913.667 473.167,-919 467.833,-919"/>
<text text-anchor="middle" x="425" y="-906.2" font-family="Helvetica,sans-Serif" font-size="11.00">pandora</text>
<text text-anchor="middle" x="425" y="-894.2" font-family="Helvetica,sans-Serif" font-size="11.00">user&#45;attribute::user</text>
</g>
<!-- n14&#45;&gt;n46 -->
<g id="edge26" class="edge"><title>n14&#45;&gt;n46</title>
<path fill="none" stroke="black" d="M79.0927,-570.286C86.5833,-604.722 115.086,-717.478 179,-783 207.314,-812.027 230.837,-795.899 261,-823 277.786,-838.082 269.871,-852.562 288,-866 309.165,-881.688 336.583,-890.725 361.25,-895.93"/>
<polygon fill="black" stroke="black" points="360.783,-899.405 371.266,-897.871 362.114,-892.532 360.783,-899.405"/>
<text text-anchor="middle" x="220" y="-825.8" font-family="Helvetica,sans-Serif" font-size="9.00">25.263 reqs per sec</text>
</g>
<!-- n47 -->
<g id="node47" class="node"><title>n47</title>
<path fill="#f4cae4" stroke="#f4cae4" d="M463.333,-372C463.333,-372 386.667,-372 386.667,-372 381.333,-372 376,-366.667 376,-361.333 376,-361.333 376,-350.667 376,-350.667 376,-345.333 381.333,-340 386.667,-340 386.667,-340 463.333,-340 463.333,-340 468.667,-340 474,-345.333 474,-350.667 474,-350.667 474,-361.333 474,-361.333 474,-366.667 468.667,-372 463.333,-372"/>
<text text-anchor="middle" x="425" y="-359.2" font-family="Helvetica,sans-Serif" font-size="11.00">pandora</text>
<text text-anchor="middle" x="425" y="-347.2" font-family="Helvetica,sans-Serif" font-size="11.00">user&#45;avatar::user</text>
</g>
<!-- n14&#45;&gt;n47 -->
<g id="edge46" class="edge"><title>n14&#45;&gt;n47</title>
<path fill="none" stroke="black" d="M84.5534,-549.884C100.353,-529.21 138.773,-481.424 179,-450 222.579,-415.958 236.525,-410.208 288,-390 312.889,-380.229 341.463,-372.583 365.976,-367.037"/>
<polygon fill="black" stroke="black" points="366.841,-370.431 375.856,-364.864 365.337,-363.594 366.841,-370.431"/>
<text text-anchor="middle" x="220" y="-452.8" font-family="Helvetica,sans-Serif" font-size="9.00">0.001 reqs per sec</text>
</g>
<!-- n49 -->
<g id="node49" class="node"><title>n49</title>
<path fill="#f4cae4" stroke="#f4cae4" d="M460.833,-304C460.833,-304 389.167,-304 389.167,-304 383.833,-304 378.5,-298.667 378.5,-293.333 378.5,-293.333 378.5,-282.667 378.5,-282.667 378.5,-277.333 383.833,-272 389.167,-272 389.167,-272 460.833,-272 460.833,-272 466.167,-272 471.5,-277.333 471.5,-282.667 471.5,-282.667 471.5,-293.333 471.5,-293.333 471.5,-298.667 466.167,-304 460.833,-304"/>
<text text-anchor="middle" x="425" y="-291.2" font-family="Helvetica,sans-Serif" font-size="11.00">pandora</text>
<text text-anchor="middle" x="425" y="-279.2" font-family="Helvetica,sans-Serif" font-size="11.00">user&#45;preference</text>
</g>
<!-- n14&#45;&gt;n49 -->
<g id="edge29" class="edge"><title>n14&#45;&gt;n49</title>
<path fill="none" stroke="black" d="M80.5632,-549.978C91.3178,-520.913 126.005,-435.333 179,-383 230.95,-331.7 313.696,-307.413 368.432,-296.413"/>
<polygon fill="black" stroke="black" points="369.154,-299.839 378.312,-294.511 367.831,-292.965 369.154,-299.839"/>
<text text-anchor="middle" x="220" y="-385.8" font-family="Helvetica,sans-Serif" font-size="9.00">9.885 reqs per sec</text>
</g>
<!-- n15 -->
<g id="node15" class="node"><title>n15</title>
<path fill="#fdcdac" stroke="#fdcdac" d="M449.833,-2600C449.833,-2600 400.167,-2600 400.167,-2600 394.833,-2600 389.5,-2594.67 389.5,-2589.33 389.5,-2589.33 389.5,-2578.67 389.5,-2578.67 389.5,-2573.33 394.833,-2568 400.167,-2568 400.167,-2568 449.833,-2568 449.833,-2568 455.167,-2568 460.5,-2573.33 460.5,-2578.67 460.5,-2578.67 460.5,-2589.33 460.5,-2589.33 460.5,-2594.67 455.167,-2600 449.833,-2600"/>
<text text-anchor="middle" x="425" y="-2587.2" font-family="Helvetica,sans-Serif" font-size="11.00">mediawiki</text>
<text text-anchor="middle" x="425" y="-2575.2" font-family="Helvetica,sans-Serif" font-size="11.00">Main_Page</text>
</g>
<!-- n16 -->
<g id="node16" class="node"><title>n16</title>
<path fill="#fdcdac" stroke="#fdcdac" d="M551.333,-1400C551.333,-1400 298.667,-1400 298.667,-1400 293.333,-1400 288,-1394.67 288,-1389.33 288,-1389.33 288,-1378.67 288,-1378.67 288,-1373.33 293.333,-1368 298.667,-1368 298.667,-1368 551.333,-1368 551.333,-1368 556.667,-1368 562,-1373.33 562,-1378.67 562,-1378.67 562,-1389.33 562,-1389.33 562,-1394.67 556.667,-1400 551.333,-1400"/>
<text text-anchor="middle" x="425" y="-1387.2" font-family="Helvetica,sans-Serif" font-size="11.00">mediawiki</text>
<text text-anchor="middle" x="425" y="-1375.2" font-family="Helvetica,sans-Serif" font-size="11.00">Special:CloseWiki/information/fictionalbattleomniverse</text>
</g>
<!-- n17 -->
<g id="node17" class="node"><title>n17</title>
<path fill="#fdcdac" stroke="#fdcdac" d="M472.833,-2532C472.833,-2532 377.167,-2532 377.167,-2532 371.833,-2532 366.5,-2526.67 366.5,-2521.33 366.5,-2521.33 366.5,-2510.67 366.5,-2510.67 366.5,-2505.33 371.833,-2500 377.167,-2500 377.167,-2500 472.833,-2500 472.833,-2500 478.167,-2500 483.5,-2505.33 483.5,-2510.67 483.5,-2510.67 483.5,-2521.33 483.5,-2521.33 483.5,-2526.67 478.167,-2532 472.833,-2532"/>
<text text-anchor="middle" x="425" y="-2519.2" font-family="Helvetica,sans-Serif" font-size="11.00">mediawiki</text>
<text text-anchor="middle" x="425" y="-2507.2" font-family="Helvetica,sans-Serif" font-size="11.00">Special:HealthCheck</text>
</g>
<!-- n18 -->
<g id="node18" class="node"><title>n18</title>
<path fill="lightgrey" stroke="black" d="M97.3333,-2696C97.3333,-2696 54.6667,-2696 54.6667,-2696 51.3333,-2696 48,-2692.67 48,-2689.33 48,-2689.33 48,-2682.67 48,-2682.67 48,-2679.33 51.3333,-2676 54.6667,-2676 54.6667,-2676 97.3333,-2676 97.3333,-2676 100.667,-2676 104,-2679.33 104,-2682.67 104,-2682.67 104,-2689.33 104,-2689.33 104,-2692.67 100.667,-2696 97.3333,-2696"/>
<text text-anchor="middle" x="76" y="-2683.2" font-family="Helvetica,sans-Serif" font-size="11.00">mercury</text>
</g>
<!-- n22 -->
<g id="node22" class="node"><title>n22</title>
<path fill="#cbd5e8" stroke="#cbd5e8" d="M524.333,-2736C524.333,-2736 325.667,-2736 325.667,-2736 320.333,-2736 315,-2730.67 315,-2725.33 315,-2725.33 315,-2714.67 315,-2714.67 315,-2709.33 320.333,-2704 325.667,-2704 325.667,-2704 524.333,-2704 524.333,-2704 529.667,-2704 535,-2709.33 535,-2714.67 535,-2714.67 535,-2725.33 535,-2725.33 535,-2730.67 529.667,-2736 524.333,-2736"/>
<text text-anchor="middle" x="425" y="-2723.2" font-family="Helvetica,sans-Serif" font-size="11.00">nirvana</text>
<text text-anchor="middle" x="425" y="-2711.2" font-family="Helvetica,sans-Serif" font-size="11.00">EmailConfirmation::postEmailConfirmation</text>
</g>
<!-- n18&#45;&gt;n22 -->
<g id="edge17" class="edge"><title>n18&#45;&gt;n22</title>
<path fill="none" stroke="black" d="M104.229,-2688.67C147.107,-2692.87 232.894,-2701.27 304.825,-2708.32"/>
<polygon fill="black" stroke="black" points="304.583,-2711.82 314.877,-2709.31 305.266,-2704.85 304.583,-2711.82"/>
<text text-anchor="middle" x="220" y="-2706.8" font-family="Helvetica,sans-Serif" font-size="9.00">0.009 reqs per sec</text>
</g>
<!-- n25 -->
<g id="node25" class="node"><title>n25</title>
<path fill="#cbd5e8" stroke="#cbd5e8" d="M493.333,-2668C493.333,-2668 356.667,-2668 356.667,-2668 351.333,-2668 346,-2662.67 346,-2657.33 346,-2657.33 346,-2646.67 346,-2646.67 346,-2641.33 351.333,-2636 356.667,-2636 356.667,-2636 493.333,-2636 493.333,-2636 498.667,-2636 504,-2641.33 504,-2646.67 504,-2646.67 504,-2657.33 504,-2657.33 504,-2662.67 498.667,-2668 493.333,-2668"/>
<text text-anchor="middle" x="425" y="-2655.2" font-family="Helvetica,sans-Serif" font-size="11.00">nirvana</text>
<text text-anchor="middle" x="425" y="-2643.2" font-family="Helvetica,sans-Serif" font-size="11.00">MercuryApi::getWikiVariables</text>
</g>
<!-- n18&#45;&gt;n25 -->
<g id="edge9" class="edge"><title>n18&#45;&gt;n25</title>
<path fill="none" stroke="black" d="M104.088,-2679.27C124.536,-2674.47 153.358,-2668.3 179,-2665 230.756,-2658.34 289.085,-2655.07 335.842,-2653.48"/>
<polygon fill="black" stroke="black" points="336.058,-2656.98 345.941,-2653.16 335.834,-2649.98 336.058,-2656.98"/>
<text text-anchor="middle" x="220" y="-2667.8" font-family="Helvetica,sans-Serif" font-size="9.00">0.110 reqs per sec</text>
</g>
<!-- n19 -->
<g id="node19" class="node"><title>n19</title>
<path fill="lightgrey" stroke="black" d="M104.333,-1113C104.333,-1113 47.6667,-1113 47.6667,-1113 44.3333,-1113 41,-1109.67 41,-1106.33 41,-1106.33 41,-1099.67 41,-1099.67 41,-1096.33 44.3333,-1093 47.6667,-1093 47.6667,-1093 104.333,-1093 104.333,-1093 107.667,-1093 111,-1096.33 111,-1099.67 111,-1099.67 111,-1106.33 111,-1106.33 111,-1109.67 107.667,-1113 104.333,-1113"/>
<text text-anchor="middle" x="76" y="-1100.2" font-family="Helvetica,sans-Serif" font-size="11.00">mobile&#45;wiki</text>
</g>
<!-- n19&#45;&gt;n30 -->
<g id="edge34" class="edge"><title>n19&#45;&gt;n30</title>
<path fill="none" stroke="black" d="M111.221,-1098.46C169.602,-1090.72 289.217,-1074.87 362.432,-1065.16"/>
<polygon fill="black" stroke="black" points="362.991,-1068.62 372.444,-1063.83 362.071,-1061.68 362.991,-1068.62"/>
<text text-anchor="middle" x="220" y="-1092.8" font-family="Helvetica,sans-Serif" font-size="9.00">0.238 reqs per sec</text>
</g>
<!-- n31 -->
<g id="node31" class="node"><title>n31</title>
<path fill="#f4cae4" stroke="#f4cae4" d="M476.333,-1247C476.333,-1247 373.667,-1247 373.667,-1247 368.333,-1247 363,-1241.67 363,-1236.33 363,-1236.33 363,-1225.67 363,-1225.67 363,-1220.33 368.333,-1215 373.667,-1215 373.667,-1215 476.333,-1215 476.333,-1215 481.667,-1215 487,-1220.33 487,-1225.67 487,-1225.67 487,-1236.33 487,-1236.33 487,-1241.67 481.667,-1247 476.333,-1247"/>
<text text-anchor="middle" x="425" y="-1234.2" font-family="Helvetica,sans-Serif" font-size="11.00">pandora</text>
<text text-anchor="middle" x="425" y="-1222.2" font-family="Helvetica,sans-Serif" font-size="11.00">discussion::permalinks</text>
</g>
<!-- n19&#45;&gt;n31 -->
<g id="edge41" class="edge"><title>n19&#45;&gt;n31</title>
<path fill="none" stroke="black" d="M85.3085,-1113.19C101.281,-1132 138.312,-1172 179,-1191 233.801,-1216.59 302.142,-1226.14 352.711,-1229.55"/>
<polygon fill="black" stroke="black" points="352.705,-1233.06 362.899,-1230.17 353.131,-1226.07 352.705,-1233.06"/>
<text text-anchor="middle" x="220" y="-1219.8" font-family="Helvetica,sans-Serif" font-size="9.00">0.003 reqs per sec</text>
</g>
<!-- n19&#45;&gt;n33 -->
<g id="edge30" class="edge"><title>n19&#45;&gt;n33</title>
<path fill="none" stroke="black" d="M99.4988,-1092.97C120.043,-1083.94 151.335,-1070.51 179,-1060 241.185,-1036.37 313.432,-1012.3 363.278,-996.207"/>
<polygon fill="black" stroke="black" points="364.492,-999.493 372.939,-993.098 362.348,-992.83 364.492,-999.493"/>
<text text-anchor="middle" x="220" y="-1062.8" font-family="Helvetica,sans-Serif" font-size="9.00">0.473 reqs per sec</text>
</g>
<!-- n19&#45;&gt;n38 -->
<g id="edge35" class="edge"><title>n19&#45;&gt;n38</title>
<path fill="none" stroke="black" d="M81.8033,-1113.16C94.1674,-1138.16 129.618,-1203.06 179,-1236 241.038,-1277.38 328.566,-1291.59 380.476,-1296.46"/>
<polygon fill="black" stroke="black" points="380.413,-1299.97 390.677,-1297.34 381.015,-1292.99 380.413,-1299.97"/>
<text text-anchor="middle" x="220" y="-1276.8" font-family="Helvetica,sans-Serif" font-size="9.00">0.048 reqs per sec</text>
</g>
<!-- n19&#45;&gt;n46 -->
<g id="edge38" class="edge"><title>n19&#45;&gt;n46</title>
<path fill="none" stroke="black" d="M79.37,-1092.64C87.197,-1061.08 115.43,-965.746 179,-925 233.1,-890.324 308.244,-888.81 361.004,-893.455"/>
<polygon fill="black" stroke="black" points="360.951,-896.967 371.245,-894.458 361.633,-890 360.951,-896.967"/>
<text text-anchor="middle" x="220" y="-927.8" font-family="Helvetica,sans-Serif" font-size="9.00">0.018 reqs per sec</text>
</g>
<!-- n48 -->
<g id="node48" class="node"><title>n48</title>
<path fill="#f4cae4" stroke="#f4cae4" d="M494.833,-1145C494.833,-1145 355.167,-1145 355.167,-1145 349.833,-1145 344.5,-1139.67 344.5,-1134.33 344.5,-1134.33 344.5,-1123.67 344.5,-1123.67 344.5,-1118.33 349.833,-1113 355.167,-1113 355.167,-1113 494.833,-1113 494.833,-1113 500.167,-1113 505.5,-1118.33 505.5,-1123.67 505.5,-1123.67 505.5,-1134.33 505.5,-1134.33 505.5,-1139.67 500.167,-1145 494.833,-1145"/>
<text text-anchor="middle" x="425" y="-1132.2" font-family="Helvetica,sans-Serif" font-size="11.00">pandora</text>
<text text-anchor="middle" x="425" y="-1120.2" font-family="Helvetica,sans-Serif" font-size="11.00">user&#45;permissions::permissions</text>
</g>
<!-- n19&#45;&gt;n48 -->
<g id="edge39" class="edge"><title>n19&#45;&gt;n48</title>
<path fill="none" stroke="black" d="M111.221,-1105.56C162.58,-1109.41 261.328,-1116.81 334.187,-1122.27"/>
<polygon fill="black" stroke="black" points="334.054,-1125.77 344.288,-1123.03 334.577,-1118.79 334.054,-1125.77"/>
<text text-anchor="middle" x="220" y="-1119.8" font-family="Helvetica,sans-Serif" font-size="9.00">0.023 reqs per sec</text>
</g>
<!-- n20 -->
<g id="node20" class="node"><title>n20</title>
<path fill="lightgrey" stroke="black" d="M94.3333,-2798C94.3333,-2798 57.6667,-2798 57.6667,-2798 54.3333,-2798 51,-2794.67 51,-2791.33 51,-2791.33 51,-2784.67 51,-2784.67 51,-2781.33 54.3333,-2778 57.6667,-2778 57.6667,-2778 94.3333,-2778 94.3333,-2778 97.6667,-2778 101,-2781.33 101,-2784.67 101,-2784.67 101,-2791.33 101,-2791.33 101,-2794.67 97.6667,-2798 94.3333,-2798"/>
<text text-anchor="middle" x="76" y="-2785.2" font-family="Helvetica,sans-Serif" font-size="11.00">mozilla</text>
</g>
<!-- n37 -->
<g id="node37" class="node"><title>n37</title>
<path fill="#f4cae4" stroke="#f4cae4" d="M447.833,-2804C447.833,-2804 402.167,-2804 402.167,-2804 396.833,-2804 391.5,-2798.67 391.5,-2793.33 391.5,-2793.33 391.5,-2782.67 391.5,-2782.67 391.5,-2777.33 396.833,-2772 402.167,-2772 402.167,-2772 447.833,-2772 447.833,-2772 453.167,-2772 458.5,-2777.33 458.5,-2782.67 458.5,-2782.67 458.5,-2793.33 458.5,-2793.33 458.5,-2798.67 453.167,-2804 447.833,-2804"/>
<text text-anchor="middle" x="425" y="-2791.2" font-family="Helvetica,sans-Serif" font-size="11.00">pandora</text>
<text text-anchor="middle" x="425" y="-2779.2" font-family="Helvetica,sans-Serif" font-size="11.00">favicon.ico</text>
</g>
<!-- n20&#45;&gt;n37 -->
<g id="edge50" class="edge"><title>n20&#45;&gt;n37</title>
<path fill="none" stroke="black" d="M101.125,-2788C159.208,-2788 307.454,-2788 381.117,-2788"/>
<polygon fill="black" stroke="black" points="381.424,-2791.5 391.424,-2788 381.424,-2784.5 381.424,-2791.5"/>
<text text-anchor="middle" x="220" y="-2790.8" font-family="Helvetica,sans-Serif" font-size="9.00">0.000 reqs per sec</text>
</g>
<!-- n21 -->
<g id="node21" class="node"><title>n21</title>
<path fill="lightgrey" stroke="black" d="M93.3333,-2560C93.3333,-2560 58.6667,-2560 58.6667,-2560 55.3333,-2560 52,-2556.67 52,-2553.33 52,-2553.33 52,-2546.67 52,-2546.67 52,-2543.33 55.3333,-2540 58.6667,-2540 58.6667,-2540 93.3333,-2540 93.3333,-2540 96.6667,-2540 100,-2543.33 100,-2546.67 100,-2546.67 100,-2553.33 100,-2553.33 100,-2556.67 96.6667,-2560 93.3333,-2560"/>
<text text-anchor="middle" x="76" y="-2547.2" font-family="Helvetica,sans-Serif" font-size="11.00">nagios</text>
</g>
<!-- n21&#45;&gt;n15 -->
<g id="edge6" class="edge"><title>n21&#45;&gt;n15</title>
<path fill="none" stroke="black" d="M100.036,-2552.26C156.852,-2557.82 304.473,-2572.29 379.227,-2579.61"/>
<polygon fill="black" stroke="black" points="378.98,-2583.11 389.274,-2580.6 379.663,-2576.14 378.98,-2583.11"/>
<text text-anchor="middle" x="220" y="-2570.8" font-family="Helvetica,sans-Serif" font-size="9.00">1.124 reqs per sec</text>
</g>
<!-- n21&#45;&gt;n17 -->
<g id="edge3" class="edge"><title>n21&#45;&gt;n17</title>
<path fill="none" stroke="black" d="M100.329,-2544.16C120.895,-2539.25 151.744,-2532.51 179,-2529 238.555,-2521.33 306.814,-2518.17 356.131,-2516.87"/>
<polygon fill="black" stroke="black" points="356.445,-2520.37 366.357,-2516.62 356.274,-2513.37 356.445,-2520.37"/>
<text text-anchor="middle" x="220" y="-2531.8" font-family="Helvetica,sans-Serif" font-size="9.00">1.084 reqs per sec</text>
</g>
<!-- n26 -->
<g id="node26" class="node"><title>n26</title>
<path fill="lightgrey" stroke="black" d="M123.833,-1813C123.833,-1813 28.1667,-1813 28.1667,-1813 24.8333,-1813 21.5,-1809.67 21.5,-1806.33 21.5,-1806.33 21.5,-1799.67 21.5,-1799.67 21.5,-1796.33 24.8333,-1793 28.1667,-1793 28.1667,-1793 123.833,-1793 123.833,-1793 127.167,-1793 130.5,-1796.33 130.5,-1799.67 130.5,-1799.67 130.5,-1806.33 130.5,-1806.33 130.5,-1809.67 127.167,-1813 123.833,-1813"/>
<text text-anchor="middle" x="76" y="-1800.2" font-family="Helvetica,sans-Serif" font-size="11.00">on&#45;site&#45;notifications</text>
</g>
<!-- n26&#45;&gt;n7 -->
<g id="edge10" class="edge"><title>n26&#45;&gt;n7</title>
<path fill="none" stroke="black" d="M118.512,-1792.95C182.38,-1777.49 304.566,-1747.91 373.48,-1731.23"/>
<polygon fill="black" stroke="black" points="374.352,-1734.62 383.247,-1728.87 372.705,-1727.82 374.352,-1734.62"/>
<text text-anchor="middle" x="220" y="-1781.8" font-family="Helvetica,sans-Serif" font-size="9.00">0.006 reqs per sec</text>
</g>
<!-- n26&#45;&gt;n9 -->
<g id="edge21" class="edge"><title>n26&#45;&gt;n9</title>
<path fill="none" stroke="black" d="M103.366,-1813.11C160.657,-1835.06 297.374,-1887.47 372.454,-1916.24"/>
<polygon fill="black" stroke="black" points="371.591,-1919.66 382.181,-1919.97 374.096,-1913.12 371.591,-1919.66"/>
<text text-anchor="middle" x="220" y="-1876.8" font-family="Helvetica,sans-Serif" font-size="9.00">0.006 reqs per sec</text>
</g>
<!-- n27 -->
<g id="node27" class="node"><title>n27</title>
<path fill="lightgrey" stroke="black" d="M109.333,-1945C109.333,-1945 42.6667,-1945 42.6667,-1945 39.3333,-1945 36,-1941.67 36,-1938.33 36,-1938.33 36,-1931.67 36,-1931.67 36,-1928.33 39.3333,-1925 42.6667,-1925 42.6667,-1925 109.333,-1925 109.333,-1925 112.667,-1925 116,-1928.33 116,-1931.67 116,-1931.67 116,-1938.33 116,-1938.33 116,-1941.67 112.667,-1945 109.333,-1945"/>
<text text-anchor="middle" x="76" y="-1932.2" font-family="Helvetica,sans-Serif" font-size="11.00">page&#45;indexer</text>
</g>
<!-- n27&#45;&gt;n9 -->
<g id="edge8" class="edge"><title>n27&#45;&gt;n9</title>
<path fill="none" stroke="black" d="M116.131,-1935.11C176.188,-1935.29 291.59,-1935.62 362.782,-1935.82"/>
<polygon fill="black" stroke="black" points="362.943,-1939.32 372.953,-1935.85 362.963,-1932.32 362.943,-1939.32"/>
<text text-anchor="middle" x="220" y="-1938.8" font-family="Helvetica,sans-Serif" font-size="9.00">0.089 reqs per sec</text>
</g>
<!-- n28 -->
<g id="node28" class="node"><title>n28</title>
<path fill="lightgrey" stroke="black" d="M97.3333,-2910C97.3333,-2910 54.6667,-2910 54.6667,-2910 51.3333,-2910 48,-2906.67 48,-2903.33 48,-2903.33 48,-2896.67 48,-2896.67 48,-2893.33 51.3333,-2890 54.6667,-2890 54.6667,-2890 97.3333,-2890 97.3333,-2890 100.667,-2890 104,-2893.33 104,-2896.67 104,-2896.67 104,-2903.33 104,-2903.33 104,-2906.67 100.667,-2910 97.3333,-2910"/>
<text text-anchor="middle" x="76" y="-2897.2" font-family="Helvetica,sans-Serif" font-size="11.00">pandora</text>
</g>
<!-- n44 -->
<g id="node44" class="node"><title>n44</title>
<path fill="#f4cae4" stroke="#f4cae4" d="M469.833,-2894C469.833,-2894 380.167,-2894 380.167,-2894 374.833,-2894 369.5,-2888.67 369.5,-2883.33 369.5,-2883.33 369.5,-2872.67 369.5,-2872.67 369.5,-2867.33 374.833,-2862 380.167,-2862 380.167,-2862 469.833,-2862 469.833,-2862 475.167,-2862 480.5,-2867.33 480.5,-2872.67 480.5,-2872.67 480.5,-2883.33 480.5,-2883.33 480.5,-2888.67 475.167,-2894 469.833,-2894"/>
<text text-anchor="middle" x="425" y="-2881.2" font-family="Helvetica,sans-Serif" font-size="11.00">pandora</text>
<text text-anchor="middle" x="425" y="-2869.2" font-family="Helvetica,sans-Serif" font-size="11.00">static&#45;assets::image</text>
</g>
<!-- n28&#45;&gt;n44 -->
<g id="edge51" class="edge"><title>n28&#45;&gt;n44</title>
<path fill="none" stroke="black" d="M104.229,-2898.27C158.739,-2894.82 282.595,-2886.97 359.172,-2882.11"/>
<polygon fill="black" stroke="black" points="359.432,-2885.6 369.19,-2881.47 358.989,-2878.61 359.432,-2885.6"/>
<text text-anchor="middle" x="220" y="-2895.8" font-family="Helvetica,sans-Serif" font-size="9.00">0.001 reqs per sec</text>
</g>
<!-- n50 -->
<g id="node50" class="node"><title>n50</title>
<path fill="lightgrey" stroke="black" d="M130.833,-2254C130.833,-2254 21.1667,-2254 21.1667,-2254 17.8333,-2254 14.5,-2250.67 14.5,-2247.33 14.5,-2247.33 14.5,-2240.67 14.5,-2240.67 14.5,-2237.33 17.8333,-2234 21.1667,-2234 21.1667,-2234 130.833,-2234 130.833,-2234 134.167,-2234 137.5,-2237.33 137.5,-2240.67 137.5,-2240.67 137.5,-2247.33 137.5,-2247.33 137.5,-2250.67 134.167,-2254 130.833,-2254"/>
<text text-anchor="middle" x="76" y="-2241.2" font-family="Helvetica,sans-Serif" font-size="11.00">parsoid&#45;feeder&#45;worker</text>
</g>
<!-- n50&#45;&gt;n2 -->
<g id="edge4" class="edge"><title>n50&#45;&gt;n2</title>
<path fill="none" stroke="black" d="M128.201,-2254.03C196.776,-2267.47 317.214,-2291.07 381.21,-2303.61"/>
<polygon fill="black" stroke="black" points="380.869,-2307.11 391.355,-2305.6 382.215,-2300.24 380.869,-2307.11"/>
<text text-anchor="middle" x="220" y="-2282.8" font-family="Helvetica,sans-Serif" font-size="9.00">0.056 reqs per sec</text>
</g>
<!-- n50&#45;&gt;n5 -->
<g id="edge14" class="edge"><title>n50&#45;&gt;n5</title>
<path fill="none" stroke="black" d="M137.84,-2244C201.822,-2244 301.816,-2244 365.07,-2244"/>
<polygon fill="black" stroke="black" points="365.28,-2247.5 375.28,-2244 365.28,-2240.5 365.28,-2247.5"/>
<text text-anchor="middle" x="220" y="-2246.8" font-family="Helvetica,sans-Serif" font-size="9.00">0.054 reqs per sec</text>
</g>
<!-- n50&#45;&gt;n9 -->
<g id="edge13" class="edge"><title>n50&#45;&gt;n9</title>
<path fill="none" stroke="black" d="M105.413,-2233.98C143.911,-2219.37 213.301,-2189.28 261,-2147 276.777,-2133.02 275.456,-2124.94 288,-2108 327.884,-2054.13 377.241,-1992.99 404.172,-1960.07"/>
<polygon fill="black" stroke="black" points="406.884,-1962.29 410.517,-1952.33 401.471,-1957.85 406.884,-1962.29"/>
<text text-anchor="middle" x="220" y="-2202.8" font-family="Helvetica,sans-Serif" font-size="9.00">0.009 reqs per sec</text>
</g>
<!-- n51 -->
<g id="node51" class="node"><title>n51</title>
<path fill="lightgrey" stroke="black" d="M145.333,-1614C145.333,-1614 6.66667,-1614 6.66667,-1614 3.33333,-1614 0,-1610.67 0,-1607.33 0,-1607.33 0,-1600.67 0,-1600.67 0,-1597.33 3.33333,-1594 6.66667,-1594 6.66667,-1594 145.333,-1594 145.333,-1594 148.667,-1594 152,-1597.33 152,-1600.67 152,-1600.67 152,-1607.33 152,-1607.33 152,-1610.67 148.667,-1614 145.333,-1614"/>
<text text-anchor="middle" x="76" y="-1601.2" font-family="Helvetica,sans-Serif" font-size="11.00">template&#45;type&#45;copier&#45;worker</text>
</g>
<!-- n51&#45;&gt;n3 -->
<g id="edge11" class="edge"><title>n51&#45;&gt;n3</title>
<path fill="none" stroke="black" d="M94.423,-1593.85C114.241,-1582.78 147.895,-1565.38 179,-1556 253.654,-1533.49 345.504,-1524.81 392.71,-1521.66"/>
<polygon fill="black" stroke="black" points="393.139,-1525.14 402.9,-1521.02 392.7,-1518.15 393.139,-1525.14"/>
<text text-anchor="middle" x="220" y="-1558.8" font-family="Helvetica,sans-Serif" font-size="9.00">0.002 reqs per sec</text>
</g>
<!-- n51&#45;&gt;n4 -->
<g id="edge18" class="edge"><title>n51&#45;&gt;n4</title>
<path fill="none" stroke="black" d="M109.247,-1593.99C129.134,-1588.34 155.288,-1581.86 179,-1579 244.488,-1571.09 320.474,-1576.06 370.247,-1581.21"/>
<polygon fill="black" stroke="black" points="370.141,-1584.72 380.457,-1582.3 370.889,-1577.76 370.141,-1584.72"/>
<text text-anchor="middle" x="220" y="-1581.8" font-family="Helvetica,sans-Serif" font-size="9.00">0.002 reqs per sec</text>
</g>
<!-- n51&#45;&gt;n7 -->
<g id="edge19" class="edge"><title>n51&#45;&gt;n7</title>
<path fill="none" stroke="black" d="M152.257,-1608.49C186.137,-1612.06 226.243,-1618.48 261,-1630 309.676,-1646.13 360.785,-1676.57 392.516,-1697.32"/>
<polygon fill="black" stroke="black" points="390.663,-1700.29 400.933,-1702.89 394.527,-1694.45 390.663,-1700.29"/>
<text text-anchor="middle" x="220" y="-1632.8" font-family="Helvetica,sans-Serif" font-size="9.00">0.003 reqs per sec</text>
</g>
<!-- n51&#45;&gt;n9 -->
<g id="edge22" class="edge"><title>n51&#45;&gt;n9</title>
<path fill="none" stroke="black" d="M87.4818,-1614.19C105.396,-1631.33 143.423,-1666.56 179,-1692 213.352,-1716.56 228.792,-1712.69 261,-1740 323.474,-1792.98 380.813,-1871.8 407.787,-1911.41"/>
<polygon fill="black" stroke="black" points="405.033,-1913.58 413.526,-1919.92 410.837,-1909.67 405.033,-1913.58"/>
<text text-anchor="middle" x="220" y="-1742.8" font-family="Helvetica,sans-Serif" font-size="9.00">0.002 reqs per sec</text>
</g>
<!-- n52 -->
<g id="node52" class="node"><title>n52</title>
<path fill="lightgrey" stroke="black" d="M118.333,-1462C118.333,-1462 33.6667,-1462 33.6667,-1462 30.3333,-1462 27,-1458.67 27,-1455.33 27,-1455.33 27,-1448.67 27,-1448.67 27,-1445.33 30.3333,-1442 33.6667,-1442 33.6667,-1442 118.333,-1442 118.333,-1442 121.667,-1442 125,-1445.33 125,-1448.67 125,-1448.67 125,-1455.33 125,-1455.33 125,-1458.67 121.667,-1462 118.333,-1462"/>
<text text-anchor="middle" x="76" y="-1449.2" font-family="Helvetica,sans-Serif" font-size="11.00">user&#45;permissions</text>
</g>
<!-- n52&#45;&gt;n8 -->
<g id="edge1" class="edge"><title>n52&#45;&gt;n8</title>
<path fill="none" stroke="black" d="M125.249,-1452C191.713,-1452 310.686,-1452 376.665,-1452"/>
<polygon fill="black" stroke="black" points="376.783,-1455.5 386.783,-1452 376.783,-1448.5 376.783,-1455.5"/>
<text text-anchor="middle" x="220" y="-1454.8" font-family="Helvetica,sans-Serif" font-size="9.00">10.004 reqs per sec</text>
</g>
<!-- n52&#45;&gt;n9 -->
<g id="edge5" class="edge"><title>n52&#45;&gt;n9</title>
<path fill="none" stroke="black" d="M83.9697,-1462.31C97.9195,-1483.2 129.832,-1532.23 152,-1576 166.135,-1603.91 157.555,-1618.23 179,-1641 206.798,-1670.52 233.722,-1651 261,-1681 283.99,-1706.29 271.647,-1722.99 288,-1753 321.525,-1814.52 373.705,-1878.45 402.717,-1912.05"/>
<polygon fill="black" stroke="black" points="400.362,-1914.68 409.569,-1919.92 405.641,-1910.08 400.362,-1914.68"/>
<text text-anchor="middle" x="220" y="-1683.8" font-family="Helvetica,sans-Serif" font-size="9.00">0.683 reqs per sec</text>
</g>
<!-- n52&#45;&gt;n16 -->
<g id="edge24" class="edge"><title>n52&#45;&gt;n16</title>
<path fill="none" stroke="black" d="M125.249,-1442.54C178.565,-1432.1 265.67,-1415.03 332.104,-1402.01"/>
<polygon fill="black" stroke="black" points="333.024,-1405.39 342.164,-1400.04 331.678,-1398.53 333.024,-1405.39"/>
<text text-anchor="middle" x="220" y="-1434.8" font-family="Helvetica,sans-Serif" font-size="9.00">0.000 reqs per sec</text>
</g>
<!-- n53 -->
<g id="node53" class="node"><title>n53</title>
<path fill="lightgrey" stroke="black" d="M116.833,-1889C116.833,-1889 35.1667,-1889 35.1667,-1889 31.8333,-1889 28.5,-1885.67 28.5,-1882.33 28.5,-1882.33 28.5,-1875.67 28.5,-1875.67 28.5,-1872.33 31.8333,-1869 35.1667,-1869 35.1667,-1869 116.833,-1869 116.833,-1869 120.167,-1869 123.5,-1872.33 123.5,-1875.67 123.5,-1875.67 123.5,-1882.33 123.5,-1882.33 123.5,-1885.67 120.167,-1889 116.833,-1889"/>
<text text-anchor="middle" x="76" y="-1876.2" font-family="Helvetica,sans-Serif" font-size="11.00">user&#45;registration</text>
</g>
<!-- n53&#45;&gt;n9 -->
<g id="edge15" class="edge"><title>n53&#45;&gt;n9</title>
<path fill="none" stroke="black" d="M123.798,-1886.69C185.56,-1896.83 294.421,-1914.71 362.696,-1925.93"/>
<polygon fill="black" stroke="black" points="362.443,-1929.44 372.878,-1927.6 363.577,-1922.53 362.443,-1929.44"/>
<text text-anchor="middle" x="220" y="-1912.8" font-family="Helvetica,sans-Serif" font-size="9.00">0.023 reqs per sec</text>
</g>
<!-- n54 -->
<g id="node54" class="node"><title>n54</title>
<path fill="lightgrey" stroke="black" d="M96.3333,-2854C96.3333,-2854 55.6667,-2854 55.6667,-2854 52.3333,-2854 49,-2850.67 49,-2847.33 49,-2847.33 49,-2840.67 49,-2840.67 49,-2837.33 52.3333,-2834 55.6667,-2834 55.6667,-2834 96.3333,-2834 96.3333,-2834 99.6667,-2834 103,-2837.33 103,-2840.67 103,-2840.67 103,-2847.33 103,-2847.33 103,-2850.67 99.6667,-2854 96.3333,-2854"/>
<text text-anchor="middle" x="76" y="-2841.2" font-family="Helvetica,sans-Serif" font-size="11.00">vignette</text>
</g>
<!-- n54&#45;&gt;n44 -->
<g id="edge33" class="edge"><title>n54&#45;&gt;n44</title>
<path fill="none" stroke="black" d="M103.081,-2846.56C157.008,-2851.84 282.167,-2864.1 359.277,-2871.66"/>
<polygon fill="black" stroke="black" points="359.069,-2875.15 369.362,-2872.65 359.751,-2868.19 359.069,-2875.15"/>
<text text-anchor="middle" x="220" y="-2864.8" font-family="Helvetica,sans-Serif" font-size="9.00">0.091 reqs per sec</text>
</g>
</g>
</svg>
