<?xml version="1.0" encoding="UTF-8" standalone="no"?>
<!DOCTYPE svg PUBLIC "-//W3C//DTD SVG 1.1//EN"
 "http://www.w3.org/Graphics/SVG/1.1/DTD/svg11.dtd">
<!-- Generated by graphviz version 2.38.0 (20140413.2041)
 -->
<!-- Title: G Pages: 1 -->
<svg width="601pt" height="2006pt"
 viewBox="54.00 54.00 547.00 1952.00" xmlns="http://www.w3.org/2000/svg" xmlns:xlink="http://www.w3.org/1999/xlink">
<g id="graph0" class="graph" transform="scale(1 1) rotate(0) translate(58 1948)">
<title>G</title>
<polygon fill="white" stroke="none" points="-4,4 -4,-1894 489,-1894 489,4 -4,4"/>
<!-- n1 -->
<g id="node1" class="node"><title>n1</title>
<path fill="#b3e2cd" stroke="#b3e2cd" d="M401.833,-690C401.833,-690 348.167,-690 348.167,-690 344.833,-690 341.5,-686.667 341.5,-683.333 341.5,-683.333 341.5,-676.667 341.5,-676.667 341.5,-673.333 344.833,-670 348.167,-670 348.167,-670 401.833,-670 401.833,-670 405.167,-670 408.5,-673.333 408.5,-676.667 408.5,-676.667 408.5,-683.333 408.5,-683.333 408.5,-686.667 405.167,-690 401.833,-690"/>
<text text-anchor="middle" x="375" y="-677.2" font-family="Helvetica,sans-Serif" font-size="11.00">parse::text</text>
</g>
<!-- n2 -->
<g id="node2" class="node"><title>n2</title>
<path fill="#b3e2cd" stroke="#b3e2cd" d="M417.833,-634C417.833,-634 332.167,-634 332.167,-634 328.833,-634 325.5,-630.667 325.5,-627.333 325.5,-627.333 325.5,-620.667 325.5,-620.667 325.5,-617.333 328.833,-614 332.167,-614 332.167,-614 417.833,-614 417.833,-614 421.167,-614 424.5,-617.333 424.5,-620.667 424.5,-620.667 424.5,-627.333 424.5,-627.333 424.5,-630.667 421.167,-634 417.833,-634"/>
<text text-anchor="middle" x="375" y="-621.2" font-family="Helvetica,sans-Serif" font-size="11.00">query::categories</text>
</g>
<!-- n3 -->
<g id="node3" class="node"><title>n3</title>
<path fill="#b3e2cd" stroke="#b3e2cd" d="M416.333,-532C416.333,-532 333.667,-532 333.667,-532 330.333,-532 327,-528.667 327,-525.333 327,-525.333 327,-518.667 327,-518.667 327,-515.333 330.333,-512 333.667,-512 333.667,-512 416.333,-512 416.333,-512 419.667,-512 423,-515.333 423,-518.667 423,-518.667 423,-525.333 423,-525.333 423,-528.667 419.667,-532 416.333,-532"/>
<text text-anchor="middle" x="375" y="-519.2" font-family="Helvetica,sans-Serif" font-size="11.00">query::imageinfo</text>
</g>
<!-- n4 -->
<g id="node4" class="node"><title>n4</title>
<path fill="#b3e2cd" stroke="#b3e2cd" d="M409.833,-174C409.833,-174 340.167,-174 340.167,-174 336.833,-174 333.5,-170.667 333.5,-167.333 333.5,-167.333 333.5,-160.667 333.5,-160.667 333.5,-157.333 336.833,-154 340.167,-154 340.167,-154 409.833,-154 409.833,-154 413.167,-154 416.5,-157.333 416.5,-160.667 416.5,-160.667 416.5,-167.333 416.5,-167.333 416.5,-170.667 413.167,-174 409.833,-174"/>
<text text-anchor="middle" x="375" y="-161.2" font-family="Helvetica,sans-Serif" font-size="11.00">query::siteinfo</text>
</g>
<!-- n5 -->
<g id="node5" class="node"><title>n5</title>
<path fill="#b3e2cd" stroke="#b3e2cd" d="M406.333,-20C406.333,-20 343.667,-20 343.667,-20 340.333,-20 337,-16.6667 337,-13.3333 337,-13.3333 337,-6.66667 337,-6.66667 337,-3.33333 340.333,-0 343.667,-0 343.667,-0 406.333,-0 406.333,-0 409.667,-0 413,-3.33333 413,-6.66667 413,-6.66667 413,-13.3333 413,-13.3333 413,-16.6667 409.667,-20 406.333,-20"/>
<text text-anchor="middle" x="375" y="-7.2" font-family="Helvetica,sans-Serif" font-size="11.00">query::users</text>
</g>
<!-- n6 -->
<g id="node6" class="node"><title>n6</title>
<path fill="#b3e2cd" stroke="#b3e2cd" d="M420.333,-354C420.333,-354 329.667,-354 329.667,-354 326.333,-354 323,-350.667 323,-347.333 323,-347.333 323,-340.667 323,-340.667 323,-337.333 326.333,-334 329.667,-334 329.667,-334 420.333,-334 420.333,-334 423.667,-334 427,-337.333 427,-340.667 427,-340.667 427,-347.333 427,-347.333 427,-350.667 423.667,-354 420.333,-354"/>
<text text-anchor="middle" x="375" y="-341.2" font-family="Helvetica,sans-Serif" font-size="11.00">query::wkdomains</text>
</g>
<!-- n7 -->
<g id="node7" class="node"><title>n7</title>
<path fill="lightgrey" stroke="black" d="M102.333,-323C102.333,-323 49.6667,-323 49.6667,-323 46.3333,-323 43,-319.667 43,-316.333 43,-316.333 43,-309.667 43,-309.667 43,-306.333 46.3333,-303 49.6667,-303 49.6667,-303 102.333,-303 102.333,-303 105.667,-303 109,-306.333 109,-309.667 109,-309.667 109,-316.333 109,-316.333 109,-319.667 105.667,-323 102.333,-323"/>
<text text-anchor="middle" x="76" y="-310.2" font-family="Helvetica,sans-Serif" font-size="11.00">discussion</text>
</g>
<!-- n7&#45;&gt;n6 -->
<g id="edge4" class="edge"><title>n7&#45;&gt;n6</title>
<path fill="none" stroke="black" d="M109.066,-316.347C157.66,-321.419 250.829,-331.144 312.709,-337.603"/>
<polygon fill="black" stroke="black" points="312.43,-341.092 322.739,-338.65 313.157,-334.13 312.43,-341.092"/>
<text text-anchor="middle" x="208.5" y="-332.8" font-family="Helvetica,sans-Serif" font-size="9.00">17 requests</text>
</g>
<!-- n8 -->
<g id="node8" class="node"><title>n8</title>
<path fill="lightgrey" stroke="black" d="M125.833,-176C125.833,-176 26.1667,-176 26.1667,-176 22.8333,-176 19.5,-172.667 19.5,-169.333 19.5,-169.333 19.5,-162.667 19.5,-162.667 19.5,-159.333 22.8333,-156 26.1667,-156 26.1667,-156 125.833,-156 125.833,-156 129.167,-156 132.5,-159.333 132.5,-162.667 132.5,-162.667 132.5,-169.333 132.5,-169.333 132.5,-172.667 129.167,-176 125.833,-176"/>
<text text-anchor="middle" x="76" y="-163.2" font-family="Helvetica,sans-Serif" font-size="11.00">discussions&#45;sitemap</text>
</g>
<!-- n8&#45;&gt;n6 -->
<g id="edge6" class="edge"><title>n8&#45;&gt;n6</title>
<path fill="none" stroke="black" d="M132.516,-160.972C165.003,-160.438 205.825,-164.078 238,-181 300.613,-213.93 345.792,-289.12 364.479,-324.681"/>
<polygon fill="black" stroke="black" points="361.368,-326.285 369.04,-333.592 367.599,-323.096 361.368,-326.285"/>
<text text-anchor="middle" x="208.5" y="-183.8" font-family="Helvetica,sans-Serif" font-size="9.00">535 requests</text>
</g>
<!-- n9 -->
<g id="node9" class="node"><title>n9</title>
<path fill="lightgrey" stroke="black" d="M109.833,-512C109.833,-512 42.1667,-512 42.1667,-512 38.8333,-512 35.5,-508.667 35.5,-505.333 35.5,-505.333 35.5,-498.667 35.5,-498.667 35.5,-495.333 38.8333,-492 42.1667,-492 42.1667,-492 109.833,-492 109.833,-492 113.167,-492 116.5,-495.333 116.5,-498.667 116.5,-498.667 116.5,-505.333 116.5,-505.333 116.5,-508.667 113.167,-512 109.833,-512"/>
<text text-anchor="middle" x="76" y="-499.2" font-family="Helvetica,sans-Serif" font-size="11.00">image&#45;review</text>
</g>
<!-- n9&#45;&gt;n3 -->
<g id="edge7" class="edge"><title>n9&#45;&gt;n3</title>
<path fill="none" stroke="black" d="M116.747,-504.677C168.116,-508.136 257.919,-514.183 316.669,-518.139"/>
<polygon fill="black" stroke="black" points="316.687,-521.648 326.9,-518.828 317.158,-514.664 316.687,-521.648"/>
<text text-anchor="middle" x="208.5" y="-515.8" font-family="Helvetica,sans-Serif" font-size="9.00">86 requests</text>
</g>
<!-- n9&#45;&gt;n6 -->
<g id="edge16" class="edge"><title>n9&#45;&gt;n6</title>
<path fill="none" stroke="black" d="M96.0305,-491.876C146.951,-464.787 286.494,-390.552 346.249,-358.763"/>
<polygon fill="black" stroke="black" points="347.943,-361.826 355.128,-354.04 344.656,-355.646 347.943,-361.826"/>
<text text-anchor="middle" x="208.5" y="-449.8" font-family="Helvetica,sans-Serif" font-size="9.00">29 requests</text>
</g>
<!-- n10 -->
<g id="node10" class="node"><title>n10</title>
<path fill="lightgrey" stroke="black" d="M95.3333,-787C95.3333,-787 56.6667,-787 56.6667,-787 53.3333,-787 50,-783.667 50,-780.333 50,-780.333 50,-773.667 50,-773.667 50,-770.333 53.3333,-767 56.6667,-767 56.6667,-767 95.3333,-767 95.3333,-767 98.6667,-767 102,-770.333 102,-773.667 102,-773.667 102,-780.333 102,-780.333 102,-783.667 98.6667,-787 95.3333,-787"/>
<text text-anchor="middle" x="76" y="-774.2" font-family="Helvetica,sans-Serif" font-size="11.00">internal</text>
</g>
<!-- n19 -->
<g id="node19" class="node"><title>n19</title>
<path fill="#cbd5e8" stroke="#cbd5e8" d="M472.833,-802C472.833,-802 277.167,-802 277.167,-802 273.833,-802 270.5,-798.667 270.5,-795.333 270.5,-795.333 270.5,-788.667 270.5,-788.667 270.5,-785.333 273.833,-782 277.167,-782 277.167,-782 472.833,-782 472.833,-782 476.167,-782 479.5,-785.333 479.5,-788.667 479.5,-788.667 479.5,-795.333 479.5,-795.333 479.5,-798.667 476.167,-802 472.833,-802"/>
<text text-anchor="middle" x="375" y="-789.2" font-family="Helvetica,sans-Serif" font-size="11.00">EmailControllerDiscussionReply::handle</text>
</g>
<!-- n10&#45;&gt;n19 -->
<g id="edge8" class="edge"><title>n10&#45;&gt;n19</title>
<path fill="none" stroke="black" d="M102.066,-778.266C136.895,-780.025 202.182,-783.322 260.055,-786.245"/>
<polygon fill="black" stroke="black" points="260.227,-789.758 270.391,-786.767 260.58,-782.767 260.227,-789.758"/>
<text text-anchor="middle" x="208.5" y="-787.8" font-family="Helvetica,sans-Serif" font-size="9.00">146 requests</text>
</g>
<!-- n20 -->
<g id="node20" class="node"><title>n20</title>
<path fill="#cbd5e8" stroke="#cbd5e8" d="M475.833,-746C475.833,-746 274.167,-746 274.167,-746 270.833,-746 267.5,-742.667 267.5,-739.333 267.5,-739.333 267.5,-732.667 267.5,-732.667 267.5,-729.333 270.833,-726 274.167,-726 274.167,-726 475.833,-726 475.833,-726 479.167,-726 482.5,-729.333 482.5,-732.667 482.5,-732.667 482.5,-739.333 482.5,-739.333 482.5,-742.667 479.167,-746 475.833,-746"/>
<text text-anchor="middle" x="375" y="-733.2" font-family="Helvetica,sans-Serif" font-size="11.00">EmailControllerDiscussionUpvote::handle</text>
</g>
<!-- n10&#45;&gt;n20 -->
<g id="edge20" class="edge"><title>n10&#45;&gt;n20</title>
<path fill="none" stroke="black" d="M102.066,-773.54C143.351,-767.84 227.429,-756.234 291.23,-747.426"/>
<polygon fill="black" stroke="black" points="291.858,-750.873 301.285,-746.038 290.901,-743.938 291.858,-750.873"/>
<text text-anchor="middle" x="208.5" y="-765.8" font-family="Helvetica,sans-Serif" font-size="9.00">1 requests</text>
</g>
<!-- n11 -->
<g id="node11" class="node"><title>n11</title>
<path fill="lightgrey" stroke="black" d="M101.333,-1132C101.333,-1132 50.6667,-1132 50.6667,-1132 47.3333,-1132 44,-1128.67 44,-1125.33 44,-1125.33 44,-1118.67 44,-1118.67 44,-1115.33 47.3333,-1112 50.6667,-1112 50.6667,-1112 101.333,-1112 101.333,-1112 104.667,-1112 108,-1115.33 108,-1118.67 108,-1118.67 108,-1125.33 108,-1125.33 108,-1128.67 104.667,-1132 101.333,-1132"/>
<text text-anchor="middle" x="76" y="-1119.2" font-family="Helvetica,sans-Serif" font-size="11.00">mediawiki</text>
</g>
<!-- n24 -->
<g id="node24" class="node"><title>n24</title>
<path fill="#f4cae4" stroke="#f4cae4" d="M426.333,-1135C426.333,-1135 323.667,-1135 323.667,-1135 320.333,-1135 317,-1131.67 317,-1128.33 317,-1128.33 317,-1121.67 317,-1121.67 317,-1118.33 320.333,-1115 323.667,-1115 323.667,-1115 426.333,-1115 426.333,-1115 429.667,-1115 433,-1118.33 433,-1121.67 433,-1121.67 433,-1128.33 433,-1128.33 433,-1131.67 429.667,-1135 426.333,-1135"/>
<text text-anchor="middle" x="375" y="-1122.2" font-family="Helvetica,sans-Serif" font-size="11.00">article&#45;video::internal</text>
</g>
<!-- n11&#45;&gt;n24 -->
<g id="edge22" class="edge"><title>n11&#45;&gt;n24</title>
<path fill="none" stroke="black" d="M108.167,-1121.8C140.6,-1121.63 192.861,-1121.5 238,-1122 260.323,-1122.25 284.704,-1122.72 306.579,-1123.22"/>
<polygon fill="black" stroke="black" points="306.687,-1126.72 316.766,-1123.46 306.851,-1119.72 306.687,-1126.72"/>
<text text-anchor="middle" x="208.5" y="-1124.8" font-family="Helvetica,sans-Serif" font-size="9.00">189 requests</text>
</g>
<!-- n26 -->
<g id="node26" class="node"><title>n26</title>
<path fill="#f4cae4" stroke="#f4cae4" d="M422.333,-1428C422.333,-1428 327.667,-1428 327.667,-1428 324.333,-1428 321,-1424.67 321,-1421.33 321,-1421.33 321,-1414.67 321,-1414.67 321,-1411.33 324.333,-1408 327.667,-1408 327.667,-1408 422.333,-1408 422.333,-1408 425.667,-1408 429,-1411.33 429,-1414.67 429,-1414.67 429,-1421.33 429,-1421.33 429,-1424.67 425.667,-1428 422.333,-1428"/>
<text text-anchor="middle" x="375" y="-1415.2" font-family="Helvetica,sans-Serif" font-size="11.00">discussion::threads</text>
</g>
<!-- n11&#45;&gt;n26 -->
<g id="edge27" class="edge"><title>n11&#45;&gt;n26</title>
<path fill="none" stroke="black" d="M79.4105,-1132.29C87.7102,-1165.76 118.008,-1273 179,-1337 214.119,-1373.85 268.516,-1394.56 310.943,-1405.79"/>
<polygon fill="black" stroke="black" points="310.347,-1409.25 320.9,-1408.31 312.066,-1402.47 310.347,-1409.25"/>
<text text-anchor="middle" x="208.5" y="-1379.8" font-family="Helvetica,sans-Serif" font-size="9.00">31 requests</text>
</g>
<!-- n27 -->
<g id="node27" class="node"><title>n27</title>
<path fill="#f4cae4" stroke="#f4cae4" d="M417.333,-1079C417.333,-1079 332.667,-1079 332.667,-1079 329.333,-1079 326,-1075.67 326,-1072.33 326,-1072.33 326,-1065.67 326,-1065.67 326,-1062.33 329.333,-1059 332.667,-1059 332.667,-1059 417.333,-1059 417.333,-1059 420.667,-1059 424,-1062.33 424,-1065.67 424,-1065.67 424,-1072.33 424,-1072.33 424,-1075.67 420.667,-1079 417.333,-1079"/>
<text text-anchor="middle" x="375" y="-1066.2" font-family="Helvetica,sans-Serif" font-size="11.00">discussion::users</text>
</g>
<!-- n11&#45;&gt;n27 -->
<g id="edge33" class="edge"><title>n11&#45;&gt;n27</title>
<path fill="none" stroke="black" d="M108.209,-1115.66C128.381,-1111.62 155.212,-1106.34 179,-1102 224.889,-1093.62 276.992,-1084.84 315.789,-1078.45"/>
<polygon fill="black" stroke="black" points="316.557,-1081.87 325.857,-1076.79 315.422,-1074.96 316.557,-1081.87"/>
<text text-anchor="middle" x="208.5" y="-1104.8" font-family="Helvetica,sans-Serif" font-size="9.00">21 requests</text>
</g>
<!-- n28 -->
<g id="node28" class="node"><title>n28</title>
<path fill="#f4cae4" stroke="#f4cae4" d="M452.333,-1023C452.333,-1023 297.667,-1023 297.667,-1023 294.333,-1023 291,-1019.67 291,-1016.33 291,-1016.33 291,-1009.67 291,-1009.67 291,-1006.33 294.333,-1003 297.667,-1003 297.667,-1003 452.333,-1003 452.333,-1003 455.667,-1003 459,-1006.33 459,-1009.67 459,-1009.67 459,-1016.33 459,-1016.33 459,-1019.67 455.667,-1023 452.333,-1023"/>
<text text-anchor="middle" x="375" y="-1010.2" font-family="Helvetica,sans-Serif" font-size="11.00">fandom&#45;search&#45;service::fandom</text>
</g>
<!-- n11&#45;&gt;n28 -->
<g id="edge31" class="edge"><title>n11&#45;&gt;n28</title>
<path fill="none" stroke="black" d="M95.8851,-1111.96C116.144,-1101.38 149.402,-1084.54 179,-1072 216.409,-1056.15 226.17,-1052.96 265,-1041 283.197,-1035.4 303.336,-1030 321.3,-1025.47"/>
<polygon fill="black" stroke="black" points="322.174,-1028.86 331.031,-1023.04 320.481,-1022.07 322.174,-1028.86"/>
<text text-anchor="middle" x="208.5" y="-1074.8" font-family="Helvetica,sans-Serif" font-size="9.00">19 requests</text>
</g>
<!-- n29 -->
<g id="node29" class="node"><title>n29</title>
<path fill="#f4cae4" stroke="#f4cae4" d="M402.333,-1365C402.333,-1365 347.667,-1365 347.667,-1365 344.333,-1365 341,-1361.67 341,-1358.33 341,-1358.33 341,-1351.67 341,-1351.67 341,-1348.33 344.333,-1345 347.667,-1345 347.667,-1345 402.333,-1345 402.333,-1345 405.667,-1345 409,-1348.33 409,-1351.67 409,-1351.67 409,-1358.33 409,-1358.33 409,-1361.67 405.667,-1365 402.333,-1365"/>
<text text-anchor="middle" x="375" y="-1352.2" font-family="Helvetica,sans-Serif" font-size="11.00">helios::info</text>
</g>
<!-- n11&#45;&gt;n29 -->
<g id="edge25" class="edge"><title>n11&#45;&gt;n29</title>
<path fill="none" stroke="black" d="M86.3431,-1132.06C104.04,-1151.03 143.83,-1193.18 179,-1227 204.406,-1251.43 213.657,-1254.51 238,-1280 251.087,-1293.71 249.648,-1301.89 265,-1313 284.714,-1327.27 309.896,-1337.39 331.088,-1344.11"/>
<polygon fill="black" stroke="black" points="330.233,-1347.51 340.818,-1347.06 332.26,-1340.81 330.233,-1347.51"/>
<text text-anchor="middle" x="208.5" y="-1282.8" font-family="Helvetica,sans-Serif" font-size="9.00">1722 requests</text>
</g>
<!-- n30 -->
<g id="node30" class="node"><title>n30</title>
<path fill="#f4cae4" stroke="#f4cae4" d="M412.833,-967C412.833,-967 337.167,-967 337.167,-967 333.833,-967 330.5,-963.667 330.5,-960.333 330.5,-960.333 330.5,-953.667 330.5,-953.667 330.5,-950.333 333.833,-947 337.167,-947 337.167,-947 412.833,-947 412.833,-947 416.167,-947 419.5,-950.333 419.5,-953.667 419.5,-953.667 419.5,-960.333 419.5,-960.333 419.5,-963.667 416.167,-967 412.833,-967"/>
<text text-anchor="middle" x="375" y="-954.2" font-family="Helvetica,sans-Serif" font-size="11.00">phalanx::match</text>
</g>
<!-- n11&#45;&gt;n30 -->
<g id="edge23" class="edge"><title>n11&#45;&gt;n30</title>
<path fill="none" stroke="black" d="M86.4274,-1111.97C103.638,-1094.02 141.81,-1055.88 179,-1030 214.408,-1005.36 224.73,-1000.47 265,-985 282.697,-978.202 302.638,-972.534 320.579,-968.117"/>
<polygon fill="black" stroke="black" points="321.401,-971.52 330.314,-965.793 319.775,-964.711 321.401,-971.52"/>
<text text-anchor="middle" x="208.5" y="-1032.8" font-family="Helvetica,sans-Serif" font-size="9.00">2140 requests</text>
</g>
<!-- n32 -->
<g id="node32" class="node"><title>n32</title>
<path fill="#f4cae4" stroke="#f4cae4" d="M448.833,-890C448.833,-890 301.167,-890 301.167,-890 297.833,-890 294.5,-886.667 294.5,-883.333 294.5,-883.333 294.5,-876.667 294.5,-876.667 294.5,-873.333 297.833,-870 301.167,-870 301.167,-870 448.833,-870 448.833,-870 452.167,-870 455.5,-873.333 455.5,-876.667 455.5,-876.667 455.5,-883.333 455.5,-883.333 455.5,-886.667 452.167,-890 448.833,-890"/>
<text text-anchor="middle" x="375" y="-877.2" font-family="Helvetica,sans-Serif" font-size="11.00">template&#45;classification&#45;storage</text>
</g>
<!-- n11&#45;&gt;n32 -->
<g id="edge26" class="edge"><title>n11&#45;&gt;n32</title>
<path fill="none" stroke="black" d="M82.1832,-1111.78C95.4144,-1086.49 132.687,-1019.97 179,-978 224.323,-936.931 290.023,-908.689 332.38,-893.427"/>
<polygon fill="black" stroke="black" points="333.564,-896.721 341.833,-890.097 331.238,-890.119 333.564,-896.721"/>
<text text-anchor="middle" x="208.5" y="-980.8" font-family="Helvetica,sans-Serif" font-size="9.00">495 requests</text>
</g>
<!-- n33 -->
<g id="node33" class="node"><title>n33</title>
<path fill="#f4cae4" stroke="#f4cae4" d="M421.833,-1295C421.833,-1295 328.167,-1295 328.167,-1295 324.833,-1295 321.5,-1291.67 321.5,-1288.33 321.5,-1288.33 321.5,-1281.67 321.5,-1281.67 321.5,-1278.33 324.833,-1275 328.167,-1275 328.167,-1275 421.833,-1275 421.833,-1275 425.167,-1275 428.5,-1278.33 428.5,-1281.67 428.5,-1281.67 428.5,-1288.33 428.5,-1288.33 428.5,-1291.67 425.167,-1295 421.833,-1295"/>
<text text-anchor="middle" x="375" y="-1282.2" font-family="Helvetica,sans-Serif" font-size="11.00">user&#45;attribute::user</text>
</g>
<!-- n11&#45;&gt;n33 -->
<g id="edge21" class="edge"><title>n11&#45;&gt;n33</title>
<path fill="none" stroke="black" d="M95.5787,-1132.2C146.207,-1159.98 286.8,-1237.14 346.558,-1269.94"/>
<polygon fill="black" stroke="black" points="344.978,-1273.06 355.428,-1274.81 348.346,-1266.93 344.978,-1273.06"/>
<text text-anchor="middle" x="208.5" y="-1210.8" font-family="Helvetica,sans-Serif" font-size="9.00">3553 requests</text>
</g>
<!-- n35 -->
<g id="node35" class="node"><title>n35</title>
<path fill="#f4cae4" stroke="#f4cae4" d="M414.833,-1191C414.833,-1191 335.167,-1191 335.167,-1191 331.833,-1191 328.5,-1187.67 328.5,-1184.33 328.5,-1184.33 328.5,-1177.67 328.5,-1177.67 328.5,-1174.33 331.833,-1171 335.167,-1171 335.167,-1171 414.833,-1171 414.833,-1171 418.167,-1171 421.5,-1174.33 421.5,-1177.67 421.5,-1177.67 421.5,-1184.33 421.5,-1184.33 421.5,-1187.67 418.167,-1191 414.833,-1191"/>
<text text-anchor="middle" x="375" y="-1178.2" font-family="Helvetica,sans-Serif" font-size="11.00">user&#45;preference</text>
</g>
<!-- n11&#45;&gt;n35 -->
<g id="edge24" class="edge"><title>n11&#45;&gt;n35</title>
<path fill="none" stroke="black" d="M108.223,-1128.2C158.094,-1138.11 256.416,-1157.64 318.481,-1169.97"/>
<polygon fill="black" stroke="black" points="318.004,-1173.44 328.495,-1171.96 319.368,-1166.58 318.004,-1173.44"/>
<text text-anchor="middle" x="208.5" y="-1155.8" font-family="Helvetica,sans-Serif" font-size="9.00">1659 requests</text>
</g>
<!-- n12 -->
<g id="node12" class="node"><title>n12</title>
<path fill="#fdcdac" stroke="#fdcdac" d="M403.833,-1708C403.833,-1708 346.167,-1708 346.167,-1708 342.833,-1708 339.5,-1704.67 339.5,-1701.33 339.5,-1701.33 339.5,-1694.67 339.5,-1694.67 339.5,-1691.33 342.833,-1688 346.167,-1688 346.167,-1688 403.833,-1688 403.833,-1688 407.167,-1688 410.5,-1691.33 410.5,-1694.67 410.5,-1694.67 410.5,-1701.33 410.5,-1701.33 410.5,-1704.67 407.167,-1708 403.833,-1708"/>
<text text-anchor="middle" x="375" y="-1695.2" font-family="Helvetica,sans-Serif" font-size="11.00">Main_Page</text>
</g>
<!-- n13 -->
<g id="node13" class="node"><title>n13</title>
<path fill="#fdcdac" stroke="#fdcdac" d="M426.833,-1652C426.833,-1652 323.167,-1652 323.167,-1652 319.833,-1652 316.5,-1648.67 316.5,-1645.33 316.5,-1645.33 316.5,-1638.67 316.5,-1638.67 316.5,-1635.33 319.833,-1632 323.167,-1632 323.167,-1632 426.833,-1632 426.833,-1632 430.167,-1632 433.5,-1635.33 433.5,-1638.67 433.5,-1638.67 433.5,-1645.33 433.5,-1645.33 433.5,-1648.67 430.167,-1652 426.833,-1652"/>
<text text-anchor="middle" x="375" y="-1639.2" font-family="Helvetica,sans-Serif" font-size="11.00">Special:HealthCheck</text>
</g>
<!-- n14 -->
<g id="node14" class="node"><title>n14</title>
<path fill="lightgrey" stroke="black" d="M97.3333,-1785C97.3333,-1785 54.6667,-1785 54.6667,-1785 51.3333,-1785 48,-1781.67 48,-1778.33 48,-1778.33 48,-1771.67 48,-1771.67 48,-1768.33 51.3333,-1765 54.6667,-1765 54.6667,-1765 97.3333,-1765 97.3333,-1765 100.667,-1765 104,-1768.33 104,-1771.67 104,-1771.67 104,-1778.33 104,-1778.33 104,-1781.67 100.667,-1785 97.3333,-1785"/>
<text text-anchor="middle" x="76" y="-1772.2" font-family="Helvetica,sans-Serif" font-size="11.00">mercury</text>
</g>
<!-- n18 -->
<g id="node18" class="node"><title>n18</title>
<path fill="#cbd5e8" stroke="#cbd5e8" d="M478.333,-1834C478.333,-1834 271.667,-1834 271.667,-1834 268.333,-1834 265,-1830.67 265,-1827.33 265,-1827.33 265,-1820.67 265,-1820.67 265,-1817.33 268.333,-1814 271.667,-1814 271.667,-1814 478.333,-1814 478.333,-1814 481.667,-1814 485,-1817.33 485,-1820.67 485,-1820.67 485,-1827.33 485,-1827.33 485,-1830.67 481.667,-1834 478.333,-1834"/>
<text text-anchor="middle" x="375" y="-1821.2" font-family="Helvetica,sans-Serif" font-size="11.00">EmailConfirmation::postEmailConfirmation</text>
</g>
<!-- n14&#45;&gt;n18 -->
<g id="edge13" class="edge"><title>n14&#45;&gt;n18</title>
<path fill="none" stroke="black" d="M104.144,-1779.48C148.864,-1786.86 239.426,-1801.8 303.271,-1812.33"/>
<polygon fill="black" stroke="black" points="302.841,-1815.81 313.277,-1813.98 303.98,-1808.9 302.841,-1815.81"/>
<text text-anchor="middle" x="208.5" y="-1802.8" font-family="Helvetica,sans-Serif" font-size="9.00">11 requests</text>
</g>
<!-- n21 -->
<g id="node21" class="node"><title>n21</title>
<path fill="#cbd5e8" stroke="#cbd5e8" d="M447.333,-1778C447.333,-1778 302.667,-1778 302.667,-1778 299.333,-1778 296,-1774.67 296,-1771.33 296,-1771.33 296,-1764.67 296,-1764.67 296,-1761.33 299.333,-1758 302.667,-1758 302.667,-1758 447.333,-1758 447.333,-1758 450.667,-1758 454,-1761.33 454,-1764.67 454,-1764.67 454,-1771.33 454,-1771.33 454,-1774.67 450.667,-1778 447.333,-1778"/>
<text text-anchor="middle" x="375" y="-1765.2" font-family="Helvetica,sans-Serif" font-size="11.00">MercuryApi::getWikiVariables</text>
</g>
<!-- n14&#45;&gt;n21 -->
<g id="edge9" class="edge"><title>n14&#45;&gt;n21</title>
<path fill="none" stroke="black" d="M104.256,-1773C124.791,-1771.59 153.646,-1769.81 179,-1769 213.805,-1767.89 252.122,-1767.51 285.509,-1767.45"/>
<polygon fill="black" stroke="black" points="285.706,-1770.95 295.703,-1767.44 285.7,-1763.95 285.706,-1770.95"/>
<text text-anchor="middle" x="208.5" y="-1771.8" font-family="Helvetica,sans-Serif" font-size="9.00">86 requests</text>
</g>
<!-- n15 -->
<g id="node15" class="node"><title>n15</title>
<path fill="lightgrey" stroke="black" d="M127.833,-868C127.833,-868 24.1667,-868 24.1667,-868 20.8333,-868 17.5,-864.667 17.5,-861.333 17.5,-861.333 17.5,-854.667 17.5,-854.667 17.5,-851.333 20.8333,-848 24.1667,-848 24.1667,-848 127.833,-848 127.833,-848 131.167,-848 134.5,-851.333 134.5,-854.667 134.5,-854.667 134.5,-861.333 134.5,-861.333 134.5,-864.667 131.167,-868 127.833,-868"/>
<text text-anchor="middle" x="76" y="-855.2" font-family="Helvetica,sans-Serif" font-size="11.00">metric&#45;feeder&#45;worker</text>
</g>
<!-- n15&#45;&gt;n32 -->
<g id="edge32" class="edge"><title>n15&#45;&gt;n32</title>
<path fill="none" stroke="black" d="M134.84,-855.762C165.538,-855.139 203.87,-855.257 238,-858 263.138,-860.02 290.639,-864.108 314.292,-868.218"/>
<polygon fill="black" stroke="black" points="313.717,-871.671 324.176,-869.975 314.943,-864.779 313.717,-871.671"/>
<text text-anchor="middle" x="208.5" y="-860.8" font-family="Helvetica,sans-Serif" font-size="9.00">71 requests</text>
</g>
<!-- n16 -->
<g id="node16" class="node"><title>n16</title>
<path fill="lightgrey" stroke="black" d="M104.333,-1489C104.333,-1489 47.6667,-1489 47.6667,-1489 44.3333,-1489 41,-1485.67 41,-1482.33 41,-1482.33 41,-1475.67 41,-1475.67 41,-1472.33 44.3333,-1469 47.6667,-1469 47.6667,-1469 104.333,-1469 104.333,-1469 107.667,-1469 111,-1472.33 111,-1475.67 111,-1475.67 111,-1482.33 111,-1482.33 111,-1485.67 107.667,-1489 104.333,-1489"/>
<text text-anchor="middle" x="76" y="-1476.2" font-family="Helvetica,sans-Serif" font-size="11.00">mobile&#45;wiki</text>
</g>
<!-- n25 -->
<g id="node25" class="node"><title>n25</title>
<path fill="#f4cae4" stroke="#f4cae4" d="M420.833,-1596C420.833,-1596 329.167,-1596 329.167,-1596 325.833,-1596 322.5,-1592.67 322.5,-1589.33 322.5,-1589.33 322.5,-1582.67 322.5,-1582.67 322.5,-1579.33 325.833,-1576 329.167,-1576 329.167,-1576 420.833,-1576 420.833,-1576 424.167,-1576 427.5,-1579.33 427.5,-1582.67 427.5,-1582.67 427.5,-1589.33 427.5,-1589.33 427.5,-1592.67 424.167,-1596 420.833,-1596"/>
<text text-anchor="middle" x="375" y="-1583.2" font-family="Helvetica,sans-Serif" font-size="11.00">discussion::forums</text>
</g>
<!-- n16&#45;&gt;n25 -->
<g id="edge28" class="edge"><title>n16&#45;&gt;n25</title>
<path fill="none" stroke="black" d="M97.6861,-1489.13C131.83,-1505.52 202.435,-1538.03 265,-1558 282.738,-1563.66 302.374,-1568.99 320.037,-1573.44"/>
<polygon fill="black" stroke="black" points="319.631,-1576.95 330.18,-1575.96 321.319,-1570.16 319.631,-1576.95"/>
<text text-anchor="middle" x="208.5" y="-1549.8" font-family="Helvetica,sans-Serif" font-size="9.00">27 requests</text>
</g>
<!-- n16&#45;&gt;n26 -->
<g id="edge30" class="edge"><title>n16&#45;&gt;n26</title>
<path fill="none" stroke="black" d="M111.07,-1472C160.864,-1461.78 254.215,-1442.6 315.231,-1430.07"/>
<polygon fill="black" stroke="black" points="316.016,-1433.48 325.107,-1428.04 314.608,-1426.63 316.016,-1433.48"/>
<text text-anchor="middle" x="208.5" y="-1459.8" font-family="Helvetica,sans-Serif" font-size="9.00">45 requests</text>
</g>
<!-- n16&#45;&gt;n29 -->
<g id="edge35" class="edge"><title>n16&#45;&gt;n29</title>
<path fill="none" stroke="black" d="M95.7826,-1468.89C129.137,-1451.21 201.206,-1414.26 265,-1390 286.553,-1381.8 310.957,-1373.85 331.201,-1367.6"/>
<polygon fill="black" stroke="black" points="332.234,-1370.94 340.775,-1364.67 330.189,-1364.25 332.234,-1370.94"/>
<text text-anchor="middle" x="208.5" y="-1428.8" font-family="Helvetica,sans-Serif" font-size="9.00">7 requests</text>
</g>
<!-- n16&#45;&gt;n33 -->
<g id="edge29" class="edge"><title>n16&#45;&gt;n33</title>
<path fill="none" stroke="black" d="M80.6133,-1468.81C91.0427,-1440.96 124.01,-1363.22 179,-1326 217.956,-1299.63 270.544,-1289.71 311.291,-1286.2"/>
<polygon fill="black" stroke="black" points="311.671,-1289.68 321.38,-1285.44 311.145,-1282.7 311.671,-1289.68"/>
<text text-anchor="middle" x="208.5" y="-1328.8" font-family="Helvetica,sans-Serif" font-size="9.00">2 requests</text>
</g>
<!-- n34 -->
<g id="node34" class="node"><title>n34</title>
<path fill="#f4cae4" stroke="#f4cae4" d="M448.833,-1540C448.833,-1540 301.167,-1540 301.167,-1540 297.833,-1540 294.5,-1536.67 294.5,-1533.33 294.5,-1533.33 294.5,-1526.67 294.5,-1526.67 294.5,-1523.33 297.833,-1520 301.167,-1520 301.167,-1520 448.833,-1520 448.833,-1520 452.167,-1520 455.5,-1523.33 455.5,-1526.67 455.5,-1526.67 455.5,-1533.33 455.5,-1533.33 455.5,-1536.67 452.167,-1540 448.833,-1540"/>
<text text-anchor="middle" x="375" y="-1527.2" font-family="Helvetica,sans-Serif" font-size="11.00">user&#45;permissions::permissions</text>
</g>
<!-- n16&#45;&gt;n34 -->
<g id="edge36" class="edge"><title>n16&#45;&gt;n34</title>
<path fill="none" stroke="black" d="M111.07,-1484.85C158.339,-1492.97 244.857,-1507.82 305.706,-1518.27"/>
<polygon fill="black" stroke="black" points="305.171,-1521.73 315.619,-1519.97 306.355,-1514.83 305.171,-1521.73"/>
<text text-anchor="middle" x="208.5" y="-1508.8" font-family="Helvetica,sans-Serif" font-size="9.00">2 requests</text>
</g>
<!-- n17 -->
<g id="node17" class="node"><title>n17</title>
<path fill="lightgrey" stroke="black" d="M93.3333,-1701C93.3333,-1701 58.6667,-1701 58.6667,-1701 55.3333,-1701 52,-1697.67 52,-1694.33 52,-1694.33 52,-1687.67 52,-1687.67 52,-1684.33 55.3333,-1681 58.6667,-1681 58.6667,-1681 93.3333,-1681 93.3333,-1681 96.6667,-1681 100,-1684.33 100,-1687.67 100,-1687.67 100,-1694.33 100,-1694.33 100,-1697.67 96.6667,-1701 93.3333,-1701"/>
<text text-anchor="middle" x="76" y="-1688.2" font-family="Helvetica,sans-Serif" font-size="11.00">nagios</text>
</g>
<!-- n17&#45;&gt;n12 -->
<g id="edge5" class="edge"><title>n17&#45;&gt;n12</title>
<path fill="none" stroke="black" d="M100.305,-1691.55C149.529,-1692.71 264.821,-1695.43 328.952,-1696.94"/>
<polygon fill="black" stroke="black" points="329.087,-1700.44 339.167,-1697.18 329.252,-1693.44 329.087,-1700.44"/>
<text text-anchor="middle" x="208.5" y="-1696.8" font-family="Helvetica,sans-Serif" font-size="9.00">821 requests</text>
</g>
<!-- n17&#45;&gt;n13 -->
<g id="edge2" class="edge"><title>n17&#45;&gt;n13</title>
<path fill="none" stroke="black" d="M100.088,-1687.14C120.76,-1683.68 151.901,-1678.48 179,-1674 221.231,-1667.02 268.617,-1659.24 306.102,-1653.1"/>
<polygon fill="black" stroke="black" points="307.096,-1656.48 316.399,-1651.41 305.965,-1649.58 307.096,-1656.48"/>
<text text-anchor="middle" x="208.5" y="-1676.8" font-family="Helvetica,sans-Serif" font-size="9.00">804 requests</text>
</g>
<!-- n22 -->
<g id="node22" class="node"><title>n22</title>
<path fill="lightgrey" stroke="black" d="M123.833,-250C123.833,-250 28.1667,-250 28.1667,-250 24.8333,-250 21.5,-246.667 21.5,-243.333 21.5,-243.333 21.5,-236.667 21.5,-236.667 21.5,-233.333 24.8333,-230 28.1667,-230 28.1667,-230 123.833,-230 123.833,-230 127.167,-230 130.5,-233.333 130.5,-236.667 130.5,-236.667 130.5,-243.333 130.5,-243.333 130.5,-246.667 127.167,-250 123.833,-250"/>
<text text-anchor="middle" x="76" y="-237.2" font-family="Helvetica,sans-Serif" font-size="11.00">on&#45;site&#45;notifications</text>
</g>
<!-- n22&#45;&gt;n4 -->
<g id="edge19" class="edge"><title>n22&#45;&gt;n4</title>
<path fill="none" stroke="black" d="M116.133,-229.986C169.887,-216.231 266.541,-191.498 325.029,-176.531"/>
<polygon fill="black" stroke="black" points="325.96,-179.906 334.78,-174.036 324.225,-173.124 325.96,-179.906"/>
<text text-anchor="middle" x="208.5" y="-216.8" font-family="Helvetica,sans-Serif" font-size="9.00">3 requests</text>
</g>
<!-- n22&#45;&gt;n6 -->
<g id="edge15" class="edge"><title>n22&#45;&gt;n6</title>
<path fill="none" stroke="black" d="M105.747,-250.066C159.529,-268.899 275.36,-309.459 335.696,-330.587"/>
<polygon fill="black" stroke="black" points="334.642,-333.926 345.237,-333.928 336.955,-327.32 334.642,-333.926"/>
<text text-anchor="middle" x="208.5" y="-298.8" font-family="Helvetica,sans-Serif" font-size="9.00">5 requests</text>
</g>
<!-- n23 -->
<g id="node23" class="node"><title>n23</title>
<path fill="lightgrey" stroke="black" d="M109.333,-379C109.333,-379 42.6667,-379 42.6667,-379 39.3333,-379 36,-375.667 36,-372.333 36,-372.333 36,-365.667 36,-365.667 36,-362.333 39.3333,-359 42.6667,-359 42.6667,-359 109.333,-359 109.333,-359 112.667,-359 116,-362.333 116,-365.667 116,-365.667 116,-372.333 116,-372.333 116,-375.667 112.667,-379 109.333,-379"/>
<text text-anchor="middle" x="76" y="-366.2" font-family="Helvetica,sans-Serif" font-size="11.00">page&#45;indexer</text>
</g>
<!-- n23&#45;&gt;n6 -->
<g id="edge12" class="edge"><title>n23&#45;&gt;n6</title>
<path fill="none" stroke="black" d="M116.133,-365.706C166.209,-361.491 253.518,-354.142 312.515,-349.175"/>
<polygon fill="black" stroke="black" points="313.151,-352.634 322.822,-348.308 312.563,-345.659 313.151,-352.634"/>
<text text-anchor="middle" x="208.5" y="-363.8" font-family="Helvetica,sans-Serif" font-size="9.00">55 requests</text>
</g>
<!-- n31 -->
<g id="node31" class="node"><title>n31</title>
<path fill="#f4cae4" stroke="#f4cae4" d="M423.833,-1890C423.833,-1890 326.167,-1890 326.167,-1890 322.833,-1890 319.5,-1886.67 319.5,-1883.33 319.5,-1883.33 319.5,-1876.67 319.5,-1876.67 319.5,-1873.33 322.833,-1870 326.167,-1870 326.167,-1870 423.833,-1870 423.833,-1870 427.167,-1870 430.5,-1873.33 430.5,-1876.67 430.5,-1876.67 430.5,-1883.33 430.5,-1883.33 430.5,-1886.67 427.167,-1890 423.833,-1890"/>
<text text-anchor="middle" x="375" y="-1877.2" font-family="Helvetica,sans-Serif" font-size="11.00">static&#45;assets::image</text>
</g>
<!-- n36 -->
<g id="node36" class="node"><title>n36</title>
<path fill="lightgrey" stroke="black" d="M130.833,-634C130.833,-634 21.1667,-634 21.1667,-634 17.8333,-634 14.5,-630.667 14.5,-627.333 14.5,-627.333 14.5,-620.667 14.5,-620.667 14.5,-617.333 17.8333,-614 21.1667,-614 21.1667,-614 130.833,-614 130.833,-614 134.167,-614 137.5,-617.333 137.5,-620.667 137.5,-620.667 137.5,-627.333 137.5,-627.333 137.5,-630.667 134.167,-634 130.833,-634"/>
<text text-anchor="middle" x="76" y="-621.2" font-family="Helvetica,sans-Serif" font-size="11.00">parsoid&#45;feeder&#45;worker</text>
</g>
<!-- n36&#45;&gt;n1 -->
<g id="edge10" class="edge"><title>n36&#45;&gt;n1</title>
<path fill="none" stroke="black" d="M130.098,-634.012C187.505,-644.836 277.899,-661.88 331.021,-671.896"/>
<polygon fill="black" stroke="black" points="330.653,-675.388 341.128,-673.802 331.95,-668.51 330.653,-675.388"/>
<text text-anchor="middle" x="208.5" y="-656.8" font-family="Helvetica,sans-Serif" font-size="9.00">58 requests</text>
</g>
<!-- n36&#45;&gt;n2 -->
<g id="edge14" class="edge"><title>n36&#45;&gt;n2</title>
<path fill="none" stroke="black" d="M137.819,-624C189.578,-624 263.479,-624 314.777,-624"/>
<polygon fill="black" stroke="black" points="315.042,-627.5 325.042,-624 315.042,-620.5 315.042,-627.5"/>
<text text-anchor="middle" x="208.5" y="-626.8" font-family="Helvetica,sans-Serif" font-size="9.00">54 requests</text>
</g>
<!-- n36&#45;&gt;n6 -->
<g id="edge17" class="edge"><title>n36&#45;&gt;n6</title>
<path fill="none" stroke="black" d="M101.754,-613.931C135.315,-599.426 195.89,-570.149 238,-532 253.354,-518.09 252.91,-510.825 265,-494 299.24,-446.35 339.979,-390.511 360.605,-362.301"/>
<polygon fill="black" stroke="black" points="363.483,-364.296 366.561,-354.158 357.833,-360.163 363.483,-364.296"/>
<text text-anchor="middle" x="208.5" y="-576.8" font-family="Helvetica,sans-Serif" font-size="9.00">9 requests</text>
</g>
<!-- n37 -->
<g id="node37" class="node"><title>n37</title>
<path fill="lightgrey" stroke="black" d="M145.333,-120C145.333,-120 6.66667,-120 6.66667,-120 3.33333,-120 0,-116.667 0,-113.333 0,-113.333 0,-106.667 0,-106.667 0,-103.333 3.33333,-100 6.66667,-100 6.66667,-100 145.333,-100 145.333,-100 148.667,-100 152,-103.333 152,-106.667 152,-106.667 152,-113.333 152,-113.333 152,-116.667 148.667,-120 145.333,-120"/>
<text text-anchor="middle" x="76" y="-107.2" font-family="Helvetica,sans-Serif" font-size="11.00">template&#45;type&#45;copier&#45;worker</text>
</g>
<!-- n37&#45;&gt;n4 -->
<g id="edge18" class="edge"><title>n37&#45;&gt;n4</title>
<path fill="none" stroke="black" d="M152.095,-105.484C179.359,-105.272 210.269,-106.701 238,-112 276.477,-119.352 318.207,-136.858 345.151,-149.531"/>
<polygon fill="black" stroke="black" points="343.845,-152.786 354.376,-153.953 346.872,-146.474 343.845,-152.786"/>
<text text-anchor="middle" x="208.5" y="-114.8" font-family="Helvetica,sans-Serif" font-size="9.00">2 requests</text>
</g>
<!-- n38 -->
<g id="node38" class="node"><title>n38</title>
<path fill="lightgrey" stroke="black" d="M118.333,-40C118.333,-40 33.6667,-40 33.6667,-40 30.3333,-40 27,-36.6667 27,-33.3333 27,-33.3333 27,-26.6667 27,-26.6667 27,-23.3333 30.3333,-20 33.6667,-20 33.6667,-20 118.333,-20 118.333,-20 121.667,-20 125,-23.3333 125,-26.6667 125,-26.6667 125,-33.3333 125,-33.3333 125,-36.6667 121.667,-40 118.333,-40"/>
<text text-anchor="middle" x="76" y="-27.2" font-family="Helvetica,sans-Serif" font-size="11.00">user&#45;permissions</text>
</g>
<!-- n38&#45;&gt;n5 -->
<g id="edge1" class="edge"><title>n38&#45;&gt;n5</title>
<path fill="none" stroke="black" d="M118.418,-19.9892C136.846,-16.0259 158.884,-11.9536 179,-10 229.264,-5.11866 287.16,-5.92598 326.727,-7.44984"/>
<polygon fill="black" stroke="black" points="326.74,-10.9533 336.877,-7.87198 327.031,-3.95936 326.74,-10.9533"/>
<text text-anchor="middle" x="208.5" y="-12.8" font-family="Helvetica,sans-Serif" font-size="9.00">6721 requests</text>
</g>
<!-- n38&#45;&gt;n6 -->
<g id="edge3" class="edge"><title>n38&#45;&gt;n6</title>
<path fill="none" stroke="black" d="M125.186,-34.9664C161.178,-41.2081 208.974,-55.282 238,-87 270.53,-122.547 244.611,-148.341 265,-192 289.904,-245.328 334.183,-299.337 357.917,-326.33"/>
<polygon fill="black" stroke="black" points="355.314,-328.67 364.579,-333.809 360.542,-324.014 355.314,-328.67"/>
<text text-anchor="middle" x="208.5" y="-89.8" font-family="Helvetica,sans-Serif" font-size="9.00">537 requests</text>
</g>
<!-- n39 -->
<g id="node39" class="node"><title>n39</title>
<path fill="lightgrey" stroke="black" d="M116.833,-435C116.833,-435 35.1667,-435 35.1667,-435 31.8333,-435 28.5,-431.667 28.5,-428.333 28.5,-428.333 28.5,-421.667 28.5,-421.667 28.5,-418.333 31.8333,-415 35.1667,-415 35.1667,-415 116.833,-415 116.833,-415 120.167,-415 123.5,-418.333 123.5,-421.667 123.5,-421.667 123.5,-428.333 123.5,-428.333 123.5,-431.667 120.167,-435 116.833,-435"/>
<text text-anchor="middle" x="76" y="-422.2" font-family="Helvetica,sans-Serif" font-size="11.00">user&#45;registration</text>
</g>
<!-- n39&#45;&gt;n6 -->
<g id="edge11" class="edge"><title>n39&#45;&gt;n6</title>
<path fill="none" stroke="black" d="M113.716,-414.987C167.56,-400.302 267.941,-372.925 327.071,-356.799"/>
<polygon fill="black" stroke="black" points="328.175,-360.126 336.902,-354.118 326.333,-353.372 328.175,-360.126"/>
<text text-anchor="middle" x="208.5" y="-399.8" font-family="Helvetica,sans-Serif" font-size="9.00">20 requests</text>
</g>
<!-- n40 -->
<g id="node40" class="node"><title>n40</title>
<path fill="lightgrey" stroke="black" d="M96.3333,-1890C96.3333,-1890 55.6667,-1890 55.6667,-1890 52.3333,-1890 49,-1886.67 49,-1883.33 49,-1883.33 49,-1876.67 49,-1876.67 49,-1873.33 52.3333,-1870 55.6667,-1870 55.6667,-1870 96.3333,-1870 96.3333,-1870 99.6667,-1870 103,-1873.33 103,-1876.67 103,-1876.67 103,-1883.33 103,-1883.33 103,-1886.67 99.6667,-1890 96.3333,-1890"/>
<text text-anchor="middle" x="76" y="-1877.2" font-family="Helvetica,sans-Serif" font-size="11.00">vignette</text>
</g>
<!-- n40&#45;&gt;n31 -->
<g id="edge34" class="edge"><title>n40&#45;&gt;n31</title>
<path fill="none" stroke="black" d="M103.096,-1880C148.847,-1880 244.79,-1880 309.325,-1880"/>
<polygon fill="black" stroke="black" points="309.4,-1883.5 319.4,-1880 309.4,-1876.5 309.4,-1883.5"/>
<text text-anchor="middle" x="208.5" y="-1882.8" font-family="Helvetica,sans-Serif" font-size="9.00">17 requests</text>
</g>
</g>
</svg>
