<?xml version="1.0" encoding="UTF-8" standalone="no"?>
<!DOCTYPE svg PUBLIC "-//W3C//DTD SVG 1.1//EN"
 "http://www.w3.org/Graphics/SVG/1.1/DTD/svg11.dtd">
<!-- Generated by graphviz version 2.38.0 (20140413.2041)
 -->
<!-- Title: G Pages: 1 -->
<svg width="618pt" height="2414pt"
 viewBox="54.00 54.00 564.00 2360.00" xmlns="http://www.w3.org/2000/svg" xmlns:xlink="http://www.w3.org/1999/xlink">
<g id="graph0" class="graph" transform="scale(1 1) rotate(0) translate(58 2356)">
<title>G</title>
<polygon fill="white" stroke="none" points="-4,4 -4,-2302 506,-2302 506,4 -4,4"/>
<!-- n1 -->
<g id="node1" class="node"><title>n1</title>
<path fill="#b3e2cd" stroke="#b3e2cd" d="M418.833,-799C418.833,-799 365.167,-799 365.167,-799 361.833,-799 358.5,-795.667 358.5,-792.333 358.5,-792.333 358.5,-785.667 358.5,-785.667 358.5,-782.333 361.833,-779 365.167,-779 365.167,-779 418.833,-779 418.833,-779 422.167,-779 425.5,-782.333 425.5,-785.667 425.5,-785.667 425.5,-792.333 425.5,-792.333 425.5,-795.667 422.167,-799 418.833,-799"/>
<text text-anchor="middle" x="392" y="-786.2" font-family="Helvetica,sans-Serif" font-size="11.00">parse::text</text>
</g>
<!-- n2 -->
<g id="node2" class="node"><title>n2</title>
<path fill="#b3e2cd" stroke="#b3e2cd" d="M407.333,-132C407.333,-132 376.667,-132 376.667,-132 373.333,-132 370,-128.667 370,-125.333 370,-125.333 370,-118.667 370,-118.667 370,-115.333 373.333,-112 376.667,-112 376.667,-112 407.333,-112 407.333,-112 410.667,-112 414,-115.333 414,-118.667 414,-118.667 414,-125.333 414,-125.333 414,-128.667 410.667,-132 407.333,-132"/>
<text text-anchor="middle" x="392" y="-119.2" font-family="Helvetica,sans-Serif" font-size="11.00">query</text>
</g>
<!-- n3 -->
<g id="node3" class="node"><title>n3</title>
<path fill="#b3e2cd" stroke="#b3e2cd" d="M429.833,-76C429.833,-76 354.167,-76 354.167,-76 350.833,-76 347.5,-72.6667 347.5,-69.3333 347.5,-69.3333 347.5,-62.6667 347.5,-62.6667 347.5,-59.3333 350.833,-56 354.167,-56 354.167,-56 429.833,-56 429.833,-56 433.167,-56 436.5,-59.3333 436.5,-62.6667 436.5,-62.6667 436.5,-69.3333 436.5,-69.3333 436.5,-72.6667 433.167,-76 429.833,-76"/>
<text text-anchor="middle" x="392" y="-63.2" font-family="Helvetica,sans-Serif" font-size="11.00">query::allpages</text>
</g>
<!-- n4 -->
<g id="node4" class="node"><title>n4</title>
<path fill="#b3e2cd" stroke="#b3e2cd" d="M434.833,-855C434.833,-855 349.167,-855 349.167,-855 345.833,-855 342.5,-851.667 342.5,-848.333 342.5,-848.333 342.5,-841.667 342.5,-841.667 342.5,-838.333 345.833,-835 349.167,-835 349.167,-835 434.833,-835 434.833,-835 438.167,-835 441.5,-838.333 441.5,-841.667 441.5,-841.667 441.5,-848.333 441.5,-848.333 441.5,-851.667 438.167,-855 434.833,-855"/>
<text text-anchor="middle" x="392" y="-842.2" font-family="Helvetica,sans-Serif" font-size="11.00">query::categories</text>
</g>
<!-- n5 -->
<g id="node5" class="node"><title>n5</title>
<path fill="#b3e2cd" stroke="#b3e2cd" d="M433.333,-743C433.333,-743 350.667,-743 350.667,-743 347.333,-743 344,-739.667 344,-736.333 344,-736.333 344,-729.667 344,-729.667 344,-726.333 347.333,-723 350.667,-723 350.667,-723 433.333,-723 433.333,-723 436.667,-723 440,-726.333 440,-729.667 440,-729.667 440,-736.333 440,-736.333 440,-739.667 436.667,-743 433.333,-743"/>
<text text-anchor="middle" x="392" y="-730.2" font-family="Helvetica,sans-Serif" font-size="11.00">query::imageinfo</text>
</g>
<!-- n6 -->
<g id="node6" class="node"><title>n6</title>
<path fill="#b3e2cd" stroke="#b3e2cd" d="M426.833,-257C426.833,-257 357.167,-257 357.167,-257 353.833,-257 350.5,-253.667 350.5,-250.333 350.5,-250.333 350.5,-243.667 350.5,-243.667 350.5,-240.333 353.833,-237 357.167,-237 357.167,-237 426.833,-237 426.833,-237 430.167,-237 433.5,-240.333 433.5,-243.667 433.5,-243.667 433.5,-250.333 433.5,-250.333 433.5,-253.667 430.167,-257 426.833,-257"/>
<text text-anchor="middle" x="392" y="-244.2" font-family="Helvetica,sans-Serif" font-size="11.00">query::siteinfo</text>
</g>
<!-- n7 -->
<g id="node7" class="node"><title>n7</title>
<path fill="#b3e2cd" stroke="#b3e2cd" d="M423.333,-20C423.333,-20 360.667,-20 360.667,-20 357.333,-20 354,-16.6667 354,-13.3333 354,-13.3333 354,-6.66667 354,-6.66667 354,-3.33333 357.333,-0 360.667,-0 360.667,-0 423.333,-0 423.333,-0 426.667,-0 430,-3.33333 430,-6.66667 430,-6.66667 430,-13.3333 430,-13.3333 430,-16.6667 426.667,-20 423.333,-20"/>
<text text-anchor="middle" x="392" y="-7.2" font-family="Helvetica,sans-Serif" font-size="11.00">query::users</text>
</g>
<!-- n8 -->
<g id="node8" class="node"><title>n8</title>
<path fill="#b3e2cd" stroke="#b3e2cd" d="M437.333,-486C437.333,-486 346.667,-486 346.667,-486 343.333,-486 340,-482.667 340,-479.333 340,-479.333 340,-472.667 340,-472.667 340,-469.333 343.333,-466 346.667,-466 346.667,-466 437.333,-466 437.333,-466 440.667,-466 444,-469.333 444,-472.667 444,-472.667 444,-479.333 444,-479.333 444,-482.667 440.667,-486 437.333,-486"/>
<text text-anchor="middle" x="392" y="-473.2" font-family="Helvetica,sans-Serif" font-size="11.00">query::wkdomains</text>
</g>
<!-- n9 -->
<g id="node9" class="node"><title>n9</title>
<path fill="lightgrey" stroke="black" d="M102.333,-428C102.333,-428 49.6667,-428 49.6667,-428 46.3333,-428 43,-424.667 43,-421.333 43,-421.333 43,-414.667 43,-414.667 43,-411.333 46.3333,-408 49.6667,-408 49.6667,-408 102.333,-408 102.333,-408 105.667,-408 109,-411.333 109,-414.667 109,-414.667 109,-421.333 109,-421.333 109,-424.667 105.667,-428 102.333,-428"/>
<text text-anchor="middle" x="76" y="-415.2" font-family="Helvetica,sans-Serif" font-size="11.00">discussion</text>
</g>
<!-- n9&#45;&gt;n8 -->
<g id="edge8" class="edge"><title>n9&#45;&gt;n8</title>
<path fill="none" stroke="black" d="M109.128,-423.934C160.94,-433.505 263.814,-452.507 329.913,-464.716"/>
<polygon fill="black" stroke="black" points="329.321,-468.166 339.79,-466.541 330.593,-461.283 329.321,-468.166"/>
<text text-anchor="middle" x="217" y="-453.8" font-family="Helvetica,sans-Serif" font-size="9.00">0.023 reqs per sec</text>
</g>
<!-- n10 -->
<g id="node10" class="node"><title>n10</title>
<path fill="lightgrey" stroke="black" d="M125.833,-596C125.833,-596 26.1667,-596 26.1667,-596 22.8333,-596 19.5,-592.667 19.5,-589.333 19.5,-589.333 19.5,-582.667 19.5,-582.667 19.5,-579.333 22.8333,-576 26.1667,-576 26.1667,-576 125.833,-576 125.833,-576 129.167,-576 132.5,-579.333 132.5,-582.667 132.5,-582.667 132.5,-589.333 132.5,-589.333 132.5,-592.667 129.167,-596 125.833,-596"/>
<text text-anchor="middle" x="76" y="-583.2" font-family="Helvetica,sans-Serif" font-size="11.00">discussions&#45;sitemap</text>
</g>
<!-- n10&#45;&gt;n8 -->
<g id="edge5" class="edge"><title>n10&#45;&gt;n8</title>
<path fill="none" stroke="black" d="M111.705,-575.902C147.761,-565.219 205.7,-547.516 255,-530 290.391,-517.426 330.264,-501.365 357.638,-490.038"/>
<polygon fill="black" stroke="black" points="359.235,-493.165 367.126,-486.095 356.548,-486.701 359.235,-493.165"/>
<text text-anchor="middle" x="217" y="-557.8" font-family="Helvetica,sans-Serif" font-size="9.00">0.465 reqs per sec</text>
</g>
<!-- n11 -->
<g id="node11" class="node"><title>n11</title>
<path fill="lightgrey" stroke="black" d="M109.833,-698C109.833,-698 42.1667,-698 42.1667,-698 38.8333,-698 35.5,-694.667 35.5,-691.333 35.5,-691.333 35.5,-684.667 35.5,-684.667 35.5,-681.333 38.8333,-678 42.1667,-678 42.1667,-678 109.833,-678 109.833,-678 113.167,-678 116.5,-681.333 116.5,-684.667 116.5,-684.667 116.5,-691.333 116.5,-691.333 116.5,-694.667 113.167,-698 109.833,-698"/>
<text text-anchor="middle" x="76" y="-685.2" font-family="Helvetica,sans-Serif" font-size="11.00">image&#45;review</text>
</g>
<!-- n11&#45;&gt;n5 -->
<g id="edge7" class="edge"><title>n11&#45;&gt;n5</title>
<path fill="none" stroke="black" d="M116.768,-693.699C171.638,-701.563 270.891,-715.787 333.743,-724.794"/>
<polygon fill="black" stroke="black" points="333.492,-728.294 343.888,-726.248 334.485,-721.365 333.492,-728.294"/>
<text text-anchor="middle" x="217" y="-716.8" font-family="Helvetica,sans-Serif" font-size="9.00">0.127 reqs per sec</text>
</g>
<!-- n11&#45;&gt;n8 -->
<g id="edge15" class="edge"><title>n11&#45;&gt;n8</title>
<path fill="none" stroke="black" d="M93.3923,-677.92C125,-658.392 196.426,-613.817 255,-574 295.869,-546.218 342.357,-512.175 369.028,-492.4"/>
<polygon fill="black" stroke="black" points="371.338,-495.044 377.277,-486.27 367.163,-489.426 371.338,-495.044"/>
<text text-anchor="middle" x="217" y="-624.8" font-family="Helvetica,sans-Serif" font-size="9.00">0.046 reqs per sec</text>
</g>
<!-- n12 -->
<g id="node12" class="node"><title>n12</title>
<path fill="lightgrey" stroke="black" d="M95.3333,-936C95.3333,-936 56.6667,-936 56.6667,-936 53.3333,-936 50,-932.667 50,-929.333 50,-929.333 50,-922.667 50,-922.667 50,-919.333 53.3333,-916 56.6667,-916 56.6667,-916 95.3333,-916 95.3333,-916 98.6667,-916 102,-919.333 102,-922.667 102,-922.667 102,-929.333 102,-929.333 102,-932.667 98.6667,-936 95.3333,-936"/>
<text text-anchor="middle" x="76" y="-923.2" font-family="Helvetica,sans-Serif" font-size="11.00">internal</text>
</g>
<!-- n21 -->
<g id="node21" class="node"><title>n21</title>
<path fill="#cbd5e8" stroke="#cbd5e8" d="M489.833,-967C489.833,-967 294.167,-967 294.167,-967 290.833,-967 287.5,-963.667 287.5,-960.333 287.5,-960.333 287.5,-953.667 287.5,-953.667 287.5,-950.333 290.833,-947 294.167,-947 294.167,-947 489.833,-947 489.833,-947 493.167,-947 496.5,-950.333 496.5,-953.667 496.5,-953.667 496.5,-960.333 496.5,-960.333 496.5,-963.667 493.167,-967 489.833,-967"/>
<text text-anchor="middle" x="392" y="-954.2" font-family="Helvetica,sans-Serif" font-size="11.00">EmailControllerDiscussionReply::handle</text>
</g>
<!-- n12&#45;&gt;n21 -->
<g id="edge10" class="edge"><title>n12&#45;&gt;n21</title>
<path fill="none" stroke="black" d="M102.165,-928.484C140.361,-932.255 215.295,-939.653 279.266,-945.969"/>
<polygon fill="black" stroke="black" points="279.136,-949.473 289.432,-946.973 279.824,-942.507 279.136,-949.473"/>
<text text-anchor="middle" x="217" y="-946.8" font-family="Helvetica,sans-Serif" font-size="9.00">0.223 reqs per sec</text>
</g>
<!-- n22 -->
<g id="node22" class="node"><title>n22</title>
<path fill="#cbd5e8" stroke="#cbd5e8" d="M492.833,-911C492.833,-911 291.167,-911 291.167,-911 287.833,-911 284.5,-907.667 284.5,-904.333 284.5,-904.333 284.5,-897.667 284.5,-897.667 284.5,-894.333 287.833,-891 291.167,-891 291.167,-891 492.833,-891 492.833,-891 496.167,-891 499.5,-894.333 499.5,-897.667 499.5,-897.667 499.5,-904.333 499.5,-904.333 499.5,-907.667 496.167,-911 492.833,-911"/>
<text text-anchor="middle" x="392" y="-898.2" font-family="Helvetica,sans-Serif" font-size="11.00">EmailControllerDiscussionUpvote::handle</text>
</g>
<!-- n12&#45;&gt;n22 -->
<g id="edge13" class="edge"><title>n12&#45;&gt;n22</title>
<path fill="none" stroke="black" d="M102.285,-918.363C122.753,-912.592 152.444,-905.146 179,-902 209.837,-898.347 243.375,-896.994 274.484,-896.82"/>
<polygon fill="black" stroke="black" points="274.498,-900.32 284.492,-896.804 274.486,-893.32 274.498,-900.32"/>
<text text-anchor="middle" x="217" y="-904.8" font-family="Helvetica,sans-Serif" font-size="9.00">0.006 reqs per sec</text>
</g>
<!-- n13 -->
<g id="node13" class="node"><title>n13</title>
<path fill="lightgrey" stroke="black" d="M101.333,-1361C101.333,-1361 50.6667,-1361 50.6667,-1361 47.3333,-1361 44,-1357.67 44,-1354.33 44,-1354.33 44,-1347.67 44,-1347.67 44,-1344.33 47.3333,-1341 50.6667,-1341 50.6667,-1341 101.333,-1341 101.333,-1341 104.667,-1341 108,-1344.33 108,-1347.67 108,-1347.67 108,-1354.33 108,-1354.33 108,-1357.67 104.667,-1361 101.333,-1361"/>
<text text-anchor="middle" x="76" y="-1348.2" font-family="Helvetica,sans-Serif" font-size="11.00">mediawiki</text>
</g>
<!-- n26 -->
<g id="node26" class="node"><title>n26</title>
<path fill="#f4cae4" stroke="#f4cae4" d="M443.333,-1397C443.333,-1397 340.667,-1397 340.667,-1397 337.333,-1397 334,-1393.67 334,-1390.33 334,-1390.33 334,-1383.67 334,-1383.67 334,-1380.33 337.333,-1377 340.667,-1377 340.667,-1377 443.333,-1377 443.333,-1377 446.667,-1377 450,-1380.33 450,-1383.67 450,-1383.67 450,-1390.33 450,-1390.33 450,-1393.67 446.667,-1397 443.333,-1397"/>
<text text-anchor="middle" x="392" y="-1384.2" font-family="Helvetica,sans-Serif" font-size="11.00">article&#45;video::internal</text>
</g>
<!-- n13&#45;&gt;n26 -->
<g id="edge28" class="edge"><title>n13&#45;&gt;n26</title>
<path fill="none" stroke="black" d="M108.255,-1354.58C158.274,-1360.32 257.434,-1371.69 324.001,-1379.32"/>
<polygon fill="black" stroke="black" points="323.65,-1382.8 333.983,-1380.46 324.447,-1375.85 323.65,-1382.8"/>
<text text-anchor="middle" x="217" y="-1374.8" font-family="Helvetica,sans-Serif" font-size="9.00">0.281 reqs per sec</text>
</g>
<!-- n27 -->
<g id="node27" class="node"><title>n27</title>
<path fill="#f4cae4" stroke="#f4cae4" d="M437.833,-1631C437.833,-1631 346.167,-1631 346.167,-1631 342.833,-1631 339.5,-1627.67 339.5,-1624.33 339.5,-1624.33 339.5,-1617.67 339.5,-1617.67 339.5,-1614.33 342.833,-1611 346.167,-1611 346.167,-1611 437.833,-1611 437.833,-1611 441.167,-1611 444.5,-1614.33 444.5,-1617.67 444.5,-1617.67 444.5,-1624.33 444.5,-1624.33 444.5,-1627.67 441.167,-1631 437.833,-1631"/>
<text text-anchor="middle" x="392" y="-1618.2" font-family="Helvetica,sans-Serif" font-size="11.00">discussion::forums</text>
</g>
<!-- n13&#45;&gt;n27 -->
<g id="edge38" class="edge"><title>n13&#45;&gt;n27</title>
<path fill="none" stroke="black" d="M79.8526,-1361.12C89.0689,-1392.12 120.875,-1486.95 179,-1541 203.68,-1563.95 290.287,-1592.01 344.873,-1608.07"/>
<polygon fill="black" stroke="black" points="344.09,-1611.49 354.67,-1610.92 346.048,-1604.76 344.09,-1611.49"/>
<text text-anchor="middle" x="217" y="-1579.8" font-family="Helvetica,sans-Serif" font-size="9.00">0.001 reqs per sec</text>
</g>
<!-- n29 -->
<g id="node29" class="node"><title>n29</title>
<path fill="#f4cae4" stroke="#f4cae4" d="M439.333,-1285C439.333,-1285 344.667,-1285 344.667,-1285 341.333,-1285 338,-1281.67 338,-1278.33 338,-1278.33 338,-1271.67 338,-1271.67 338,-1268.33 341.333,-1265 344.667,-1265 344.667,-1265 439.333,-1265 439.333,-1265 442.667,-1265 446,-1268.33 446,-1271.67 446,-1271.67 446,-1278.33 446,-1278.33 446,-1281.67 442.667,-1285 439.333,-1285"/>
<text text-anchor="middle" x="392" y="-1272.2" font-family="Helvetica,sans-Serif" font-size="11.00">discussion::redirect</text>
</g>
<!-- n13&#45;&gt;n29 -->
<g id="edge41" class="edge"><title>n13&#45;&gt;n29</title>
<path fill="none" stroke="black" d="M94.7953,-1340.82C114.671,-1329.93 148.116,-1313.01 179,-1304 227.862,-1289.74 285.149,-1282.44 327.847,-1278.73"/>
<polygon fill="black" stroke="black" points="328.145,-1282.22 337.822,-1277.91 327.568,-1275.24 328.145,-1282.22"/>
<text text-anchor="middle" x="217" y="-1306.8" font-family="Helvetica,sans-Serif" font-size="9.00">0.001 reqs per sec</text>
</g>
<!-- n30 -->
<g id="node30" class="node"><title>n30</title>
<path fill="#f4cae4" stroke="#f4cae4" d="M439.333,-1740C439.333,-1740 344.667,-1740 344.667,-1740 341.333,-1740 338,-1736.67 338,-1733.33 338,-1733.33 338,-1726.67 338,-1726.67 338,-1723.33 341.333,-1720 344.667,-1720 344.667,-1720 439.333,-1720 439.333,-1720 442.667,-1720 446,-1723.33 446,-1726.67 446,-1726.67 446,-1733.33 446,-1733.33 446,-1736.67 442.667,-1740 439.333,-1740"/>
<text text-anchor="middle" x="392" y="-1727.2" font-family="Helvetica,sans-Serif" font-size="11.00">discussion::threads</text>
</g>
<!-- n13&#45;&gt;n30 -->
<g id="edge31" class="edge"><title>n13&#45;&gt;n30</title>
<path fill="none" stroke="black" d="M77.62,-1361.05C80.6588,-1401.84 97.3535,-1556.88 179,-1643 191.614,-1656.31 295.982,-1695.56 353.427,-1716.49"/>
<polygon fill="black" stroke="black" points="352.304,-1719.81 362.898,-1719.93 354.694,-1713.23 352.304,-1719.81"/>
<text text-anchor="middle" x="217" y="-1678.8" font-family="Helvetica,sans-Serif" font-size="9.00">0.039 reqs per sec</text>
</g>
<!-- n31 -->
<g id="node31" class="node"><title>n31</title>
<path fill="#f4cae4" stroke="#f4cae4" d="M434.333,-1569C434.333,-1569 349.667,-1569 349.667,-1569 346.333,-1569 343,-1565.67 343,-1562.33 343,-1562.33 343,-1555.67 343,-1555.67 343,-1552.33 346.333,-1549 349.667,-1549 349.667,-1549 434.333,-1549 434.333,-1549 437.667,-1549 441,-1552.33 441,-1555.67 441,-1555.67 441,-1562.33 441,-1562.33 441,-1565.67 437.667,-1569 434.333,-1569"/>
<text text-anchor="middle" x="392" y="-1556.2" font-family="Helvetica,sans-Serif" font-size="11.00">discussion::users</text>
</g>
<!-- n13&#45;&gt;n31 -->
<g id="edge32" class="edge"><title>n13&#45;&gt;n31</title>
<path fill="none" stroke="black" d="M87.076,-1361.09C104.688,-1378.39 142.665,-1414.24 179,-1439 210.543,-1460.49 226.426,-1453.69 255,-1479 270.782,-1492.98 265.378,-1505.03 282,-1518 298.086,-1530.55 318.427,-1539.58 337.168,-1545.91"/>
<polygon fill="black" stroke="black" points="336.202,-1549.27 346.792,-1548.98 338.329,-1542.6 336.202,-1549.27"/>
<text text-anchor="middle" x="217" y="-1481.8" font-family="Helvetica,sans-Serif" font-size="9.00">0.029 reqs per sec</text>
</g>
<!-- n32 -->
<g id="node32" class="node"><title>n32</title>
<path fill="#f4cae4" stroke="#f4cae4" d="M469.333,-1229C469.333,-1229 314.667,-1229 314.667,-1229 311.333,-1229 308,-1225.67 308,-1222.33 308,-1222.33 308,-1215.67 308,-1215.67 308,-1212.33 311.333,-1209 314.667,-1209 314.667,-1209 469.333,-1209 469.333,-1209 472.667,-1209 476,-1212.33 476,-1215.67 476,-1215.67 476,-1222.33 476,-1222.33 476,-1225.67 472.667,-1229 469.333,-1229"/>
<text text-anchor="middle" x="392" y="-1216.2" font-family="Helvetica,sans-Serif" font-size="11.00">fandom&#45;search&#45;service::fandom</text>
</g>
<!-- n13&#45;&gt;n32 -->
<g id="edge37" class="edge"><title>n13&#45;&gt;n32</title>
<path fill="none" stroke="black" d="M86.3739,-1340.96C103.207,-1323.56 140.414,-1287.85 179,-1269 217.209,-1250.34 262.756,-1238.42 301.822,-1230.93"/>
<polygon fill="black" stroke="black" points="302.933,-1234.28 312.13,-1229.02 301.661,-1227.4 302.933,-1234.28"/>
<text text-anchor="middle" x="217" y="-1271.8" font-family="Helvetica,sans-Serif" font-size="9.00">0.021 reqs per sec</text>
</g>
<!-- n33 -->
<g id="node33" class="node"><title>n33</title>
<path fill="#f4cae4" stroke="#f4cae4" d="M419.333,-1500C419.333,-1500 364.667,-1500 364.667,-1500 361.333,-1500 358,-1496.67 358,-1493.33 358,-1493.33 358,-1486.67 358,-1486.67 358,-1483.33 361.333,-1480 364.667,-1480 364.667,-1480 419.333,-1480 419.333,-1480 422.667,-1480 426,-1483.33 426,-1486.67 426,-1486.67 426,-1493.33 426,-1493.33 426,-1496.67 422.667,-1500 419.333,-1500"/>
<text text-anchor="middle" x="392" y="-1487.2" font-family="Helvetica,sans-Serif" font-size="11.00">helios::info</text>
</g>
<!-- n13&#45;&gt;n33 -->
<g id="edge29" class="edge"><title>n13&#45;&gt;n33</title>
<path fill="none" stroke="black" d="M100.674,-1361.07C134.84,-1375.64 199.919,-1403.53 255,-1428 291.275,-1444.11 332.756,-1463.11 360.27,-1475.78"/>
<polygon fill="black" stroke="black" points="358.842,-1478.98 369.389,-1479.99 361.774,-1472.62 358.842,-1478.98"/>
<text text-anchor="middle" x="217" y="-1430.8" font-family="Helvetica,sans-Serif" font-size="9.00">2.289 reqs per sec</text>
</g>
<!-- n34 -->
<g id="node34" class="node"><title>n34</title>
<path fill="#f4cae4" stroke="#f4cae4" d="M429.833,-1173C429.833,-1173 354.167,-1173 354.167,-1173 350.833,-1173 347.5,-1169.67 347.5,-1166.33 347.5,-1166.33 347.5,-1159.67 347.5,-1159.67 347.5,-1156.33 350.833,-1153 354.167,-1153 354.167,-1153 429.833,-1153 429.833,-1153 433.167,-1153 436.5,-1156.33 436.5,-1159.67 436.5,-1159.67 436.5,-1166.33 436.5,-1166.33 436.5,-1169.67 433.167,-1173 429.833,-1173"/>
<text text-anchor="middle" x="392" y="-1160.2" font-family="Helvetica,sans-Serif" font-size="11.00">phalanx::match</text>
</g>
<!-- n13&#45;&gt;n34 -->
<g id="edge26" class="edge"><title>n13&#45;&gt;n34</title>
<path fill="none" stroke="black" d="M82.4164,-1340.75C95.6313,-1316.72 131.921,-1256.35 179,-1224 226.685,-1191.23 291.92,-1175.89 337.384,-1168.83"/>
<polygon fill="black" stroke="black" points="337.96,-1172.28 347.344,-1167.36 336.941,-1165.35 337.96,-1172.28"/>
<text text-anchor="middle" x="217" y="-1226.8" font-family="Helvetica,sans-Serif" font-size="9.00">3.044 reqs per sec</text>
</g>
<!-- n35 -->
<g id="node35" class="node"><title>n35</title>
<path fill="#f4cae4" stroke="#f4cae4" d="M434.333,-1117C434.333,-1117 349.667,-1117 349.667,-1117 346.333,-1117 343,-1113.67 343,-1110.33 343,-1110.33 343,-1103.67 343,-1103.67 343,-1100.33 346.333,-1097 349.667,-1097 349.667,-1097 434.333,-1097 434.333,-1097 437.667,-1097 441,-1100.33 441,-1103.67 441,-1103.67 441,-1110.33 441,-1110.33 441,-1113.67 437.667,-1117 434.333,-1117"/>
<text text-anchor="middle" x="392" y="-1104.2" font-family="Helvetica,sans-Serif" font-size="11.00">site&#45;attribute::site</text>
</g>
<!-- n13&#45;&gt;n35 -->
<g id="edge43" class="edge"><title>n13&#45;&gt;n35</title>
<path fill="none" stroke="black" d="M79.9177,-1340.69C89.1161,-1310.04 120.428,-1218.6 179,-1170 222.68,-1133.76 286.601,-1118.36 332.824,-1111.83"/>
<polygon fill="black" stroke="black" points="333.533,-1115.26 342.991,-1110.49 332.62,-1108.32 333.533,-1115.26"/>
<text text-anchor="middle" x="217" y="-1172.8" font-family="Helvetica,sans-Serif" font-size="9.00">0.000 reqs per sec</text>
</g>
<!-- n37 -->
<g id="node37" class="node"><title>n37</title>
<path fill="#f4cae4" stroke="#f4cae4" d="M465.833,-1042C465.833,-1042 318.167,-1042 318.167,-1042 314.833,-1042 311.5,-1038.67 311.5,-1035.33 311.5,-1035.33 311.5,-1028.67 311.5,-1028.67 311.5,-1025.33 314.833,-1022 318.167,-1022 318.167,-1022 465.833,-1022 465.833,-1022 469.167,-1022 472.5,-1025.33 472.5,-1028.67 472.5,-1028.67 472.5,-1035.33 472.5,-1035.33 472.5,-1038.67 469.167,-1042 465.833,-1042"/>
<text text-anchor="middle" x="392" y="-1029.2" font-family="Helvetica,sans-Serif" font-size="11.00">template&#45;classification&#45;storage</text>
</g>
<!-- n13&#45;&gt;n37 -->
<g id="edge30" class="edge"><title>n13&#45;&gt;n37</title>
<path fill="none" stroke="black" d="M78.4594,-1340.77C84.1755,-1304.36 108.32,-1179.74 179,-1112 217.023,-1075.56 273.255,-1055.36 318.252,-1044.37"/>
<polygon fill="black" stroke="black" points="319.315,-1047.72 328.256,-1042.03 317.722,-1040.9 319.315,-1047.72"/>
<text text-anchor="middle" x="217" y="-1114.8" font-family="Helvetica,sans-Serif" font-size="9.00">0.708 reqs per sec</text>
</g>
<!-- n38 -->
<g id="node38" class="node"><title>n38</title>
<path fill="#f4cae4" stroke="#f4cae4" d="M438.833,-1843C438.833,-1843 345.167,-1843 345.167,-1843 341.833,-1843 338.5,-1839.67 338.5,-1836.33 338.5,-1836.33 338.5,-1829.67 338.5,-1829.67 338.5,-1826.33 341.833,-1823 345.167,-1823 345.167,-1823 438.833,-1823 438.833,-1823 442.167,-1823 445.5,-1826.33 445.5,-1829.67 445.5,-1829.67 445.5,-1836.33 445.5,-1836.33 445.5,-1839.67 442.167,-1843 438.833,-1843"/>
<text text-anchor="middle" x="392" y="-1830.2" font-family="Helvetica,sans-Serif" font-size="11.00">user&#45;attribute::user</text>
</g>
<!-- n13&#45;&gt;n38 -->
<g id="edge24" class="edge"><title>n13&#45;&gt;n38</title>
<path fill="none" stroke="black" d="M76.5485,-1361.32C74.956,-1410.63 74.4981,-1624.72 179,-1745 191.045,-1758.86 295.663,-1798.39 353.293,-1819.43"/>
<polygon fill="black" stroke="black" points="352.202,-1822.76 362.796,-1822.89 354.596,-1816.18 352.202,-1822.76"/>
<text text-anchor="middle" x="217" y="-1783.8" font-family="Helvetica,sans-Serif" font-size="9.00">4.866 reqs per sec</text>
</g>
<!-- n40 -->
<g id="node40" class="node"><title>n40</title>
<path fill="#f4cae4" stroke="#f4cae4" d="M431.833,-1341C431.833,-1341 352.167,-1341 352.167,-1341 348.833,-1341 345.5,-1337.67 345.5,-1334.33 345.5,-1334.33 345.5,-1327.67 345.5,-1327.67 345.5,-1324.33 348.833,-1321 352.167,-1321 352.167,-1321 431.833,-1321 431.833,-1321 435.167,-1321 438.5,-1324.33 438.5,-1327.67 438.5,-1327.67 438.5,-1334.33 438.5,-1334.33 438.5,-1337.67 435.167,-1341 431.833,-1341"/>
<text text-anchor="middle" x="392" y="-1328.2" font-family="Helvetica,sans-Serif" font-size="11.00">user&#45;preference</text>
</g>
<!-- n13&#45;&gt;n40 -->
<g id="edge25" class="edge"><title>n13&#45;&gt;n40</title>
<path fill="none" stroke="black" d="M108.341,-1341.25C128.335,-1335.54 154.926,-1328.91 179,-1326 231.675,-1319.64 292.23,-1322.02 335.099,-1325.32"/>
<polygon fill="black" stroke="black" points="335.077,-1328.83 345.327,-1326.16 335.644,-1321.86 335.077,-1328.83"/>
<text text-anchor="middle" x="217" y="-1328.8" font-family="Helvetica,sans-Serif" font-size="9.00">2.237 reqs per sec</text>
</g>
<!-- n14 -->
<g id="node14" class="node"><title>n14</title>
<path fill="#fdcdac" stroke="#fdcdac" d="M420.833,-2116C420.833,-2116 363.167,-2116 363.167,-2116 359.833,-2116 356.5,-2112.67 356.5,-2109.33 356.5,-2109.33 356.5,-2102.67 356.5,-2102.67 356.5,-2099.33 359.833,-2096 363.167,-2096 363.167,-2096 420.833,-2096 420.833,-2096 424.167,-2096 427.5,-2099.33 427.5,-2102.67 427.5,-2102.67 427.5,-2109.33 427.5,-2109.33 427.5,-2112.67 424.167,-2116 420.833,-2116"/>
<text text-anchor="middle" x="392" y="-2103.2" font-family="Helvetica,sans-Serif" font-size="11.00">Main_Page</text>
</g>
<!-- n15 -->
<g id="node15" class="node"><title>n15</title>
<path fill="#fdcdac" stroke="#fdcdac" d="M443.833,-2060C443.833,-2060 340.167,-2060 340.167,-2060 336.833,-2060 333.5,-2056.67 333.5,-2053.33 333.5,-2053.33 333.5,-2046.67 333.5,-2046.67 333.5,-2043.33 336.833,-2040 340.167,-2040 340.167,-2040 443.833,-2040 443.833,-2040 447.167,-2040 450.5,-2043.33 450.5,-2046.67 450.5,-2046.67 450.5,-2053.33 450.5,-2053.33 450.5,-2056.67 447.167,-2060 443.833,-2060"/>
<text text-anchor="middle" x="392" y="-2047.2" font-family="Helvetica,sans-Serif" font-size="11.00">Special:HealthCheck</text>
</g>
<!-- n16 -->
<g id="node16" class="node"><title>n16</title>
<path fill="lightgrey" stroke="black" d="M97.3333,-2193C97.3333,-2193 54.6667,-2193 54.6667,-2193 51.3333,-2193 48,-2189.67 48,-2186.33 48,-2186.33 48,-2179.67 48,-2179.67 48,-2176.33 51.3333,-2173 54.6667,-2173 54.6667,-2173 97.3333,-2173 97.3333,-2173 100.667,-2173 104,-2176.33 104,-2179.67 104,-2179.67 104,-2186.33 104,-2186.33 104,-2189.67 100.667,-2193 97.3333,-2193"/>
<text text-anchor="middle" x="76" y="-2180.2" font-family="Helvetica,sans-Serif" font-size="11.00">mercury</text>
</g>
<!-- n20 -->
<g id="node20" class="node"><title>n20</title>
<path fill="#cbd5e8" stroke="#cbd5e8" d="M495.333,-2242C495.333,-2242 288.667,-2242 288.667,-2242 285.333,-2242 282,-2238.67 282,-2235.33 282,-2235.33 282,-2228.67 282,-2228.67 282,-2225.33 285.333,-2222 288.667,-2222 288.667,-2222 495.333,-2222 495.333,-2222 498.667,-2222 502,-2225.33 502,-2228.67 502,-2228.67 502,-2235.33 502,-2235.33 502,-2238.67 498.667,-2242 495.333,-2242"/>
<text text-anchor="middle" x="392" y="-2229.2" font-family="Helvetica,sans-Serif" font-size="11.00">EmailConfirmation::postEmailConfirmation</text>
</g>
<!-- n16&#45;&gt;n20 -->
<g id="edge20" class="edge"><title>n16&#45;&gt;n20</title>
<path fill="none" stroke="black" d="M104.043,-2187.22C150.737,-2194.51 248.029,-2209.69 316.331,-2220.35"/>
<polygon fill="black" stroke="black" points="316.189,-2223.87 326.609,-2221.95 317.268,-2216.95 316.189,-2223.87"/>
<text text-anchor="middle" x="217" y="-2212.8" font-family="Helvetica,sans-Serif" font-size="9.00">0.011 reqs per sec</text>
</g>
<!-- n23 -->
<g id="node23" class="node"><title>n23</title>
<path fill="#cbd5e8" stroke="#cbd5e8" d="M464.333,-2186C464.333,-2186 319.667,-2186 319.667,-2186 316.333,-2186 313,-2182.67 313,-2179.33 313,-2179.33 313,-2172.67 313,-2172.67 313,-2169.33 316.333,-2166 319.667,-2166 319.667,-2166 464.333,-2166 464.333,-2166 467.667,-2166 471,-2169.33 471,-2172.67 471,-2172.67 471,-2179.33 471,-2179.33 471,-2182.67 467.667,-2186 464.333,-2186"/>
<text text-anchor="middle" x="392" y="-2173.2" font-family="Helvetica,sans-Serif" font-size="11.00">MercuryApi::getWikiVariables</text>
</g>
<!-- n16&#45;&gt;n23 -->
<g id="edge9" class="edge"><title>n16&#45;&gt;n23</title>
<path fill="none" stroke="black" d="M104.256,-2181C124.79,-2179.58 153.646,-2177.8 179,-2177 219.693,-2175.71 264.8,-2175.35 302.91,-2175.35"/>
<polygon fill="black" stroke="black" points="302.948,-2178.85 312.951,-2175.36 302.955,-2171.85 302.948,-2178.85"/>
<text text-anchor="middle" x="217" y="-2179.8" font-family="Helvetica,sans-Serif" font-size="9.00">0.113 reqs per sec</text>
</g>
<!-- n17 -->
<g id="node17" class="node"><title>n17</title>
<path fill="lightgrey" stroke="black" d="M127.833,-1018C127.833,-1018 24.1667,-1018 24.1667,-1018 20.8333,-1018 17.5,-1014.67 17.5,-1011.33 17.5,-1011.33 17.5,-1004.67 17.5,-1004.67 17.5,-1001.33 20.8333,-998 24.1667,-998 24.1667,-998 127.833,-998 127.833,-998 131.167,-998 134.5,-1001.33 134.5,-1004.67 134.5,-1004.67 134.5,-1011.33 134.5,-1011.33 134.5,-1014.67 131.167,-1018 127.833,-1018"/>
<text text-anchor="middle" x="76" y="-1005.2" font-family="Helvetica,sans-Serif" font-size="11.00">metric&#45;feeder&#45;worker</text>
</g>
<!-- n17&#45;&gt;n37 -->
<g id="edge35" class="edge"><title>n17&#45;&gt;n37</title>
<path fill="none" stroke="black" d="M134.83,-1005.45C169.703,-1004.55 214.98,-1004.5 255,-1008 281.765,-1010.34 311.158,-1015.23 335.749,-1019.99"/>
<polygon fill="black" stroke="black" points="335.131,-1023.44 345.62,-1021.95 336.489,-1016.57 335.131,-1023.44"/>
<text text-anchor="middle" x="217" y="-1010.8" font-family="Helvetica,sans-Serif" font-size="9.00">0.205 reqs per sec</text>
</g>
<!-- n18 -->
<g id="node18" class="node"><title>n18</title>
<path fill="lightgrey" stroke="black" d="M104.333,-1846C104.333,-1846 47.6667,-1846 47.6667,-1846 44.3333,-1846 41,-1842.67 41,-1839.33 41,-1839.33 41,-1832.67 41,-1832.67 41,-1829.33 44.3333,-1826 47.6667,-1826 47.6667,-1826 104.333,-1826 104.333,-1826 107.667,-1826 111,-1829.33 111,-1832.67 111,-1832.67 111,-1839.33 111,-1839.33 111,-1842.67 107.667,-1846 104.333,-1846"/>
<text text-anchor="middle" x="76" y="-1833.2" font-family="Helvetica,sans-Serif" font-size="11.00">mobile&#45;wiki</text>
</g>
<!-- n18&#45;&gt;n27 -->
<g id="edge36" class="edge"><title>n18&#45;&gt;n27</title>
<path fill="none" stroke="black" d="M85.4215,-1825.72C101.873,-1806.08 140.086,-1762.67 179,-1734 209.731,-1711.36 221.295,-1711.92 255,-1694 292.465,-1674.09 335.61,-1650.88 363.078,-1636.07"/>
<polygon fill="black" stroke="black" points="364.965,-1639.03 372.105,-1631.2 361.642,-1632.87 364.965,-1639.03"/>
<text text-anchor="middle" x="217" y="-1736.8" font-family="Helvetica,sans-Serif" font-size="9.00">0.041 reqs per sec</text>
</g>
<!-- n28 -->
<g id="node28" class="node"><title>n28</title>
<path fill="#f4cae4" stroke="#f4cae4" d="M447.333,-2004C447.333,-2004 336.667,-2004 336.667,-2004 333.333,-2004 330,-2000.67 330,-1997.33 330,-1997.33 330,-1990.67 330,-1990.67 330,-1987.33 333.333,-1984 336.667,-1984 336.667,-1984 447.333,-1984 447.333,-1984 450.667,-1984 454,-1987.33 454,-1990.67 454,-1990.67 454,-1997.33 454,-1997.33 454,-2000.67 450.667,-2004 447.333,-2004"/>
<text text-anchor="middle" x="392" y="-1991.2" font-family="Helvetica,sans-Serif" font-size="11.00">discussion::permalinks</text>
</g>
<!-- n18&#45;&gt;n28 -->
<g id="edge42" class="edge"><title>n18&#45;&gt;n28</title>
<path fill="none" stroke="black" d="M89.1138,-1846.01C107.779,-1861.21 144.982,-1890.6 179,-1912 222.748,-1939.53 233.757,-1947.45 282,-1966 297.857,-1972.1 315.517,-1977.28 331.926,-1981.47"/>
<polygon fill="black" stroke="black" points="331.406,-1984.95 341.954,-1983.95 333.086,-1978.16 331.406,-1984.95"/>
<text text-anchor="middle" x="217" y="-1956.8" font-family="Helvetica,sans-Serif" font-size="9.00">0.001 reqs per sec</text>
</g>
<!-- n18&#45;&gt;n30 -->
<g id="edge33" class="edge"><title>n18&#45;&gt;n30</title>
<path fill="none" stroke="black" d="M111.111,-1830.75C147.429,-1824.6 206.267,-1813.04 255,-1796 294.667,-1782.13 337.918,-1759.79 364.752,-1745"/>
<polygon fill="black" stroke="black" points="366.494,-1748.04 373.525,-1740.11 363.086,-1741.92 366.494,-1748.04"/>
<text text-anchor="middle" x="217" y="-1818.8" font-family="Helvetica,sans-Serif" font-size="9.00">0.087 reqs per sec</text>
</g>
<!-- n18&#45;&gt;n31 -->
<g id="edge44" class="edge"><title>n18&#45;&gt;n31</title>
<path fill="none" stroke="black" d="M79.2575,-1825.92C87.0887,-1793.19 116.114,-1688.8 179,-1632 203,-1610.32 285.155,-1586.03 339.863,-1571.65"/>
<polygon fill="black" stroke="black" points="340.941,-1574.99 349.739,-1569.09 339.18,-1568.21 340.941,-1574.99"/>
<text text-anchor="middle" x="217" y="-1634.8" font-family="Helvetica,sans-Serif" font-size="9.00">0.000 reqs per sec</text>
</g>
<!-- n18&#45;&gt;n33 -->
<g id="edge27" class="edge"><title>n18&#45;&gt;n33</title>
<path fill="none" stroke="black" d="M76.9612,-1825.86C77.3848,-1782.6 85.144,-1611.95 179,-1530 225.69,-1489.23 300.604,-1484.46 347.742,-1486.18"/>
<polygon fill="black" stroke="black" points="347.781,-1489.68 357.937,-1486.67 348.116,-1482.69 347.781,-1489.68"/>
<text text-anchor="middle" x="217" y="-1532.8" font-family="Helvetica,sans-Serif" font-size="9.00">0.010 reqs per sec</text>
</g>
<!-- n18&#45;&gt;n38 -->
<g id="edge39" class="edge"><title>n18&#45;&gt;n38</title>
<path fill="none" stroke="black" d="M111.391,-1840.64C131.133,-1843.07 156.413,-1845.79 179,-1847 212.729,-1848.81 221.267,-1848.73 255,-1847 279.056,-1845.77 305.412,-1843.31 328.463,-1840.79"/>
<polygon fill="black" stroke="black" points="328.912,-1844.27 338.461,-1839.68 328.135,-1837.31 328.912,-1844.27"/>
<text text-anchor="middle" x="217" y="-1850.8" font-family="Helvetica,sans-Serif" font-size="9.00">0.005 reqs per sec</text>
</g>
<!-- n39 -->
<g id="node39" class="node"><title>n39</title>
<path fill="#f4cae4" stroke="#f4cae4" d="M465.833,-1948C465.833,-1948 318.167,-1948 318.167,-1948 314.833,-1948 311.5,-1944.67 311.5,-1941.33 311.5,-1941.33 311.5,-1934.67 311.5,-1934.67 311.5,-1931.33 314.833,-1928 318.167,-1928 318.167,-1928 465.833,-1928 465.833,-1928 469.167,-1928 472.5,-1931.33 472.5,-1934.67 472.5,-1934.67 472.5,-1941.33 472.5,-1941.33 472.5,-1944.67 469.167,-1948 465.833,-1948"/>
<text text-anchor="middle" x="392" y="-1935.2" font-family="Helvetica,sans-Serif" font-size="11.00">user&#45;permissions::permissions</text>
</g>
<!-- n18&#45;&gt;n39 -->
<g id="edge40" class="edge"><title>n18&#45;&gt;n39</title>
<path fill="none" stroke="black" d="M107.967,-1846.06C164.95,-1864.57 286.405,-1904.02 350.094,-1924.71"/>
<polygon fill="black" stroke="black" points="349.209,-1928.1 359.801,-1927.87 351.372,-1921.45 349.209,-1928.1"/>
<text text-anchor="middle" x="217" y="-1895.8" font-family="Helvetica,sans-Serif" font-size="9.00">0.003 reqs per sec</text>
</g>
<!-- n19 -->
<g id="node19" class="node"><title>n19</title>
<path fill="lightgrey" stroke="black" d="M93.3333,-2109C93.3333,-2109 58.6667,-2109 58.6667,-2109 55.3333,-2109 52,-2105.67 52,-2102.33 52,-2102.33 52,-2095.67 52,-2095.67 52,-2092.33 55.3333,-2089 58.6667,-2089 58.6667,-2089 93.3333,-2089 93.3333,-2089 96.6667,-2089 100,-2092.33 100,-2095.67 100,-2095.67 100,-2102.33 100,-2102.33 100,-2105.67 96.6667,-2109 93.3333,-2109"/>
<text text-anchor="middle" x="76" y="-2096.2" font-family="Helvetica,sans-Serif" font-size="11.00">nagios</text>
</g>
<!-- n19&#45;&gt;n14 -->
<g id="edge4" class="edge"><title>n19&#45;&gt;n14</title>
<path fill="none" stroke="black" d="M100.089,-2099.51C151.915,-2100.67 278.255,-2103.49 346.128,-2105"/>
<polygon fill="black" stroke="black" points="346.423,-2108.51 356.499,-2105.23 346.579,-2101.51 346.423,-2108.51"/>
<text text-anchor="middle" x="217" y="-2104.8" font-family="Helvetica,sans-Serif" font-size="9.00">1.227 reqs per sec</text>
</g>
<!-- n19&#45;&gt;n15 -->
<g id="edge3" class="edge"><title>n19&#45;&gt;n15</title>
<path fill="none" stroke="black" d="M100.074,-2095.05C120.737,-2091.54 151.872,-2086.31 179,-2082 227.226,-2074.34 281.695,-2066.13 323.346,-2059.94"/>
<polygon fill="black" stroke="black" points="323.998,-2063.38 333.377,-2058.45 322.971,-2056.46 323.998,-2063.38"/>
<text text-anchor="middle" x="217" y="-2084.8" font-family="Helvetica,sans-Serif" font-size="9.00">1.231 reqs per sec</text>
</g>
<!-- n24 -->
<g id="node24" class="node"><title>n24</title>
<path fill="lightgrey" stroke="black" d="M123.833,-329C123.833,-329 28.1667,-329 28.1667,-329 24.8333,-329 21.5,-325.667 21.5,-322.333 21.5,-322.333 21.5,-315.667 21.5,-315.667 21.5,-312.333 24.8333,-309 28.1667,-309 28.1667,-309 123.833,-309 123.833,-309 127.167,-309 130.5,-312.333 130.5,-315.667 130.5,-315.667 130.5,-322.333 130.5,-322.333 130.5,-325.667 127.167,-329 123.833,-329"/>
<text text-anchor="middle" x="76" y="-316.2" font-family="Helvetica,sans-Serif" font-size="11.00">on&#45;site&#45;notifications</text>
</g>
<!-- n24&#45;&gt;n6 -->
<g id="edge19" class="edge"><title>n24&#45;&gt;n6</title>
<path fill="none" stroke="black" d="M94.4048,-308.911C114.207,-297.933 147.846,-280.776 179,-272 232.83,-256.836 296.861,-250.863 340.363,-248.514"/>
<polygon fill="black" stroke="black" points="340.6,-252.006 350.414,-248.016 340.253,-245.015 340.6,-252.006"/>
<text text-anchor="middle" x="217" y="-274.8" font-family="Helvetica,sans-Serif" font-size="9.00">0.004 reqs per sec</text>
</g>
<!-- n24&#45;&gt;n8 -->
<g id="edge18" class="edge"><title>n24&#45;&gt;n8</title>
<path fill="none" stroke="black" d="M97.1198,-329.06C150.937,-355.968 298.387,-429.693 361.597,-461.298"/>
<polygon fill="black" stroke="black" points="360.132,-464.479 370.641,-465.821 363.262,-458.218 360.132,-464.479"/>
<text text-anchor="middle" x="217" y="-409.8" font-family="Helvetica,sans-Serif" font-size="9.00">0.004 reqs per sec</text>
</g>
<!-- n25 -->
<g id="node25" class="node"><title>n25</title>
<path fill="lightgrey" stroke="black" d="M109.333,-484C109.333,-484 42.6667,-484 42.6667,-484 39.3333,-484 36,-480.667 36,-477.333 36,-477.333 36,-470.667 36,-470.667 36,-467.333 39.3333,-464 42.6667,-464 42.6667,-464 109.333,-464 109.333,-464 112.667,-464 116,-467.333 116,-470.667 116,-470.667 116,-477.333 116,-477.333 116,-480.667 112.667,-484 109.333,-484"/>
<text text-anchor="middle" x="76" y="-471.2" font-family="Helvetica,sans-Serif" font-size="11.00">page&#45;indexer</text>
</g>
<!-- n25&#45;&gt;n8 -->
<g id="edge12" class="edge"><title>n25&#45;&gt;n8</title>
<path fill="none" stroke="black" d="M116.133,-474.249C169.705,-474.59 266.424,-475.207 329.668,-475.609"/>
<polygon fill="black" stroke="black" points="329.884,-479.111 339.906,-475.675 329.929,-472.111 329.884,-479.111"/>
<text text-anchor="middle" x="217" y="-478.8" font-family="Helvetica,sans-Serif" font-size="9.00">0.069 reqs per sec</text>
</g>
<!-- n36 -->
<g id="node36" class="node"><title>n36</title>
<path fill="#f4cae4" stroke="#f4cae4" d="M440.833,-2298C440.833,-2298 343.167,-2298 343.167,-2298 339.833,-2298 336.5,-2294.67 336.5,-2291.33 336.5,-2291.33 336.5,-2284.67 336.5,-2284.67 336.5,-2281.33 339.833,-2278 343.167,-2278 343.167,-2278 440.833,-2278 440.833,-2278 444.167,-2278 447.5,-2281.33 447.5,-2284.67 447.5,-2284.67 447.5,-2291.33 447.5,-2291.33 447.5,-2294.67 444.167,-2298 440.833,-2298"/>
<text text-anchor="middle" x="392" y="-2285.2" font-family="Helvetica,sans-Serif" font-size="11.00">static&#45;assets::image</text>
</g>
<!-- n41 -->
<g id="node41" class="node"><title>n41</title>
<path fill="lightgrey" stroke="black" d="M130.833,-799C130.833,-799 21.1667,-799 21.1667,-799 17.8333,-799 14.5,-795.667 14.5,-792.333 14.5,-792.333 14.5,-785.667 14.5,-785.667 14.5,-782.333 17.8333,-779 21.1667,-779 21.1667,-779 130.833,-779 130.833,-779 134.167,-779 137.5,-782.333 137.5,-785.667 137.5,-785.667 137.5,-792.333 137.5,-792.333 137.5,-795.667 134.167,-799 130.833,-799"/>
<text text-anchor="middle" x="76" y="-786.2" font-family="Helvetica,sans-Serif" font-size="11.00">parsoid&#45;feeder&#45;worker</text>
</g>
<!-- n41&#45;&gt;n1 -->
<g id="edge17" class="edge"><title>n41&#45;&gt;n1</title>
<path fill="none" stroke="black" d="M137.542,-789C199.321,-789 293.633,-789 348.103,-789"/>
<polygon fill="black" stroke="black" points="348.119,-792.5 358.119,-789 348.119,-785.5 348.119,-792.5"/>
<text text-anchor="middle" x="217" y="-791.8" font-family="Helvetica,sans-Serif" font-size="9.00">0.051 reqs per sec</text>
</g>
<!-- n41&#45;&gt;n4 -->
<g id="edge14" class="edge"><title>n41&#45;&gt;n4</title>
<path fill="none" stroke="black" d="M133.137,-799.012C189.3,-809.028 275.327,-824.37 332.358,-834.542"/>
<polygon fill="black" stroke="black" points="331.846,-838.005 342.305,-836.316 333.075,-831.114 331.846,-838.005"/>
<text text-anchor="middle" x="217" y="-823.8" font-family="Helvetica,sans-Serif" font-size="9.00">0.041 reqs per sec</text>
</g>
<!-- n41&#45;&gt;n8 -->
<g id="edge16" class="edge"><title>n41&#45;&gt;n8</title>
<path fill="none" stroke="black" d="M87.9559,-778.875C102.814,-765.023 130.021,-739.23 152,-716 164.557,-702.728 164.903,-696.623 179,-685 209.114,-660.17 225.227,-666.237 255,-641 308.352,-595.777 356.835,-527.751 378.72,-494.978"/>
<polygon fill="black" stroke="black" points="381.82,-496.635 384.402,-486.36 375.976,-492.782 381.82,-496.635"/>
<text text-anchor="middle" x="217" y="-687.8" font-family="Helvetica,sans-Serif" font-size="9.00">0.005 reqs per sec</text>
</g>
<!-- n42 -->
<g id="node42" class="node"><title>n42</title>
<path fill="lightgrey" stroke="black" d="M145.333,-180C145.333,-180 6.66667,-180 6.66667,-180 3.33333,-180 0,-176.667 0,-173.333 0,-173.333 0,-166.667 0,-166.667 0,-163.333 3.33333,-160 6.66667,-160 6.66667,-160 145.333,-160 145.333,-160 148.667,-160 152,-163.333 152,-166.667 152,-166.667 152,-173.333 152,-173.333 152,-176.667 148.667,-180 145.333,-180"/>
<text text-anchor="middle" x="76" y="-167.2" font-family="Helvetica,sans-Serif" font-size="11.00">template&#45;type&#45;copier&#45;worker</text>
</g>
<!-- n42&#45;&gt;n2 -->
<g id="edge23" class="edge"><title>n42&#45;&gt;n2</title>
<path fill="none" stroke="black" d="M91.7011,-159.875C110.803,-147.393 145.665,-126.869 179,-119 241.781,-104.179 317.954,-111.056 359.764,-116.868"/>
<polygon fill="black" stroke="black" points="359.468,-120.362 369.87,-118.347 360.482,-113.436 359.468,-120.362"/>
<text text-anchor="middle" x="217" y="-121.8" font-family="Helvetica,sans-Serif" font-size="9.00">0.001 reqs per sec</text>
</g>
<!-- n42&#45;&gt;n3 -->
<g id="edge22" class="edge"><title>n42&#45;&gt;n3</title>
<path fill="none" stroke="black" d="M86.5535,-159.765C103.376,-142.478 140.196,-107.834 179,-92 229.856,-71.2477 292.836,-65.8059 336.884,-64.9046"/>
<polygon fill="black" stroke="black" points="337.144,-68.4015 347.097,-64.7698 337.051,-61.4021 337.144,-68.4015"/>
<text text-anchor="middle" x="217" y="-94.8" font-family="Helvetica,sans-Serif" font-size="9.00">0.001 reqs per sec</text>
</g>
<!-- n42&#45;&gt;n6 -->
<g id="edge21" class="edge"><title>n42&#45;&gt;n6</title>
<path fill="none" stroke="black" d="M118.05,-180.066C175.212,-194.084 278.706,-219.463 340.517,-234.62"/>
<polygon fill="black" stroke="black" points="339.892,-238.071 350.437,-237.053 341.559,-231.272 339.892,-238.071"/>
<text text-anchor="middle" x="217" y="-216.8" font-family="Helvetica,sans-Serif" font-size="9.00">0.003 reqs per sec</text>
</g>
<!-- n42&#45;&gt;n8 -->
<g id="edge11" class="edge"><title>n42&#45;&gt;n8</title>
<path fill="none" stroke="black" d="M85.6846,-180.281C102.9,-200.509 142.823,-246.669 179,-283 246.914,-351.202 333.191,-426.491 371.339,-459.246"/>
<polygon fill="black" stroke="black" points="369.268,-462.08 379.14,-465.926 373.821,-456.763 369.268,-462.08"/>
<text text-anchor="middle" x="217" y="-356.8" font-family="Helvetica,sans-Serif" font-size="9.00">0.002 reqs per sec</text>
</g>
<!-- n43 -->
<g id="node43" class="node"><title>n43</title>
<path fill="lightgrey" stroke="black" d="M118.333,-45C118.333,-45 33.6667,-45 33.6667,-45 30.3333,-45 27,-41.6667 27,-38.3333 27,-38.3333 27,-31.6667 27,-31.6667 27,-28.3333 30.3333,-25 33.6667,-25 33.6667,-25 118.333,-25 118.333,-25 121.667,-25 125,-28.3333 125,-31.6667 125,-31.6667 125,-38.3333 125,-38.3333 125,-41.6667 121.667,-45 118.333,-45"/>
<text text-anchor="middle" x="76" y="-32.2" font-family="Helvetica,sans-Serif" font-size="11.00">user&#45;permissions</text>
</g>
<!-- n43&#45;&gt;n7 -->
<g id="edge2" class="edge"><title>n43&#45;&gt;n7</title>
<path fill="none" stroke="black" d="M111.12,-24.9296C130.774,-19.6456 156.057,-13.7177 179,-11 235.221,-4.34045 300.417,-5.32265 343.507,-7.16775"/>
<polygon fill="black" stroke="black" points="343.546,-10.6732 353.697,-7.63795 343.869,-3.68064 343.546,-10.6732"/>
<text text-anchor="middle" x="217" y="-13.8" font-family="Helvetica,sans-Serif" font-size="9.00">9.420 reqs per sec</text>
</g>
<!-- n43&#45;&gt;n8 -->
<g id="edge1" class="edge"><title>n43&#45;&gt;n8</title>
<path fill="none" stroke="black" d="M86.6076,-45.0569C104.104,-63.1105 142.713,-101.763 179,-130 210.718,-154.681 231.123,-146.672 255,-179 281.332,-214.652 265.332,-233.931 282,-275 310.519,-345.269 357.174,-422.596 379.015,-457.315"/>
<polygon fill="black" stroke="black" points="376.171,-459.365 384.482,-465.936 382.083,-455.617 376.171,-459.365"/>
<text text-anchor="middle" x="217" y="-181.8" font-family="Helvetica,sans-Serif" font-size="9.00">0.786 reqs per sec</text>
</g>
<!-- n44 -->
<g id="node44" class="node"><title>n44</title>
<path fill="lightgrey" stroke="black" d="M116.833,-540C116.833,-540 35.1667,-540 35.1667,-540 31.8333,-540 28.5,-536.667 28.5,-533.333 28.5,-533.333 28.5,-526.667 28.5,-526.667 28.5,-523.333 31.8333,-520 35.1667,-520 35.1667,-520 116.833,-520 116.833,-520 120.167,-520 123.5,-523.333 123.5,-526.667 123.5,-526.667 123.5,-533.333 123.5,-533.333 123.5,-536.667 120.167,-540 116.833,-540"/>
<text text-anchor="middle" x="76" y="-527.2" font-family="Helvetica,sans-Serif" font-size="11.00">user&#45;registration</text>
</g>
<!-- n44&#45;&gt;n8 -->
<g id="edge6" class="edge"><title>n44&#45;&gt;n8</title>
<path fill="none" stroke="black" d="M123.67,-521.974C178.418,-512.559 269.359,-496.919 329.739,-486.535"/>
<polygon fill="black" stroke="black" points="330.637,-489.932 339.899,-484.788 329.45,-483.034 330.637,-489.932"/>
<text text-anchor="middle" x="217" y="-513.8" font-family="Helvetica,sans-Serif" font-size="9.00">0.028 reqs per sec</text>
</g>
<!-- n45 -->
<g id="node45" class="node"><title>n45</title>
<path fill="lightgrey" stroke="black" d="M96.3333,-2298C96.3333,-2298 55.6667,-2298 55.6667,-2298 52.3333,-2298 49,-2294.67 49,-2291.33 49,-2291.33 49,-2284.67 49,-2284.67 49,-2281.33 52.3333,-2278 55.6667,-2278 55.6667,-2278 96.3333,-2278 96.3333,-2278 99.6667,-2278 103,-2281.33 103,-2284.67 103,-2284.67 103,-2291.33 103,-2291.33 103,-2294.67 99.6667,-2298 96.3333,-2298"/>
<text text-anchor="middle" x="76" y="-2285.2" font-family="Helvetica,sans-Serif" font-size="11.00">vignette</text>
</g>
<!-- n45&#45;&gt;n36 -->
<g id="edge34" class="edge"><title>n45&#45;&gt;n36</title>
<path fill="none" stroke="black" d="M103.231,-2288C151.81,-2288 257.089,-2288 325.941,-2288"/>
<polygon fill="black" stroke="black" points="326.244,-2291.5 336.244,-2288 326.244,-2284.5 326.244,-2291.5"/>
<text text-anchor="middle" x="217" y="-2290.8" font-family="Helvetica,sans-Serif" font-size="9.00">0.020 reqs per sec</text>
</g>
</g>
</svg>
