<?xml version="1.0" encoding="UTF-8" standalone="no"?>
<!DOCTYPE svg PUBLIC "-//W3C//DTD SVG 1.1//EN"
 "http://www.w3.org/Graphics/SVG/1.1/DTD/svg11.dtd">
<!-- Generated by graphviz version 2.38.0 (20140413.2041)
 -->
<!-- Title: G Pages: 1 -->
<svg width="624pt" height="4553pt"
 viewBox="54.00 54.00 570.00 4499.00" xmlns="http://www.w3.org/2000/svg" xmlns:xlink="http://www.w3.org/1999/xlink">
<g id="graph0" class="graph" transform="scale(1 1) rotate(0) translate(58 4495)">
<title>G</title>
<polygon fill="white" stroke="none" points="-4,4 -4,-4441 512,-4441 512,4 -4,4"/>
<!-- n1 -->
<g id="node1" class="node"><title>n1</title>
<path fill="lightgrey" stroke="black" d="M118.333,-1523C118.333,-1523 33.6667,-1523 33.6667,-1523 30.3333,-1523 27,-1519.67 27,-1516.33 27,-1516.33 27,-1509.67 27,-1509.67 27,-1506.33 30.3333,-1503 33.6667,-1503 33.6667,-1503 118.333,-1503 118.333,-1503 121.667,-1503 125,-1506.33 125,-1509.67 125,-1509.67 125,-1516.33 125,-1516.33 125,-1519.67 121.667,-1523 118.333,-1523"/>
<text text-anchor="middle" x="76" y="-1510.2" font-family="Helvetica,sans-Serif" font-size="11.00">apache&#45;httpclient</text>
</g>
<!-- n59 -->
<g id="node59" class="node"><title>n59</title>
<path fill="#f4cae4" stroke="#f4cae4" d="M421.333,-1394C421.333,-1394 374.667,-1394 374.667,-1394 369.333,-1394 364,-1388.67 364,-1383.33 364,-1383.33 364,-1372.67 364,-1372.67 364,-1367.33 369.333,-1362 374.667,-1362 374.667,-1362 421.333,-1362 421.333,-1362 426.667,-1362 432,-1367.33 432,-1372.67 432,-1372.67 432,-1383.33 432,-1383.33 432,-1388.67 426.667,-1394 421.333,-1394"/>
<text text-anchor="middle" x="398" y="-1381.2" font-family="Helvetica,sans-Serif" font-size="11.00">pandora</text>
<text text-anchor="middle" x="398" y="-1369.2" font-family="Helvetica,sans-Serif" font-size="11.00">helios::info</text>
</g>
<!-- n1&#45;&gt;n59 -->
<g id="edge65" class="edge"><title>n1&#45;&gt;n59</title>
<path fill="none" stroke="black" d="M125.239,-1504.09C164.657,-1495 220.313,-1477.88 261,-1448 277.12,-1436.16 271.663,-1423.54 288,-1412 307.343,-1398.34 332.367,-1390.03 353.559,-1385.04"/>
<polygon fill="black" stroke="black" points="354.585,-1388.4 363.612,-1382.85 353.097,-1381.56 354.585,-1388.4"/>
<text text-anchor="middle" x="220" y="-1491.8" font-family="Helvetica,sans-Serif" font-size="9.00">0.008 reqs per sec</text>
</g>
<!-- n62 -->
<g id="node62" class="node"><title>n62</title>
<path fill="#f4cae4" stroke="#f4cae4" d="M425.833,-1555C425.833,-1555 370.167,-1555 370.167,-1555 364.833,-1555 359.5,-1549.67 359.5,-1544.33 359.5,-1544.33 359.5,-1533.67 359.5,-1533.67 359.5,-1528.33 364.833,-1523 370.167,-1523 370.167,-1523 425.833,-1523 425.833,-1523 431.167,-1523 436.5,-1528.33 436.5,-1533.67 436.5,-1533.67 436.5,-1544.33 436.5,-1544.33 436.5,-1549.67 431.167,-1555 425.833,-1555"/>
<text text-anchor="middle" x="398" y="-1542.2" font-family="Helvetica,sans-Serif" font-size="11.00">pandora</text>
<text text-anchor="middle" x="398" y="-1530.2" font-family="Helvetica,sans-Serif" font-size="11.00">helios::users</text>
</g>
<!-- n1&#45;&gt;n62 -->
<g id="edge70" class="edge"><title>n1&#45;&gt;n62</title>
<path fill="none" stroke="black" d="M125.254,-1516.92C185.827,-1521.84 289.081,-1530.23 349.363,-1535.13"/>
<polygon fill="black" stroke="black" points="349.127,-1538.62 359.377,-1535.94 349.694,-1531.64 349.127,-1538.62"/>
<text text-anchor="middle" x="220" y="-1530.8" font-family="Helvetica,sans-Serif" font-size="9.00">0.003 reqs per sec</text>
</g>
<!-- n2 -->
<g id="node2" class="node"><title>n2</title>
<path fill="#b3e2cd" stroke="#b3e2cd" d="M420.833,-2432C420.833,-2432 375.167,-2432 375.167,-2432 369.833,-2432 364.5,-2426.67 364.5,-2421.33 364.5,-2421.33 364.5,-2410.67 364.5,-2410.67 364.5,-2405.33 369.833,-2400 375.167,-2400 375.167,-2400 420.833,-2400 420.833,-2400 426.167,-2400 431.5,-2405.33 431.5,-2410.67 431.5,-2410.67 431.5,-2421.33 431.5,-2421.33 431.5,-2426.67 426.167,-2432 420.833,-2432"/>
<text text-anchor="middle" x="398" y="-2419.2" font-family="Helvetica,sans-Serif" font-size="11.00">api</text>
<text text-anchor="middle" x="398" y="-2407.2" font-family="Helvetica,sans-Serif" font-size="11.00">parse::text</text>
</g>
<!-- n3 -->
<g id="node3" class="node"><title>n3</title>
<path fill="#b3e2cd" stroke="#b3e2cd" d="M409.333,-1759C409.333,-1759 386.667,-1759 386.667,-1759 381.333,-1759 376,-1753.67 376,-1748.33 376,-1748.33 376,-1737.67 376,-1737.67 376,-1732.33 381.333,-1727 386.667,-1727 386.667,-1727 409.333,-1727 409.333,-1727 414.667,-1727 420,-1732.33 420,-1737.67 420,-1737.67 420,-1748.33 420,-1748.33 420,-1753.67 414.667,-1759 409.333,-1759"/>
<text text-anchor="middle" x="398" y="-1746.2" font-family="Helvetica,sans-Serif" font-size="11.00">api</text>
<text text-anchor="middle" x="398" y="-1734.2" font-family="Helvetica,sans-Serif" font-size="11.00">query</text>
</g>
<!-- n4 -->
<g id="node4" class="node"><title>n4</title>
<path fill="#b3e2cd" stroke="#b3e2cd" d="M431.833,-1691C431.833,-1691 364.167,-1691 364.167,-1691 358.833,-1691 353.5,-1685.67 353.5,-1680.33 353.5,-1680.33 353.5,-1669.67 353.5,-1669.67 353.5,-1664.33 358.833,-1659 364.167,-1659 364.167,-1659 431.833,-1659 431.833,-1659 437.167,-1659 442.5,-1664.33 442.5,-1669.67 442.5,-1669.67 442.5,-1680.33 442.5,-1680.33 442.5,-1685.67 437.167,-1691 431.833,-1691"/>
<text text-anchor="middle" x="398" y="-1678.2" font-family="Helvetica,sans-Serif" font-size="11.00">api</text>
<text text-anchor="middle" x="398" y="-1666.2" font-family="Helvetica,sans-Serif" font-size="11.00">query::allpages</text>
</g>
<!-- n5 -->
<g id="node5" class="node"><title>n5</title>
<path fill="#b3e2cd" stroke="#b3e2cd" d="M436.833,-2500C436.833,-2500 359.167,-2500 359.167,-2500 353.833,-2500 348.5,-2494.67 348.5,-2489.33 348.5,-2489.33 348.5,-2478.67 348.5,-2478.67 348.5,-2473.33 353.833,-2468 359.167,-2468 359.167,-2468 436.833,-2468 436.833,-2468 442.167,-2468 447.5,-2473.33 447.5,-2478.67 447.5,-2478.67 447.5,-2489.33 447.5,-2489.33 447.5,-2494.67 442.167,-2500 436.833,-2500"/>
<text text-anchor="middle" x="398" y="-2487.2" font-family="Helvetica,sans-Serif" font-size="11.00">api</text>
<text text-anchor="middle" x="398" y="-2475.2" font-family="Helvetica,sans-Serif" font-size="11.00">query::categories</text>
</g>
<!-- n6 -->
<g id="node6" class="node"><title>n6</title>
<path fill="#b3e2cd" stroke="#b3e2cd" d="M435.333,-2364C435.333,-2364 360.667,-2364 360.667,-2364 355.333,-2364 350,-2358.67 350,-2353.33 350,-2353.33 350,-2342.67 350,-2342.67 350,-2337.33 355.333,-2332 360.667,-2332 360.667,-2332 435.333,-2332 435.333,-2332 440.667,-2332 446,-2337.33 446,-2342.67 446,-2342.67 446,-2353.33 446,-2353.33 446,-2358.67 440.667,-2364 435.333,-2364"/>
<text text-anchor="middle" x="398" y="-2351.2" font-family="Helvetica,sans-Serif" font-size="11.00">api</text>
<text text-anchor="middle" x="398" y="-2339.2" font-family="Helvetica,sans-Serif" font-size="11.00">query::imageinfo</text>
</g>
<!-- n7 -->
<g id="node7" class="node"><title>n7</title>
<path fill="#b3e2cd" stroke="#b3e2cd" d="M420.833,-3792C420.833,-3792 375.167,-3792 375.167,-3792 369.833,-3792 364.5,-3786.67 364.5,-3781.33 364.5,-3781.33 364.5,-3770.67 364.5,-3770.67 364.5,-3765.33 369.833,-3760 375.167,-3760 375.167,-3760 420.833,-3760 420.833,-3760 426.167,-3760 431.5,-3765.33 431.5,-3770.67 431.5,-3770.67 431.5,-3781.33 431.5,-3781.33 431.5,-3786.67 426.167,-3792 420.833,-3792"/>
<text text-anchor="middle" x="398" y="-3779.2" font-family="Helvetica,sans-Serif" font-size="11.00">api</text>
<text text-anchor="middle" x="398" y="-3767.2" font-family="Helvetica,sans-Serif" font-size="11.00">query::info</text>
</g>
<!-- n8 -->
<g id="node8" class="node"><title>n8</title>
<path fill="#b3e2cd" stroke="#b3e2cd" d="M428.833,-1877C428.833,-1877 367.167,-1877 367.167,-1877 361.833,-1877 356.5,-1871.67 356.5,-1866.33 356.5,-1866.33 356.5,-1855.67 356.5,-1855.67 356.5,-1850.33 361.833,-1845 367.167,-1845 367.167,-1845 428.833,-1845 428.833,-1845 434.167,-1845 439.5,-1850.33 439.5,-1855.67 439.5,-1855.67 439.5,-1866.33 439.5,-1866.33 439.5,-1871.67 434.167,-1877 428.833,-1877"/>
<text text-anchor="middle" x="398" y="-1864.2" font-family="Helvetica,sans-Serif" font-size="11.00">api</text>
<text text-anchor="middle" x="398" y="-1852.2" font-family="Helvetica,sans-Serif" font-size="11.00">query::siteinfo</text>
</g>
<!-- n9 -->
<g id="node9" class="node"><title>n9</title>
<path fill="#b3e2cd" stroke="#b3e2cd" d="M425.333,-1623C425.333,-1623 370.667,-1623 370.667,-1623 365.333,-1623 360,-1617.67 360,-1612.33 360,-1612.33 360,-1601.67 360,-1601.67 360,-1596.33 365.333,-1591 370.667,-1591 370.667,-1591 425.333,-1591 425.333,-1591 430.667,-1591 436,-1596.33 436,-1601.67 436,-1601.67 436,-1612.33 436,-1612.33 436,-1617.67 430.667,-1623 425.333,-1623"/>
<text text-anchor="middle" x="398" y="-1610.2" font-family="Helvetica,sans-Serif" font-size="11.00">api</text>
<text text-anchor="middle" x="398" y="-1598.2" font-family="Helvetica,sans-Serif" font-size="11.00">query::users</text>
</g>
<!-- n10 -->
<g id="node10" class="node"><title>n10</title>
<path fill="#b3e2cd" stroke="#b3e2cd" d="M439.333,-2107C439.333,-2107 356.667,-2107 356.667,-2107 351.333,-2107 346,-2101.67 346,-2096.33 346,-2096.33 346,-2085.67 346,-2085.67 346,-2080.33 351.333,-2075 356.667,-2075 356.667,-2075 439.333,-2075 439.333,-2075 444.667,-2075 450,-2080.33 450,-2085.67 450,-2085.67 450,-2096.33 450,-2096.33 450,-2101.67 444.667,-2107 439.333,-2107"/>
<text text-anchor="middle" x="398" y="-2094.2" font-family="Helvetica,sans-Serif" font-size="11.00">api</text>
<text text-anchor="middle" x="398" y="-2082.2" font-family="Helvetica,sans-Serif" font-size="11.00">query::wkdomains</text>
</g>
<!-- n11 -->
<g id="node11" class="node"><title>n11</title>
<path fill="lightgrey" stroke="black" d="M102.333,-2043C102.333,-2043 49.6667,-2043 49.6667,-2043 46.3333,-2043 43,-2039.67 43,-2036.33 43,-2036.33 43,-2029.67 43,-2029.67 43,-2026.33 46.3333,-2023 49.6667,-2023 49.6667,-2023 102.333,-2023 102.333,-2023 105.667,-2023 109,-2026.33 109,-2029.67 109,-2029.67 109,-2036.33 109,-2036.33 109,-2039.67 105.667,-2043 102.333,-2043"/>
<text text-anchor="middle" x="76" y="-2030.2" font-family="Helvetica,sans-Serif" font-size="11.00">discussion</text>
</g>
<!-- n11&#45;&gt;n10 -->
<g id="edge32" class="edge"><title>n11&#45;&gt;n10</title>
<path fill="none" stroke="black" d="M109.148,-2038.83C161.987,-2048.4 268.06,-2067.63 335.638,-2079.88"/>
<polygon fill="black" stroke="black" points="335.265,-2083.37 345.729,-2081.71 336.514,-2076.48 335.265,-2083.37"/>
<text text-anchor="middle" x="220" y="-2068.8" font-family="Helvetica,sans-Serif" font-size="9.00">0.031 reqs per sec</text>
</g>
<!-- n12 -->
<g id="node12" class="node"><title>n12</title>
<path fill="lightgrey" stroke="black" d="M125.833,-2211C125.833,-2211 26.1667,-2211 26.1667,-2211 22.8333,-2211 19.5,-2207.67 19.5,-2204.33 19.5,-2204.33 19.5,-2197.67 19.5,-2197.67 19.5,-2194.33 22.8333,-2191 26.1667,-2191 26.1667,-2191 125.833,-2191 125.833,-2191 129.167,-2191 132.5,-2194.33 132.5,-2197.67 132.5,-2197.67 132.5,-2204.33 132.5,-2204.33 132.5,-2207.67 129.167,-2211 125.833,-2211"/>
<text text-anchor="middle" x="76" y="-2198.2" font-family="Helvetica,sans-Serif" font-size="11.00">discussions&#45;sitemap</text>
</g>
<!-- n12&#45;&gt;n10 -->
<g id="edge25" class="edge"><title>n12&#45;&gt;n10</title>
<path fill="none" stroke="black" d="M115.432,-2190.99C152.917,-2180.93 211.376,-2164.44 261,-2147 291.68,-2136.22 325.494,-2122.3 351.73,-2111.04"/>
<polygon fill="black" stroke="black" points="353.241,-2114.2 361.034,-2107.02 350.466,-2107.77 353.241,-2114.2"/>
<text text-anchor="middle" x="220" y="-2175.8" font-family="Helvetica,sans-Serif" font-size="9.00">0.308 reqs per sec</text>
</g>
<!-- n13 -->
<g id="node13" class="node"><title>n13</title>
<path fill="lightgrey" stroke="black" d="M109.833,-2313C109.833,-2313 42.1667,-2313 42.1667,-2313 38.8333,-2313 35.5,-2309.67 35.5,-2306.33 35.5,-2306.33 35.5,-2299.67 35.5,-2299.67 35.5,-2296.33 38.8333,-2293 42.1667,-2293 42.1667,-2293 109.833,-2293 109.833,-2293 113.167,-2293 116.5,-2296.33 116.5,-2299.67 116.5,-2299.67 116.5,-2306.33 116.5,-2306.33 116.5,-2309.67 113.167,-2313 109.833,-2313"/>
<text text-anchor="middle" x="76" y="-2300.2" font-family="Helvetica,sans-Serif" font-size="11.00">image&#45;review</text>
</g>
<!-- n13&#45;&gt;n6 -->
<g id="edge37" class="edge"><title>n13&#45;&gt;n6</title>
<path fill="none" stroke="black" d="M116.559,-2308.56C172.59,-2316.44 275.394,-2330.9 339.753,-2339.95"/>
<polygon fill="black" stroke="black" points="339.349,-2343.43 349.739,-2341.35 340.324,-2336.5 339.349,-2343.43"/>
<text text-anchor="middle" x="220" y="-2331.8" font-family="Helvetica,sans-Serif" font-size="9.00">0.004 reqs per sec</text>
</g>
<!-- n13&#45;&gt;n10 -->
<g id="edge30" class="edge"><title>n13&#45;&gt;n10</title>
<path fill="none" stroke="black" d="M94.8559,-2292.99C128.14,-2274.17 201.667,-2231.8 261,-2192 299.294,-2166.32 341.692,-2134.21 368.805,-2113.18"/>
<polygon fill="black" stroke="black" points="370.966,-2115.93 376.707,-2107.03 366.666,-2110.41 370.966,-2115.93"/>
<text text-anchor="middle" x="220" y="-2245.8" font-family="Helvetica,sans-Serif" font-size="9.00">0.002 reqs per sec</text>
</g>
<!-- n14 -->
<g id="node14" class="node"><title>n14</title>
<path fill="lightgrey" stroke="black" d="M95.3333,-3888C95.3333,-3888 56.6667,-3888 56.6667,-3888 53.3333,-3888 50,-3884.67 50,-3881.33 50,-3881.33 50,-3874.67 50,-3874.67 50,-3871.33 53.3333,-3868 56.6667,-3868 56.6667,-3868 95.3333,-3868 95.3333,-3868 98.6667,-3868 102,-3871.33 102,-3874.67 102,-3874.67 102,-3881.33 102,-3881.33 102,-3884.67 98.6667,-3888 95.3333,-3888"/>
<text text-anchor="middle" x="76" y="-3875.2" font-family="Helvetica,sans-Serif" font-size="11.00">internal</text>
</g>
<!-- n29 -->
<g id="node29" class="node"><title>n29</title>
<path fill="#cbd5e8" stroke="#cbd5e8" d="M491.833,-3928C491.833,-3928 304.167,-3928 304.167,-3928 298.833,-3928 293.5,-3922.67 293.5,-3917.33 293.5,-3917.33 293.5,-3906.67 293.5,-3906.67 293.5,-3901.33 298.833,-3896 304.167,-3896 304.167,-3896 491.833,-3896 491.833,-3896 497.167,-3896 502.5,-3901.33 502.5,-3906.67 502.5,-3906.67 502.5,-3917.33 502.5,-3917.33 502.5,-3922.67 497.167,-3928 491.833,-3928"/>
<text text-anchor="middle" x="398" y="-3915.2" font-family="Helvetica,sans-Serif" font-size="11.00">nirvana</text>
<text text-anchor="middle" x="398" y="-3903.2" font-family="Helvetica,sans-Serif" font-size="11.00">EmailControllerDiscussionReply::handle</text>
</g>
<!-- n14&#45;&gt;n29 -->
<g id="edge28" class="edge"><title>n14&#45;&gt;n29</title>
<path fill="none" stroke="black" d="M102.11,-3880.67C140.93,-3884.79 217.887,-3892.97 283.45,-3899.94"/>
<polygon fill="black" stroke="black" points="283.137,-3903.42 293.45,-3901 283.876,-3896.46 283.137,-3903.42"/>
<text text-anchor="middle" x="220" y="-3899.8" font-family="Helvetica,sans-Serif" font-size="9.00">0.167 reqs per sec</text>
</g>
<!-- n30 -->
<g id="node30" class="node"><title>n30</title>
<path fill="#cbd5e8" stroke="#cbd5e8" d="M494.833,-3860C494.833,-3860 301.167,-3860 301.167,-3860 295.833,-3860 290.5,-3854.67 290.5,-3849.33 290.5,-3849.33 290.5,-3838.67 290.5,-3838.67 290.5,-3833.33 295.833,-3828 301.167,-3828 301.167,-3828 494.833,-3828 494.833,-3828 500.167,-3828 505.5,-3833.33 505.5,-3838.67 505.5,-3838.67 505.5,-3849.33 505.5,-3849.33 505.5,-3854.67 500.167,-3860 494.833,-3860"/>
<text text-anchor="middle" x="398" y="-3847.2" font-family="Helvetica,sans-Serif" font-size="11.00">nirvana</text>
<text text-anchor="middle" x="398" y="-3835.2" font-family="Helvetica,sans-Serif" font-size="11.00">EmailControllerDiscussionUpvote::handle</text>
</g>
<!-- n14&#45;&gt;n30 -->
<g id="edge39" class="edge"><title>n14&#45;&gt;n30</title>
<path fill="none" stroke="black" d="M102.11,-3875.33C140.221,-3871.28 215.088,-3863.33 279.846,-3856.45"/>
<polygon fill="black" stroke="black" points="280.572,-3859.89 290.146,-3855.35 279.832,-3852.93 280.572,-3859.89"/>
<text text-anchor="middle" x="220" y="-3869.8" font-family="Helvetica,sans-Serif" font-size="9.00">0.003 reqs per sec</text>
</g>
<!-- n15 -->
<g id="node15" class="node"><title>n15</title>
<path fill="lightgrey" stroke="black" d="M101.333,-572C101.333,-572 50.6667,-572 50.6667,-572 47.3333,-572 44,-568.667 44,-565.333 44,-565.333 44,-558.667 44,-558.667 44,-555.333 47.3333,-552 50.6667,-552 50.6667,-552 101.333,-552 101.333,-552 104.667,-552 108,-555.333 108,-558.667 108,-558.667 108,-565.333 108,-565.333 108,-568.667 104.667,-572 101.333,-572"/>
<text text-anchor="middle" x="76" y="-559.2" font-family="Helvetica,sans-Serif" font-size="11.00">mediawiki</text>
</g>
<!-- n48 -->
<g id="node48" class="node"><title>n48</title>
<path fill="#f4cae4" stroke="#f4cae4" d="M445.333,-527C445.333,-527 350.667,-527 350.667,-527 345.333,-527 340,-521.667 340,-516.333 340,-516.333 340,-505.667 340,-505.667 340,-500.333 345.333,-495 350.667,-495 350.667,-495 445.333,-495 445.333,-495 450.667,-495 456,-500.333 456,-505.667 456,-505.667 456,-516.333 456,-516.333 456,-521.667 450.667,-527 445.333,-527"/>
<text text-anchor="middle" x="398" y="-514.2" font-family="Helvetica,sans-Serif" font-size="11.00">pandora</text>
<text text-anchor="middle" x="398" y="-502.2" font-family="Helvetica,sans-Serif" font-size="11.00">article&#45;video::internal</text>
</g>
<!-- n15&#45;&gt;n48 -->
<g id="edge48" class="edge"><title>n15&#45;&gt;n48</title>
<path fill="none" stroke="black" d="M108.148,-555.029C128.295,-550.658 155.122,-545.096 179,-541 229.372,-532.359 286.628,-524.556 329.819,-519.076"/>
<polygon fill="black" stroke="black" points="330.44,-522.526 339.924,-517.804 329.565,-515.58 330.44,-522.526"/>
<text text-anchor="middle" x="220" y="-543.8" font-family="Helvetica,sans-Serif" font-size="9.00">1.626 reqs per sec</text>
</g>
<!-- n50 -->
<g id="node50" class="node"><title>n50</title>
<path fill="#f4cae4" stroke="#f4cae4" d="M439.833,-816C439.833,-816 356.167,-816 356.167,-816 350.833,-816 345.5,-810.667 345.5,-805.333 345.5,-805.333 345.5,-794.667 345.5,-794.667 345.5,-789.333 350.833,-784 356.167,-784 356.167,-784 439.833,-784 439.833,-784 445.167,-784 450.5,-789.333 450.5,-794.667 450.5,-794.667 450.5,-805.333 450.5,-805.333 450.5,-810.667 445.167,-816 439.833,-816"/>
<text text-anchor="middle" x="398" y="-803.2" font-family="Helvetica,sans-Serif" font-size="11.00">pandora</text>
<text text-anchor="middle" x="398" y="-791.2" font-family="Helvetica,sans-Serif" font-size="11.00">discussion::forums</text>
</g>
<!-- n15&#45;&gt;n50 -->
<g id="edge60" class="edge"><title>n15&#45;&gt;n50</title>
<path fill="none" stroke="black" d="M84.1276,-572.251C99.4235,-593.653 137.402,-643.692 179,-675 211.399,-699.384 229.387,-689.606 261,-715 276.044,-727.084 272.859,-737.038 288,-749 303.915,-761.573 323.434,-771.945 341.535,-779.976"/>
<polygon fill="black" stroke="black" points="340.274,-783.243 350.845,-783.962 343.029,-776.808 340.274,-783.243"/>
<text text-anchor="middle" x="220" y="-717.8" font-family="Helvetica,sans-Serif" font-size="9.00">0.004 reqs per sec</text>
</g>
<!-- n53 -->
<g id="node53" class="node"><title>n53</title>
<path fill="#f4cae4" stroke="#f4cae4" d="M441.333,-663C441.333,-663 354.667,-663 354.667,-663 349.333,-663 344,-657.667 344,-652.333 344,-652.333 344,-641.667 344,-641.667 344,-636.333 349.333,-631 354.667,-631 354.667,-631 441.333,-631 441.333,-631 446.667,-631 452,-636.333 452,-641.667 452,-641.667 452,-652.333 452,-652.333 452,-657.667 446.667,-663 441.333,-663"/>
<text text-anchor="middle" x="398" y="-650.2" font-family="Helvetica,sans-Serif" font-size="11.00">pandora</text>
<text text-anchor="middle" x="398" y="-638.2" font-family="Helvetica,sans-Serif" font-size="11.00">discussion::redirect</text>
</g>
<!-- n15&#45;&gt;n53 -->
<g id="edge62" class="edge"><title>n15&#45;&gt;n53</title>
<path fill="none" stroke="black" d="M108.266,-570.305C160.429,-584.161 266.183,-612.252 334.2,-630.319"/>
<polygon fill="black" stroke="black" points="333.388,-633.724 343.951,-632.909 335.185,-626.959 333.388,-633.724"/>
<text text-anchor="middle" x="220" y="-612.8" font-family="Helvetica,sans-Serif" font-size="9.00">0.003 reqs per sec</text>
</g>
<!-- n54 -->
<g id="node54" class="node"><title>n54</title>
<path fill="#f4cae4" stroke="#f4cae4" d="M434.333,-595C434.333,-595 361.667,-595 361.667,-595 356.333,-595 351,-589.667 351,-584.333 351,-584.333 351,-573.667 351,-573.667 351,-568.333 356.333,-563 361.667,-563 361.667,-563 434.333,-563 434.333,-563 439.667,-563 445,-568.333 445,-573.667 445,-573.667 445,-584.333 445,-584.333 445,-589.667 439.667,-595 434.333,-595"/>
<text text-anchor="middle" x="398" y="-582.2" font-family="Helvetica,sans-Serif" font-size="11.00">pandora</text>
<text text-anchor="middle" x="398" y="-570.2" font-family="Helvetica,sans-Serif" font-size="11.00">discussion::sites</text>
</g>
<!-- n15&#45;&gt;n54 -->
<g id="edge75" class="edge"><title>n15&#45;&gt;n54</title>
<path fill="none" stroke="black" d="M108.291,-560.818C144.933,-559.707 207.437,-558.665 261,-562 287.287,-563.637 316.267,-567.036 340.697,-570.368"/>
<polygon fill="black" stroke="black" points="340.48,-573.871 350.868,-571.786 341.447,-566.939 340.48,-573.871"/>
<text text-anchor="middle" x="220" y="-564.8" font-family="Helvetica,sans-Serif" font-size="9.00">0.001 reqs per sec</text>
</g>
<!-- n55 -->
<g id="node55" class="node"><title>n55</title>
<path fill="#f4cae4" stroke="#f4cae4" d="M441.333,-1049C441.333,-1049 354.667,-1049 354.667,-1049 349.333,-1049 344,-1043.67 344,-1038.33 344,-1038.33 344,-1027.67 344,-1027.67 344,-1022.33 349.333,-1017 354.667,-1017 354.667,-1017 441.333,-1017 441.333,-1017 446.667,-1017 452,-1022.33 452,-1027.67 452,-1027.67 452,-1038.33 452,-1038.33 452,-1043.67 446.667,-1049 441.333,-1049"/>
<text text-anchor="middle" x="398" y="-1036.2" font-family="Helvetica,sans-Serif" font-size="11.00">pandora</text>
<text text-anchor="middle" x="398" y="-1024.2" font-family="Helvetica,sans-Serif" font-size="11.00">discussion::threads</text>
</g>
<!-- n15&#45;&gt;n55 -->
<g id="edge52" class="edge"><title>n15&#45;&gt;n55</title>
<path fill="none" stroke="black" d="M76.908,-572.165C77.0161,-618.93 83.3408,-815.973 179,-930 180.527,-931.821 289.677,-982.93 352.928,-1012.45"/>
<polygon fill="black" stroke="black" points="351.743,-1015.76 362.285,-1016.82 354.703,-1009.42 351.743,-1015.76"/>
<text text-anchor="middle" x="220" y="-970.8" font-family="Helvetica,sans-Serif" font-size="9.00">0.177 reqs per sec</text>
</g>
<!-- n56 -->
<g id="node56" class="node"><title>n56</title>
<path fill="#f4cae4" stroke="#f4cae4" d="M436.333,-1151C436.333,-1151 359.667,-1151 359.667,-1151 354.333,-1151 349,-1145.67 349,-1140.33 349,-1140.33 349,-1129.67 349,-1129.67 349,-1124.33 354.333,-1119 359.667,-1119 359.667,-1119 436.333,-1119 436.333,-1119 441.667,-1119 447,-1124.33 447,-1129.67 447,-1129.67 447,-1140.33 447,-1140.33 447,-1145.67 441.667,-1151 436.333,-1151"/>
<text text-anchor="middle" x="398" y="-1138.2" font-family="Helvetica,sans-Serif" font-size="11.00">pandora</text>
<text text-anchor="middle" x="398" y="-1126.2" font-family="Helvetica,sans-Serif" font-size="11.00">discussion::users</text>
</g>
<!-- n15&#45;&gt;n56 -->
<g id="edge53" class="edge"><title>n15&#45;&gt;n56</title>
<path fill="none" stroke="black" d="M77.9715,-572.011C84.0791,-633.174 118.865,-956.339 179,-1032 190.403,-1046.35 288.228,-1089.27 348.895,-1114.95"/>
<polygon fill="black" stroke="black" points="347.72,-1118.26 358.294,-1118.92 350.442,-1111.81 347.72,-1118.26"/>
<text text-anchor="middle" x="220" y="-1077.8" font-family="Helvetica,sans-Serif" font-size="9.00">0.198 reqs per sec</text>
</g>
<!-- n57 -->
<g id="node57" class="node"><title>n57</title>
<path fill="#f4cae4" stroke="#f4cae4" d="M451.833,-459C451.833,-459 344.167,-459 344.167,-459 338.833,-459 333.5,-453.667 333.5,-448.333 333.5,-448.333 333.5,-437.667 333.5,-437.667 333.5,-432.333 338.833,-427 344.167,-427 344.167,-427 451.833,-427 451.833,-427 457.167,-427 462.5,-432.333 462.5,-437.667 462.5,-437.667 462.5,-448.333 462.5,-448.333 462.5,-453.667 457.167,-459 451.833,-459"/>
<text text-anchor="middle" x="398" y="-446.2" font-family="Helvetica,sans-Serif" font-size="11.00">pandora</text>
<text text-anchor="middle" x="398" y="-434.2" font-family="Helvetica,sans-Serif" font-size="11.00">external&#45;auth::facebook</text>
</g>
<!-- n15&#45;&gt;n57 -->
<g id="edge68" class="edge"><title>n15&#45;&gt;n57</title>
<path fill="none" stroke="black" d="M94.6167,-551.831C114.609,-540.574 148.418,-522.386 179,-510 226.495,-490.764 281.684,-473.854 324.648,-461.834"/>
<polygon fill="black" stroke="black" points="325.755,-465.159 334.457,-459.115 323.885,-458.414 325.755,-465.159"/>
<text text-anchor="middle" x="220" y="-512.8" font-family="Helvetica,sans-Serif" font-size="9.00">0.001 reqs per sec</text>
</g>
<!-- n58 -->
<g id="node58" class="node"><title>n58</title>
<path fill="#f4cae4" stroke="#f4cae4" d="M471.333,-391C471.333,-391 324.667,-391 324.667,-391 319.333,-391 314,-385.667 314,-380.333 314,-380.333 314,-369.667 314,-369.667 314,-364.333 319.333,-359 324.667,-359 324.667,-359 471.333,-359 471.333,-359 476.667,-359 482,-364.333 482,-369.667 482,-369.667 482,-380.333 482,-380.333 482,-385.667 476.667,-391 471.333,-391"/>
<text text-anchor="middle" x="398" y="-378.2" font-family="Helvetica,sans-Serif" font-size="11.00">pandora</text>
<text text-anchor="middle" x="398" y="-366.2" font-family="Helvetica,sans-Serif" font-size="11.00">fandom&#45;search&#45;service::fandom</text>
</g>
<!-- n15&#45;&gt;n58 -->
<g id="edge50" class="edge"><title>n15&#45;&gt;n58</title>
<path fill="none" stroke="black" d="M85.7237,-551.798C102.388,-532.753 140.526,-491.256 179,-464 223.278,-432.633 237.706,-429.37 288,-409 301.286,-403.619 315.763,-398.565 329.699,-394.082"/>
<polygon fill="black" stroke="black" points="330.754,-397.42 339.238,-391.074 328.649,-390.744 330.754,-397.42"/>
<text text-anchor="middle" x="220" y="-466.8" font-family="Helvetica,sans-Serif" font-size="9.00">0.108 reqs per sec</text>
</g>
<!-- n15&#45;&gt;n59 -->
<g id="edge45" class="edge"><title>n15&#45;&gt;n59</title>
<path fill="none" stroke="black" d="M78.0935,-572.402C86.5391,-652.103 142.034,-1164.44 179,-1222 202.581,-1258.72 233.453,-1242.16 261,-1276 281.528,-1301.22 264.154,-1321.89 288,-1344 305.883,-1360.58 331.749,-1369.08 353.796,-1373.43"/>
<polygon fill="black" stroke="black" points="353.483,-1376.93 363.937,-1375.2 354.689,-1370.03 353.483,-1376.93"/>
<text text-anchor="middle" x="220" y="-1278.8" font-family="Helvetica,sans-Serif" font-size="9.00">9.861 reqs per sec</text>
</g>
<!-- n60 -->
<g id="node60" class="node"><title>n60</title>
<path fill="#f4cae4" stroke="#f4cae4" d="M435.833,-323C435.833,-323 360.167,-323 360.167,-323 354.833,-323 349.5,-317.667 349.5,-312.333 349.5,-312.333 349.5,-301.667 349.5,-301.667 349.5,-296.333 354.833,-291 360.167,-291 360.167,-291 435.833,-291 435.833,-291 441.167,-291 446.5,-296.333 446.5,-301.667 446.5,-301.667 446.5,-312.333 446.5,-312.333 446.5,-317.667 441.167,-323 435.833,-323"/>
<text text-anchor="middle" x="398" y="-310.2" font-family="Helvetica,sans-Serif" font-size="11.00">pandora</text>
<text text-anchor="middle" x="398" y="-298.2" font-family="Helvetica,sans-Serif" font-size="11.00">helios::password</text>
</g>
<!-- n15&#45;&gt;n60 -->
<g id="edge71" class="edge"><title>n15&#45;&gt;n60</title>
<path fill="none" stroke="black" d="M81.3309,-551.804C93.3301,-524.534 129.42,-448.816 179,-402 224.119,-359.396 291.408,-334.072 339.279,-320.422"/>
<polygon fill="black" stroke="black" points="340.478,-323.722 349.184,-317.685 338.613,-316.975 340.478,-323.722"/>
<text text-anchor="middle" x="220" y="-404.8" font-family="Helvetica,sans-Serif" font-size="9.00">0.001 reqs per sec</text>
</g>
<!-- n61 -->
<g id="node61" class="node"><title>n61</title>
<path fill="#f4cae4" stroke="#f4cae4" d="M425.833,-255C425.833,-255 370.167,-255 370.167,-255 364.833,-255 359.5,-249.667 359.5,-244.333 359.5,-244.333 359.5,-233.667 359.5,-233.667 359.5,-228.333 364.833,-223 370.167,-223 370.167,-223 425.833,-223 425.833,-223 431.167,-223 436.5,-228.333 436.5,-233.667 436.5,-233.667 436.5,-244.333 436.5,-244.333 436.5,-249.667 431.167,-255 425.833,-255"/>
<text text-anchor="middle" x="398" y="-242.2" font-family="Helvetica,sans-Serif" font-size="11.00">pandora</text>
<text text-anchor="middle" x="398" y="-230.2" font-family="Helvetica,sans-Serif" font-size="11.00">helios::token</text>
</g>
<!-- n15&#45;&gt;n61 -->
<g id="edge66" class="edge"><title>n15&#45;&gt;n61</title>
<path fill="none" stroke="black" d="M78.971,-551.924C86.2398,-517.128 114.536,-400.364 179,-331 224.428,-282.119 299.982,-258.228 349.138,-247.295"/>
<polygon fill="black" stroke="black" points="350.152,-250.658 359.206,-245.155 348.696,-243.811 350.152,-250.658"/>
<text text-anchor="middle" x="220" y="-333.8" font-family="Helvetica,sans-Serif" font-size="9.00">0.000 reqs per sec</text>
</g>
<!-- n63 -->
<g id="node63" class="node"><title>n63</title>
<path fill="#f4cae4" stroke="#f4cae4" d="M431.833,-187C431.833,-187 364.167,-187 364.167,-187 358.833,-187 353.5,-181.667 353.5,-176.333 353.5,-176.333 353.5,-165.667 353.5,-165.667 353.5,-160.333 358.833,-155 364.167,-155 364.167,-155 431.833,-155 431.833,-155 437.167,-155 442.5,-160.333 442.5,-165.667 442.5,-165.667 442.5,-176.333 442.5,-176.333 442.5,-181.667 437.167,-187 431.833,-187"/>
<text text-anchor="middle" x="398" y="-174.2" font-family="Helvetica,sans-Serif" font-size="11.00">pandora</text>
<text text-anchor="middle" x="398" y="-162.2" font-family="Helvetica,sans-Serif" font-size="11.00">phalanx::match</text>
</g>
<!-- n15&#45;&gt;n63 -->
<g id="edge43" class="edge"><title>n15&#45;&gt;n63</title>
<path fill="none" stroke="black" d="M77.6743,-551.739C80.9236,-510.078 98.3219,-351.401 179,-259 221.191,-210.678 293.748,-188.521 343.481,-178.614"/>
<polygon fill="black" stroke="black" points="344.241,-182.033 353.417,-176.737 342.941,-175.154 344.241,-182.033"/>
<text text-anchor="middle" x="220" y="-261.8" font-family="Helvetica,sans-Serif" font-size="9.00">16.543 reqs per sec</text>
</g>
<!-- n64 -->
<g id="node64" class="node"><title>n64</title>
<path fill="#f4cae4" stroke="#f4cae4" d="M436.333,-888C436.333,-888 359.667,-888 359.667,-888 354.333,-888 349,-882.667 349,-877.333 349,-877.333 349,-866.667 349,-866.667 349,-861.333 354.333,-856 359.667,-856 359.667,-856 436.333,-856 436.333,-856 441.667,-856 447,-861.333 447,-866.667 447,-866.667 447,-877.333 447,-877.333 447,-882.667 441.667,-888 436.333,-888"/>
<text text-anchor="middle" x="398" y="-875.2" font-family="Helvetica,sans-Serif" font-size="11.00">pandora</text>
<text text-anchor="middle" x="398" y="-863.2" font-family="Helvetica,sans-Serif" font-size="11.00">site&#45;attribute::site</text>
</g>
<!-- n15&#45;&gt;n64 -->
<g id="edge63" class="edge"><title>n15&#45;&gt;n64</title>
<path fill="none" stroke="black" d="M80.9521,-572.207C92.2473,-600.213 127.222,-679.277 179,-726 209.105,-753.165 233.435,-736.26 261,-766 283.105,-789.849 264.523,-811.501 288,-834 301.982,-847.399 320.939,-856.098 339.123,-861.734"/>
<polygon fill="black" stroke="black" points="338.244,-865.123 348.819,-864.486 340.155,-858.389 338.244,-865.123"/>
<text text-anchor="middle" x="220" y="-768.8" font-family="Helvetica,sans-Serif" font-size="9.00">0.002 reqs per sec</text>
</g>
<!-- n66 -->
<g id="node66" class="node"><title>n66</title>
<path fill="#f4cae4" stroke="#f4cae4" d="M467.833,-38C467.833,-38 328.167,-38 328.167,-38 322.833,-38 317.5,-32.6667 317.5,-27.3333 317.5,-27.3333 317.5,-16.6667 317.5,-16.6667 317.5,-11.3333 322.833,-6 328.167,-6 328.167,-6 467.833,-6 467.833,-6 473.167,-6 478.5,-11.3333 478.5,-16.6667 478.5,-16.6667 478.5,-27.3333 478.5,-27.3333 478.5,-32.6667 473.167,-38 467.833,-38"/>
<text text-anchor="middle" x="398" y="-25.2" font-family="Helvetica,sans-Serif" font-size="11.00">pandora</text>
<text text-anchor="middle" x="398" y="-13.2" font-family="Helvetica,sans-Serif" font-size="11.00">template&#45;classification&#45;storage</text>
</g>
<!-- n15&#45;&gt;n66 -->
<g id="edge47" class="edge"><title>n15&#45;&gt;n66</title>
<path fill="none" stroke="black" d="M78.0838,-551.674C84.5912,-491.41 120.185,-185.403 179,-115 211.38,-76.2399 262.826,-53.2685 307.61,-39.856"/>
<polygon fill="black" stroke="black" points="308.707,-43.1825 317.351,-37.0555 306.773,-36.455 308.707,-43.1825"/>
<text text-anchor="middle" x="220" y="-117.8" font-family="Helvetica,sans-Serif" font-size="9.00">3.272 reqs per sec</text>
</g>
<!-- n67 -->
<g id="node67" class="node"><title>n67</title>
<path fill="#f4cae4" stroke="#f4cae4" d="M440.833,-964C440.833,-964 355.167,-964 355.167,-964 349.833,-964 344.5,-958.667 344.5,-953.333 344.5,-953.333 344.5,-942.667 344.5,-942.667 344.5,-937.333 349.833,-932 355.167,-932 355.167,-932 440.833,-932 440.833,-932 446.167,-932 451.5,-937.333 451.5,-942.667 451.5,-942.667 451.5,-953.333 451.5,-953.333 451.5,-958.667 446.167,-964 440.833,-964"/>
<text text-anchor="middle" x="398" y="-951.2" font-family="Helvetica,sans-Serif" font-size="11.00">pandora</text>
<text text-anchor="middle" x="398" y="-939.2" font-family="Helvetica,sans-Serif" font-size="11.00">user&#45;attribute::user</text>
</g>
<!-- n15&#45;&gt;n67 -->
<g id="edge44" class="edge"><title>n15&#45;&gt;n67</title>
<path fill="none" stroke="black" d="M78.1914,-572.058C83.2056,-610.245 105.839,-748.126 179,-828 206.389,-857.902 230.076,-841.771 261,-868 276.8,-881.401 271.638,-893.291 288,-906 301.79,-916.712 318.634,-924.969 334.918,-931.211"/>
<polygon fill="black" stroke="black" points="333.819,-934.536 344.413,-934.657 336.207,-927.956 333.819,-934.536"/>
<text text-anchor="middle" x="220" y="-870.8" font-family="Helvetica,sans-Serif" font-size="9.00">26.494 reqs per sec</text>
</g>
<!-- n68 -->
<g id="node68" class="node"><title>n68</title>
<path fill="#f4cae4" stroke="#f4cae4" d="M436.333,-119C436.333,-119 359.667,-119 359.667,-119 354.333,-119 349,-113.667 349,-108.333 349,-108.333 349,-97.6667 349,-97.6667 349,-92.3333 354.333,-87 359.667,-87 359.667,-87 436.333,-87 436.333,-87 441.667,-87 447,-92.3333 447,-97.6667 447,-97.6667 447,-108.333 447,-108.333 447,-113.667 441.667,-119 436.333,-119"/>
<text text-anchor="middle" x="398" y="-106.2" font-family="Helvetica,sans-Serif" font-size="11.00">pandora</text>
<text text-anchor="middle" x="398" y="-94.2" font-family="Helvetica,sans-Serif" font-size="11.00">user&#45;avatar::user</text>
</g>
<!-- n15&#45;&gt;n68 -->
<g id="edge72" class="edge"><title>n15&#45;&gt;n68</title>
<path fill="none" stroke="black" d="M76.8066,-551.929C76.434,-504.724 80.8387,-302.8 179,-187 219.117,-139.675 289.123,-118.914 338.978,-109.87"/>
<polygon fill="black" stroke="black" points="339.71,-113.295 348.978,-108.162 338.532,-106.395 339.71,-113.295"/>
<text text-anchor="middle" x="220" y="-189.8" font-family="Helvetica,sans-Serif" font-size="9.00">0.000 reqs per sec</text>
</g>
<!-- n70 -->
<g id="node70" class="node"><title>n70</title>
<path fill="#f4cae4" stroke="#f4cae4" d="M433.833,-731C433.833,-731 362.167,-731 362.167,-731 356.833,-731 351.5,-725.667 351.5,-720.333 351.5,-720.333 351.5,-709.667 351.5,-709.667 351.5,-704.333 356.833,-699 362.167,-699 362.167,-699 433.833,-699 433.833,-699 439.167,-699 444.5,-704.333 444.5,-709.667 444.5,-709.667 444.5,-720.333 444.5,-720.333 444.5,-725.667 439.167,-731 433.833,-731"/>
<text text-anchor="middle" x="398" y="-718.2" font-family="Helvetica,sans-Serif" font-size="11.00">pandora</text>
<text text-anchor="middle" x="398" y="-706.2" font-family="Helvetica,sans-Serif" font-size="11.00">user&#45;preference</text>
</g>
<!-- n15&#45;&gt;n70 -->
<g id="edge46" class="edge"><title>n15&#45;&gt;n70</title>
<path fill="none" stroke="black" d="M92.6355,-572.126C112.428,-584.798 147.72,-606.911 179,-624 214.585,-643.441 225.569,-644.28 261,-664 273.391,-670.896 275.123,-675.061 288,-681 304.853,-688.773 323.958,-695.408 341.414,-700.698"/>
<polygon fill="black" stroke="black" points="340.89,-704.192 351.471,-703.655 342.865,-697.476 340.89,-704.192"/>
<text text-anchor="middle" x="220" y="-666.8" font-family="Helvetica,sans-Serif" font-size="9.00">9.755 reqs per sec</text>
</g>
<!-- n16 -->
<g id="node16" class="node"><title>n16</title>
<path fill="#fdcdac" stroke="#fdcdac" d="M422.833,-4064C422.833,-4064 373.167,-4064 373.167,-4064 367.833,-4064 362.5,-4058.67 362.5,-4053.33 362.5,-4053.33 362.5,-4042.67 362.5,-4042.67 362.5,-4037.33 367.833,-4032 373.167,-4032 373.167,-4032 422.833,-4032 422.833,-4032 428.167,-4032 433.5,-4037.33 433.5,-4042.67 433.5,-4042.67 433.5,-4053.33 433.5,-4053.33 433.5,-4058.67 428.167,-4064 422.833,-4064"/>
<text text-anchor="middle" x="398" y="-4051.2" font-family="Helvetica,sans-Serif" font-size="11.00">mediawiki</text>
<text text-anchor="middle" x="398" y="-4039.2" font-family="Helvetica,sans-Serif" font-size="11.00">Main_Page</text>
</g>
<!-- n17 -->
<g id="node17" class="node"><title>n17</title>
<path fill="#fdcdac" stroke="#fdcdac" d="M445.833,-3996C445.833,-3996 350.167,-3996 350.167,-3996 344.833,-3996 339.5,-3990.67 339.5,-3985.33 339.5,-3985.33 339.5,-3974.67 339.5,-3974.67 339.5,-3969.33 344.833,-3964 350.167,-3964 350.167,-3964 445.833,-3964 445.833,-3964 451.167,-3964 456.5,-3969.33 456.5,-3974.67 456.5,-3974.67 456.5,-3985.33 456.5,-3985.33 456.5,-3990.67 451.167,-3996 445.833,-3996"/>
<text text-anchor="middle" x="398" y="-3983.2" font-family="Helvetica,sans-Serif" font-size="11.00">mediawiki</text>
<text text-anchor="middle" x="398" y="-3971.2" font-family="Helvetica,sans-Serif" font-size="11.00">Special:HealthCheck</text>
</g>
<!-- n18 -->
<g id="node18" class="node"><title>n18</title>
<path fill="lightgrey" stroke="black" d="M97.3333,-4194C97.3333,-4194 54.6667,-4194 54.6667,-4194 51.3333,-4194 48,-4190.67 48,-4187.33 48,-4187.33 48,-4180.67 48,-4180.67 48,-4177.33 51.3333,-4174 54.6667,-4174 54.6667,-4174 97.3333,-4174 97.3333,-4174 100.667,-4174 104,-4177.33 104,-4180.67 104,-4180.67 104,-4187.33 104,-4187.33 104,-4190.67 100.667,-4194 97.3333,-4194"/>
<text text-anchor="middle" x="76" y="-4181.2" font-family="Helvetica,sans-Serif" font-size="11.00">mercury</text>
</g>
<!-- n28 -->
<g id="node28" class="node"><title>n28</title>
<path fill="#cbd5e8" stroke="#cbd5e8" d="M497.333,-4268C497.333,-4268 298.667,-4268 298.667,-4268 293.333,-4268 288,-4262.67 288,-4257.33 288,-4257.33 288,-4246.67 288,-4246.67 288,-4241.33 293.333,-4236 298.667,-4236 298.667,-4236 497.333,-4236 497.333,-4236 502.667,-4236 508,-4241.33 508,-4246.67 508,-4246.67 508,-4257.33 508,-4257.33 508,-4262.67 502.667,-4268 497.333,-4268"/>
<text text-anchor="middle" x="398" y="-4255.2" font-family="Helvetica,sans-Serif" font-size="11.00">nirvana</text>
<text text-anchor="middle" x="398" y="-4243.2" font-family="Helvetica,sans-Serif" font-size="11.00">EmailConfirmation::postEmailConfirmation</text>
</g>
<!-- n18&#45;&gt;n28 -->
<g id="edge36" class="edge"><title>n18&#45;&gt;n28</title>
<path fill="none" stroke="black" d="M104.007,-4189.74C149.318,-4199.37 242.473,-4219.16 311.642,-4233.86"/>
<polygon fill="black" stroke="black" points="311.155,-4237.34 321.664,-4235.99 312.61,-4230.49 311.155,-4237.34"/>
<text text-anchor="middle" x="220" y="-4224.8" font-family="Helvetica,sans-Serif" font-size="9.00">0.008 reqs per sec</text>
</g>
<!-- n40 -->
<g id="node40" class="node"><title>n40</title>
<path fill="#cbd5e8" stroke="#cbd5e8" d="M466.333,-4200C466.333,-4200 329.667,-4200 329.667,-4200 324.333,-4200 319,-4194.67 319,-4189.33 319,-4189.33 319,-4178.67 319,-4178.67 319,-4173.33 324.333,-4168 329.667,-4168 329.667,-4168 466.333,-4168 466.333,-4168 471.667,-4168 477,-4173.33 477,-4178.67 477,-4178.67 477,-4189.33 477,-4189.33 477,-4194.67 471.667,-4200 466.333,-4200"/>
<text text-anchor="middle" x="398" y="-4187.2" font-family="Helvetica,sans-Serif" font-size="11.00">nirvana</text>
<text text-anchor="middle" x="398" y="-4175.2" font-family="Helvetica,sans-Serif" font-size="11.00">MercuryApi::getWikiVariables</text>
</g>
<!-- n18&#45;&gt;n40 -->
<g id="edge23" class="edge"><title>n18&#45;&gt;n40</title>
<path fill="none" stroke="black" d="M104.007,-4184C148.652,-4184 239.744,-4184 308.576,-4184"/>
<polygon fill="black" stroke="black" points="308.991,-4187.5 318.991,-4184 308.991,-4180.5 308.991,-4187.5"/>
<text text-anchor="middle" x="220" y="-4186.8" font-family="Helvetica,sans-Serif" font-size="9.00">0.137 reqs per sec</text>
</g>
<!-- n71 -->
<g id="node71" class="node"><title>n71</title>
<path fill="#f4cae4" stroke="#f4cae4" d="M450.833,-4132C450.833,-4132 345.167,-4132 345.167,-4132 339.833,-4132 334.5,-4126.67 334.5,-4121.33 334.5,-4121.33 334.5,-4110.67 334.5,-4110.67 334.5,-4105.33 339.833,-4100 345.167,-4100 345.167,-4100 450.833,-4100 450.833,-4100 456.167,-4100 461.5,-4105.33 461.5,-4110.67 461.5,-4110.67 461.5,-4121.33 461.5,-4121.33 461.5,-4126.67 456.167,-4132 450.833,-4132"/>
<text text-anchor="middle" x="398" y="-4119.2" font-family="Helvetica,sans-Serif" font-size="11.00">pandora</text>
<text text-anchor="middle" x="398" y="-4107.2" font-family="Helvetica,sans-Serif" font-size="11.00">user&#45;registration::users</text>
</g>
<!-- n18&#45;&gt;n71 -->
<g id="edge64" class="edge"><title>n18&#45;&gt;n71</title>
<path fill="none" stroke="black" d="M104.007,-4178.26C152.119,-4168.04 254.171,-4146.35 324.175,-4131.48"/>
<polygon fill="black" stroke="black" points="325.207,-4134.83 334.261,-4129.33 323.752,-4127.99 325.207,-4134.83"/>
<text text-anchor="middle" x="220" y="-4164.8" font-family="Helvetica,sans-Serif" font-size="9.00">0.001 reqs per sec</text>
</g>
<!-- n19 -->
<g id="node19" class="node"><title>n19</title>
<path fill="lightgrey" stroke="black" d="M127.833,-20C127.833,-20 24.1667,-20 24.1667,-20 20.8333,-20 17.5,-16.6667 17.5,-13.3333 17.5,-13.3333 17.5,-6.66667 17.5,-6.66667 17.5,-3.33333 20.8333,-0 24.1667,-0 24.1667,-0 127.833,-0 127.833,-0 131.167,-0 134.5,-3.33333 134.5,-6.66667 134.5,-6.66667 134.5,-13.3333 134.5,-13.3333 134.5,-16.6667 131.167,-20 127.833,-20"/>
<text text-anchor="middle" x="76" y="-7.2" font-family="Helvetica,sans-Serif" font-size="11.00">metric&#45;feeder&#45;worker</text>
</g>
<!-- n19&#45;&gt;n66 -->
<g id="edge59" class="edge"><title>n19&#45;&gt;n66</title>
<path fill="none" stroke="black" d="M134.627,-8.70002C170.91,-8.20354 218.715,-8.13808 261,-10 275.957,-10.6586 291.813,-11.7227 307.213,-12.9522"/>
<polygon fill="black" stroke="black" points="306.999,-16.4464 317.253,-13.7814 307.575,-9.47011 306.999,-16.4464"/>
<text text-anchor="middle" x="220" y="-12.8" font-family="Helvetica,sans-Serif" font-size="9.00">0.505 reqs per sec</text>
</g>
<!-- n20 -->
<g id="node20" class="node"><title>n20</title>
<path fill="lightgrey" stroke="black" d="M104.333,-3174C104.333,-3174 47.6667,-3174 47.6667,-3174 44.3333,-3174 41,-3170.67 41,-3167.33 41,-3167.33 41,-3160.67 41,-3160.67 41,-3157.33 44.3333,-3154 47.6667,-3154 47.6667,-3154 104.333,-3154 104.333,-3154 107.667,-3154 111,-3157.33 111,-3160.67 111,-3160.67 111,-3167.33 111,-3167.33 111,-3170.67 107.667,-3174 104.333,-3174"/>
<text text-anchor="middle" x="76" y="-3161.2" font-family="Helvetica,sans-Serif" font-size="11.00">mobile&#45;app</text>
</g>
<!-- n20&#45;&gt;n7 -->
<g id="edge10" class="edge"><title>n20&#45;&gt;n7</title>
<path fill="none" stroke="black" d="M77.5987,-3174.18C81.717,-3240.96 107.833,-3616.4 179,-3701 222.658,-3752.9 304.031,-3768.95 354.064,-3773.88"/>
<polygon fill="black" stroke="black" points="353.973,-3777.38 364.24,-3774.77 354.583,-3770.41 353.973,-3777.38"/>
<text text-anchor="middle" x="220" y="-3755.8" font-family="Helvetica,sans-Serif" font-size="9.00">0.039 reqs per sec</text>
</g>
<!-- n23 -->
<g id="node23" class="node"><title>n23</title>
<path fill="#cbd5e8" stroke="#cbd5e8" d="M448.333,-3724C448.333,-3724 347.667,-3724 347.667,-3724 342.333,-3724 337,-3718.67 337,-3713.33 337,-3713.33 337,-3702.67 337,-3702.67 337,-3697.33 342.333,-3692 347.667,-3692 347.667,-3692 448.333,-3692 448.333,-3692 453.667,-3692 459,-3697.33 459,-3702.67 459,-3702.67 459,-3713.33 459,-3713.33 459,-3718.67 453.667,-3724 448.333,-3724"/>
<text text-anchor="middle" x="398" y="-3711.2" font-family="Helvetica,sans-Serif" font-size="11.00">nirvana</text>
<text text-anchor="middle" x="398" y="-3699.2" font-family="Helvetica,sans-Serif" font-size="11.00">ArticlesApi::getDetails</text>
</g>
<!-- n20&#45;&gt;n23 -->
<g id="edge1" class="edge"><title>n20&#45;&gt;n23</title>
<path fill="none" stroke="black" d="M77.9851,-3174.32C84.0495,-3235.9 118.074,-3554.77 179,-3628 215.424,-3671.78 278.032,-3691.6 326.835,-3700.58"/>
<polygon fill="black" stroke="black" points="326.262,-3704.03 336.712,-3702.28 327.453,-3697.13 326.262,-3704.03"/>
<text text-anchor="middle" x="220" y="-3684.8" font-family="Helvetica,sans-Serif" font-size="9.00">1.037 reqs per sec</text>
</g>
<!-- n24 -->
<g id="node24" class="node"><title>n24</title>
<path fill="#cbd5e8" stroke="#cbd5e8" d="M439.833,-3656C439.833,-3656 356.167,-3656 356.167,-3656 350.833,-3656 345.5,-3650.67 345.5,-3645.33 345.5,-3645.33 345.5,-3634.67 345.5,-3634.67 345.5,-3629.33 350.833,-3624 356.167,-3624 356.167,-3624 439.833,-3624 439.833,-3624 445.167,-3624 450.5,-3629.33 450.5,-3634.67 450.5,-3634.67 450.5,-3645.33 450.5,-3645.33 450.5,-3650.67 445.167,-3656 439.833,-3656"/>
<text text-anchor="middle" x="398" y="-3643.2" font-family="Helvetica,sans-Serif" font-size="11.00">nirvana</text>
<text text-anchor="middle" x="398" y="-3631.2" font-family="Helvetica,sans-Serif" font-size="11.00">ArticlesApi::getList</text>
</g>
<!-- n20&#45;&gt;n24 -->
<g id="edge4" class="edge"><title>n20&#45;&gt;n24</title>
<path fill="none" stroke="black" d="M76.6321,-3174.23C75.4238,-3223.12 76.4613,-3435.54 179,-3557 217.983,-3603.18 285.588,-3623.72 335.203,-3632.83"/>
<polygon fill="black" stroke="black" points="334.737,-3636.3 345.186,-3634.55 335.928,-3629.4 334.737,-3636.3"/>
<text text-anchor="middle" x="220" y="-3611.8" font-family="Helvetica,sans-Serif" font-size="9.00">0.254 reqs per sec</text>
</g>
<!-- n25 -->
<g id="node25" class="node"><title>n25</title>
<path fill="#cbd5e8" stroke="#cbd5e8" d="M440.833,-3588C440.833,-3588 355.167,-3588 355.167,-3588 349.833,-3588 344.5,-3582.67 344.5,-3577.33 344.5,-3577.33 344.5,-3566.67 344.5,-3566.67 344.5,-3561.33 349.833,-3556 355.167,-3556 355.167,-3556 440.833,-3556 440.833,-3556 446.167,-3556 451.5,-3561.33 451.5,-3566.67 451.5,-3566.67 451.5,-3577.33 451.5,-3577.33 451.5,-3582.67 446.167,-3588 440.833,-3588"/>
<text text-anchor="middle" x="398" y="-3575.2" font-family="Helvetica,sans-Serif" font-size="11.00">nirvana</text>
<text text-anchor="middle" x="398" y="-3563.2" font-family="Helvetica,sans-Serif" font-size="11.00">ArticlesApi::getTop</text>
</g>
<!-- n20&#45;&gt;n25 -->
<g id="edge5" class="edge"><title>n20&#45;&gt;n25</title>
<path fill="none" stroke="black" d="M77.4266,-3174.29C79.7412,-3217.52 94.0932,-3386.8 179,-3485 218.397,-3530.56 284.979,-3552.52 334.217,-3562.93"/>
<polygon fill="black" stroke="black" points="333.639,-3566.39 344.132,-3564.92 335.018,-3559.52 333.639,-3566.39"/>
<text text-anchor="middle" x="220" y="-3540.8" font-family="Helvetica,sans-Serif" font-size="9.00">0.337 reqs per sec</text>
</g>
<!-- n26 -->
<g id="node26" class="node"><title>n26</title>
<path fill="#cbd5e8" stroke="#cbd5e8" d="M452.833,-3520C452.833,-3520 343.167,-3520 343.167,-3520 337.833,-3520 332.5,-3514.67 332.5,-3509.33 332.5,-3509.33 332.5,-3498.67 332.5,-3498.67 332.5,-3493.33 337.833,-3488 343.167,-3488 343.167,-3488 452.833,-3488 452.833,-3488 458.167,-3488 463.5,-3493.33 463.5,-3498.67 463.5,-3498.67 463.5,-3509.33 463.5,-3509.33 463.5,-3514.67 458.167,-3520 452.833,-3520"/>
<text text-anchor="middle" x="398" y="-3507.2" font-family="Helvetica,sans-Serif" font-size="11.00">nirvana</text>
<text text-anchor="middle" x="398" y="-3495.2" font-family="Helvetica,sans-Serif" font-size="11.00">CuratedContent::getList</text>
</g>
<!-- n20&#45;&gt;n26 -->
<g id="edge7" class="edge"><title>n20&#45;&gt;n26</title>
<path fill="none" stroke="black" d="M78.5841,-3174.1C84.7909,-3210.67 110.572,-3337.89 179,-3413 216.454,-3454.11 275.397,-3477.2 322.554,-3489.83"/>
<polygon fill="black" stroke="black" points="321.869,-3493.27 332.426,-3492.37 323.613,-3486.49 321.869,-3493.27"/>
<text text-anchor="middle" x="220" y="-3468.8" font-family="Helvetica,sans-Serif" font-size="9.00">0.259 reqs per sec</text>
</g>
<!-- n27 -->
<g id="node27" class="node"><title>n27</title>
<path fill="#cbd5e8" stroke="#cbd5e8" d="M457.333,-3452C457.333,-3452 338.667,-3452 338.667,-3452 333.333,-3452 328,-3446.67 328,-3441.33 328,-3441.33 328,-3430.67 328,-3430.67 328,-3425.33 333.333,-3420 338.667,-3420 338.667,-3420 457.333,-3420 457.333,-3420 462.667,-3420 468,-3425.33 468,-3430.67 468,-3430.67 468,-3441.33 468,-3441.33 468,-3446.67 462.667,-3452 457.333,-3452"/>
<text text-anchor="middle" x="398" y="-3439.2" font-family="Helvetica,sans-Serif" font-size="11.00">nirvana</text>
<text text-anchor="middle" x="398" y="-3427.2" font-family="Helvetica,sans-Serif" font-size="11.00">CuratedContent::getPage</text>
</g>
<!-- n20&#45;&gt;n27 -->
<g id="edge2" class="edge"><title>n20&#45;&gt;n27</title>
<path fill="none" stroke="black" d="M80.5632,-3174.02C91.3178,-3203.09 126.005,-3288.67 179,-3341 217.109,-3378.63 272.578,-3402.52 318.025,-3416.93"/>
<polygon fill="black" stroke="black" points="317.27,-3420.36 327.857,-3419.95 319.325,-3413.67 317.27,-3420.36"/>
<text text-anchor="middle" x="220" y="-3396.8" font-family="Helvetica,sans-Serif" font-size="9.00">0.878 reqs per sec</text>
</g>
<!-- n31 -->
<g id="node31" class="node"><title>n31</title>
<path fill="#cbd5e8" stroke="#cbd5e8" d="M445.833,-3384C445.833,-3384 350.167,-3384 350.167,-3384 344.833,-3384 339.5,-3378.67 339.5,-3373.33 339.5,-3373.33 339.5,-3362.67 339.5,-3362.67 339.5,-3357.33 344.833,-3352 350.167,-3352 350.167,-3352 445.833,-3352 445.833,-3352 451.167,-3352 456.5,-3357.33 456.5,-3362.67 456.5,-3362.67 456.5,-3373.33 456.5,-3373.33 456.5,-3378.67 451.167,-3384 445.833,-3384"/>
<text text-anchor="middle" x="398" y="-3371.2" font-family="Helvetica,sans-Serif" font-size="11.00">nirvana</text>
<text text-anchor="middle" x="398" y="-3359.2" font-family="Helvetica,sans-Serif" font-size="11.00">GameGuides::getList</text>
</g>
<!-- n20&#45;&gt;n31 -->
<g id="edge15" class="edge"><title>n20&#45;&gt;n31</title>
<path fill="none" stroke="black" d="M84.2369,-3174.04C99.7398,-3195.02 138.088,-3244.21 179,-3276 223.878,-3310.87 283.919,-3334.92 329.626,-3349.66"/>
<polygon fill="black" stroke="black" points="328.855,-3353.09 339.444,-3352.76 330.959,-3346.41 328.855,-3353.09"/>
<text text-anchor="middle" x="220" y="-3324.8" font-family="Helvetica,sans-Serif" font-size="9.00">0.010 reqs per sec</text>
</g>
<!-- n32 -->
<g id="node32" class="node"><title>n32</title>
<path fill="#cbd5e8" stroke="#cbd5e8" d="M470.833,-3316C470.833,-3316 325.167,-3316 325.167,-3316 319.833,-3316 314.5,-3310.67 314.5,-3305.33 314.5,-3305.33 314.5,-3294.67 314.5,-3294.67 314.5,-3289.33 319.833,-3284 325.167,-3284 325.167,-3284 470.833,-3284 470.833,-3284 476.167,-3284 481.5,-3289.33 481.5,-3294.67 481.5,-3294.67 481.5,-3305.33 481.5,-3305.33 481.5,-3310.67 476.167,-3316 470.833,-3316"/>
<text text-anchor="middle" x="398" y="-3303.2" font-family="Helvetica,sans-Serif" font-size="11.00">nirvana</text>
<text text-anchor="middle" x="398" y="-3291.2" font-family="Helvetica,sans-Serif" font-size="11.00">GameGuides::getResourcesUrl</text>
</g>
<!-- n20&#45;&gt;n32 -->
<g id="edge3" class="edge"><title>n20&#45;&gt;n32</title>
<path fill="none" stroke="black" d="M93.2436,-3174.14C113.072,-3186.3 147.822,-3206.93 179,-3222 226.034,-3244.74 238.801,-3248.43 288,-3266 302.395,-3271.14 318.007,-3276.27 332.798,-3280.93"/>
<polygon fill="black" stroke="black" points="331.789,-3284.28 342.377,-3283.91 333.873,-3277.6 331.789,-3284.28"/>
<text text-anchor="middle" x="220" y="-3259.8" font-family="Helvetica,sans-Serif" font-size="9.00">0.268 reqs per sec</text>
</g>
<!-- n33 -->
<g id="node33" class="node"><title>n33</title>
<path fill="#cbd5e8" stroke="#cbd5e8" d="M454.833,-3248C454.833,-3248 341.167,-3248 341.167,-3248 335.833,-3248 330.5,-3242.67 330.5,-3237.33 330.5,-3237.33 330.5,-3226.67 330.5,-3226.67 330.5,-3221.33 335.833,-3216 341.167,-3216 341.167,-3216 454.833,-3216 454.833,-3216 460.167,-3216 465.5,-3221.33 465.5,-3226.67 465.5,-3226.67 465.5,-3237.33 465.5,-3237.33 465.5,-3242.67 460.167,-3248 454.833,-3248"/>
<text text-anchor="middle" x="398" y="-3235.2" font-family="Helvetica,sans-Serif" font-size="11.00">nirvana</text>
<text text-anchor="middle" x="398" y="-3223.2" font-family="Helvetica,sans-Serif" font-size="11.00">Lightbox::getMediaDetail</text>
</g>
<!-- n20&#45;&gt;n33 -->
<g id="edge17" class="edge"><title>n20&#45;&gt;n33</title>
<path fill="none" stroke="black" d="M111.246,-3171.28C160.781,-3181.8 253.759,-3201.56 320.208,-3215.68"/>
<polygon fill="black" stroke="black" points="319.713,-3219.15 330.222,-3217.81 321.168,-3212.31 319.713,-3219.15"/>
<text text-anchor="middle" x="220" y="-3205.8" font-family="Helvetica,sans-Serif" font-size="9.00">0.018 reqs per sec</text>
</g>
<!-- n34 -->
<g id="node34" class="node"><title>n34</title>
<path fill="#cbd5e8" stroke="#cbd5e8" d="M443.333,-3180C443.333,-3180 352.667,-3180 352.667,-3180 347.333,-3180 342,-3174.67 342,-3169.33 342,-3169.33 342,-3158.67 342,-3158.67 342,-3153.33 347.333,-3148 352.667,-3148 352.667,-3148 443.333,-3148 443.333,-3148 448.667,-3148 454,-3153.33 454,-3158.67 454,-3158.67 454,-3169.33 454,-3169.33 454,-3174.67 448.667,-3180 443.333,-3180"/>
<text text-anchor="middle" x="398" y="-3167.2" font-family="Helvetica,sans-Serif" font-size="11.00">nirvana</text>
<text text-anchor="middle" x="398" y="-3155.2" font-family="Helvetica,sans-Serif" font-size="11.00">LyricsApi::getAlbum</text>
</g>
<!-- n20&#45;&gt;n34 -->
<g id="edge19" class="edge"><title>n20&#45;&gt;n34</title>
<path fill="none" stroke="black" d="M111.246,-3164C163.771,-3164 265.144,-3164 331.937,-3164"/>
<polygon fill="black" stroke="black" points="331.939,-3167.5 341.939,-3164 331.939,-3160.5 331.939,-3167.5"/>
<text text-anchor="middle" x="220" y="-3166.8" font-family="Helvetica,sans-Serif" font-size="9.00">0.002 reqs per sec</text>
</g>
<!-- n35 -->
<g id="node35" class="node"><title>n35</title>
<path fill="#cbd5e8" stroke="#cbd5e8" d="M440.333,-3112C440.333,-3112 355.667,-3112 355.667,-3112 350.333,-3112 345,-3106.67 345,-3101.33 345,-3101.33 345,-3090.67 345,-3090.67 345,-3085.33 350.333,-3080 355.667,-3080 355.667,-3080 440.333,-3080 440.333,-3080 445.667,-3080 451,-3085.33 451,-3090.67 451,-3090.67 451,-3101.33 451,-3101.33 451,-3106.67 445.667,-3112 440.333,-3112"/>
<text text-anchor="middle" x="398" y="-3099.2" font-family="Helvetica,sans-Serif" font-size="11.00">nirvana</text>
<text text-anchor="middle" x="398" y="-3087.2" font-family="Helvetica,sans-Serif" font-size="11.00">LyricsApi::getArtist</text>
</g>
<!-- n20&#45;&gt;n35 -->
<g id="edge12" class="edge"><title>n20&#45;&gt;n35</title>
<path fill="none" stroke="black" d="M111.246,-3156.72C164.538,-3145.4 268.114,-3123.39 334.84,-3109.21"/>
<polygon fill="black" stroke="black" points="335.759,-3112.59 344.813,-3107.09 334.304,-3105.74 335.759,-3112.59"/>
<text text-anchor="middle" x="220" y="-3145.8" font-family="Helvetica,sans-Serif" font-size="9.00">0.000 reqs per sec</text>
</g>
<!-- n36 -->
<g id="node36" class="node"><title>n36</title>
<path fill="#cbd5e8" stroke="#cbd5e8" d="M440.833,-3044C440.833,-3044 355.167,-3044 355.167,-3044 349.833,-3044 344.5,-3038.67 344.5,-3033.33 344.5,-3033.33 344.5,-3022.67 344.5,-3022.67 344.5,-3017.33 349.833,-3012 355.167,-3012 355.167,-3012 440.833,-3012 440.833,-3012 446.167,-3012 451.5,-3017.33 451.5,-3022.67 451.5,-3022.67 451.5,-3033.33 451.5,-3033.33 451.5,-3038.67 446.167,-3044 440.833,-3044"/>
<text text-anchor="middle" x="398" y="-3031.2" font-family="Helvetica,sans-Serif" font-size="11.00">nirvana</text>
<text text-anchor="middle" x="398" y="-3019.2" font-family="Helvetica,sans-Serif" font-size="11.00">LyricsApi::getSong</text>
</g>
<!-- n20&#45;&gt;n36 -->
<g id="edge13" class="edge"><title>n20&#45;&gt;n36</title>
<path fill="none" stroke="black" d="M93.6412,-3153.9C113.572,-3141.99 148.138,-3121.93 179,-3107 226.18,-3084.18 238.712,-3079.82 288,-3062 302.91,-3056.61 319.143,-3051.27 334.416,-3046.47"/>
<polygon fill="black" stroke="black" points="335.78,-3049.71 344.291,-3043.4 333.703,-3043.03 335.78,-3049.71"/>
<text text-anchor="middle" x="220" y="-3109.8" font-family="Helvetica,sans-Serif" font-size="9.00">0.005 reqs per sec</text>
</g>
<!-- n37 -->
<g id="node37" class="node"><title>n37</title>
<path fill="#cbd5e8" stroke="#cbd5e8" d="M448.833,-2976C448.833,-2976 347.167,-2976 347.167,-2976 341.833,-2976 336.5,-2970.67 336.5,-2965.33 336.5,-2965.33 336.5,-2954.67 336.5,-2954.67 336.5,-2949.33 341.833,-2944 347.167,-2944 347.167,-2944 448.833,-2944 448.833,-2944 454.167,-2944 459.5,-2949.33 459.5,-2954.67 459.5,-2954.67 459.5,-2965.33 459.5,-2965.33 459.5,-2970.67 454.167,-2976 448.833,-2976"/>
<text text-anchor="middle" x="398" y="-2963.2" font-family="Helvetica,sans-Serif" font-size="11.00">nirvana</text>
<text text-anchor="middle" x="398" y="-2951.2" font-family="Helvetica,sans-Serif" font-size="11.00">LyricsApi::searchArtist</text>
</g>
<!-- n20&#45;&gt;n37 -->
<g id="edge18" class="edge"><title>n20&#45;&gt;n37</title>
<path fill="none" stroke="black" d="M84.5534,-3153.88C100.353,-3133.21 138.773,-3085.42 179,-3054 222.579,-3019.96 237.126,-3015.68 288,-2994 300.767,-2988.56 314.703,-2983.55 328.213,-2979.15"/>
<polygon fill="black" stroke="black" points="329.485,-2982.42 337.953,-2976.05 327.363,-2975.75 329.485,-2982.42"/>
<text text-anchor="middle" x="220" y="-3056.8" font-family="Helvetica,sans-Serif" font-size="9.00">0.002 reqs per sec</text>
</g>
<!-- n38 -->
<g id="node38" class="node"><title>n38</title>
<path fill="#cbd5e8" stroke="#cbd5e8" d="M450.333,-2908C450.333,-2908 345.667,-2908 345.667,-2908 340.333,-2908 335,-2902.67 335,-2897.33 335,-2897.33 335,-2886.67 335,-2886.67 335,-2881.33 340.333,-2876 345.667,-2876 345.667,-2876 450.333,-2876 450.333,-2876 455.667,-2876 461,-2881.33 461,-2886.67 461,-2886.67 461,-2897.33 461,-2897.33 461,-2902.67 455.667,-2908 450.333,-2908"/>
<text text-anchor="middle" x="398" y="-2895.2" font-family="Helvetica,sans-Serif" font-size="11.00">nirvana</text>
<text text-anchor="middle" x="398" y="-2883.2" font-family="Helvetica,sans-Serif" font-size="11.00">LyricsApi::searchLyrics</text>
</g>
<!-- n20&#45;&gt;n38 -->
<g id="edge14" class="edge"><title>n20&#45;&gt;n38</title>
<path fill="none" stroke="black" d="M80.7529,-3153.64C91.7736,-3124.39 126.598,-3039.98 179,-2988 219.019,-2948.3 278.224,-2923.66 324.839,-2909.3"/>
<polygon fill="black" stroke="black" points="326.003,-2912.61 334.584,-2906.39 324,-2905.9 326.003,-2912.61"/>
<text text-anchor="middle" x="220" y="-2990.8" font-family="Helvetica,sans-Serif" font-size="9.00">0.001 reqs per sec</text>
</g>
<!-- n39 -->
<g id="node39" class="node"><title>n39</title>
<path fill="#cbd5e8" stroke="#cbd5e8" d="M449.333,-2840C449.333,-2840 346.667,-2840 346.667,-2840 341.333,-2840 336,-2834.67 336,-2829.33 336,-2829.33 336,-2818.67 336,-2818.67 336,-2813.33 341.333,-2808 346.667,-2808 346.667,-2808 449.333,-2808 449.333,-2808 454.667,-2808 460,-2813.33 460,-2818.67 460,-2818.67 460,-2829.33 460,-2829.33 460,-2834.67 454.667,-2840 449.333,-2840"/>
<text text-anchor="middle" x="398" y="-2827.2" font-family="Helvetica,sans-Serif" font-size="11.00">nirvana</text>
<text text-anchor="middle" x="398" y="-2815.2" font-family="Helvetica,sans-Serif" font-size="11.00">LyricsApi::searchSong</text>
</g>
<!-- n20&#45;&gt;n39 -->
<g id="edge16" class="edge"><title>n20&#45;&gt;n39</title>
<path fill="none" stroke="black" d="M78.6147,-3153.95C84.9267,-3117.59 111.023,-2991.05 179,-2916 217.233,-2873.79 277.992,-2850.32 325.664,-2837.66"/>
<polygon fill="black" stroke="black" points="326.8,-2840.99 335.626,-2835.13 325.071,-2834.2 326.8,-2840.99"/>
<text text-anchor="middle" x="220" y="-2918.8" font-family="Helvetica,sans-Serif" font-size="9.00">0.003 reqs per sec</text>
</g>
<!-- n41 -->
<g id="node41" class="node"><title>n41</title>
<path fill="#cbd5e8" stroke="#cbd5e8" d="M439.333,-2772C439.333,-2772 356.667,-2772 356.667,-2772 351.333,-2772 346,-2766.67 346,-2761.33 346,-2761.33 346,-2750.67 346,-2750.67 346,-2745.33 351.333,-2740 356.667,-2740 356.667,-2740 439.333,-2740 439.333,-2740 444.667,-2740 450,-2745.33 450,-2750.67 450,-2750.67 450,-2761.33 450,-2761.33 450,-2766.67 444.667,-2772 439.333,-2772"/>
<text text-anchor="middle" x="398" y="-2759.2" font-family="Helvetica,sans-Serif" font-size="11.00">nirvana</text>
<text text-anchor="middle" x="398" y="-2747.2" font-family="Helvetica,sans-Serif" font-size="11.00">SearchApi::getList</text>
</g>
<!-- n20&#45;&gt;n41 -->
<g id="edge11" class="edge"><title>n20&#45;&gt;n41</title>
<path fill="none" stroke="black" d="M77.4266,-3153.71C79.7412,-3110.48 94.0932,-2941.2 179,-2843 218.771,-2797 286.246,-2775.07 335.615,-2764.77"/>
<polygon fill="black" stroke="black" points="336.416,-2768.18 345.546,-2762.81 335.057,-2761.32 336.416,-2768.18"/>
<text text-anchor="middle" x="220" y="-2845.8" font-family="Helvetica,sans-Serif" font-size="9.00">0.100 reqs per sec</text>
</g>
<!-- n42 -->
<g id="node42" class="node"><title>n42</title>
<path fill="#cbd5e8" stroke="#cbd5e8" d="M469.333,-2704C469.333,-2704 326.667,-2704 326.667,-2704 321.333,-2704 316,-2698.67 316,-2693.33 316,-2693.33 316,-2682.67 316,-2682.67 316,-2677.33 321.333,-2672 326.667,-2672 326.667,-2672 469.333,-2672 469.333,-2672 474.667,-2672 480,-2677.33 480,-2682.67 480,-2682.67 480,-2693.33 480,-2693.33 480,-2698.67 474.667,-2704 469.333,-2704"/>
<text text-anchor="middle" x="398" y="-2691.2" font-family="Helvetica,sans-Serif" font-size="11.00">nirvana</text>
<text text-anchor="middle" x="398" y="-2679.2" font-family="Helvetica,sans-Serif" font-size="11.00">SearchSuggestionsApi::getList</text>
</g>
<!-- n20&#45;&gt;n42 -->
<g id="edge6" class="edge"><title>n20&#45;&gt;n42</title>
<path fill="none" stroke="black" d="M76.6321,-3153.77C75.4238,-3104.88 76.4613,-2892.46 179,-2771 210.695,-2733.46 261.312,-2712.86 305.796,-2701.57"/>
<polygon fill="black" stroke="black" points="306.871,-2704.91 315.773,-2699.17 305.231,-2698.11 306.871,-2704.91"/>
<text text-anchor="middle" x="220" y="-2773.8" font-family="Helvetica,sans-Serif" font-size="9.00">0.614 reqs per sec</text>
</g>
<!-- n43 -->
<g id="node43" class="node"><title>n43</title>
<path fill="#cbd5e8" stroke="#cbd5e8" d="M461.333,-2636C461.333,-2636 334.667,-2636 334.667,-2636 329.333,-2636 324,-2630.67 324,-2625.33 324,-2625.33 324,-2614.67 324,-2614.67 324,-2609.33 329.333,-2604 334.667,-2604 334.667,-2604 461.333,-2604 461.333,-2604 466.667,-2604 472,-2609.33 472,-2614.67 472,-2614.67 472,-2625.33 472,-2625.33 472,-2630.67 466.667,-2636 461.333,-2636"/>
<text text-anchor="middle" x="398" y="-2623.2" font-family="Helvetica,sans-Serif" font-size="11.00">nirvana</text>
<text text-anchor="middle" x="398" y="-2611.2" font-family="Helvetica,sans-Serif" font-size="11.00">VideoHandler::getVideoList</text>
</g>
<!-- n20&#45;&gt;n43 -->
<g id="edge9" class="edge"><title>n20&#45;&gt;n43</title>
<path fill="none" stroke="black" d="M77.9851,-3153.68C84.0495,-3092.1 118.074,-2773.23 179,-2700 212.269,-2660.01 267.384,-2640.01 313.87,-2630.01"/>
<polygon fill="black" stroke="black" points="314.846,-2633.38 323.951,-2627.96 313.455,-2626.52 314.846,-2633.38"/>
<text text-anchor="middle" x="220" y="-2702.8" font-family="Helvetica,sans-Serif" font-size="9.00">0.153 reqs per sec</text>
</g>
<!-- n44 -->
<g id="node44" class="node"><title>n44</title>
<path fill="#cbd5e8" stroke="#cbd5e8" d="M443.333,-2568C443.333,-2568 352.667,-2568 352.667,-2568 347.333,-2568 342,-2562.67 342,-2557.33 342,-2557.33 342,-2546.67 342,-2546.67 342,-2541.33 347.333,-2536 352.667,-2536 352.667,-2536 443.333,-2536 443.333,-2536 448.667,-2536 454,-2541.33 454,-2546.67 454,-2546.67 454,-2557.33 454,-2557.33 454,-2562.67 448.667,-2568 443.333,-2568"/>
<text text-anchor="middle" x="398" y="-2555.2" font-family="Helvetica,sans-Serif" font-size="11.00">nirvana</text>
<text text-anchor="middle" x="398" y="-2543.2" font-family="Helvetica,sans-Serif" font-size="11.00">WikisApi::getDetails</text>
</g>
<!-- n20&#45;&gt;n44 -->
<g id="edge8" class="edge"><title>n20&#45;&gt;n44</title>
<path fill="none" stroke="black" d="M77.5987,-3153.82C81.717,-3087.04 107.833,-2711.6 179,-2627 216.603,-2582.3 282.184,-2564.19 331.621,-2556.88"/>
<polygon fill="black" stroke="black" points="332.16,-2560.34 341.594,-2555.52 331.213,-2553.4 332.16,-2560.34"/>
<text text-anchor="middle" x="220" y="-2629.8" font-family="Helvetica,sans-Serif" font-size="9.00">0.137 reqs per sec</text>
</g>
<!-- n21 -->
<g id="node21" class="node"><title>n21</title>
<path fill="lightgrey" stroke="black" d="M104.333,-1184C104.333,-1184 47.6667,-1184 47.6667,-1184 44.3333,-1184 41,-1180.67 41,-1177.33 41,-1177.33 41,-1170.67 41,-1170.67 41,-1167.33 44.3333,-1164 47.6667,-1164 47.6667,-1164 104.333,-1164 104.333,-1164 107.667,-1164 111,-1167.33 111,-1170.67 111,-1170.67 111,-1177.33 111,-1177.33 111,-1180.67 107.667,-1184 104.333,-1184"/>
<text text-anchor="middle" x="76" y="-1171.2" font-family="Helvetica,sans-Serif" font-size="11.00">mobile&#45;wiki</text>
</g>
<!-- n21&#45;&gt;n50 -->
<g id="edge51" class="edge"><title>n21&#45;&gt;n50</title>
<path fill="none" stroke="black" d="M78.3517,-1163.79C85.6455,-1110.35 122.1,-863.5 179,-817 222.085,-781.789 287.298,-781.326 335.175,-787.363"/>
<polygon fill="black" stroke="black" points="334.729,-790.834 345.114,-788.74 335.689,-783.901 334.729,-790.834"/>
<text text-anchor="middle" x="220" y="-819.8" font-family="Helvetica,sans-Serif" font-size="9.00">0.214 reqs per sec</text>
</g>
<!-- n51 -->
<g id="node51" class="node"><title>n51</title>
<path fill="#f4cae4" stroke="#f4cae4" d="M449.333,-1326C449.333,-1326 346.667,-1326 346.667,-1326 341.333,-1326 336,-1320.67 336,-1315.33 336,-1315.33 336,-1304.67 336,-1304.67 336,-1299.33 341.333,-1294 346.667,-1294 346.667,-1294 449.333,-1294 449.333,-1294 454.667,-1294 460,-1299.33 460,-1304.67 460,-1304.67 460,-1315.33 460,-1315.33 460,-1320.67 454.667,-1326 449.333,-1326"/>
<text text-anchor="middle" x="398" y="-1313.2" font-family="Helvetica,sans-Serif" font-size="11.00">pandora</text>
<text text-anchor="middle" x="398" y="-1301.2" font-family="Helvetica,sans-Serif" font-size="11.00">discussion::permalinks</text>
</g>
<!-- n21&#45;&gt;n51 -->
<g id="edge61" class="edge"><title>n21&#45;&gt;n51</title>
<path fill="none" stroke="black" d="M82.5458,-1184.07C95.7781,-1206.98 131.659,-1262.9 179,-1287 224.153,-1309.98 281.299,-1315.28 325.754,-1315.07"/>
<polygon fill="black" stroke="black" points="325.95,-1318.57 335.9,-1314.93 325.851,-1311.57 325.95,-1318.57"/>
<text text-anchor="middle" x="220" y="-1313.8" font-family="Helvetica,sans-Serif" font-size="9.00">0.002 reqs per sec</text>
</g>
<!-- n52 -->
<g id="node52" class="node"><title>n52</title>
<path fill="#f4cae4" stroke="#f4cae4" d="M436.333,-1241C436.333,-1241 359.667,-1241 359.667,-1241 354.333,-1241 349,-1235.67 349,-1230.33 349,-1230.33 349,-1219.67 349,-1219.67 349,-1214.33 354.333,-1209 359.667,-1209 359.667,-1209 436.333,-1209 436.333,-1209 441.667,-1209 447,-1214.33 447,-1219.67 447,-1219.67 447,-1230.33 447,-1230.33 447,-1235.67 441.667,-1241 436.333,-1241"/>
<text text-anchor="middle" x="398" y="-1228.2" font-family="Helvetica,sans-Serif" font-size="11.00">pandora</text>
<text text-anchor="middle" x="398" y="-1216.2" font-family="Helvetica,sans-Serif" font-size="11.00">discussion::posts</text>
</g>
<!-- n21&#45;&gt;n52 -->
<g id="edge74" class="edge"><title>n21&#45;&gt;n52</title>
<path fill="none" stroke="black" d="M111.246,-1179.46C165.612,-1188.12 272.307,-1205.13 338.827,-1215.73"/>
<polygon fill="black" stroke="black" points="338.315,-1219.19 348.741,-1217.31 339.416,-1212.28 338.315,-1219.19"/>
<text text-anchor="middle" x="220" y="-1205.8" font-family="Helvetica,sans-Serif" font-size="9.00">0.000 reqs per sec</text>
</g>
<!-- n21&#45;&gt;n55 -->
<g id="edge54" class="edge"><title>n21&#45;&gt;n55</title>
<path fill="none" stroke="black" d="M99.7571,-1163.97C152.056,-1140.93 281.646,-1083.83 351.178,-1053.19"/>
<polygon fill="black" stroke="black" points="352.837,-1056.28 360.576,-1049.05 350.014,-1049.88 352.837,-1056.28"/>
<text text-anchor="middle" x="220" y="-1131.8" font-family="Helvetica,sans-Serif" font-size="9.00">0.446 reqs per sec</text>
</g>
<!-- n21&#45;&gt;n56 -->
<g id="edge73" class="edge"><title>n21&#45;&gt;n56</title>
<path fill="none" stroke="black" d="M111.246,-1169.83C165.5,-1163.21 271.869,-1150.25 338.416,-1142.14"/>
<polygon fill="black" stroke="black" points="339.238,-1145.57 348.741,-1140.88 338.391,-1138.62 339.238,-1145.57"/>
<text text-anchor="middle" x="220" y="-1164.8" font-family="Helvetica,sans-Serif" font-size="9.00">0.001 reqs per sec</text>
</g>
<!-- n21&#45;&gt;n59 -->
<g id="edge58" class="edge"><title>n21&#45;&gt;n59</title>
<path fill="none" stroke="black" d="M80.5712,-1184.36C90.8931,-1212.68 123.611,-1291.76 179,-1330 231.48,-1366.23 306.566,-1375.72 353.513,-1377.87"/>
<polygon fill="black" stroke="black" points="353.538,-1381.37 363.659,-1378.24 353.794,-1374.38 353.538,-1381.37"/>
<text text-anchor="middle" x="220" y="-1366.8" font-family="Helvetica,sans-Serif" font-size="9.00">0.068 reqs per sec</text>
</g>
<!-- n21&#45;&gt;n64 -->
<g id="edge57" class="edge"><title>n21&#45;&gt;n64</title>
<path fill="none" stroke="black" d="M77.7767,-1163.78C81.293,-1125.09 99.2226,-986.376 179,-919 223.367,-881.53 290.582,-871.833 338.64,-870.228"/>
<polygon fill="black" stroke="black" points="338.974,-873.721 348.893,-869.997 338.817,-866.723 338.974,-873.721"/>
<text text-anchor="middle" x="220" y="-921.8" font-family="Helvetica,sans-Serif" font-size="9.00">0.002 reqs per sec</text>
</g>
<!-- n21&#45;&gt;n67 -->
<g id="edge55" class="edge"><title>n21&#45;&gt;n67</title>
<path fill="none" stroke="black" d="M81.0112,-1163.74C92.2165,-1136.4 126.511,-1061.15 179,-1021 203.748,-1002.07 279.392,-979.079 334.648,-964.02"/>
<polygon fill="black" stroke="black" points="335.624,-967.382 344.365,-961.396 333.799,-960.624 335.624,-967.382"/>
<text text-anchor="middle" x="220" y="-1023.8" font-family="Helvetica,sans-Serif" font-size="9.00">0.022 reqs per sec</text>
</g>
<!-- n69 -->
<g id="node69" class="node"><title>n69</title>
<path fill="#f4cae4" stroke="#f4cae4" d="M467.833,-1462C467.833,-1462 328.167,-1462 328.167,-1462 322.833,-1462 317.5,-1456.67 317.5,-1451.33 317.5,-1451.33 317.5,-1440.67 317.5,-1440.67 317.5,-1435.33 322.833,-1430 328.167,-1430 328.167,-1430 467.833,-1430 467.833,-1430 473.167,-1430 478.5,-1435.33 478.5,-1440.67 478.5,-1440.67 478.5,-1451.33 478.5,-1451.33 478.5,-1456.67 473.167,-1462 467.833,-1462"/>
<text text-anchor="middle" x="398" y="-1449.2" font-family="Helvetica,sans-Serif" font-size="11.00">pandora</text>
<text text-anchor="middle" x="398" y="-1437.2" font-family="Helvetica,sans-Serif" font-size="11.00">user&#45;permissions::permissions</text>
</g>
<!-- n21&#45;&gt;n69 -->
<g id="edge56" class="edge"><title>n21&#45;&gt;n69</title>
<path fill="none" stroke="black" d="M78.8978,-1184.07C85.7718,-1217.69 112.553,-1327.14 179,-1383 214.95,-1413.22 264.693,-1428.96 307.586,-1437.15"/>
<polygon fill="black" stroke="black" points="307.013,-1440.6 317.475,-1438.93 308.253,-1433.71 307.013,-1440.6"/>
<text text-anchor="middle" x="220" y="-1428.8" font-family="Helvetica,sans-Serif" font-size="9.00">0.023 reqs per sec</text>
</g>
<!-- n22 -->
<g id="node22" class="node"><title>n22</title>
<path fill="lightgrey" stroke="black" d="M93.3333,-4024C93.3333,-4024 58.6667,-4024 58.6667,-4024 55.3333,-4024 52,-4020.67 52,-4017.33 52,-4017.33 52,-4010.67 52,-4010.67 52,-4007.33 55.3333,-4004 58.6667,-4004 58.6667,-4004 93.3333,-4004 93.3333,-4004 96.6667,-4004 100,-4007.33 100,-4010.67 100,-4010.67 100,-4017.33 100,-4017.33 100,-4020.67 96.6667,-4024 93.3333,-4024"/>
<text text-anchor="middle" x="76" y="-4011.2" font-family="Helvetica,sans-Serif" font-size="11.00">nagios</text>
</g>
<!-- n22&#45;&gt;n16 -->
<g id="edge27" class="edge"><title>n22&#45;&gt;n16</title>
<path fill="none" stroke="black" d="M100.014,-4016.45C152.765,-4022.05 283.175,-4035.91 352.311,-4043.25"/>
<polygon fill="black" stroke="black" points="352.141,-4046.75 362.455,-4044.33 352.881,-4039.79 352.141,-4046.75"/>
<text text-anchor="middle" x="220" y="-4035.8" font-family="Helvetica,sans-Serif" font-size="9.00">1.102 reqs per sec</text>
</g>
<!-- n22&#45;&gt;n17 -->
<g id="edge22" class="edge"><title>n22&#45;&gt;n17</title>
<path fill="none" stroke="black" d="M100.335,-4008.2C120.905,-4003.33 151.755,-3996.6 179,-3993 229.11,-3986.38 286.148,-3983.13 329.309,-3981.54"/>
<polygon fill="black" stroke="black" points="329.54,-3985.03 339.412,-3981.18 329.296,-3978.03 329.54,-3985.03"/>
<text text-anchor="middle" x="220" y="-3995.8" font-family="Helvetica,sans-Serif" font-size="9.00">1.166 reqs per sec</text>
</g>
<!-- n45 -->
<g id="node45" class="node"><title>n45</title>
<path fill="lightgrey" stroke="black" d="M123.833,-1941C123.833,-1941 28.1667,-1941 28.1667,-1941 24.8333,-1941 21.5,-1937.67 21.5,-1934.33 21.5,-1934.33 21.5,-1927.67 21.5,-1927.67 21.5,-1924.33 24.8333,-1921 28.1667,-1921 28.1667,-1921 123.833,-1921 123.833,-1921 127.167,-1921 130.5,-1924.33 130.5,-1927.67 130.5,-1927.67 130.5,-1934.33 130.5,-1934.33 130.5,-1937.67 127.167,-1941 123.833,-1941"/>
<text text-anchor="middle" x="76" y="-1928.2" font-family="Helvetica,sans-Serif" font-size="11.00">on&#45;site&#45;notifications</text>
</g>
<!-- n45&#45;&gt;n8 -->
<g id="edge31" class="edge"><title>n45&#45;&gt;n8</title>
<path fill="none" stroke="black" d="M95.955,-1920.84C115.999,-1910.58 148.831,-1895.12 179,-1887 234.998,-1871.92 301.437,-1865.58 346.127,-1862.92"/>
<polygon fill="black" stroke="black" points="346.368,-1866.41 356.159,-1862.36 345.98,-1859.42 346.368,-1866.41"/>
<text text-anchor="middle" x="220" y="-1889.8" font-family="Helvetica,sans-Serif" font-size="9.00">0.006 reqs per sec</text>
</g>
<!-- n45&#45;&gt;n10 -->
<g id="edge38" class="edge"><title>n45&#45;&gt;n10</title>
<path fill="none" stroke="black" d="M97.0174,-1941.01C148.44,-1966.72 286.002,-2035.5 355.539,-2070.27"/>
<polygon fill="black" stroke="black" points="354.374,-2073.6 364.883,-2074.94 357.504,-2067.34 354.374,-2073.6"/>
<text text-anchor="middle" x="220" y="-2023.8" font-family="Helvetica,sans-Serif" font-size="9.00">0.006 reqs per sec</text>
</g>
<!-- n46 -->
<g id="node46" class="node"><title>n46</title>
<path fill="lightgrey" stroke="black" d="M109.333,-2099C109.333,-2099 42.6667,-2099 42.6667,-2099 39.3333,-2099 36,-2095.67 36,-2092.33 36,-2092.33 36,-2085.67 36,-2085.67 36,-2082.33 39.3333,-2079 42.6667,-2079 42.6667,-2079 109.333,-2079 109.333,-2079 112.667,-2079 116,-2082.33 116,-2085.67 116,-2085.67 116,-2092.33 116,-2092.33 116,-2095.67 112.667,-2099 109.333,-2099"/>
<text text-anchor="middle" x="76" y="-2086.2" font-family="Helvetica,sans-Serif" font-size="11.00">page&#45;indexer</text>
</g>
<!-- n46&#45;&gt;n10 -->
<g id="edge26" class="edge"><title>n46&#45;&gt;n10</title>
<path fill="none" stroke="black" d="M116.238,-2089.25C171.051,-2089.59 271.07,-2090.21 335.744,-2090.62"/>
<polygon fill="black" stroke="black" points="335.787,-2094.12 345.808,-2090.68 335.83,-2087.12 335.787,-2094.12"/>
<text text-anchor="middle" x="220" y="-2093.8" font-family="Helvetica,sans-Serif" font-size="9.00">0.102 reqs per sec</text>
</g>
<!-- n47 -->
<g id="node47" class="node"><title>n47</title>
<path fill="lightgrey" stroke="black" d="M97.3333,-4369C97.3333,-4369 54.6667,-4369 54.6667,-4369 51.3333,-4369 48,-4365.67 48,-4362.33 48,-4362.33 48,-4355.67 48,-4355.67 48,-4352.33 51.3333,-4349 54.6667,-4349 54.6667,-4349 97.3333,-4349 97.3333,-4349 100.667,-4349 104,-4352.33 104,-4355.67 104,-4355.67 104,-4362.33 104,-4362.33 104,-4365.67 100.667,-4369 97.3333,-4369"/>
<text text-anchor="middle" x="76" y="-4356.2" font-family="Helvetica,sans-Serif" font-size="11.00">pandora</text>
</g>
<!-- n65 -->
<g id="node65" class="node"><title>n65</title>
<path fill="#f4cae4" stroke="#f4cae4" d="M442.833,-4353C442.833,-4353 353.167,-4353 353.167,-4353 347.833,-4353 342.5,-4347.67 342.5,-4342.33 342.5,-4342.33 342.5,-4331.67 342.5,-4331.67 342.5,-4326.33 347.833,-4321 353.167,-4321 353.167,-4321 442.833,-4321 442.833,-4321 448.167,-4321 453.5,-4326.33 453.5,-4331.67 453.5,-4331.67 453.5,-4342.33 453.5,-4342.33 453.5,-4347.67 448.167,-4353 442.833,-4353"/>
<text text-anchor="middle" x="398" y="-4340.2" font-family="Helvetica,sans-Serif" font-size="11.00">pandora</text>
<text text-anchor="middle" x="398" y="-4328.2" font-family="Helvetica,sans-Serif" font-size="11.00">static&#45;assets::image</text>
</g>
<!-- n47&#45;&gt;n65 -->
<g id="edge67" class="edge"><title>n47&#45;&gt;n65</title>
<path fill="none" stroke="black" d="M104.007,-4357.14C153.986,-4353.71 262.173,-4346.27 332.175,-4341.46"/>
<polygon fill="black" stroke="black" points="332.478,-4344.94 342.215,-4340.77 331.998,-4337.96 332.478,-4344.94"/>
<text text-anchor="middle" x="220" y="-4353.8" font-family="Helvetica,sans-Serif" font-size="9.00">0.001 reqs per sec</text>
</g>
<!-- n49 -->
<g id="node49" class="node"><title>n49</title>
<path fill="#f4cae4" stroke="#f4cae4" d="M422.333,-4437C422.333,-4437 373.667,-4437 373.667,-4437 368.333,-4437 363,-4431.67 363,-4426.33 363,-4426.33 363,-4415.67 363,-4415.67 363,-4410.33 368.333,-4405 373.667,-4405 373.667,-4405 422.333,-4405 422.333,-4405 427.667,-4405 433,-4410.33 433,-4415.67 433,-4415.67 433,-4426.33 433,-4426.33 433,-4431.67 427.667,-4437 422.333,-4437"/>
<text text-anchor="middle" x="398" y="-4424.2" font-family="Helvetica,sans-Serif" font-size="11.00">pandora</text>
<text text-anchor="middle" x="398" y="-4412.2" font-family="Helvetica,sans-Serif" font-size="11.00">auth::token</text>
</g>
<!-- n72 -->
<g id="node72" class="node"><title>n72</title>
<path fill="lightgrey" stroke="black" d="M130.833,-2426C130.833,-2426 21.1667,-2426 21.1667,-2426 17.8333,-2426 14.5,-2422.67 14.5,-2419.33 14.5,-2419.33 14.5,-2412.67 14.5,-2412.67 14.5,-2409.33 17.8333,-2406 21.1667,-2406 21.1667,-2406 130.833,-2406 130.833,-2406 134.167,-2406 137.5,-2409.33 137.5,-2412.67 137.5,-2412.67 137.5,-2419.33 137.5,-2419.33 137.5,-2422.67 134.167,-2426 130.833,-2426"/>
<text text-anchor="middle" x="76" y="-2413.2" font-family="Helvetica,sans-Serif" font-size="11.00">parsoid&#45;feeder&#45;worker</text>
</g>
<!-- n72&#45;&gt;n2 -->
<g id="edge34" class="edge"><title>n72&#45;&gt;n2</title>
<path fill="none" stroke="black" d="M137.566,-2416C200.719,-2416 298.113,-2416 353.865,-2416"/>
<polygon fill="black" stroke="black" points="354.105,-2419.5 364.105,-2416 354.105,-2412.5 354.105,-2419.5"/>
<text text-anchor="middle" x="220" y="-2418.8" font-family="Helvetica,sans-Serif" font-size="9.00">0.037 reqs per sec</text>
</g>
<!-- n72&#45;&gt;n5 -->
<g id="edge24" class="edge"><title>n72&#45;&gt;n5</title>
<path fill="none" stroke="black" d="M124.217,-2426.03C181.116,-2438.12 276.733,-2458.44 338.32,-2471.53"/>
<polygon fill="black" stroke="black" points="337.767,-2474.99 348.277,-2473.65 339.222,-2468.14 337.767,-2474.99"/>
<text text-anchor="middle" x="220" y="-2457.8" font-family="Helvetica,sans-Serif" font-size="9.00">0.030 reqs per sec</text>
</g>
<!-- n72&#45;&gt;n10 -->
<g id="edge29" class="edge"><title>n72&#45;&gt;n10</title>
<path fill="none" stroke="black" d="M86.0781,-2405.86C100.257,-2389.99 128.472,-2358.27 152,-2331 164.157,-2316.91 164.433,-2310.58 179,-2299 211.053,-2273.52 229.132,-2282.71 261,-2257 312.904,-2215.12 358.716,-2150.65 381.578,-2115.65"/>
<polygon fill="black" stroke="black" points="384.67,-2117.31 387.145,-2107.01 378.786,-2113.52 384.67,-2117.31"/>
<text text-anchor="middle" x="220" y="-2301.8" font-family="Helvetica,sans-Serif" font-size="9.00">0.007 reqs per sec</text>
</g>
<!-- n73 -->
<g id="node73" class="node"><title>n73</title>
<path fill="lightgrey" stroke="black" d="M106.833,-4431C106.833,-4431 45.1667,-4431 45.1667,-4431 41.8333,-4431 38.5,-4427.67 38.5,-4424.33 38.5,-4424.33 38.5,-4417.67 38.5,-4417.67 38.5,-4414.33 41.8333,-4411 45.1667,-4411 45.1667,-4411 106.833,-4411 106.833,-4411 110.167,-4411 113.5,-4414.33 113.5,-4417.67 113.5,-4417.67 113.5,-4424.33 113.5,-4424.33 113.5,-4427.67 110.167,-4431 106.833,-4431"/>
<text text-anchor="middle" x="76" y="-4418.2" font-family="Helvetica,sans-Serif" font-size="11.00">python&#45;urllib</text>
</g>
<!-- n73&#45;&gt;n49 -->
<g id="edge69" class="edge"><title>n73&#45;&gt;n49</title>
<path fill="none" stroke="black" d="M113.708,-4421C172.802,-4421 288.829,-4421 352.527,-4421"/>
<polygon fill="black" stroke="black" points="352.66,-4424.5 362.659,-4421 352.659,-4417.5 352.66,-4424.5"/>
<text text-anchor="middle" x="220" y="-4423.8" font-family="Helvetica,sans-Serif" font-size="9.00">0.001 reqs per sec</text>
</g>
<!-- n74 -->
<g id="node74" class="node"><title>n74</title>
<path fill="lightgrey" stroke="black" d="M145.333,-1792C145.333,-1792 6.66667,-1792 6.66667,-1792 3.33333,-1792 0,-1788.67 0,-1785.33 0,-1785.33 0,-1778.67 0,-1778.67 0,-1775.33 3.33333,-1772 6.66667,-1772 6.66667,-1772 145.333,-1772 145.333,-1772 148.667,-1772 152,-1775.33 152,-1778.67 152,-1778.67 152,-1785.33 152,-1785.33 152,-1788.67 148.667,-1792 145.333,-1792"/>
<text text-anchor="middle" x="76" y="-1779.2" font-family="Helvetica,sans-Serif" font-size="11.00">template&#45;type&#45;copier&#45;worker</text>
</g>
<!-- n74&#45;&gt;n3 -->
<g id="edge41" class="edge"><title>n74&#45;&gt;n3</title>
<path fill="none" stroke="black" d="M92.8063,-1771.85C112.205,-1760.04 146.53,-1741.26 179,-1734 244.261,-1719.41 323.185,-1729.22 365.892,-1736.72"/>
<polygon fill="black" stroke="black" points="365.472,-1740.2 375.939,-1738.56 366.733,-1733.32 365.472,-1740.2"/>
<text text-anchor="middle" x="220" y="-1736.8" font-family="Helvetica,sans-Serif" font-size="9.00">0.002 reqs per sec</text>
</g>
<!-- n74&#45;&gt;n4 -->
<g id="edge35" class="edge"><title>n74&#45;&gt;n4</title>
<path fill="none" stroke="black" d="M89.2936,-1771.93C111.908,-1753.61 159.566,-1715.96 179,-1708 232.069,-1686.25 297.692,-1678.66 342.997,-1676.1"/>
<polygon fill="black" stroke="black" points="343.386,-1679.58 353.198,-1675.59 343.036,-1672.59 343.386,-1679.58"/>
<text text-anchor="middle" x="220" y="-1710.8" font-family="Helvetica,sans-Serif" font-size="9.00">0.002 reqs per sec</text>
</g>
<!-- n74&#45;&gt;n8 -->
<g id="edge40" class="edge"><title>n74&#45;&gt;n8</title>
<path fill="none" stroke="black" d="M117.528,-1792.01C175.796,-1806.39 283.178,-1832.9 346.523,-1848.54"/>
<polygon fill="black" stroke="black" points="345.749,-1851.95 356.297,-1850.95 347.427,-1845.16 345.749,-1851.95"/>
<text text-anchor="middle" x="220" y="-1829.8" font-family="Helvetica,sans-Serif" font-size="9.00">0.004 reqs per sec</text>
</g>
<!-- n74&#45;&gt;n10 -->
<g id="edge42" class="edge"><title>n74&#45;&gt;n10</title>
<path fill="none" stroke="black" d="M84.9259,-1792.14C101.412,-1812.96 141.033,-1861.65 179,-1898 212.793,-1930.35 225.658,-1933.35 261,-1964 301.427,-1999.06 346.478,-2041.92 373.243,-2067.81"/>
<polygon fill="black" stroke="black" points="370.997,-2070.51 380.613,-2074.96 375.87,-2065.48 370.997,-2070.51"/>
<text text-anchor="middle" x="220" y="-1966.8" font-family="Helvetica,sans-Serif" font-size="9.00">0.003 reqs per sec</text>
</g>
<!-- n75 -->
<g id="node75" class="node"><title>n75</title>
<path fill="lightgrey" stroke="black" d="M118.333,-1705C118.333,-1705 33.6667,-1705 33.6667,-1705 30.3333,-1705 27,-1701.67 27,-1698.33 27,-1698.33 27,-1691.67 27,-1691.67 27,-1688.33 30.3333,-1685 33.6667,-1685 33.6667,-1685 118.333,-1685 118.333,-1685 121.667,-1685 125,-1688.33 125,-1691.67 125,-1691.67 125,-1698.33 125,-1698.33 125,-1701.67 121.667,-1705 118.333,-1705"/>
<text text-anchor="middle" x="76" y="-1692.2" font-family="Helvetica,sans-Serif" font-size="11.00">user&#45;permissions</text>
</g>
<!-- n75&#45;&gt;n9 -->
<g id="edge21" class="edge"><title>n75&#45;&gt;n9</title>
<path fill="none" stroke="black" d="M86.541,-1684.91C103.345,-1667.91 140.137,-1634.04 179,-1620 235.071,-1599.74 304.513,-1599.46 349.742,-1602.27"/>
<polygon fill="black" stroke="black" points="349.635,-1605.77 359.853,-1602.97 350.12,-1598.78 349.635,-1605.77"/>
<text text-anchor="middle" x="220" y="-1622.8" font-family="Helvetica,sans-Serif" font-size="9.00">10.188 reqs per sec</text>
</g>
<!-- n75&#45;&gt;n10 -->
<g id="edge20" class="edge"><title>n75&#45;&gt;n10</title>
<path fill="none" stroke="black" d="M97.3782,-1705.14C144.686,-1728.7 258.167,-1785.45 261,-1789 291.34,-1826.99 270.037,-1849.83 288,-1895 313.863,-1960.04 357.151,-2030.38 380.639,-2066.51"/>
<polygon fill="black" stroke="black" points="377.752,-2068.49 386.162,-2074.94 383.606,-2064.65 377.752,-2068.49"/>
<text text-anchor="middle" x="220" y="-1791.8" font-family="Helvetica,sans-Serif" font-size="9.00">0.547 reqs per sec</text>
</g>
<!-- n76 -->
<g id="node76" class="node"><title>n76</title>
<path fill="lightgrey" stroke="black" d="M116.833,-2155C116.833,-2155 35.1667,-2155 35.1667,-2155 31.8333,-2155 28.5,-2151.67 28.5,-2148.33 28.5,-2148.33 28.5,-2141.67 28.5,-2141.67 28.5,-2138.33 31.8333,-2135 35.1667,-2135 35.1667,-2135 116.833,-2135 116.833,-2135 120.167,-2135 123.5,-2138.33 123.5,-2141.67 123.5,-2141.67 123.5,-2148.33 123.5,-2148.33 123.5,-2151.67 120.167,-2155 116.833,-2155"/>
<text text-anchor="middle" x="76" y="-2142.2" font-family="Helvetica,sans-Serif" font-size="11.00">user&#45;registration</text>
</g>
<!-- n76&#45;&gt;n10 -->
<g id="edge33" class="edge"><title>n76&#45;&gt;n10</title>
<path fill="none" stroke="black" d="M123.531,-2137.15C179.605,-2127.69 273.99,-2111.76 335.889,-2101.31"/>
<polygon fill="black" stroke="black" points="336.635,-2104.74 345.913,-2099.62 335.47,-2097.83 336.635,-2104.74"/>
<text text-anchor="middle" x="220" y="-2130.8" font-family="Helvetica,sans-Serif" font-size="9.00">0.026 reqs per sec</text>
</g>
<!-- n77 -->
<g id="node77" class="node"><title>n77</title>
<path fill="lightgrey" stroke="black" d="M96.3333,-4313C96.3333,-4313 55.6667,-4313 55.6667,-4313 52.3333,-4313 49,-4309.67 49,-4306.33 49,-4306.33 49,-4299.67 49,-4299.67 49,-4296.33 52.3333,-4293 55.6667,-4293 55.6667,-4293 96.3333,-4293 96.3333,-4293 99.6667,-4293 103,-4296.33 103,-4299.67 103,-4299.67 103,-4306.33 103,-4306.33 103,-4309.67 99.6667,-4313 96.3333,-4313"/>
<text text-anchor="middle" x="76" y="-4300.2" font-family="Helvetica,sans-Serif" font-size="11.00">vignette</text>
</g>
<!-- n77&#45;&gt;n65 -->
<g id="edge49" class="edge"><title>n77&#45;&gt;n65</title>
<path fill="none" stroke="black" d="M103.187,-4305.78C152.84,-4311.06 261.992,-4322.66 332.373,-4330.13"/>
<polygon fill="black" stroke="black" points="332.15,-4333.63 342.464,-4331.21 332.89,-4326.67 332.15,-4333.63"/>
<text text-anchor="middle" x="220" y="-4324.8" font-family="Helvetica,sans-Serif" font-size="9.00">0.101 reqs per sec</text>
</g>
</g>
</svg>
