<?xml version="1.0" encoding="UTF-8" standalone="no"?>
<!DOCTYPE svg PUBLIC "-//W3C//DTD SVG 1.1//EN"
 "http://www.w3.org/Graphics/SVG/1.1/DTD/svg11.dtd">
<!-- Generated by graphviz version 2.38.0 (20140413.2041)
 -->
<!-- Title: G Pages: 1 -->
<svg width="524pt" height="284pt"
 viewBox="54.00 54.00 470.00 230.00" xmlns="http://www.w3.org/2000/svg" xmlns:xlink="http://www.w3.org/1999/xlink">
<g id="graph0" class="graph" transform="scale(1 1) rotate(0) translate(58 226)">
<title>G</title>
<polygon fill="white" stroke="none" points="-4,4 -4,-172 412,-172 412,4 -4,4"/>
<!-- n1 -->
<g id="node1" class="node"><title>n1</title>
<path fill="lightgrey" stroke="black" d="M401.333,-94C401.333,-94 373.667,-94 373.667,-94 370.333,-94 367,-90.6667 367,-87.3333 367,-87.3333 367,-80.6667 367,-80.6667 367,-77.3333 370.333,-74 373.667,-74 373.667,-74 401.333,-74 401.333,-74 404.667,-74 408,-77.3333 408,-80.6667 408,-80.6667 408,-87.3333 408,-87.3333 408,-90.6667 404.667,-94 401.333,-94"/>
<text text-anchor="middle" x="387.5" y="-81.2" font-family="Helvetica,sans-Serif" font-size="11.00">client</text>
</g>
<!-- n2 -->
<g id="node2" class="node"><title>n2</title>
<path fill="lightgrey" stroke="black" d="M45.3333,-61C45.3333,-61 6.66667,-61 6.66667,-61 3.33333,-61 0,-57.6667 0,-54.3333 0,-54.3333 0,-47.6667 0,-47.6667 0,-44.3333 3.33333,-41 6.66667,-41 6.66667,-41 45.3333,-41 45.3333,-41 48.6667,-41 52,-44.3333 52,-47.6667 52,-47.6667 52,-54.3333 52,-54.3333 52,-57.6667 48.6667,-61 45.3333,-61"/>
<text text-anchor="middle" x="26" y="-48.2" font-family="Helvetica,sans-Serif" font-size="11.00">indexer</text>
</g>
<!-- n4 -->
<g id="node4" class="node"><title>n4</title>
<path fill="#b3e2cd" stroke="#b3e2cd" d="M218.833,-100C218.833,-100 200.167,-100 200.167,-100 194.833,-100 189.5,-94.6667 189.5,-89.3333 189.5,-89.3333 189.5,-78.6667 189.5,-78.6667 189.5,-73.3333 194.833,-68 200.167,-68 200.167,-68 218.833,-68 218.833,-68 224.167,-68 229.5,-73.3333 229.5,-78.6667 229.5,-78.6667 229.5,-89.3333 229.5,-89.3333 229.5,-94.6667 224.167,-100 218.833,-100"/>
<text text-anchor="middle" x="209.5" y="-87.2" font-family="Helvetica,sans-Serif" font-size="11.00">solr</text>
<text text-anchor="middle" x="209.5" y="-75.2" font-family="Helvetica,sans-Serif" font-size="11.00">main</text>
</g>
<!-- n2&#45;&gt;n4 -->
<g id="edge4" class="edge"><title>n2&#45;&gt;n4</title>
<path fill="none" stroke="black" d="M52.2368,-55.5885C85.5157,-61.6392 143.963,-72.2659 179.17,-78.6672"/>
<polygon fill="black" stroke="black" points="178.832,-82.163 189.296,-80.5084 180.084,-75.276 178.832,-82.163"/>
<text text-anchor="middle" x="117" y="-76.8" font-family="Helvetica,sans-Serif" font-size="9.00">0.014 reqs per sec</text>
</g>
<!-- n5 -->
<g id="node5" class="node"><title>n5</title>
<path fill="#b3e2cd" stroke="#b3e2cd" d="M218.833,-32C218.833,-32 200.167,-32 200.167,-32 194.833,-32 189.5,-26.6667 189.5,-21.3333 189.5,-21.3333 189.5,-10.6667 189.5,-10.6667 189.5,-5.33333 194.833,-0 200.167,-0 200.167,-0 218.833,-0 218.833,-0 224.167,-0 229.5,-5.33333 229.5,-10.6667 229.5,-10.6667 229.5,-21.3333 229.5,-21.3333 229.5,-26.6667 224.167,-32 218.833,-32"/>
<text text-anchor="middle" x="209.5" y="-19.2" font-family="Helvetica,sans-Serif" font-size="11.00">solr</text>
<text text-anchor="middle" x="209.5" y="-7.2" font-family="Helvetica,sans-Serif" font-size="11.00">xwiki</text>
</g>
<!-- n2&#45;&gt;n5 -->
<g id="edge2" class="edge"><title>n2&#45;&gt;n5</title>
<path fill="none" stroke="black" d="M52.2368,-46.1334C85.5157,-39.716 143.963,-28.4452 179.17,-21.656"/>
<polygon fill="black" stroke="black" points="180.14,-25.0334 189.296,-19.7032 178.815,-18.1601 180.14,-25.0334"/>
<text text-anchor="middle" x="117" y="-42.8" font-family="Helvetica,sans-Serif" font-size="9.00">0.015 reqs per sec</text>
</g>
<!-- n3 -->
<g id="node3" class="node"><title>n3</title>
<path fill="#b3e2cd" stroke="#b3e2cd" d="M226.333,-168C226.333,-168 192.667,-168 192.667,-168 187.333,-168 182,-162.667 182,-157.333 182,-157.333 182,-146.667 182,-146.667 182,-141.333 187.333,-136 192.667,-136 192.667,-136 226.333,-136 226.333,-136 231.667,-136 237,-141.333 237,-146.667 237,-146.667 237,-157.333 237,-157.333 237,-162.667 231.667,-168 226.333,-168"/>
<text text-anchor="middle" x="209.5" y="-155.2" font-family="Helvetica,sans-Serif" font-size="11.00">solr</text>
<text text-anchor="middle" x="209.5" y="-143.2" font-family="Helvetica,sans-Serif" font-size="11.00">lyricsapi</text>
</g>
<!-- n3&#45;&gt;n1 -->
<g id="edge5" class="edge"><title>n3&#45;&gt;n1</title>
<path fill="none" stroke="black" d="M237.365,-142.069C263.611,-132.311 304.656,-116.905 340,-103 345.615,-100.791 351.591,-98.3883 357.323,-96.0578"/>
<polygon fill="black" stroke="black" points="358.702,-99.2756 366.633,-92.2511 356.052,-92.7963 358.702,-99.2756"/>
<text text-anchor="middle" x="302" y="-133.8" font-family="Helvetica,sans-Serif" font-size="9.00">0.006 reqs per sec</text>
</g>
<!-- n4&#45;&gt;n1 -->
<g id="edge1" class="edge"><title>n4&#45;&gt;n1</title>
<path fill="none" stroke="black" d="M229.67,-84C260.19,-84 320.075,-84 356.369,-84"/>
<polygon fill="black" stroke="black" points="356.816,-87.5001 366.816,-84 356.816,-80.5001 356.816,-87.5001"/>
<text text-anchor="middle" x="302" y="-86.8" font-family="Helvetica,sans-Serif" font-size="9.00">2.734 reqs per sec</text>
</g>
<!-- n5&#45;&gt;n1 -->
<g id="edge3" class="edge"><title>n5&#45;&gt;n1</title>
<path fill="none" stroke="black" d="M229.868,-23.1483C255.239,-32.5535 301.077,-49.6873 340,-65 345.615,-67.2089 351.591,-69.6117 357.323,-71.9422"/>
<polygon fill="black" stroke="black" points="356.052,-75.2037 366.633,-75.7489 358.702,-68.7244 356.052,-75.2037"/>
<text text-anchor="middle" x="302" y="-67.8" font-family="Helvetica,sans-Serif" font-size="9.00">0.009 reqs per sec</text>
</g>
</g>
</svg>
