<?xml version="1.0" encoding="UTF-8" standalone="no"?>
<!DOCTYPE svg PUBLIC "-//W3C//DTD SVG 1.1//EN"
 "http://www.w3.org/Graphics/SVG/1.1/DTD/svg11.dtd">
<!-- Generated by graphviz version 2.38.0 (20140413.2041)
 -->
<!-- Title: G Pages: 1 -->
<svg width="586pt" height="284pt"
 viewBox="54.00 54.00 532.00 230.00" xmlns="http://www.w3.org/2000/svg" xmlns:xlink="http://www.w3.org/1999/xlink">
<g id="graph0" class="graph" transform="scale(1 1) rotate(0) translate(58 226)">
<title>G</title>
<polygon fill="white" stroke="none" points="-4,4 -4,-172 474,-172 474,4 -4,4"/>
<!-- n1 -->
<g id="node1" class="node"><title>n1</title>
<path fill="lightgrey" stroke="black" d="M463.333,-94C463.333,-94 435.667,-94 435.667,-94 432.333,-94 429,-90.6667 429,-87.3333 429,-87.3333 429,-80.6667 429,-80.6667 429,-77.3333 432.333,-74 435.667,-74 435.667,-74 463.333,-74 463.333,-74 466.667,-74 470,-77.3333 470,-80.6667 470,-80.6667 470,-87.3333 470,-87.3333 470,-90.6667 466.667,-94 463.333,-94"/>
<text text-anchor="middle" x="449.5" y="-81.2" font-family="Helvetica,sans-Serif" font-size="11.00">client</text>
</g>
<!-- n2 -->
<g id="node2" class="node"><title>n2</title>
<path fill="lightgrey" stroke="black" d="M45.3333,-61C45.3333,-61 6.66667,-61 6.66667,-61 3.33333,-61 0,-57.6667 0,-54.3333 0,-54.3333 0,-47.6667 0,-47.6667 0,-44.3333 3.33333,-41 6.66667,-41 6.66667,-41 45.3333,-41 45.3333,-41 48.6667,-41 52,-44.3333 52,-47.6667 52,-47.6667 52,-54.3333 52,-54.3333 52,-57.6667 48.6667,-61 45.3333,-61"/>
<text text-anchor="middle" x="26" y="-48.2" font-family="Helvetica,sans-Serif" font-size="11.00">indexer</text>
</g>
<!-- n4 -->
<g id="node4" class="node"><title>n4</title>
<path fill="#b3e2cd" stroke="#b3e2cd" d="M251.833,-100C251.833,-100 233.167,-100 233.167,-100 227.833,-100 222.5,-94.6667 222.5,-89.3333 222.5,-89.3333 222.5,-78.6667 222.5,-78.6667 222.5,-73.3333 227.833,-68 233.167,-68 233.167,-68 251.833,-68 251.833,-68 257.167,-68 262.5,-73.3333 262.5,-78.6667 262.5,-78.6667 262.5,-89.3333 262.5,-89.3333 262.5,-94.6667 257.167,-100 251.833,-100"/>
<text text-anchor="middle" x="242.5" y="-87.2" font-family="Helvetica,sans-Serif" font-size="11.00">solr</text>
<text text-anchor="middle" x="242.5" y="-75.2" font-family="Helvetica,sans-Serif" font-size="11.00">main</text>
</g>
<!-- n2&#45;&gt;n4 -->
<g id="edge3" class="edge"><title>n2&#45;&gt;n4</title>
<path fill="none" stroke="black" d="M52.0257,-54.8501C91.9624,-60.9942 169.914,-72.9867 212.322,-79.5111"/>
<polygon fill="black" stroke="black" points="211.878,-82.9838 222.294,-81.0452 212.942,-76.0652 211.878,-82.9838"/>
<text text-anchor="middle" x="133.5" y="-77.8" font-family="Helvetica,sans-Serif" font-size="9.00">0.017 /update reqs per sec</text>
</g>
<!-- n5 -->
<g id="node5" class="node"><title>n5</title>
<path fill="#b3e2cd" stroke="#b3e2cd" d="M251.833,-32C251.833,-32 233.167,-32 233.167,-32 227.833,-32 222.5,-26.6667 222.5,-21.3333 222.5,-21.3333 222.5,-10.6667 222.5,-10.6667 222.5,-5.33333 227.833,-0 233.167,-0 233.167,-0 251.833,-0 251.833,-0 257.167,-0 262.5,-5.33333 262.5,-10.6667 262.5,-10.6667 262.5,-21.3333 262.5,-21.3333 262.5,-26.6667 257.167,-32 251.833,-32"/>
<text text-anchor="middle" x="242.5" y="-19.2" font-family="Helvetica,sans-Serif" font-size="11.00">solr</text>
<text text-anchor="middle" x="242.5" y="-7.2" font-family="Helvetica,sans-Serif" font-size="11.00">xwiki</text>
</g>
<!-- n2&#45;&gt;n5 -->
<g id="edge4" class="edge"><title>n2&#45;&gt;n5</title>
<path fill="none" stroke="black" d="M52.065,-45.3705C60.5907,-43.543 70.19,-41.5809 79,-40 125.402,-31.6736 179.638,-24.0929 212.24,-19.7669"/>
<polygon fill="black" stroke="black" points="212.966,-23.2016 222.425,-18.4282 212.054,-16.2613 212.966,-23.2016"/>
<text text-anchor="middle" x="133.5" y="-42.8" font-family="Helvetica,sans-Serif" font-size="9.00">0.016 /update reqs per sec</text>
</g>
<!-- n3 -->
<g id="node3" class="node"><title>n3</title>
<path fill="#b3e2cd" stroke="#b3e2cd" d="M259.333,-168C259.333,-168 225.667,-168 225.667,-168 220.333,-168 215,-162.667 215,-157.333 215,-157.333 215,-146.667 215,-146.667 215,-141.333 220.333,-136 225.667,-136 225.667,-136 259.333,-136 259.333,-136 264.667,-136 270,-141.333 270,-146.667 270,-146.667 270,-157.333 270,-157.333 270,-162.667 264.667,-168 259.333,-168"/>
<text text-anchor="middle" x="242.5" y="-155.2" font-family="Helvetica,sans-Serif" font-size="11.00">solr</text>
<text text-anchor="middle" x="242.5" y="-143.2" font-family="Helvetica,sans-Serif" font-size="11.00">lyricsapi</text>
</g>
<!-- n3&#45;&gt;n1 -->
<g id="edge5" class="edge"><title>n3&#45;&gt;n1</title>
<path fill="none" stroke="black" d="M270.097,-144.555C301.777,-135.508 356.174,-119.41 402,-103 407.681,-100.966 413.687,-98.6434 419.428,-96.3371"/>
<polygon fill="black" stroke="black" points="420.809,-99.5539 428.736,-92.5247 418.156,-93.0763 420.809,-99.5539"/>
<text text-anchor="middle" x="349.5" y="-137.8" font-family="Helvetica,sans-Serif" font-size="9.00">0.010 /select reqs per sec</text>
</g>
<!-- n4&#45;&gt;n1 -->
<g id="edge1" class="edge"><title>n4&#45;&gt;n1</title>
<path fill="none" stroke="black" d="M262.786,-84C298.713,-84 376.099,-84 418.763,-84"/>
<polygon fill="black" stroke="black" points="418.815,-87.5001 428.815,-84 418.815,-80.5001 418.815,-87.5001"/>
<text text-anchor="middle" x="349.5" y="-86.8" font-family="Helvetica,sans-Serif" font-size="9.00">2.724 /select reqs per sec</text>
</g>
<!-- n5&#45;&gt;n1 -->
<g id="edge2" class="edge"><title>n5&#45;&gt;n1</title>
<path fill="none" stroke="black" d="M262.709,-21.3461C292.706,-29.8268 352.377,-47.2306 402,-65 407.681,-67.0341 413.687,-69.3566 419.428,-71.6629"/>
<polygon fill="black" stroke="black" points="418.156,-74.9237 428.736,-75.4753 420.809,-68.4461 418.156,-74.9237"/>
<text text-anchor="middle" x="349.5" y="-67.8" font-family="Helvetica,sans-Serif" font-size="9.00">0.011 /select reqs per sec</text>
</g>
</g>
</svg>
