<?xml version="1.0" encoding="UTF-8" standalone="no"?>
<!DOCTYPE svg PUBLIC "-//W3C//DTD SVG 1.1//EN"
 "http://www.w3.org/Graphics/SVG/1.1/DTD/svg11.dtd">
<!-- Generated by graphviz version 2.38.0 (20140413.2041)
 -->
<!-- Title: G Pages: 1 -->
<svg width="512pt" height="262pt"
 viewBox="54.00 54.00 458.00 207.53" xmlns="http://www.w3.org/2000/svg" xmlns:xlink="http://www.w3.org/1999/xlink">
<g id="graph0" class="graph" transform="scale(1 1) rotate(0) translate(58 203.528)">
<title>G</title>
<polygon fill="white" stroke="none" points="-4,4 -4,-149.528 400,-149.528 400,4 -4,4"/>
<!-- n1 -->
<g id="node1" class="node"><title>n1</title>
<path fill="lightgrey" stroke="black" d="M219.333,-96.5282C219.333,-96.5282 191.667,-96.5282 191.667,-96.5282 188.333,-96.5282 185,-93.1948 185,-89.8615 185,-89.8615 185,-83.1948 185,-83.1948 185,-79.8615 188.333,-76.5282 191.667,-76.5282 191.667,-76.5282 219.333,-76.5282 219.333,-76.5282 222.667,-76.5282 226,-79.8615 226,-83.1948 226,-83.1948 226,-89.8615 226,-89.8615 226,-93.1948 222.667,-96.5282 219.333,-96.5282"/>
<text text-anchor="middle" x="205.5" y="-83.7282" font-family="Helvetica,sans-Serif" font-size="11.00">client</text>
</g>
<!-- n3 -->
<g id="node3" class="node"><title>n3</title>
<path fill="#b3e2cd" stroke="#b3e2cd" d="M385.333,-145.528C385.333,-145.528 366.667,-145.528 366.667,-145.528 361.333,-145.528 356,-140.195 356,-134.861 356,-134.861 356,-124.195 356,-124.195 356,-118.861 361.333,-113.528 366.667,-113.528 366.667,-113.528 385.333,-113.528 385.333,-113.528 390.667,-113.528 396,-118.861 396,-124.195 396,-124.195 396,-134.861 396,-134.861 396,-140.195 390.667,-145.528 385.333,-145.528"/>
<text text-anchor="middle" x="376" y="-132.728" font-family="Helvetica,sans-Serif" font-size="11.00">solr</text>
<text text-anchor="middle" x="376" y="-120.728" font-family="Helvetica,sans-Serif" font-size="11.00">main</text>
</g>
<!-- n1&#45;&gt;n3 -->
<g id="edge2" class="edge"><title>n1&#45;&gt;n3</title>
<path fill="none" stroke="black" d="M215.684,-96.799C224.327,-105.671 238.134,-117.922 253,-123.528 283.036,-134.855 320.208,-134.885 345.574,-133.017"/>
<polygon fill="black" stroke="black" points="346.014,-136.492 355.668,-132.127 345.399,-129.519 346.014,-136.492"/>
<text text-anchor="middle" x="291" y="-136.328" font-family="Helvetica,sans-Serif" font-size="9.00">0.017 reqs per sec</text>
</g>
<!-- n4 -->
<g id="node4" class="node"><title>n4</title>
<path fill="#b3e2cd" stroke="#b3e2cd" d="M385.333,-60.5282C385.333,-60.5282 366.667,-60.5282 366.667,-60.5282 361.333,-60.5282 356,-55.1948 356,-49.8615 356,-49.8615 356,-39.1948 356,-39.1948 356,-33.8615 361.333,-28.5282 366.667,-28.5282 366.667,-28.5282 385.333,-28.5282 385.333,-28.5282 390.667,-28.5282 396,-33.8615 396,-39.1948 396,-39.1948 396,-49.8615 396,-49.8615 396,-55.1948 390.667,-60.5282 385.333,-60.5282"/>
<text text-anchor="middle" x="376" y="-47.7282" font-family="Helvetica,sans-Serif" font-size="11.00">solr</text>
<text text-anchor="middle" x="376" y="-35.7282" font-family="Helvetica,sans-Serif" font-size="11.00">xwiki</text>
</g>
<!-- n1&#45;&gt;n4 -->
<g id="edge4" class="edge"><title>n1&#45;&gt;n4</title>
<path fill="none" stroke="black" d="M221.803,-76.5107C230.587,-71.2281 242.023,-65.1158 253,-61.5282 283.77,-51.4719 320.808,-47.3643 345.942,-45.6866"/>
<polygon fill="black" stroke="black" points="346.152,-49.1804 355.932,-45.1061 345.746,-42.1922 346.152,-49.1804"/>
<text text-anchor="middle" x="291" y="-64.3282" font-family="Helvetica,sans-Serif" font-size="9.00">0.014 reqs per sec</text>
</g>
<!-- n2 -->
<g id="node2" class="node"><title>n2</title>
<path fill="#b3e2cd" stroke="#b3e2cd" d="M44.3333,-102.528C44.3333,-102.528 10.6667,-102.528 10.6667,-102.528 5.33333,-102.528 0,-97.1948 0,-91.8615 0,-91.8615 0,-81.1948 0,-81.1948 0,-75.8615 5.33333,-70.5282 10.6667,-70.5282 10.6667,-70.5282 44.3333,-70.5282 44.3333,-70.5282 49.6667,-70.5282 55,-75.8615 55,-81.1948 55,-81.1948 55,-91.8615 55,-91.8615 55,-97.1948 49.6667,-102.528 44.3333,-102.528"/>
<text text-anchor="middle" x="27.5" y="-89.7282" font-family="Helvetica,sans-Serif" font-size="11.00">solr</text>
<text text-anchor="middle" x="27.5" y="-77.7282" font-family="Helvetica,sans-Serif" font-size="11.00">lyricsapi</text>
</g>
<!-- n2&#45;&gt;n1 -->
<g id="edge5" class="edge"><title>n2&#45;&gt;n1</title>
<path fill="none" stroke="black" d="M55.2306,-86.5282C87.4231,-86.5282 141.333,-86.5282 174.797,-86.5282"/>
<polygon fill="black" stroke="black" points="174.891,-90.0283 184.891,-86.5282 174.89,-83.0283 174.891,-90.0283"/>
<text text-anchor="middle" x="120" y="-89.3282" font-family="Helvetica,sans-Serif" font-size="9.00">0.003 reqs per sec</text>
</g>
<!-- n3&#45;&gt;n1 -->
<g id="edge1" class="edge"><title>n3&#45;&gt;n1</title>
<path fill="none" stroke="black" d="M355.959,-121.786C347.755,-118.635 337.997,-115.13 329,-112.528 297.751,-103.489 261.183,-96.1345 236.189,-91.583"/>
<polygon fill="black" stroke="black" points="236.694,-88.118 226.235,-89.8072 235.465,-95.0092 236.694,-88.118"/>
<text text-anchor="middle" x="291" y="-115.328" font-family="Helvetica,sans-Serif" font-size="9.00">2.737 reqs per sec</text>
</g>
<!-- n4&#45;&gt;n1 -->
<g id="edge3" class="edge"><title>n4&#45;&gt;n1</title>
<path fill="none" stroke="black" d="M358.592,-28.3787C350.412,-21.4517 339.941,-14.1328 329,-10.5282 296.918,0.0412074 282.465,5.98666 253,-10.5282 231.794,-22.4136 219.101,-48.3479 212.459,-66.6029"/>
<polygon fill="black" stroke="black" points="209.069,-65.7059 209.23,-76.2995 215.711,-67.9177 209.069,-65.7059"/>
<text text-anchor="middle" x="291" y="-13.3282" font-family="Helvetica,sans-Serif" font-size="9.00">0.007 reqs per sec</text>
</g>
</g>
</svg>
